<svg version="1.1" viewBox="0.0 0.0 716.0 371.0" fill="none" stroke="none" stroke-linecap="square" stroke-miterlimit="10" width="716" height="371" xmlns:xlink="http://www.w3.org/1999/xlink" xmlns="http://www.w3.org/2000/svg"><path fill="#ffffff" d="M0 0L716.0 0L716.0 371.0L0 371.0L0 0Z" fill-rule="nonzero"/><path stroke="#333333" stroke-width="1.0" stroke-linecap="butt" d="M45.5 298.5L697.5 298.5" fill-rule="nonzero"/><path stroke="#cccccc" stroke-width="1.0" stroke-linecap="butt" d="M45.5 228.5L697.5 228.5" fill-rule="nonzero"/><path stroke="#cccccc" stroke-width="1.0" stroke-linecap="butt" d="M45.5 159.5L697.5 159.5" fill-rule="nonzero"/><path stroke="#cccccc" stroke-width="1.0" stroke-linecap="butt" d="M45.5 89.5L697.5 89.5" fill-rule="nonzero"/><clipPath id="id_0"><path d="M45.55 89.78333L697.45 89.78333L697.45 298.45L45.55 298.45L45.55 89.78333Z" clip-rule="nonzero"/></clipPath><path stroke="#000000" stroke-width="0.0" stroke-linecap="butt" stroke-opacity="0.0" clip-path="url(#id_0)" d="M90.0 298.0L77.0 298.0L77.0 122.0C77.0 120.89543 77.89543 120.0 79.0 120.0L88.0 120.0C89.10457 120.0 90.0 120.89543 90.0 122.0Z" fill-rule="nonzero"/><path fill="#4285f4" clip-path="url(#id_0)" d="M90.0 298.0L77.0 298.0L77.0 122.0C77.0 120.89543 77.89543 120.0 79.0 120.0L88.0 120.0C89.10457 120.0 90.0 120.89543 90.0 122.0Z" fill-rule="nonzero"/><path stroke="#000000" stroke-width="0.0" stroke-linecap="butt" stroke-opacity="0.0" clip-path="url(#id_0)" d="M179.0 298.0L166.0 298.0L166.0 179.0C166.0 177.89543 166.89543 177.0 168.0 177.0L177.0 177.0C178.10457 177.0 179.0 177.89543 179.0 179.0Z" fill-rule="nonzero"/><path fill="#4285f4" clip-path="url(#id_0)" d="M179.0 298.0L166.0 298.0L166.0 179.0C166.0 177.89543 166.89543 177.0 168.0 177.0L177.0 177.0C178.10457 177.0 179.0 177.89543 179.0 179.0Z" fill-rule="nonzero"/><path stroke="#000000" stroke-width="0.0" stroke-linecap="butt" stroke-opacity="0.0" clip-path="url(#id_0)" d="M268.0 298.0L255.0 298.0L255.0 221.0C255.0 219.89543 255.89543 219.0 257.0 219.0L266.0 219.0C267.10458 219.0 268.0 219.89543 268.0 221.0Z" fill-rule="nonzero"/><path fill="#4285f4" clip-path="url(#id_0)" d="M268.0 298.0L255.0 298.0L255.0 221.0C255.0 219.89543 255.89543 219.0 257.0 219.0L266.0 219.0C267.10458 219.0 268.0 219.89543 268.0 221.0Z" fill-rule="nonzero"/><path stroke="#000000" stroke-width="0.0" stroke-linecap="butt" stroke-opacity="0.0" clip-path="url(#id_0)" d="M357.0 298.0L344.0 298.0L344.0 250.0C344.0 248.89543 344.89542 248.0 346.0 248.0L355.0 248.0C356.10458 248.0 357.0 248.89543 357.0 250.0Z" fill-rule="nonzero"/><path fill="#4285f4" clip-path="url(#id_0)" d="M357.0 298.0L344.0 298.0L344.0 250.0C344.0 248.89543 344.89542 248.0 346.0 248.0L355.0 248.0C356.10458 248.0 357.0 248.89543 357.0 250.0Z" fill-rule="nonzero"/><path stroke="#000000" stroke-width="0.0" stroke-linecap="butt" stroke-opacity="0.0" clip-path="url(#id_0)" d="M445.0 298.0L432.0 298.0L432.0 241.0C432.0 239.89543 432.89542 239.0 434.0 239.0L443.0 239.0C444.10458 239.0 445.0 239.89543 445.0 241.0Z" fill-rule="nonzero"/><path fill="#4285f4" clip-path="url(#id_0)" d="M445.0 298.0L432.0 298.0L432.0 241.0C432.0 239.89543 432.89542 239.0 434.0 239.0L443.0 239.0C444.10458 239.0 445.0 239.89543 445.0 241.0Z" fill-rule="nonzero"/><path stroke="#000000" stroke-width="0.0" stroke-linecap="butt" stroke-opacity="0.0" clip-path="url(#id_0)" d="M534.0 298.0L521.0 298.0L521.0 169.0C521.0 167.89543 521.89545 167.0 523.0 167.0L532.0 167.0C533.10455 167.0 534.0 167.89543 534.0 169.0Z" fill-rule="nonzero"/><path fill="#4285f4" clip-path="url(#id_0)" d="M534.0 298.0L521.0 298.0L521.0 169.0C521.0 167.89543 521.89545 167.0 523.0 167.0L532.0 167.0C533.10455 167.0 534.0 167.89543 534.0 169.0Z" fill-rule="nonzero"/><path stroke="#000000" stroke-width="0.0" stroke-linecap="butt" stroke-opacity="0.0" clip-path="url(#id_0)" d="M623.0 298.0L610.0 298.0L610.0 139.0C610.0 137.89543 610.89545 137.0 612.0 137.0L621.0 137.0C622.10455 137.0 623.0 137.89543 623.0 139.0Z" fill-rule="nonzero"/><path fill="#4285f4" clip-path="url(#id_0)" d="M623.0 298.0L610.0 298.0L610.0 139.0C610.0 137.89543 610.89545 137.0 612.0 137.0L621.0 137.0C622.10455 137.0 623.0 137.89543 623.0 139.0Z" fill-rule="nonzero"/><path stroke="#000000" stroke-width="0.0" stroke-linecap="butt" stroke-opacity="0.0" clip-path="url(#id_0)" d="M104.0 298.0L91.0 298.0L91.0 123.0C91.0 121.89543 91.89543 121.0 93.0 121.0L102.0 121.0C103.10457 121.0 104.0 121.89543 104.0 123.0Z" fill-rule="nonzero"/><path fill="#db4437" clip-path="url(#id_0)" d="M104.0 298.0L91.0 298.0L91.0 123.0C91.0 121.89543 91.89543 121.0 93.0 121.0L102.0 121.0C103.10457 121.0 104.0 121.89543 104.0 123.0Z" fill-rule="nonzero"/><path stroke="#000000" stroke-width="0.0" stroke-linecap="butt" stroke-opacity="0.0" clip-path="url(#id_0)" d="M193.0 298.0L180.0 298.0L180.0 185.0C180.0 183.89543 180.89543 183.0 182.0 183.0L191.0 183.0C192.10457 183.0 193.0 183.89543 193.0 185.0Z" fill-rule="nonzero"/><path fill="#db4437" clip-path="url(#id_0)" d="M193.0 298.0L180.0 298.0L180.0 185.0C180.0 183.89543 180.89543 183.0 182.0 183.0L191.0 183.0C192.10457 183.0 193.0 183.89543 193.0 185.0Z" fill-rule="nonzero"/><path stroke="#000000" stroke-width="0.0" stroke-linecap="butt" stroke-opacity="0.0" clip-path="url(#id_0)" d="M282.0 298.0L269.0 298.0L269.0 228.0C269.0 226.89543 269.89542 226.0 271.0 226.0L280.0 226.0C281.10458 226.0 282.0 226.89543 282.0 228.0Z" fill-rule="nonzero"/><path fill="#db4437" clip-path="url(#id_0)" d="M282.0 298.0L269.0 298.0L269.0 228.0C269.0 226.89543 269.89542 226.0 271.0 226.0L280.0 226.0C281.10458 226.0 282.0 226.89543 282.0 228.0Z" fill-rule="nonzero"/><path stroke="#000000" stroke-width="0.0" stroke-linecap="butt" stroke-opacity="0.0" clip-path="url(#id_0)" d="M371.0 298.0L358.0 298.0L358.0 256.0C358.0 254.89543 358.89542 254.0 360.0 254.0L369.0 254.0C370.10458 254.0 371.0 254.89543 371.0 256.0Z" fill-rule="nonzero"/><path fill="#db4437" clip-path="url(#id_0)" d="M371.0 298.0L358.0 298.0L358.0 256.0C358.0 254.89543 358.89542 254.0 360.0 254.0L369.0 254.0C370.10458 254.0 371.0 254.89543 371.0 256.0Z" fill-rule="nonzero"/><path stroke="#000000" stroke-width="0.0" stroke-linecap="butt" stroke-opacity="0.0" clip-path="url(#id_0)" d="M459.0 298.0L446.0 298.0L446.0 244.0C446.0 242.89543 446.89542 242.0 448.0 242.0L457.0 242.0C458.10458 242.0 459.0 242.89543 459.0 244.0Z" fill-rule="nonzero"/><path fill="#db4437" clip-path="url(#id_0)" d="M459.0 298.0L446.0 298.0L446.0 244.0C446.0 242.89543 446.89542 242.0 448.0 242.0L457.0 242.0C458.10458 242.0 459.0 242.89543 459.0 244.0Z" fill-rule="nonzero"/><path stroke="#000000" stroke-width="0.0" stroke-linecap="butt" stroke-opacity="0.0" clip-path="url(#id_0)" d="M548.0 298.0L535.0 298.0L535.0 176.0C535.0 174.89543 535.89545 174.0 537.0 174.0L546.0 174.0C547.10455 174.0 548.0 174.89543 548.0 176.0Z" fill-rule="nonzero"/><path fill="#db4437" clip-path="url(#id_0)" d="M548.0 298.0L535.0 298.0L535.0 176.0C535.0 174.89543 535.89545 174.0 537.0 174.0L546.0 174.0C547.10455 174.0 548.0 174.89543 548.0 176.0Z" fill-rule="nonzero"/><path stroke="#000000" stroke-width="0.0" stroke-linecap="butt" stroke-opacity="0.0" clip-path="url(#id_0)" d="M637.0 298.0L624.0 298.0L624.0 166.0C624.0 164.89543 624.89545 164.0 626.0 164.0L635.0 164.0C636.10455 164.0 637.0 164.89543 637.0 166.0Z" fill-rule="nonzero"/><path fill="#db4437" clip-path="url(#id_0)" d="M637.0 298.0L624.0 298.0L624.0 166.0C624.0 164.89543 624.89545 164.0 626.0 164.0L635.0 164.0C636.10455 164.0 637.0 164.89543 637.0 166.0Z" fill-rule="nonzero"/><path stroke="#000000" stroke-width="0.0" stroke-linecap="butt" stroke-opacity="0.0" clip-path="url(#id_0)" d="M118.0 298.0L105.0 298.0L105.0 139.0C105.0 137.89543 105.89543 137.0 107.0 137.0L116.0 137.0C117.10457 137.0 118.0 137.89543 118.0 139.0Z" fill-rule="nonzero"/><path fill="#f4b400" clip-path="url(#id_0)" d="M118.0 298.0L105.0 298.0L105.0 139.0C105.0 137.89543 105.89543 137.0 107.0 137.0L116.0 137.0C117.10457 137.0 118.0 137.89543 118.0 139.0Z" fill-rule="nonzero"/><path stroke="#000000" stroke-width="0.0" stroke-linecap="butt" stroke-opacity="0.0" clip-path="url(#id_0)" d="M207.0 298.0L194.0 298.0L194.0 195.0C194.0 193.89543 194.89543 193.0 196.0 193.0L205.0 193.0C206.10457 193.0 207.0 193.89543 207.0 195.0Z" fill-rule="nonzero"/><path fill="#f4b400" clip-path="url(#id_0)" d="M207.0 298.0L194.0 298.0L194.0 195.0C194.0 193.89543 194.89543 193.0 196.0 193.0L205.0 193.0C206.10457 193.0 207.0 193.89543 207.0 195.0Z" fill-rule="nonzero"/><path stroke="#000000" stroke-width="0.0" stroke-linecap="butt" stroke-opacity="0.0" clip-path="url(#id_0)" d="M296.0 298.0L283.0 298.0L283.0 235.0C283.0 233.89543 283.89542 233.0 285.0 233.0L294.0 233.0C295.10458 233.0 296.0 233.89543 296.0 235.0Z" fill-rule="nonzero"/><path fill="#f4b400" clip-path="url(#id_0)" d="M296.0 298.0L283.0 298.0L283.0 235.0C283.0 233.89543 283.89542 233.0 285.0 233.0L294.0 233.0C295.10458 233.0 296.0 233.89543 296.0 235.0Z" fill-rule="nonzero"/><path stroke="#000000" stroke-width="0.0" stroke-linecap="butt" stroke-opacity="0.0" clip-path="url(#id_0)" d="M385.0 298.0L372.0 298.0L372.0 260.0C372.0 258.89542 372.89542 258.0 374.0 258.0L383.0 258.0C384.10458 258.0 385.0 258.89542 385.0 260.0Z" fill-rule="nonzero"/><path fill="#f4b400" clip-path="url(#id_0)" d="M385.0 298.0L372.0 298.0L372.0 260.0C372.0 258.89542 372.89542 258.0 374.0 258.0L383.0 258.0C384.10458 258.0 385.0 258.89542 385.0 260.0Z" fill-rule="nonzero"/><path stroke="#000000" stroke-width="0.0" stroke-linecap="butt" stroke-opacity="0.0" clip-path="url(#id_0)" d="M473.0 298.0L460.0 298.0L460.0 248.0C460.0 246.89543 460.89542 246.0 462.0 246.0L471.0 246.0C472.10458 246.0 473.0 246.89543 473.0 248.0Z" fill-rule="nonzero"/><path fill="#f4b400" clip-path="url(#id_0)" d="M473.0 298.0L460.0 298.0L460.0 248.0C460.0 246.89543 460.89542 246.0 462.0 246.0L471.0 246.0C472.10458 246.0 473.0 246.89543 473.0 248.0Z" fill-rule="nonzero"/><path stroke="#000000" stroke-width="0.0" stroke-linecap="butt" stroke-opacity="0.0" clip-path="url(#id_0)" d="M562.0 298.0L549.0 298.0L549.0 182.0C549.0 180.89543 549.89545 180.0 551.0 180.0L560.0 180.0C561.10455 180.0 562.0 180.89543 562.0 182.0Z" fill-rule="nonzero"/><path fill="#f4b400" clip-path="url(#id_0)" d="M562.0 298.0L549.0 298.0L549.0 182.0C549.0 180.89543 549.89545 180.0 551.0 180.0L560.0 180.0C561.10455 180.0 562.0 180.89543 562.0 182.0Z" fill-rule="nonzero"/><path stroke="#000000" stroke-width="0.0" stroke-linecap="butt" stroke-opacity="0.0" clip-path="url(#id_0)" d="M651.0 298.0L638.0 298.0L638.0 178.0C638.0 176.89543 638.89545 176.0 640.0 176.0L649.0 176.0C650.10455 176.0 651.0 176.89543 651.0 178.0Z" fill-rule="nonzero"/><path fill="#f4b400" clip-path="url(#id_0)" d="M651.0 298.0L638.0 298.0L638.0 178.0C638.0 176.89543 638.89545 176.0 640.0 176.0L649.0 176.0C650.10455 176.0 651.0 176.89543 651.0 178.0Z" fill-rule="nonzero"/><path stroke="#000000" stroke-width="0.0" stroke-linecap="butt" stroke-opacity="0.0" clip-path="url(#id_0)" d="M132.0 298.0L119.0 298.0L119.0 124.0C119.0 122.89543 119.89543 122.0 121.0 122.0L130.0 122.0C131.10457 122.0 132.0 122.89543 132.0 124.0Z" fill-rule="nonzero"/><path fill="#0f9d58" clip-path="url(#id_0)" d="M132.0 298.0L119.0 298.0L119.0 124.0C119.0 122.89543 119.89543 122.0 121.0 122.0L130.0 122.0C131.10457 122.0 132.0 122.89543 132.0 124.0Z" fill-rule="nonzero"/><path stroke="#000000" stroke-width="0.0" stroke-linecap="butt" stroke-opacity="0.0" clip-path="url(#id_0)" d="M221.0 298.0L208.0 298.0L208.0 187.0C208.0 185.89543 208.89543 185.0 210.0 185.0L219.0 185.0C220.10457 185.0 221.0 185.89543 221.0 187.0Z" fill-rule="nonzero"/><path fill="#0f9d58" clip-path="url(#id_0)" d="M221.0 298.0L208.0 298.0L208.0 187.0C208.0 185.89543 208.89543 185.0 210.0 185.0L219.0 185.0C220.10457 185.0 221.0 185.89543 221.0 187.0Z" fill-rule="nonzero"/><path stroke="#000000" stroke-width="0.0" stroke-linecap="butt" stroke-opacity="0.0" clip-path="url(#id_0)" d="M310.0 298.0L297.0 298.0L297.0 231.0C297.0 229.89543 297.89542 229.0 299.0 229.0L308.0 229.0C309.10458 229.0 310.0 229.89543 310.0 231.0Z" fill-rule="nonzero"/><path fill="#0f9d58" clip-path="url(#id_0)" d="M310.0 298.0L297.0 298.0L297.0 231.0C297.0 229.89543 297.89542 229.0 299.0 229.0L308.0 229.0C309.10458 229.0 310.0 229.89543 310.0 231.0Z" fill-rule="nonzero"/><path stroke="#000000" stroke-width="0.0" stroke-linecap="butt" stroke-opacity="0.0" clip-path="url(#id_0)" d="M399.0 298.0L386.0 298.0L386.0 259.0C386.0 257.89542 386.89542 257.0 388.0 257.0L397.0 257.0C398.10458 257.0 399.0 257.89542 399.0 259.0Z" fill-rule="nonzero"/><path fill="#0f9d58" clip-path="url(#id_0)" d="M399.0 298.0L386.0 298.0L386.0 259.0C386.0 257.89542 386.89542 257.0 388.0 257.0L397.0 257.0C398.10458 257.0 399.0 257.89542 399.0 259.0Z" fill-rule="nonzero"/><path stroke="#000000" stroke-width="0.0" stroke-linecap="butt" stroke-opacity="0.0" clip-path="url(#id_0)" d="M487.0 298.0L474.0 298.0L474.0 245.0C474.0 243.89543 474.89542 243.0 476.0 243.0L485.0 243.0C486.10458 243.0 487.0 243.89543 487.0 245.0Z" fill-rule="nonzero"/><path fill="#0f9d58" clip-path="url(#id_0)" d="M487.0 298.0L474.0 298.0L474.0 245.0C474.0 243.89543 474.89542 243.0 476.0 243.0L485.0 243.0C486.10458 243.0 487.0 243.89543 487.0 245.0Z" fill-rule="nonzero"/><path stroke="#000000" stroke-width="0.0" stroke-linecap="butt" stroke-opacity="0.0" clip-path="url(#id_0)" d="M576.0 298.0L563.0 298.0L563.0 178.0C563.0 176.89543 563.89545 176.0 565.0 176.0L574.0 176.0C575.10455 176.0 576.0 176.89543 576.0 178.0Z" fill-rule="nonzero"/><path fill="#0f9d58" clip-path="url(#id_0)" d="M576.0 298.0L563.0 298.0L563.0 178.0C563.0 176.89543 563.89545 176.0 565.0 176.0L574.0 176.0C575.10455 176.0 576.0 176.89543 576.0 178.0Z" fill-rule="nonzero"/><path stroke="#000000" stroke-width="0.0" stroke-linecap="butt" stroke-opacity="0.0" clip-path="url(#id_0)" d="M665.0 298.0L652.0 298.0L652.0 174.0C652.0 172.89543 652.89545 172.0 654.0 172.0L663.0 172.0C664.10455 172.0 665.0 172.89543 665.0 174.0Z" fill-rule="nonzero"/><path fill="#0f9d58" clip-path="url(#id_0)" d="M665.0 298.0L652.0 298.0L652.0 174.0C652.0 172.89543 652.89545 172.0 654.0 172.0L663.0 172.0C664.10455 172.0 665.0 172.89543 665.0 174.0Z" fill-rule="nonzero"/><path fill="#424242" d="M364.85938 348.6844Q365.4375 348.6844 365.875 348.34064Q366.3125 347.98126 366.35938 347.45L367.39062 347.45Q367.35938 347.9969 367.0 348.4969Q366.65625 348.98126 366.07812 349.27814Q365.51562 349.575 364.85938 349.575Q363.5625 349.575 362.79688 348.71564Q362.04688 347.84064 362.04688 346.34064L362.04688 346.15314Q362.04688 345.23126 362.375 344.5125Q362.71875 343.79376 363.34375 343.40314Q363.98438 342.9969 364.85938 342.9969Q365.92188 342.9969 366.625 343.6375Q367.34375 344.2625 367.39062 345.29376L366.35938 345.29376Q366.3125 344.66876 365.89062 344.27814Q365.46875 343.8875 364.85938 343.8875Q364.03125 343.8875 363.57812 344.48126Q363.125 345.075 363.125 346.2L363.125 346.40314Q363.125 347.4969 363.57812 348.09064Q364.03125 348.6844 364.85938 348.6844ZM369.34375 343.10626L369.375 343.90314Q370.10938 342.9969 371.28125 342.9969Q373.29688 342.9969 373.3125 345.2625L373.3125 349.45L372.21875 349.45L372.21875 345.2469Q372.21875 344.575 371.90625 344.2469Q371.60938 343.91876 370.95312 343.91876Q370.42188 343.91876 370.01562 344.2Q369.625 344.48126 369.40625 344.9344L369.40625 349.45L368.32812 349.45L368.32812 343.10626L369.34375 343.10626ZM376.34375 343.10626L376.375 343.90314Q377.10938 342.9969 378.28125 342.9969Q380.29688 342.9969 380.3125 345.2625L380.3125 349.45L379.21875 349.45L379.21875 345.2469Q379.21875 344.575 378.90625 344.2469Q378.60938 343.91876 377.95312 343.91876Q377.42188 343.91876 377.01562 344.2Q376.625 344.48126 376.40625 344.9344L376.40625 349.45L375.32812 349.45L375.32812 343.10626L376.34375 343.10626Z" fill-rule="nonzero"/><path fill="#757575" d="M38.6125 299.3094Q38.6125 301.21564 37.95625 302.15314Q37.315624 303.075 35.925 303.075Q34.565624 303.075 33.909374 302.16876Q33.253124 301.2625 33.221874 299.45L33.221874 298.0125Q33.221874 296.1219 33.8625 295.21564Q34.51875 294.29376 35.909374 294.29376Q37.284374 294.29376 37.940624 295.1844Q38.596874 296.0594 38.6125 297.90314L38.6125 299.3094ZM37.51875 297.825Q37.51875 296.45 37.128124 295.825Q36.753124 295.1844 35.909374 295.1844Q35.08125 295.1844 34.690624 295.825Q34.315624 296.45 34.315624 297.7469L34.315624 299.48126Q34.315624 300.85626 34.70625 301.52814Q35.1125 302.1844 35.925 302.1844Q36.721874 302.1844 37.1125 301.5594Q37.503124 300.9344 37.51875 299.60626L37.51875 297.825Z" fill-rule="nonzero"/><path fill="#757575" d="M28.6125 229.75381Q28.6125 231.66006 27.95625 232.59756Q27.315624 233.51944 25.925 233.51944Q24.565624 233.51944 23.909374 232.61319Q23.253124 231.70694 23.221874 229.89444L23.221874 228.45694Q23.221874 226.56631 23.8625 225.66006Q24.51875 224.73819 25.909374 224.73819Q27.284374 224.73819 27.940624 225.62881Q28.596874 226.50381 28.6125 228.34756L28.6125 229.75381ZM27.51875 228.26944Q27.51875 226.89444 27.128124 226.26944Q26.753124 225.62881 25.909374 225.62881Q25.08125 225.62881 24.690624 226.26944Q24.315624 226.89444 24.315624 228.19131L24.315624 229.92569Q24.315624 231.30069 24.70625 231.97256Q25.1125 232.62881 25.925 232.62881Q26.721874 232.62881 27.1125 232.00381Q27.503124 231.37881 27.51875 230.05069L27.51875 228.26944ZM30.39375 232.83194Q30.39375 232.55069 30.55 232.36319Q30.721874 232.17569 31.05 232.17569Q31.39375 232.17569 31.565624 232.36319Q31.7375 232.55069 31.7375 232.83194Q31.7375 233.09756 31.565624 233.28506Q31.39375 233.45694 31.05 233.45694Q30.721874 233.45694 30.55 233.28506Q30.39375 233.09756 30.39375 232.83194ZM38.846874 233.39444L33.253124 233.39444L33.253124 232.61319L36.20625 229.33194Q36.8625 228.58194 37.1125 228.12881Q37.3625 227.66006 37.3625 227.16006Q37.3625 226.48819 36.95625 226.06631Q36.565624 225.62881 35.878124 225.62881Q35.08125 225.62881 34.628124 226.09756Q34.175 226.55069 34.175 227.37881L33.096874 227.37881Q33.096874 226.19131 33.846874 225.47256Q34.6125 224.73819 35.878124 224.73819Q37.08125 224.73819 37.76875 225.36319Q38.45625 225.98819 38.45625 227.03506Q38.45625 228.28506 36.846874 230.03506L34.565624 232.50381L38.846874 232.50381L38.846874 233.39444Z" fill-rule="nonzero"/><path fill="#757575" d="M28.6125 160.19826Q28.6125 162.1045 27.95625 163.042Q27.315624 163.96388 25.925 163.96388Q24.565624 163.96388 23.909374 163.05763Q23.253124 162.15138 23.221874 160.33888L23.221874 158.90138Q23.221874 157.01076 23.8625 156.1045Q24.51875 155.18263 25.909374 155.18263Q27.284374 155.18263 27.940624 156.07326Q28.596874 156.94826 28.6125 158.792L28.6125 160.19826ZM27.51875 158.71388Q27.51875 157.33888 27.128124 156.71388Q26.753124 156.07326 25.909374 156.07326Q25.08125 156.07326 24.690624 156.71388Q24.315624 157.33888 24.315624 158.63576L24.315624 160.37013Q24.315624 161.74513 24.70625 162.417Q25.1125 163.07326 25.925 163.07326Q26.721874 163.07326 27.1125 162.44826Q27.503124 161.82326 27.51875 160.49513L27.51875 158.71388ZM30.39375 163.27638Q30.39375 162.99513 30.55 162.80763Q30.721874 162.62013 31.05 162.62013Q31.39375 162.62013 31.565624 162.80763Q31.7375 162.99513 31.7375 163.27638Q31.7375 163.542 31.565624 163.7295Q31.39375 163.90138 31.05 163.90138Q30.721874 163.90138 30.55 163.7295Q30.39375 163.542 30.39375 163.27638ZM37.83125 160.9795L39.01875 160.9795L39.01875 161.8545L37.83125 161.8545L37.83125 163.83888L36.753124 163.83888L36.753124 161.8545L32.8625 161.8545L32.8625 161.21388L36.675 155.30763L37.83125 155.30763L37.83125 160.9795ZM34.096874 160.9795L36.753124 160.9795L36.753124 156.792L36.6125 157.02638L34.096874 160.9795Z" fill-rule="nonzero"/><path fill="#757575" d="M28.6125 90.64271Q28.6125 92.54896 27.95625 93.48646Q27.315624 94.40833 25.925 94.40833Q24.565624 94.40833 23.909374 93.50208Q23.253124 92.59583 23.221874 90.78333L23.221874 89.34583Q23.221874 87.45521 23.8625 86.54896Q24.51875 85.62708 25.909374 85.62708Q27.284374 85.62708 27.940624 86.51771Q28.596874 87.39271 28.6125 89.23646L28.6125 90.64271ZM27.51875 89.15833Q27.51875 87.78333 27.128124 87.15833Q26.753124 86.51771 25.909374 86.51771Q25.08125 86.51771 24.690624 87.15833Q24.315624 87.78333 24.315624 89.08021L24.315624 90.81458Q24.315624 92.18958 24.70625 92.86146Q25.1125 93.51771 25.925 93.51771Q26.721874 93.51771 27.1125 92.89271Q27.503124 92.26771 27.51875 90.93958L27.51875 89.15833ZM30.39375 93.72083Q30.39375 93.43958 30.55 93.25208Q30.721874 93.06458 31.05 93.06458Q31.39375 93.06458 31.565624 93.25208Q31.7375 93.43958 31.7375 93.72083Q31.7375 93.98646 31.565624 94.17396Q31.39375 94.34583 31.05 94.34583Q30.721874 94.34583 30.55 94.17396Q30.39375 93.98646 30.39375 93.72083ZM37.51875 85.75208L37.51875 86.65833L37.315624 86.65833Q36.05 86.68958 35.3 87.42396Q34.55 88.14271 34.425 89.45521Q35.1125 88.68958 36.26875 88.68958Q37.378124 88.68958 38.05 89.47083Q38.721874 90.25208 38.721874 91.50208Q38.721874 92.81458 38.003124 93.61146Q37.284374 94.40833 36.065624 94.40833Q34.846874 94.40833 34.08125 93.47083Q33.33125 92.51771 33.33125 91.03333L33.33125 90.62708Q33.33125 88.26771 34.33125 87.01771Q35.33125 85.76771 37.315624 85.75208L37.51875 85.75208ZM36.096874 89.59583Q35.534374 89.59583 35.065624 89.92396Q34.596874 90.25208 34.409374 90.76771L34.409374 91.15833Q34.409374 92.22083 34.878124 92.86146Q35.3625 93.50208 36.065624 93.50208Q36.8 93.50208 37.221874 92.97083Q37.64375 92.42396 37.64375 91.54896Q37.64375 90.67396 37.221874 90.14271Q36.8 89.59583 36.096874 89.59583Z" fill-rule="nonzero"/><path fill="#757575" d="M88.90274 316.45L88.90274 307.91876L91.699615 307.91876Q93.09024 307.91876 93.77774 308.4969Q94.480865 309.0594 94.480865 310.1844Q94.480865 310.79376 94.137115 311.2625Q93.80899 311.71564 93.21524 311.96564Q93.918365 312.15314 94.30899 312.7Q94.71524 313.23126 94.71524 313.98126Q94.71524 315.1375 93.96524 315.79376Q93.230865 316.45 91.87149 316.45L88.90274 316.45ZM90.02774 312.46564L90.02774 315.52814L91.887115 315.52814Q92.68399 315.52814 93.137115 315.1219Q93.59024 314.71564 93.59024 313.9969Q93.59024 312.46564 91.90274 312.46564L90.02774 312.46564ZM90.02774 311.5594L91.730865 311.5594Q92.46524 311.5594 92.90274 311.2Q93.355865 310.825 93.355865 310.1844Q93.355865 309.48126 92.949615 309.16876Q92.543365 308.84064 91.699615 308.84064L90.02774 308.84064L90.02774 311.5594ZM96.918365 316.45L95.84024 316.45L95.84024 307.45L96.918365 307.45L96.918365 316.45ZM101.37149 316.575Q100.074615 316.575 99.262115 315.73126Q98.46524 314.8719 98.46524 313.45L98.46524 313.2625Q98.46524 312.3094 98.824615 311.575Q99.18399 310.825 99.824615 310.41876Q100.480865 309.9969 101.230865 309.9969Q102.46524 309.9969 103.15274 310.8094Q103.84024 311.6219 103.84024 313.1375L103.84024 313.59064L99.543365 313.59064Q99.574615 314.52814 100.09024 315.10626Q100.62149 315.6844 101.43399 315.6844Q101.99649 315.6844 102.387115 315.45Q102.793365 315.21564 103.105865 314.825L103.762115 315.34064Q102.96524 316.575 101.37149 316.575ZM101.230865 310.8875Q100.574615 310.8875 100.12149 311.3719Q99.68399 311.84064 99.59024 312.7L102.762115 312.7L102.762115 312.6219Q102.71524 311.79376 102.30899 311.34064Q101.918365 310.8875 101.230865 310.8875ZM108.65274 315.825Q108.02774 316.575 106.793365 316.575Q105.77774 316.575 105.24649 315.98126Q104.71524 315.3875 104.71524 314.23126L104.71524 310.10626L105.793365 310.10626L105.793365 314.2Q105.793365 315.65314 106.96524 315.65314Q108.21524 315.65314 108.62149 314.71564L108.62149 310.10626L109.71524 310.10626L109.71524 316.45L108.68399 316.45L108.65274 315.825ZM116.30899 317.34064L110.949615 317.34064L110.949615 316.45L116.30899 316.45L116.30899 317.34064ZM120.18399 316.45L119.105865 316.45L119.105865 309.23126L116.918365 310.02814L116.918365 309.04376L120.02774 307.8719L120.18399 307.8719L120.18399 316.45Z" fill-rule="nonzero"/><path fill="#757575" d="M177.59662 316.45L177.59662 307.91876L180.3935 307.91876Q181.78412 307.91876 182.47162 308.4969Q183.17474 309.0594 183.17474 310.1844Q183.17474 310.79376 182.831 311.2625Q182.50287 311.71564 181.90912 311.96564Q182.61224 312.15314 183.00287 312.7Q183.40912 313.23126 183.40912 313.98126Q183.40912 315.1375 182.65912 315.79376Q181.92474 316.45 180.56537 316.45L177.59662 316.45ZM178.72162 312.46564L178.72162 315.52814L180.581 315.52814Q181.37787 315.52814 181.831 315.1219Q182.28412 314.71564 182.28412 313.9969Q182.28412 312.46564 180.59662 312.46564L178.72162 312.46564ZM178.72162 311.5594L180.42474 311.5594Q181.15912 311.5594 181.59662 311.2Q182.04974 310.825 182.04974 310.1844Q182.04974 309.48126 181.6435 309.16876Q181.23724 308.84064 180.3935 308.84064L178.72162 308.84064L178.72162 311.5594ZM185.61224 316.45L184.53412 316.45L184.53412 307.45L185.61224 307.45L185.61224 316.45ZM190.06537 316.575Q188.7685 316.575 187.956 315.73126Q187.15912 314.8719 187.15912 313.45L187.15912 313.2625Q187.15912 312.3094 187.5185 311.575Q187.87787 310.825 188.5185 310.41876Q189.17474 309.9969 189.92474 309.9969Q191.15912 309.9969 191.84662 310.8094Q192.53412 311.6219 192.53412 313.1375L192.53412 313.59064L188.23724 313.59064Q188.2685 314.52814 188.78412 315.10626Q189.31537 315.6844 190.12787 315.6844Q190.69037 315.6844 191.081 315.45Q191.48724 315.21564 191.79974 314.825L192.456 315.34064Q191.65912 316.575 190.06537 316.575ZM189.92474 310.8875Q189.2685 310.8875 188.81537 311.3719Q188.37787 311.84064 188.28412 312.7L191.456 312.7L191.456 312.6219Q191.40912 311.79376 191.00287 311.34064Q190.61224 310.8875 189.92474 310.8875ZM197.34662 315.825Q196.72162 316.575 195.48724 316.575Q194.47162 316.575 193.94037 315.98126Q193.40912 315.3875 193.40912 314.23126L193.40912 310.10626L194.48724 310.10626L194.48724 314.2Q194.48724 315.65314 195.65912 315.65314Q196.90912 315.65314 197.31537 314.71564L197.31537 310.10626L198.40912 310.10626L198.40912 316.45L197.37787 316.45L197.34662 315.825ZM205.00287 317.34064L199.6435 317.34064L199.6435 316.45L205.00287 316.45L205.00287 317.34064ZM210.90912 316.45L205.31537 316.45L205.31537 315.66876L208.2685 312.3875Q208.92474 311.6375 209.17474 311.1844Q209.42474 310.71564 209.42474 310.21564Q209.42474 309.54376 209.0185 309.1219Q208.62787 308.6844 207.94037 308.6844Q207.1435 308.6844 206.69037 309.15314Q206.23724 309.60626 206.23724 310.4344L205.15912 310.4344Q205.15912 309.2469 205.90912 308.52814Q206.67474 307.79376 207.94037 307.79376Q209.1435 307.79376 209.831 308.41876Q210.5185 309.04376 210.5185 310.09064Q210.5185 311.34064 208.90912 313.09064L206.62787 315.5594L210.90912 315.5594L210.90912 316.45Z" fill-rule="nonzero"/><path fill="#757575" d="M266.2905 316.45L266.2905 307.91876L269.08737 307.91876Q270.478 307.91876 271.1655 308.4969Q271.86862 309.0594 271.86862 310.1844Q271.86862 310.79376 271.52487 311.2625Q271.19675 311.71564 270.603 311.96564Q271.30612 312.15314 271.69675 312.7Q272.103 313.23126 272.103 313.98126Q272.103 315.1375 271.353 315.79376Q270.61862 316.45 269.25925 316.45L266.2905 316.45ZM267.4155 312.46564L267.4155 315.52814L269.27487 315.52814Q270.07175 315.52814 270.52487 315.1219Q270.978 314.71564 270.978 313.9969Q270.978 312.46564 269.2905 312.46564L267.4155 312.46564ZM267.4155 311.5594L269.11862 311.5594Q269.853 311.5594 270.2905 311.2Q270.74362 310.825 270.74362 310.1844Q270.74362 309.48126 270.33737 309.16876Q269.93112 308.84064 269.08737 308.84064L267.4155 308.84064L267.4155 311.5594ZM274.30612 316.45L273.228 316.45L273.228 307.45L274.30612 307.45L274.30612 316.45ZM278.75925 316.575Q277.46237 316.575 276.64987 315.73126Q275.853 314.8719 275.853 313.45L275.853 313.2625Q275.853 312.3094 276.21237 311.575Q276.57175 310.825 277.21237 310.41876Q277.86862 309.9969 278.61862 309.9969Q279.853 309.9969 280.5405 310.8094Q281.228 311.6219 281.228 313.1375L281.228 313.59064L276.93112 313.59064Q276.96237 314.52814 277.478 315.10626Q278.00925 315.6844 278.82175 315.6844Q279.38425 315.6844 279.77487 315.45Q280.18112 315.21564 280.49362 314.825L281.14987 315.34064Q280.353 316.575 278.75925 316.575ZM278.61862 310.8875Q277.96237 310.8875 277.50925 311.3719Q277.07175 311.84064 276.978 312.7L280.14987 312.7L280.14987 312.6219Q280.103 311.79376 279.69675 311.34064Q279.30612 310.8875 278.61862 310.8875ZM286.0405 315.825Q285.4155 316.575 284.18112 316.575Q283.1655 316.575 282.63425 315.98126Q282.103 315.3875 282.103 314.23126L282.103 310.10626L283.18112 310.10626L283.18112 314.2Q283.18112 315.65314 284.353 315.65314Q285.603 315.65314 286.00925 314.71564L286.00925 310.10626L287.103 310.10626L287.103 316.45L286.07175 316.45L286.0405 315.825ZM293.69675 317.34064L288.33737 317.34064L288.33737 316.45L293.69675 316.45L293.69675 317.34064ZM295.58737 311.65314L296.39987 311.65314Q297.18112 311.6375 297.61862 311.2469Q298.05612 310.85626 298.05612 310.1844Q298.05612 308.6844 296.55612 308.6844Q295.853 308.6844 295.43112 309.09064Q295.02487 309.4969 295.02487 310.15314L293.93112 310.15314Q293.93112 309.1375 294.6655 308.46564Q295.4155 307.79376 296.55612 307.79376Q297.75925 307.79376 298.44675 308.4344Q299.13425 309.075 299.13425 310.21564Q299.13425 310.77814 298.77487 311.29376Q298.4155 311.8094 297.7905 312.075Q298.49362 312.29376 298.86862 312.8094Q299.25925 313.325 299.25925 314.075Q299.25925 315.21564 298.50925 315.90314Q297.75925 316.575 296.55612 316.575Q295.36862 316.575 294.603 315.91876Q293.853 315.2625 293.853 314.2L294.94675 314.2Q294.94675 314.8719 295.38425 315.27814Q295.82175 315.6844 296.57175 315.6844Q297.353 315.6844 297.75925 315.27814Q298.18112 314.85626 298.18112 314.09064Q298.18112 313.35626 297.728 312.96564Q297.27487 312.5594 296.39987 312.54376L295.58737 312.54376L295.58737 311.65314Z" fill-rule="nonzero"/><path fill="#757575" d="M354.98438 316.45L354.98438 307.91876L357.78125 307.91876Q359.17188 307.91876 359.85938 308.4969Q360.5625 309.0594 360.5625 310.1844Q360.5625 310.79376 360.21875 311.2625Q359.89062 311.71564 359.29688 311.96564Q360.0 312.15314 360.39062 312.7Q360.79688 313.23126 360.79688 313.98126Q360.79688 315.1375 360.04688 315.79376Q359.3125 316.45 357.95312 316.45L354.98438 316.45ZM356.10938 312.46564L356.10938 315.52814L357.96875 315.52814Q358.76562 315.52814 359.21875 315.1219Q359.67188 314.71564 359.67188 313.9969Q359.67188 312.46564 357.98438 312.46564L356.10938 312.46564ZM356.10938 311.5594L357.8125 311.5594Q358.54688 311.5594 358.98438 311.2Q359.4375 310.825 359.4375 310.1844Q359.4375 309.48126 359.03125 309.16876Q358.625 308.84064 357.78125 308.84064L356.10938 308.84064L356.10938 311.5594ZM363.0 316.45L361.92188 316.45L361.92188 307.45L363.0 307.45L363.0 316.45ZM367.45312 316.575Q366.15625 316.575 365.34375 315.73126Q364.54688 314.8719 364.54688 313.45L364.54688 313.2625Q364.54688 312.3094 364.90625 311.575Q365.26562 310.825 365.90625 310.41876Q366.5625 309.9969 367.3125 309.9969Q368.54688 309.9969 369.23438 310.8094Q369.92188 311.6219 369.92188 313.1375L369.92188 313.59064L365.625 313.59064Q365.65625 314.52814 366.17188 315.10626Q366.70312 315.6844 367.51562 315.6844Q368.07812 315.6844 368.46875 315.45Q368.875 315.21564 369.1875 314.825L369.84375 315.34064Q369.04688 316.575 367.45312 316.575ZM367.3125 310.8875Q366.65625 310.8875 366.20312 311.3719Q365.76562 311.84064 365.67188 312.7L368.84375 312.7L368.84375 312.6219Q368.79688 311.79376 368.39062 311.34064Q368.0 310.8875 367.3125 310.8875ZM374.73438 315.825Q374.10938 316.575 372.875 316.575Q371.85938 316.575 371.32812 315.98126Q370.79688 315.3875 370.79688 314.23126L370.79688 310.10626L371.875 310.10626L371.875 314.2Q371.875 315.65314 373.04688 315.65314Q374.29688 315.65314 374.70312 314.71564L374.70312 310.10626L375.79688 310.10626L375.79688 316.45L374.76562 316.45L374.73438 315.825ZM382.39062 317.34064L377.03125 317.34064L377.03125 316.45L382.39062 316.45L382.39062 317.34064ZM387.28125 313.59064L388.46875 313.59064L388.46875 314.46564L387.28125 314.46564L387.28125 316.45L386.20312 316.45L386.20312 314.46564L382.3125 314.46564L382.3125 313.825L386.125 307.91876L387.28125 307.91876L387.28125 313.59064ZM383.54688 313.59064L386.20312 313.59064L386.20312 309.40314L386.0625 309.6375L383.54688 313.59064Z" fill-rule="nonzero"/><path fill="#757575" d="M439.63138 307.91876L442.42825 314.8719L445.2095 307.91876L446.67825 307.91876L446.67825 316.45L445.55325 316.45L445.55325 313.1219L445.66263 309.54376L442.85013 316.45L441.99075 316.45L439.19388 309.5594L439.30325 313.1219L439.30325 316.45L438.17825 316.45L438.17825 307.91876L439.63138 307.91876ZM453.00638 312.5125L449.30325 312.5125L449.30325 315.52814L453.60013 315.52814L453.60013 316.45L448.17825 316.45L448.17825 307.91876L453.55325 307.91876L453.55325 308.84064L449.30325 308.84064L449.30325 311.59064L453.00638 311.59064L453.00638 312.5125ZM461.0845 308.84064L458.3345 308.84064L458.3345 316.45L457.22513 316.45L457.22513 308.84064L454.47513 308.84064L454.47513 307.91876L461.0845 307.91876L461.0845 308.84064ZM467.00638 312.5125L463.30325 312.5125L463.30325 315.52814L467.60013 315.52814L467.60013 316.45L462.17825 316.45L462.17825 307.91876L467.55325 307.91876L467.55325 308.84064L463.30325 308.84064L463.30325 311.59064L467.00638 311.59064L467.00638 312.5125ZM475.74075 312.46564Q475.74075 313.71564 475.31888 314.65314Q474.897 315.575 474.11575 316.075Q473.35013 316.575 472.31888 316.575Q471.31888 316.575 470.53763 316.075Q469.75638 315.575 469.31888 314.66876Q468.897 313.7469 468.88138 312.52814L468.88138 311.91876Q468.88138 310.6844 469.30325 309.7469Q469.74075 308.8094 470.522 308.3094Q471.30325 307.79376 472.31888 307.79376Q473.3345 307.79376 474.11575 308.29376Q474.897 308.79376 475.31888 309.73126Q475.74075 310.66876 475.74075 311.91876L475.74075 312.46564ZM474.63138 311.90314Q474.63138 310.3875 474.022 309.575Q473.41263 308.7625 472.31888 308.7625Q471.24075 308.7625 470.63138 309.575Q470.022 310.3875 470.00638 311.825L470.00638 312.46564Q470.00638 313.9344 470.61575 314.77814Q471.24075 315.60626 472.31888 315.60626Q473.41263 315.60626 474.00638 314.825Q474.61575 314.02814 474.63138 312.54376L474.63138 311.90314ZM480.31888 312.9969L478.30325 312.9969L478.30325 316.45L477.17825 316.45L477.17825 307.91876L480.00638 307.91876Q481.44388 307.91876 482.2095 308.575Q482.99075 309.23126 482.99075 310.48126Q482.99075 311.27814 482.55325 311.8719Q482.13138 312.46564 481.36575 312.7625L483.36575 316.3719L483.36575 316.45L482.16263 316.45L480.31888 312.9969ZM478.30325 312.075L480.03763 312.075Q480.88138 312.075 481.36575 311.65314Q481.86575 311.21564 481.86575 310.48126Q481.86575 309.7 481.397 309.27814Q480.92825 308.85626 480.03763 308.84064L478.30325 308.84064L478.30325 312.075Z" fill-rule="nonzero"/><path fill="#757575" d="M528.51276 312.9969L526.49713 312.9969L526.49713 316.45L525.37213 316.45L525.37213 307.91876L528.20026 307.91876Q529.63776 307.91876 530.4034 308.575Q531.18463 309.23126 531.18463 310.48126Q531.18463 311.27814 530.74713 311.8719Q530.32526 312.46564 529.55963 312.7625L531.55963 316.3719L531.55963 316.45L530.3565 316.45L528.51276 312.9969ZM526.49713 312.075L528.2315 312.075Q529.07526 312.075 529.55963 311.65314Q530.05963 311.21564 530.05963 310.48126Q530.05963 309.7 529.5909 309.27814Q529.12213 308.85626 528.2315 308.84064L526.49713 308.84064L526.49713 312.075ZM538.93463 312.46564Q538.93463 313.71564 538.51276 314.65314Q538.0909 315.575 537.30963 316.075Q536.544 316.575 535.51276 316.575Q534.51276 316.575 533.7315 316.075Q532.95026 315.575 532.51276 314.66876Q532.0909 313.7469 532.07526 312.52814L532.07526 311.91876Q532.07526 310.6844 532.49713 309.7469Q532.93463 308.8094 533.7159 308.3094Q534.49713 307.79376 535.51276 307.79376Q536.5284 307.79376 537.30963 308.29376Q538.0909 308.79376 538.51276 309.73126Q538.93463 310.66876 538.93463 311.91876L538.93463 312.46564ZM537.82526 311.90314Q537.82526 310.3875 537.2159 309.575Q536.6065 308.7625 535.51276 308.7625Q534.43463 308.7625 533.82526 309.575Q533.2159 310.3875 533.20026 311.825L533.20026 312.46564Q533.20026 313.9344 533.80963 314.77814Q534.43463 315.60626 535.51276 315.60626Q536.6065 315.60626 537.20026 314.825Q537.80963 314.02814 537.82526 312.54376L537.82526 311.90314ZM546.38776 307.91876L546.38776 313.71564Q546.37213 314.91876 545.62213 315.7Q544.87213 316.46564 543.5909 316.5594L543.2784 316.575Q541.88776 316.575 541.044 315.825Q540.2159 315.0594 540.2159 313.73126L540.2159 307.91876L541.32526 307.91876L541.32526 313.7Q541.32526 314.6219 541.82526 315.1375Q542.3409 315.65314 543.2784 315.65314Q544.24713 315.65314 544.74713 315.1375Q545.24713 314.6219 545.24713 313.7L545.24713 307.91876L546.38776 307.91876ZM554.68463 315.325Q554.24713 315.95 553.4659 316.2625Q552.68463 316.575 551.6534 316.575Q550.62213 316.575 549.80963 316.09064Q548.99713 315.59064 548.55963 314.6844Q548.12213 313.77814 548.1065 312.59064L548.1065 311.85626Q548.1065 309.91876 548.99713 308.85626Q549.9034 307.79376 551.5284 307.79376Q552.87213 307.79376 553.68463 308.48126Q554.49713 309.16876 554.68463 310.41876L553.55963 310.41876Q553.2315 308.73126 551.544 308.73126Q550.4034 308.73126 549.82526 309.52814Q549.24713 310.3094 549.2315 311.825L549.2315 312.5125Q549.2315 313.95 549.88776 314.8094Q550.544 315.65314 551.669 315.65314Q552.294 315.65314 552.76276 315.5125Q553.24713 315.3719 553.55963 315.02814L553.55963 313.1219L551.5909 313.1219L551.5909 312.2L554.68463 312.2L554.68463 315.325ZM561.20026 312.5125L557.49713 312.5125L557.49713 315.52814L561.794 315.52814L561.794 316.45L556.37213 316.45L556.37213 307.91876L561.74713 307.91876L561.74713 308.84064L557.49713 308.84064L557.49713 311.59064L561.20026 311.59064L561.20026 312.5125ZM567.7784 317.34064L562.419 317.34064L562.419 316.45L567.7784 316.45L567.7784 317.34064ZM569.51276 315.52814L573.55963 315.52814L573.55963 316.45L568.37213 316.45L568.37213 307.91876L569.51276 307.91876L569.51276 315.52814Z" fill-rule="nonzero"/><path fill="#757575" d="M629.8472 313.7469Q629.691 315.09064 628.8472 315.84064Q628.0035 316.575 626.61285 316.575Q625.0972 316.575 624.191 315.4969Q623.2847 314.40314 623.2847 312.575L623.2847 311.7625Q623.2847 310.575 623.7066 309.66876Q624.1285 308.7625 624.9097 308.27814Q625.691 307.79376 626.7066 307.79376Q628.066 307.79376 628.8785 308.5594Q629.7066 309.325 629.8472 310.65314L628.7222 310.65314Q628.566 309.6375 628.0816 309.1844Q627.5972 308.73126 626.7066 308.73126Q625.6285 308.73126 625.0191 309.52814Q624.4097 310.325 624.4097 311.79376L624.4097 312.6219Q624.4097 314.0125 624.98785 314.84064Q625.566 315.65314 626.61285 315.65314Q627.55035 315.65314 628.05035 315.23126Q628.55035 314.79376 628.7222 313.7469L629.8472 313.7469ZM632.7847 316.45L631.6597 316.45L631.6597 307.91876L632.7847 307.91876L632.7847 316.45ZM634.566 316.45L634.566 307.91876L636.98785 307.91876Q638.0972 307.91876 638.941 308.41876Q639.80035 308.90314 640.2691 309.8094Q640.73785 310.71564 640.73785 311.90314L640.73785 312.4344Q640.73785 313.65314 640.2691 314.5594Q639.816 315.46564 638.941 315.95Q638.0816 316.4344 636.941 316.45L634.566 316.45ZM635.691 308.84064L635.691 315.52814L636.8785 315.52814Q638.17535 315.52814 638.8941 314.73126Q639.6285 313.91876 639.6285 312.41876L639.6285 311.91876Q639.6285 310.46564 638.941 309.66876Q638.2691 308.85626 637.0035 308.84064L635.691 308.84064ZM647.3941 312.5125L643.691 312.5125L643.691 315.52814L647.98785 315.52814L647.98785 316.45L642.566 316.45L642.566 307.91876L647.941 307.91876L647.941 308.84064L643.691 308.84064L643.691 311.59064L647.3941 311.59064L647.3941 312.5125ZM652.4722 311.075Q652.2222 311.04376 651.941 311.04376Q650.86285 311.04376 650.48785 311.95L650.48785 316.45L649.4097 316.45L649.4097 310.10626L650.4566 310.10626L650.4722 310.84064Q651.0035 309.9969 651.98785 309.9969Q652.30035 309.9969 652.4722 310.075L652.4722 311.075Z" fill-rule="nonzero"/><path fill="#4285f4" d="M160.5 57.416668C160.5 56.864384 160.94771 56.416668 161.5 56.416668L171.5 56.416668C172.05229 56.416668 172.5 56.864384 172.5 57.416668L172.5 67.416664C172.5 67.96895 172.05229 68.416664 171.5 68.416664L161.5 68.416664C160.94771 68.416664 160.5 67.96895 160.5 67.416664Z" fill-rule="nonzero"/><path fill="#757575" d="M182.5 66.916664L181.42188 66.916664L181.42188 60.572914L182.5 60.572914L182.5 66.916664ZM181.32812 58.90104Q181.32812 58.635414 181.48438 58.447914Q181.65625 58.260414 181.96875 58.260414Q182.28125 58.260414 182.4375 58.447914Q182.60938 58.635414 182.60938 58.90104Q182.60938 59.15104 182.4375 59.33854Q182.28125 59.510414 181.96875 59.510414Q181.65625 59.510414 181.48438 59.33854Q181.32812 59.15104 181.32812 58.90104ZM185.34375 60.572914L185.375 61.36979Q186.10938 60.46354 187.28125 60.46354Q189.29688 60.46354 189.3125 62.729164L189.3125 66.916664L188.21875 66.916664L188.21875 62.71354Q188.21875 62.041664 187.90625 61.71354Q187.60938 61.385414 186.95312 61.385414Q186.42188 61.385414 186.01562 61.666664Q185.625 61.947914 185.40625 62.40104L185.40625 66.916664L184.32812 66.916664L184.32812 60.572914L185.34375 60.572914ZM193.85938 66.15104Q194.4375 66.15104 194.875 65.80729Q195.3125 65.447914 195.35938 64.916664L196.39062 64.916664Q196.35938 65.46354 196.0 65.96354Q195.65625 66.447914 195.07812 66.74479Q194.51562 67.041664 193.85938 67.041664Q192.5625 67.041664 191.79688 66.18229Q191.04688 65.30729 191.04688 63.80729L191.04688 63.61979Q191.04688 62.697914 191.375 61.979164Q191.71875 61.260414 192.34375 60.86979Q192.98438 60.46354 193.85938 60.46354Q194.92188 60.46354 195.625 61.104164Q196.34375 61.729164 196.39062 62.760414L195.35938 62.760414Q195.3125 62.135414 194.89062 61.74479Q194.46875 61.354164 193.85938 61.354164Q193.03125 61.354164 192.57812 61.947914Q192.125 62.541664 192.125 63.666664L192.125 63.86979Q192.125 64.96354 192.57812 65.55729Q193.03125 66.15104 193.85938 66.15104ZM199.95312 67.041664Q198.65625 67.041664 197.84375 66.197914Q197.04688 65.33854 197.04688 63.916664L197.04688 63.729164Q197.04688 62.77604 197.40625 62.041664Q197.76562 61.291664 198.40625 60.885414Q199.0625 60.46354 199.8125 60.46354Q201.04688 60.46354 201.73438 61.27604Q202.42188 62.08854 202.42188 63.604164L202.42188 64.05729L198.125 64.05729Q198.15625 64.99479 198.67188 65.572914Q199.20312 66.15104 200.01562 66.15104Q200.57812 66.15104 200.96875 65.916664Q201.375 65.68229 201.6875 65.291664L202.34375 65.80729Q201.54688 67.041664 199.95312 67.041664ZM199.8125 61.354164Q199.15625 61.354164 198.70312 61.83854Q198.26562 62.30729 198.17188 63.166664L201.34375 63.166664L201.34375 63.08854Q201.29688 62.260414 200.89062 61.80729Q200.5 61.354164 199.8125 61.354164ZM208.67188 63.822914Q208.67188 65.260414 208.01562 66.15104Q207.35938 67.041664 206.21875 67.041664Q205.0625 67.041664 204.40625 66.30729L204.40625 69.354164L203.32812 69.354164L203.32812 60.572914L204.3125 60.572914L204.35938 61.27604Q205.03125 60.46354 206.20312 60.46354Q207.34375 60.46354 208.0 61.322914Q208.67188 62.18229 208.67188 63.71354L208.67188 63.822914ZM207.59375 63.697914Q207.59375 62.61979 207.125 62.010414Q206.67188 61.385414 205.875 61.385414Q204.89062 61.385414 204.40625 62.24479L204.40625 65.27604Q204.89062 66.15104 205.89062 66.15104Q206.67188 66.15104 207.125 65.541664Q207.59375 64.916664 207.59375 63.697914ZM211.79688 59.041664L211.79688 60.572914L212.96875 60.572914L212.96875 61.416664L211.79688 61.416664L211.79688 65.33854Q211.79688 65.729164 211.95312 65.916664Q212.10938 66.104164 212.48438 66.104164Q212.67188 66.104164 213.0 66.041664L213.0 66.916664Q212.57812 67.041664 212.17188 67.041664Q211.45312 67.041664 211.07812 66.604164Q210.70312 66.15104 210.70312 65.33854L210.70312 61.416664L209.54688 61.416664L209.54688 60.572914L210.70312 60.572914L210.70312 59.041664L211.79688 59.041664ZM215.5 66.916664L214.42188 66.916664L214.42188 60.572914L215.5 60.572914L215.5 66.916664ZM214.32812 58.90104Q214.32812 58.635414 214.48438 58.447914Q214.65625 58.260414 214.96875 58.260414Q215.28125 58.260414 215.4375 58.447914Q215.60938 58.635414 215.60938 58.90104Q215.60938 59.15104 215.4375 59.33854Q215.28125 59.510414 214.96875 59.510414Q214.65625 59.510414 214.48438 59.33854Q214.32812 59.15104 214.32812 58.90104ZM217.03125 63.68229Q217.03125 62.760414 217.39062 62.010414Q217.76562 61.260414 218.42188 60.86979Q219.07812 60.46354 219.90625 60.46354Q221.20312 60.46354 222.0 61.354164Q222.8125 62.24479 222.8125 63.74479L222.8125 63.822914Q222.8125 64.74479 222.45312 65.479164Q222.09375 66.21354 221.4375 66.635414Q220.78125 67.041664 219.92188 67.041664Q218.64062 67.041664 217.82812 66.15104Q217.03125 65.24479 217.03125 63.760414L217.03125 63.68229ZM218.125 63.822914Q218.125 64.86979 218.60938 65.510414Q219.10938 66.15104 219.92188 66.15104Q220.75 66.15104 221.23438 65.510414Q221.71875 64.854164 221.71875 63.68229Q221.71875 62.65104 221.21875 62.010414Q220.73438 61.354164 219.90625 61.354164Q219.10938 61.354164 218.60938 61.99479Q218.125 62.61979 218.125 63.822914ZM225.34375 60.572914L225.375 61.36979Q226.10938 60.46354 227.28125 60.46354Q229.29688 60.46354 229.3125 62.729164L229.3125 66.916664L228.21875 66.916664L228.21875 62.71354Q228.21875 62.041664 227.90625 61.71354Q227.60938 61.385414 226.95312 61.385414Q226.42188 61.385414 226.01562 61.666664Q225.625 61.947914 225.40625 62.40104L225.40625 66.916664L224.32812 66.916664L224.32812 60.572914L225.34375 60.572914ZM235.89062 67.80729L230.53125 67.80729L230.53125 66.916664L235.89062 66.916664L235.89062 67.80729ZM239.39062 61.541664Q239.14062 61.510414 238.85938 61.510414Q237.78125 61.510414 237.40625 62.416664L237.40625 66.916664L236.32812 66.916664L236.32812 60.572914L237.375 60.572914L237.39062 61.30729Q237.92188 60.46354 238.90625 60.46354Q239.21875 60.46354 239.39062 60.541664L239.39062 61.541664ZM242.95312 67.041664Q241.65625 67.041664 240.84375 66.197914Q240.04688 65.33854 240.04688 63.916664L240.04688 63.729164Q240.04688 62.77604 240.40625 62.041664Q240.76562 61.291664 241.40625 60.885414Q242.0625 60.46354 242.8125 60.46354Q244.04688 60.46354 244.73438 61.27604Q245.42188 62.08854 245.42188 63.604164L245.42188 64.05729L241.125 64.05729Q241.15625 64.99479 241.67188 65.572914Q242.20312 66.15104 243.01562 66.15104Q243.57812 66.15104 243.96875 65.916664Q244.375 65.68229 244.6875 65.291664L245.34375 65.80729Q244.54688 67.041664 242.95312 67.041664ZM242.8125 61.354164Q242.15625 61.354164 241.70312 61.83854Q241.26562 62.30729 241.17188 63.166664L244.34375 63.166664L244.34375 63.08854Q244.29688 62.260414 243.89062 61.80729Q243.5 61.354164 242.8125 61.354164ZM250.01562 65.229164Q250.01562 64.791664 249.67188 64.55729Q249.34375 64.30729 248.51562 64.135414Q247.70312 63.96354 247.21875 63.71354Q246.73438 63.46354 246.5 63.135414Q246.28125 62.791664 246.28125 62.322914Q246.28125 61.541664 246.9375 61.010414Q247.59375 60.46354 248.625 60.46354Q249.70312 60.46354 250.35938 61.02604Q251.03125 61.572914 251.03125 62.43229L249.95312 62.43229Q249.95312 61.99479 249.5625 61.68229Q249.1875 61.354164 248.625 61.354164Q248.03125 61.354164 247.6875 61.61979Q247.35938 61.86979 247.35938 62.27604Q247.35938 62.666664 247.67188 62.86979Q247.98438 63.072914 248.79688 63.260414Q249.60938 63.43229 250.10938 63.68229Q250.60938 63.93229 250.84375 64.291664Q251.09375 64.65104 251.09375 65.15104Q251.09375 66.010414 250.40625 66.52604Q249.73438 67.041664 248.65625 67.041664Q247.89062 67.041664 247.29688 66.77604Q246.71875 66.49479 246.39062 66.010414Q246.0625 65.52604 246.0625 64.96354L247.14062 64.96354Q247.17188 65.510414 247.57812 65.83854Q247.98438 66.15104 248.65625 66.15104Q249.26562 66.15104 249.64062 65.90104Q250.01562 65.65104 250.01562 65.229164ZM253.34375 60.572914L253.375 61.36979Q254.10938 60.46354 255.28125 60.46354Q257.29688 60.46354 257.3125 62.729164L257.3125 66.916664L256.21875 66.916664L256.21875 62.71354Q256.21875 62.041664 255.90625 61.71354Q255.60938 61.385414 254.95312 61.385414Q254.42188 61.385414 254.01562 61.666664Q253.625 61.947914 253.40625 62.40104L253.40625 66.916664L252.32812 66.916664L252.32812 60.572914L253.34375 60.572914ZM261.95312 67.041664Q260.65625 67.041664 259.84375 66.197914Q259.04688 65.33854 259.04688 63.916664L259.04688 63.729164Q259.04688 62.77604 259.40625 62.041664Q259.76562 61.291664 260.40625 60.885414Q261.0625 60.46354 261.8125 60.46354Q263.04688 60.46354 263.73438 61.27604Q264.42188 62.08854 264.42188 63.604164L264.42188 64.05729L260.125 64.05729Q260.15625 64.99479 260.67188 65.572914Q261.20312 66.15104 262.01562 66.15104Q262.57812 66.15104 262.96875 65.916664Q263.375 65.68229 263.6875 65.291664L264.34375 65.80729Q263.54688 67.041664 261.95312 67.041664ZM261.8125 61.354164Q261.15625 61.354164 260.70312 61.83854Q260.26562 62.30729 260.17188 63.166664L263.34375 63.166664L263.34375 63.08854Q263.29688 62.260414 262.89062 61.80729Q262.5 61.354164 261.8125 61.354164ZM266.79688 59.041664L266.79688 60.572914L267.96875 60.572914L267.96875 61.416664L266.79688 61.416664L266.79688 65.33854Q266.79688 65.729164 266.95312 65.916664Q267.10938 66.104164 267.48438 66.104164Q267.67188 66.104164 268.0 66.041664L268.0 66.916664Q267.57812 67.041664 267.17188 67.041664Q266.45312 67.041664 266.07812 66.604164Q265.70312 66.15104 265.70312 65.33854L265.70312 61.416664L264.54688 61.416664L264.54688 60.572914L265.70312 60.572914L265.70312 59.041664L266.79688 59.041664ZM273.89062 67.80729L268.53125 67.80729L268.53125 66.916664L273.89062 66.916664L273.89062 67.80729ZM276.40625 65.447914L277.98438 60.572914L279.09375 60.572914L276.8125 66.916664L275.98438 66.916664L273.6875 60.572914L274.79688 60.572914L276.40625 65.447914ZM285.79688 66.916664L280.20312 66.916664L280.20312 66.135414L283.15625 62.854164Q283.8125 62.104164 284.0625 61.65104Q284.3125 61.18229 284.3125 60.68229Q284.3125 60.010414 283.90625 59.58854Q283.51562 59.15104 282.82812 59.15104Q282.03125 59.15104 281.57812 59.61979Q281.125 60.072914 281.125 60.90104L280.04688 60.90104Q280.04688 59.71354 280.79688 58.99479Q281.5625 58.260414 282.82812 58.260414Q284.03125 58.260414 284.71875 58.885414Q285.40625 59.510414 285.40625 60.55729Q285.40625 61.80729 283.79688 63.55729L281.51562 66.02604L285.79688 66.02604L285.79688 66.916664Z" fill-rule="nonzero"/><path fill="#db4437" d="M302.5 57.416668C302.5 56.864384 302.94772 56.416668 303.5 56.416668L313.5 56.416668C314.05228 56.416668 314.5 56.864384 314.5 57.416668L314.5 67.416664C314.5 67.96895 314.05228 68.416664 313.5 68.416664L303.5 68.416664C302.94772 68.416664 302.5 67.96895 302.5 67.416664Z" fill-rule="nonzero"/><path fill="#757575" d="M324.5 66.916664L323.42188 66.916664L323.42188 60.572914L324.5 60.572914L324.5 66.916664ZM323.32812 58.90104Q323.32812 58.635414 323.48438 58.447914Q323.65625 58.260414 323.96875 58.260414Q324.28125 58.260414 324.4375 58.447914Q324.60938 58.635414 324.60938 58.90104Q324.60938 59.15104 324.4375 59.33854Q324.28125 59.510414 323.96875 59.510414Q323.65625 59.510414 323.48438 59.33854Q323.32812 59.15104 323.32812 58.90104ZM327.34375 60.572914L327.375 61.36979Q328.10938 60.46354 329.28125 60.46354Q331.29688 60.46354 331.3125 62.729164L331.3125 66.916664L330.21875 66.916664L330.21875 62.71354Q330.21875 62.041664 329.90625 61.71354Q329.60938 61.385414 328.95312 61.385414Q328.42188 61.385414 328.01562 61.666664Q327.625 61.947914 327.40625 62.40104L327.40625 66.916664L326.32812 66.916664L326.32812 60.572914L327.34375 60.572914ZM335.85938 66.15104Q336.4375 66.15104 336.875 65.80729Q337.3125 65.447914 337.35938 64.916664L338.39062 64.916664Q338.35938 65.46354 338.0 65.96354Q337.65625 66.447914 337.07812 66.74479Q336.51562 67.041664 335.85938 67.041664Q334.5625 67.041664 333.79688 66.18229Q333.04688 65.30729 333.04688 63.80729L333.04688 63.61979Q333.04688 62.697914 333.375 61.979164Q333.71875 61.260414 334.34375 60.86979Q334.98438 60.46354 335.85938 60.46354Q336.92188 60.46354 337.625 61.104164Q338.34375 61.729164 338.39062 62.760414L337.35938 62.760414Q337.3125 62.135414 336.89062 61.74479Q336.46875 61.354164 335.85938 61.354164Q335.03125 61.354164 334.57812 61.947914Q334.125 62.541664 334.125 63.666664L334.125 63.86979Q334.125 64.96354 334.57812 65.55729Q335.03125 66.15104 335.85938 66.15104ZM341.95312 67.041664Q340.65625 67.041664 339.84375 66.197914Q339.04688 65.33854 339.04688 63.916664L339.04688 63.729164Q339.04688 62.77604 339.40625 62.041664Q339.76562 61.291664 340.40625 60.885414Q341.0625 60.46354 341.8125 60.46354Q343.04688 60.46354 343.73438 61.27604Q344.42188 62.08854 344.42188 63.604164L344.42188 64.05729L340.125 64.05729Q340.15625 64.99479 340.67188 65.572914Q341.20312 66.15104 342.01562 66.15104Q342.57812 66.15104 342.96875 65.916664Q343.375 65.68229 343.6875 65.291664L344.34375 65.80729Q343.54688 67.041664 341.95312 67.041664ZM341.8125 61.354164Q341.15625 61.354164 340.70312 61.83854Q340.26562 62.30729 340.17188 63.166664L343.34375 63.166664L343.34375 63.08854Q343.29688 62.260414 342.89062 61.80729Q342.5 61.354164 341.8125 61.354164ZM350.67188 63.822914Q350.67188 65.260414 350.01562 66.15104Q349.35938 67.041664 348.21875 67.041664Q347.0625 67.041664 346.40625 66.30729L346.40625 69.354164L345.32812 69.354164L345.32812 60.572914L346.3125 60.572914L346.35938 61.27604Q347.03125 60.46354 348.20312 60.46354Q349.34375 60.46354 350.0 61.322914Q350.67188 62.18229 350.67188 63.71354L350.67188 63.822914ZM349.59375 63.697914Q349.59375 62.61979 349.125 62.010414Q348.67188 61.385414 347.875 61.385414Q346.89062 61.385414 346.40625 62.24479L346.40625 65.27604Q346.89062 66.15104 347.89062 66.15104Q348.67188 66.15104 349.125 65.541664Q349.59375 64.916664 349.59375 63.697914ZM353.79688 59.041664L353.79688 60.572914L354.96875 60.572914L354.96875 61.416664L353.79688 61.416664L353.79688 65.33854Q353.79688 65.729164 353.95312 65.916664Q354.10938 66.104164 354.48438 66.104164Q354.67188 66.104164 355.0 66.041664L355.0 66.916664Q354.57812 67.041664 354.17188 67.041664Q353.45312 67.041664 353.07812 66.604164Q352.70312 66.15104 352.70312 65.33854L352.70312 61.416664L351.54688 61.416664L351.54688 60.572914L352.70312 60.572914L352.70312 59.041664L353.79688 59.041664ZM357.5 66.916664L356.42188 66.916664L356.42188 60.572914L357.5 60.572914L357.5 66.916664ZM356.32812 58.90104Q356.32812 58.635414 356.48438 58.447914Q356.65625 58.260414 356.96875 58.260414Q357.28125 58.260414 357.4375 58.447914Q357.60938 58.635414 357.60938 58.90104Q357.60938 59.15104 357.4375 59.33854Q357.28125 59.510414 356.96875 59.510414Q356.65625 59.510414 356.48438 59.33854Q356.32812 59.15104 356.32812 58.90104ZM359.03125 63.68229Q359.03125 62.760414 359.39062 62.010414Q359.76562 61.260414 360.42188 60.86979Q361.07812 60.46354 361.90625 60.46354Q363.20312 60.46354 364.0 61.354164Q364.8125 62.24479 364.8125 63.74479L364.8125 63.822914Q364.8125 64.74479 364.45312 65.479164Q364.09375 66.21354 363.4375 66.635414Q362.78125 67.041664 361.92188 67.041664Q360.64062 67.041664 359.82812 66.15104Q359.03125 65.24479 359.03125 63.760414L359.03125 63.68229ZM360.125 63.822914Q360.125 64.86979 360.60938 65.510414Q361.10938 66.15104 361.92188 66.15104Q362.75 66.15104 363.23438 65.510414Q363.71875 64.854164 363.71875 63.68229Q363.71875 62.65104 363.21875 62.010414Q362.73438 61.354164 361.90625 61.354164Q361.10938 61.354164 360.60938 61.99479Q360.125 62.61979 360.125 63.822914ZM367.34375 60.572914L367.375 61.36979Q368.10938 60.46354 369.28125 60.46354Q371.29688 60.46354 371.3125 62.729164L371.3125 66.916664L370.21875 66.916664L370.21875 62.71354Q370.21875 62.041664 369.90625 61.71354Q369.60938 61.385414 368.95312 61.385414Q368.42188 61.385414 368.01562 61.666664Q367.625 61.947914 367.40625 62.40104L367.40625 66.916664L366.32812 66.916664L366.32812 60.572914L367.34375 60.572914ZM377.89062 67.80729L372.53125 67.80729L372.53125 66.916664L377.89062 66.916664L377.89062 67.80729ZM380.40625 65.447914L381.98438 60.572914L383.09375 60.572914L380.8125 66.916664L379.98438 66.916664L377.6875 60.572914L378.79688 60.572914L380.40625 65.447914ZM385.78125 62.11979L386.59375 62.11979Q387.375 62.104164 387.8125 61.71354Q388.25 61.322914 388.25 60.65104Q388.25 59.15104 386.75 59.15104Q386.04688 59.15104 385.625 59.55729Q385.21875 59.96354 385.21875 60.61979L384.125 60.61979Q384.125 59.604164 384.85938 58.93229Q385.60938 58.260414 386.75 58.260414Q387.95312 58.260414 388.64062 58.90104Q389.32812 59.541664 389.32812 60.68229Q389.32812 61.24479 388.96875 61.760414Q388.60938 62.27604 387.98438 62.541664Q388.6875 62.760414 389.0625 63.27604Q389.45312 63.791664 389.45312 64.541664Q389.45312 65.68229 388.70312 66.36979Q387.95312 67.041664 386.75 67.041664Q385.5625 67.041664 384.79688 66.385414Q384.04688 65.729164 384.04688 64.666664L385.14062 64.666664Q385.14062 65.33854 385.57812 65.74479Q386.01562 66.15104 386.76562 66.15104Q387.54688 66.15104 387.95312 65.74479Q388.375 65.322914 388.375 64.55729Q388.375 63.822914 387.92188 63.43229Q387.46875 63.02604 386.59375 63.010414L385.78125 63.010414L385.78125 62.11979Z" fill-rule="nonzero"/><path fill="#f4b400" d="M406.5 57.416668C406.5 56.864384 406.94772 56.416668 407.5 56.416668L417.5 56.416668C418.05228 56.416668 418.5 56.864384 418.5 57.416668L418.5 67.416664C418.5 67.96895 418.05228 68.416664 417.5 68.416664L407.5 68.416664C406.94772 68.416664 406.5 67.96895 406.5 67.416664Z" fill-rule="nonzero"/><path fill="#757575" d="M430.39062 61.541664Q430.14062 61.510414 429.85938 61.510414Q428.78125 61.510414 428.40625 62.416664L428.40625 66.916664L427.32812 66.916664L427.32812 60.572914L428.375 60.572914L428.39062 61.30729Q428.92188 60.46354 429.90625 60.46354Q430.21875 60.46354 430.39062 60.541664L430.39062 61.541664ZM433.95312 67.041664Q432.65625 67.041664 431.84375 66.197914Q431.04688 65.33854 431.04688 63.916664L431.04688 63.729164Q431.04688 62.77604 431.40625 62.041664Q431.76562 61.291664 432.40625 60.885414Q433.0625 60.46354 433.8125 60.46354Q435.04688 60.46354 435.73438 61.27604Q436.42188 62.08854 436.42188 63.604164L436.42188 64.05729L432.125 64.05729Q432.15625 64.99479 432.67188 65.572914Q433.20312 66.15104 434.01562 66.15104Q434.57812 66.15104 434.96875 65.916664Q435.375 65.68229 435.6875 65.291664L436.34375 65.80729Q435.54688 67.041664 433.95312 67.041664ZM433.8125 61.354164Q433.15625 61.354164 432.70312 61.83854Q432.26562 62.30729 432.17188 63.166664L435.34375 63.166664L435.34375 63.08854Q435.29688 62.260414 434.89062 61.80729Q434.5 61.354164 433.8125 61.354164ZM441.01562 65.229164Q441.01562 64.791664 440.67188 64.55729Q440.34375 64.30729 439.51562 64.135414Q438.70312 63.96354 438.21875 63.71354Q437.73438 63.46354 437.5 63.135414Q437.28125 62.791664 437.28125 62.322914Q437.28125 61.541664 437.9375 61.010414Q438.59375 60.46354 439.625 60.46354Q440.70312 60.46354 441.35938 61.02604Q442.03125 61.572914 442.03125 62.43229L440.95312 62.43229Q440.95312 61.99479 440.5625 61.68229Q440.1875 61.354164 439.625 61.354164Q439.03125 61.354164 438.6875 61.61979Q438.35938 61.86979 438.35938 62.27604Q438.35938 62.666664 438.67188 62.86979Q438.98438 63.072914 439.79688 63.260414Q440.60938 63.43229 441.10938 63.68229Q441.60938 63.93229 441.84375 64.291664Q442.09375 64.65104 442.09375 65.15104Q442.09375 66.010414 441.40625 66.52604Q440.73438 67.041664 439.65625 67.041664Q438.89062 67.041664 438.29688 66.77604Q437.71875 66.49479 437.39062 66.010414Q437.0625 65.52604 437.0625 64.96354L438.14062 64.96354Q438.17188 65.510414 438.57812 65.83854Q438.98438 66.15104 439.65625 66.15104Q440.26562 66.15104 440.64062 65.90104Q441.01562 65.65104 441.01562 65.229164ZM444.34375 60.572914L444.375 61.36979Q445.10938 60.46354 446.28125 60.46354Q448.29688 60.46354 448.3125 62.729164L448.3125 66.916664L447.21875 66.916664L447.21875 62.71354Q447.21875 62.041664 446.90625 61.71354Q446.60938 61.385414 445.95312 61.385414Q445.42188 61.385414 445.01562 61.666664Q444.625 61.947914 444.40625 62.40104L444.40625 66.916664L443.32812 66.916664L443.32812 60.572914L444.34375 60.572914ZM452.95312 67.041664Q451.65625 67.041664 450.84375 66.197914Q450.04688 65.33854 450.04688 63.916664L450.04688 63.729164Q450.04688 62.77604 450.40625 62.041664Q450.76562 61.291664 451.40625 60.885414Q452.0625 60.46354 452.8125 60.46354Q454.04688 60.46354 454.73438 61.27604Q455.42188 62.08854 455.42188 63.604164L455.42188 64.05729L451.125 64.05729Q451.15625 64.99479 451.67188 65.572914Q452.20312 66.15104 453.01562 66.15104Q453.57812 66.15104 453.96875 65.916664Q454.375 65.68229 454.6875 65.291664L455.34375 65.80729Q454.54688 67.041664 452.95312 67.041664ZM452.8125 61.354164Q452.15625 61.354164 451.70312 61.83854Q451.26562 62.30729 451.17188 63.166664L454.34375 63.166664L454.34375 63.08854Q454.29688 62.260414 453.89062 61.80729Q453.5 61.354164 452.8125 61.354164ZM457.79688 59.041664L457.79688 60.572914L458.96875 60.572914L458.96875 61.416664L457.79688 61.416664L457.79688 65.33854Q457.79688 65.729164 457.95312 65.916664Q458.10938 66.104164 458.48438 66.104164Q458.67188 66.104164 459.0 66.041664L459.0 66.916664Q458.57812 67.041664 458.17188 67.041664Q457.45312 67.041664 457.07812 66.604164Q456.70312 66.15104 456.70312 65.33854L456.70312 61.416664L455.54688 61.416664L455.54688 60.572914L456.70312 60.572914L456.70312 59.041664L457.79688 59.041664ZM460.70312 62.635414L461.14062 58.385414L465.51562 58.385414L465.51562 59.385414L462.0625 59.385414L461.79688 61.71354Q462.4375 61.33854 463.23438 61.33854Q464.39062 61.33854 465.07812 62.11979Q465.76562 62.885414 465.76562 64.197914Q465.76562 65.510414 465.04688 66.27604Q464.34375 67.041664 463.0625 67.041664Q461.9375 67.041664 461.21875 66.416664Q460.5 65.77604 460.40625 64.666664L461.42188 64.666664Q461.53125 65.40104 461.95312 65.77604Q462.375 66.15104 463.0625 66.15104Q463.8125 66.15104 464.25 65.635414Q464.6875 65.11979 464.6875 64.21354Q464.6875 63.354164 464.21875 62.83854Q463.75 62.322914 462.96875 62.322914Q462.26562 62.322914 461.85938 62.61979L461.57812 62.854164L460.70312 62.635414ZM472.5625 63.27604Q472.5625 65.18229 471.90625 66.11979Q471.26562 67.041664 469.875 67.041664Q468.51562 67.041664 467.85938 66.135414Q467.20312 65.229164 467.17188 63.416664L467.17188 61.979164Q467.17188 60.08854 467.8125 59.18229Q468.46875 58.260414 469.85938 58.260414Q471.23438 58.260414 471.89062 59.15104Q472.54688 60.02604 472.5625 61.86979L472.5625 63.27604ZM471.46875 61.791664Q471.46875 60.416664 471.07812 59.791664Q470.70312 59.15104 469.85938 59.15104Q469.03125 59.15104 468.64062 59.791664Q468.26562 60.416664 468.26562 61.71354L468.26562 63.447914Q468.26562 64.822914 468.65625 65.49479Q469.0625 66.15104 469.875 66.15104Q470.67188 66.15104 471.0625 65.52604Q471.45312 64.90104 471.46875 63.572914L471.46875 61.791664Z" fill-rule="nonzero"/><path fill="#0f9d58" d="M489.5 57.416668C489.5 56.864384 489.94772 56.416668 490.5 56.416668L500.5 56.416668C501.05228 56.416668 501.5 56.864384 501.5 57.416668L501.5 67.416664C501.5 67.96895 501.05228 68.416664 500.5 68.416664L490.5 68.416664C489.94772 68.416664 489.5 67.96895 489.5 67.416664Z" fill-rule="nonzero"/><path fill="#757575" d="M512.4531 62.885414L513.8594 60.572914L515.125 60.572914L513.0469 63.71354L515.1875 66.916664L513.9375 66.916664L512.46875 64.541664L511.0 66.916664L509.73438 66.916664L511.875 63.71354L509.8125 60.572914L511.0625 60.572914L512.4531 62.885414ZM518.8594 66.15104Q519.4375 66.15104 519.875 65.80729Q520.3125 65.447914 520.3594 64.916664L521.3906 64.916664Q521.3594 65.46354 521.0 65.96354Q520.65625 66.447914 520.0781 66.74479Q519.5156 67.041664 518.8594 67.041664Q517.5625 67.041664 516.7969 66.18229Q516.0469 65.30729 516.0469 63.80729L516.0469 63.61979Q516.0469 62.697914 516.375 61.979164Q516.71875 61.260414 517.34375 60.86979Q517.9844 60.46354 518.8594 60.46354Q519.9219 60.46354 520.625 61.104164Q521.34375 61.729164 521.3906 62.760414L520.3594 62.760414Q520.3125 62.135414 519.8906 61.74479Q519.46875 61.354164 518.8594 61.354164Q518.03125 61.354164 517.5781 61.947914Q517.125 62.541664 517.125 63.666664L517.125 63.86979Q517.125 64.96354 517.5781 65.55729Q518.03125 66.15104 518.8594 66.15104ZM524.9531 67.041664Q523.65625 67.041664 522.84375 66.197914Q522.0469 65.33854 522.0469 63.916664L522.0469 63.729164Q522.0469 62.77604 522.40625 62.041664Q522.7656 61.291664 523.40625 60.885414Q524.0625 60.46354 524.8125 60.46354Q526.0469 60.46354 526.7344 61.27604Q527.4219 62.08854 527.4219 63.604164L527.4219 64.05729L523.125 64.05729Q523.15625 64.99479 523.6719 65.572914Q524.2031 66.15104 525.0156 66.15104Q525.5781 66.15104 525.96875 65.916664Q526.375 65.68229 526.6875 65.291664L527.34375 65.80729Q526.5469 67.041664 524.9531 67.041664ZM524.8125 61.354164Q524.15625 61.354164 523.7031 61.83854Q523.2656 62.30729 523.1719 63.166664L526.34375 63.166664L526.34375 63.08854Q526.2969 62.260414 525.8906 61.80729Q525.5 61.354164 524.8125 61.354164ZM533.6719 63.822914Q533.6719 65.260414 533.0156 66.15104Q532.3594 67.041664 531.21875 67.041664Q530.0625 67.041664 529.40625 66.30729L529.40625 69.354164L528.3281 69.354164L528.3281 60.572914L529.3125 60.572914L529.3594 61.27604Q530.03125 60.46354 531.2031 60.46354Q532.34375 60.46354 533.0 61.322914Q533.6719 62.18229 533.6719 63.71354L533.6719 63.822914ZM532.59375 63.697914Q532.59375 62.61979 532.125 62.010414Q531.6719 61.385414 530.875 61.385414Q529.8906 61.385414 529.40625 62.24479L529.40625 65.27604Q529.8906 66.15104 530.8906 66.15104Q531.6719 66.15104 532.125 65.541664Q532.59375 64.916664 532.59375 63.697914ZM536.7969 59.041664L536.7969 60.572914L537.96875 60.572914L537.96875 61.416664L536.7969 61.416664L536.7969 65.33854Q536.7969 65.729164 536.9531 65.916664Q537.1094 66.104164 537.4844 66.104164Q537.6719 66.104164 538.0 66.041664L538.0 66.916664Q537.5781 67.041664 537.1719 67.041664Q536.4531 67.041664 536.0781 66.604164Q535.7031 66.15104 535.7031 65.33854L535.7031 61.416664L534.5469 61.416664L534.5469 60.572914L535.7031 60.572914L535.7031 59.041664L536.7969 59.041664ZM540.5 66.916664L539.4219 66.916664L539.4219 60.572914L540.5 60.572914L540.5 66.916664ZM539.3281 58.90104Q539.3281 58.635414 539.4844 58.447914Q539.65625 58.260414 539.96875 58.260414Q540.28125 58.260414 540.4375 58.447914Q540.6094 58.635414 540.6094 58.90104Q540.6094 59.15104 540.4375 59.33854Q540.28125 59.510414 539.96875 59.510414Q539.65625 59.510414 539.4844 59.33854Q539.3281 59.15104 539.3281 58.90104ZM542.03125 63.68229Q542.03125 62.760414 542.3906 62.010414Q542.7656 61.260414 543.4219 60.86979Q544.0781 60.46354 544.90625 60.46354Q546.2031 60.46354 547.0 61.354164Q547.8125 62.24479 547.8125 63.74479L547.8125 63.822914Q547.8125 64.74479 547.4531 65.479164Q547.09375 66.21354 546.4375 66.635414Q545.78125 67.041664 544.9219 67.041664Q543.6406 67.041664 542.8281 66.15104Q542.03125 65.24479 542.03125 63.760414L542.03125 63.68229ZM543.125 63.822914Q543.125 64.86979 543.6094 65.510414Q544.1094 66.15104 544.9219 66.15104Q545.75 66.15104 546.2344 65.510414Q546.71875 64.854164 546.71875 63.68229Q546.71875 62.65104 546.21875 62.010414Q545.7344 61.354164 544.90625 61.354164Q544.1094 61.354164 543.6094 61.99479Q543.125 62.61979 543.125 63.822914ZM550.34375 60.572914L550.375 61.36979Q551.1094 60.46354 552.28125 60.46354Q554.2969 60.46354 554.3125 62.729164L554.3125 66.916664L553.21875 66.916664L553.21875 62.71354Q553.21875 62.041664 552.90625 61.71354Q552.6094 61.385414 551.9531 61.385414Q551.4219 61.385414 551.0156 61.666664Q550.625 61.947914 550.40625 62.40104L550.40625 66.916664L549.3281 66.916664L549.3281 60.572914L550.34375 60.572914Z" fill-rule="nonzero"/><path fill="#757575" d="M24.39375 31.20625Q21.971874 30.51875 20.878124 29.51875Q19.784374 28.503124 19.784374 27.01875Q19.784374 25.33125 21.128124 24.2375Q22.471874 23.128124 24.6125 23.128124Q26.08125 23.128124 27.221874 23.70625Q28.378124 24.26875 29.003124 25.26875Q29.628124 26.253124 29.628124 27.440624L27.753124 27.440624Q27.753124 26.159374 26.925 25.425Q26.1125 24.675 24.6125 24.675Q23.221874 24.675 22.440624 25.284374Q21.675 25.89375 21.675 26.9875Q21.675 27.846874 22.409374 28.45625Q23.14375 29.05 24.909374 29.55Q26.690624 30.05 27.690624 30.659374Q28.690624 31.253124 29.175 32.05Q29.659374 32.846874 29.659374 33.940624Q29.659374 35.659374 28.315624 36.70625Q26.971874 37.753124 24.70625 37.753124Q23.253124 37.753124 21.971874 37.190624Q20.70625 36.628124 20.01875 35.659374Q19.33125 34.675 19.33125 33.425L21.221874 33.425Q21.221874 34.721874 22.175 35.471874Q23.128124 36.20625 24.70625 36.20625Q26.190624 36.20625 26.9875 35.6125Q27.784374 35.003124 27.784374 33.95625Q27.784374 32.909374 27.05 32.346874Q26.315624 31.76875 24.39375 31.20625ZM36.159374 36.26875Q37.128124 36.26875 37.846874 35.690624Q38.565624 35.096874 38.64375 34.221874L40.3625 34.221874Q40.3 35.128124 39.721874 35.95625Q39.159374 36.76875 38.190624 37.26875Q37.2375 37.753124 36.159374 37.753124Q34.003124 37.753124 32.721874 36.315624Q31.45625 34.8625 31.45625 32.3625L31.45625 32.065624Q31.45625 30.51875 32.01875 29.315624Q32.58125 28.1125 33.64375 27.45625Q34.70625 26.784374 36.14375 26.784374Q37.925 26.784374 39.096874 27.846874Q40.284374 28.909374 40.3625 30.6125L38.64375 30.6125Q38.565624 29.596874 37.8625 28.940624Q37.175 28.26875 36.14375 28.26875Q34.76875 28.26875 34.003124 29.26875Q33.253124 30.253124 33.253124 32.128124L33.253124 32.471874Q33.253124 34.3 34.003124 35.284374Q34.753124 36.26875 36.159374 36.26875ZM41.440624 32.175Q41.440624 30.6125 42.05 29.378124Q42.659374 28.128124 43.7375 27.45625Q44.83125 26.784374 46.2375 26.784374Q48.39375 26.784374 49.721874 28.284374Q51.065624 29.76875 51.065624 32.253124L51.065624 32.378124Q51.065624 33.925 50.471874 35.159374Q49.878124 36.378124 48.76875 37.065624Q47.675 37.753124 46.253124 37.753124Q44.1125 37.753124 42.76875 36.253124Q41.440624 34.753124 41.440624 32.3L41.440624 32.175ZM43.253124 32.378124Q43.253124 34.14375 44.065624 35.20625Q44.89375 36.26875 46.253124 36.26875Q47.628124 36.26875 48.440624 35.190624Q49.253124 34.1125 49.253124 32.175Q49.253124 30.425 48.425 29.346874Q47.596874 28.26875 46.2375 28.26875Q44.89375 28.26875 44.065624 29.33125Q43.253124 30.39375 43.253124 32.378124ZM58.01875 28.596874Q57.6125 28.534374 57.14375 28.534374Q55.3625 28.534374 54.721874 30.05L54.721874 37.55L52.925 37.55L52.925 26.9875L54.675 26.9875L54.70625 28.20625Q55.596874 26.784374 57.221874 26.784374Q57.753124 26.784374 58.01875 26.925L58.01875 28.596874ZM64.3 37.753124Q62.159374 37.753124 60.8 36.346874Q59.45625 34.925 59.45625 32.565624L59.45625 32.221874Q59.45625 30.659374 60.05 29.425Q60.659374 28.190624 61.7375 27.4875Q62.815624 26.784374 64.08125 26.784374Q66.14375 26.784374 67.28438 28.14375Q68.425 29.503124 68.425 32.034374L68.425 32.784374L61.26875 32.784374Q61.3 34.346874 62.175 35.315624Q63.05 36.26875 64.39375 36.26875Q65.3625 36.26875 66.01875 35.878124Q66.69063 35.4875 67.19063 34.846874L68.28438 35.70625Q66.95625 37.753124 64.3 37.753124ZM64.08125 28.26875Q62.9875 28.26875 62.2375 29.065624Q61.503124 29.8625 61.33125 31.3L66.6125 31.3L66.6125 31.159374Q66.53438 29.784374 65.8625 29.034374Q65.20625 28.26875 64.08125 28.26875ZM77.06563 34.753124Q77.06563 34.01875 76.51875 33.6125Q75.97188 33.20625 74.59688 32.909374Q73.22188 32.6125 72.40938 32.20625Q71.6125 31.8 71.22188 31.2375Q70.84688 30.659374 70.84688 29.878124Q70.84688 28.58125 71.94063 27.690624Q73.03438 26.784374 74.75313 26.784374Q76.55 26.784374 77.65938 27.721874Q78.78438 28.64375 78.78438 30.08125L76.95625 30.08125Q76.95625 29.346874 76.33125 28.815624Q75.70625 28.26875 74.75313 28.26875Q73.75313 28.26875 73.19063 28.70625Q72.64375 29.128124 72.64375 29.83125Q72.64375 30.471874 73.15938 30.815624Q73.675 31.14375 75.03438 31.45625Q76.39375 31.753124 77.22188 32.175Q78.06563 32.58125 78.47188 33.175Q78.87813 33.76875 78.87813 34.6125Q78.87813 36.034374 77.7375 36.89375Q76.6125 37.753124 74.8 37.753124Q73.53438 37.753124 72.55 37.3Q71.58125 36.846874 71.01875 36.05Q70.47188 35.2375 70.47188 34.3L72.28438 34.3Q72.33125 35.20625 73.00313 35.7375Q73.69063 36.26875 74.8 36.26875Q75.83125 36.26875 76.44063 35.8625Q77.06563 35.440624 77.06563 34.753124ZM94.8625 32.378124Q94.8625 34.8 93.75313 36.284374Q92.64375 37.753124 90.76875 37.753124Q88.75313 37.753124 87.65938 36.33125L87.58125 37.55L85.925 37.55L85.925 22.55L87.72188 22.55L87.72188 28.14375Q88.81563 26.784374 90.7375 26.784374Q92.65938 26.784374 93.75313 28.2375Q94.8625 29.690624 94.8625 32.221874L94.8625 32.378124ZM93.05 32.175Q93.05 30.33125 92.33125 29.33125Q91.62813 28.315624 90.3 28.315624Q88.50313 28.315624 87.72188 29.9875L87.72188 34.55Q88.55 36.20625 90.31563 36.20625Q91.6125 36.20625 92.33125 35.20625Q93.05 34.20625 93.05 32.175ZM100.37813 34.909374L102.83125 26.9875L104.76875 26.9875L100.51875 39.175Q99.53438 41.815624 97.39375 41.815624L97.05 41.784374L96.37813 41.659374L96.37813 40.190624L96.8625 40.2375Q97.78438 40.2375 98.28438 39.8625Q98.8 39.4875 99.12813 38.503124L99.53438 37.425L95.76875 26.9875L97.7375 26.9875L100.37813 34.909374ZM121.65938 33.034374Q121.39375 35.3 119.9875 36.534374Q118.59688 37.753124 116.26875 37.753124Q113.75313 37.753124 112.22188 35.940624Q110.70625 34.128124 110.70625 31.096874L110.70625 29.7375Q110.70625 27.753124 111.40938 26.253124Q112.12813 24.753124 113.425 23.940624Q114.72188 23.128124 116.44063 23.128124Q118.70625 23.128124 120.06563 24.39375Q121.44063 25.659374 121.65938 27.89375L119.76875 27.89375Q119.53438 26.20625 118.70625 25.440624Q117.89375 24.675 116.44063 24.675Q114.64375 24.675 113.6125 26.003124Q112.59688 27.33125 112.59688 29.784374L112.59688 31.159374Q112.59688 33.471874 113.56563 34.846874Q114.53438 36.20625 116.26875 36.20625Q117.83125 36.20625 118.65938 35.503124Q119.50313 34.8 119.76875 33.034374L121.65938 33.034374ZM123.44063 32.175Q123.44063 30.6125 124.05 29.378124Q124.65938 28.128124 125.7375 27.45625Q126.83125 26.784374 128.2375 26.784374Q130.39375 26.784374 131.72188 28.284374Q133.06563 29.76875 133.06563 32.253124L133.06563 32.378124Q133.06563 33.925 132.47188 35.159374Q131.87813 36.378124 130.76875 37.065624Q129.675 37.753124 128.25313 37.753124Q126.1125 37.753124 124.76875 36.253124Q123.44063 34.753124 123.44063 32.3L123.44063 32.175ZM125.25313 32.378124Q125.25313 34.14375 126.06563 35.20625Q126.89375 36.26875 128.25313 36.26875Q129.62813 36.26875 130.44063 35.190624Q131.25313 34.1125 131.25313 32.175Q131.25313 30.425 130.425 29.346874Q129.59688 28.26875 128.2375 28.26875Q126.89375 28.26875 126.06563 29.33125Q125.25313 30.39375 125.25313 32.378124ZM136.62813 26.9875L136.69063 28.315624Q137.89375 26.784374 139.84688 26.784374Q143.20625 26.784374 143.22188 30.565624L143.22188 37.55L141.425 37.55L141.425 30.55Q141.40938 29.409374 140.89375 28.8625Q140.39375 28.315624 139.3 28.315624Q138.425 28.315624 137.75313 28.784374Q137.09688 29.253124 136.72188 30.01875L136.72188 37.55L134.925 37.55L134.925 26.9875L136.62813 26.9875ZM149.40938 35.096874L152.01875 26.9875L153.8625 26.9875L150.08125 37.55L148.70625 37.55L144.87813 26.9875L146.72188 26.9875L149.40938 35.096874ZM167.12813 37.55L165.2375 37.55L158.08125 26.596874L158.08125 37.55L156.20625 37.55L156.20625 23.33125L158.08125 23.33125L165.26875 34.33125L165.26875 23.33125L167.12813 23.33125L167.12813 37.55ZM174.3 37.753124Q172.15938 37.753124 170.8 36.346874Q169.45625 34.925 169.45625 32.565624L169.45625 32.221874Q169.45625 30.659374 170.05 29.425Q170.65938 28.190624 171.7375 27.4875Q172.81563 26.784374 174.08125 26.784374Q176.14375 26.784374 177.28438 28.14375Q178.425 29.503124 178.425 32.034374L178.425 32.784374L171.26875 32.784374Q171.3 34.346874 172.175 35.315624Q173.05 36.26875 174.39375 36.26875Q175.3625 36.26875 176.01875 35.878124Q176.69063 35.4875 177.19063 34.846874L178.28438 35.70625Q176.95625 37.753124 174.3 37.753124ZM174.08125 28.26875Q172.9875 28.26875 172.2375 29.065624Q171.50313 29.8625 171.33125 31.3L176.6125 31.3L176.6125 31.159374Q176.53438 29.784374 175.8625 29.034374Q175.20625 28.26875 174.08125 28.26875ZM183.3625 24.425L183.3625 26.9875L185.34688 26.9875L185.34688 28.378124L183.3625 28.378124L183.3625 34.925Q183.3625 35.565624 183.62813 35.89375Q183.89375 36.20625 184.53438 36.20625Q184.84688 36.20625 185.39375 36.08125L185.39375 37.55Q184.675 37.753124 184.00313 37.753124Q182.8 37.753124 182.175 37.01875Q181.56563 36.284374 181.56563 34.925L181.56563 28.378124L179.64375 28.378124L179.64375 26.9875L181.56563 26.9875L181.56563 24.425L183.3625 24.425Z" fill-rule="nonzero"/></svg>