<svg version="1.1" viewBox="0.0 0.0 600.0 371.0" fill="none" stroke="none" stroke-linecap="square" stroke-miterlimit="10" width="600" height="371" xmlns:xlink="http://www.w3.org/1999/xlink" xmlns="http://www.w3.org/2000/svg"><path fill="#ffffff" d="M0 0L600.0 0L600.0 371.0L0 371.0L0 0Z" fill-rule="nonzero"/><path stroke="#333333" stroke-width="1.0" stroke-linecap="butt" d="M45.5 298.5L581.5 298.5" fill-rule="nonzero"/><path stroke="#cccccc" stroke-width="1.0" stroke-linecap="butt" d="M45.5 228.5L581.5 228.5" fill-rule="nonzero"/><path stroke="#cccccc" stroke-width="1.0" stroke-linecap="butt" d="M45.5 159.5L581.5 159.5" fill-rule="nonzero"/><path stroke="#cccccc" stroke-width="1.0" stroke-linecap="butt" d="M45.5 89.5L581.5 89.5" fill-rule="nonzero"/><clipPath id="id_0"><path d="M45.55 89.78333L581.45 89.78333L581.45 298.45L45.55 298.45L45.55 89.78333Z" clip-rule="nonzero"/></clipPath><path stroke="#000000" stroke-width="0.0" stroke-linecap="butt" stroke-opacity="0.0" clip-path="url(#id_0)" d="M94.0 298.0L71.0 298.0L71.0 123.0C71.0 121.89543 71.89543 121.0 73.0 121.0L92.0 121.0C93.10457 121.0 94.0 121.89543 94.0 123.0Z" fill-rule="nonzero"/><path fill="#4285f4" clip-path="url(#id_0)" d="M94.0 298.0L71.0 298.0L71.0 123.0C71.0 121.89543 71.89543 121.0 73.0 121.0L92.0 121.0C93.10457 121.0 94.0 121.89543 94.0 123.0Z" fill-rule="nonzero"/><path stroke="#000000" stroke-width="0.0" stroke-linecap="butt" stroke-opacity="0.0" clip-path="url(#id_0)" d="M167.0 298.0L144.0 298.0L144.0 184.0C144.0 182.89543 144.89543 182.0 146.0 182.0L165.0 182.0C166.10457 182.0 167.0 182.89543 167.0 184.0Z" fill-rule="nonzero"/><path fill="#4285f4" clip-path="url(#id_0)" d="M167.0 298.0L144.0 298.0L144.0 184.0C144.0 182.89543 144.89543 182.0 146.0 182.0L165.0 182.0C166.10457 182.0 167.0 182.89543 167.0 184.0Z" fill-rule="nonzero"/><path stroke="#000000" stroke-width="0.0" stroke-linecap="butt" stroke-opacity="0.0" clip-path="url(#id_0)" d="M240.0 298.0L217.0 298.0L217.0 227.0C217.0 225.89543 217.89543 225.0 219.0 225.0L238.0 225.0C239.10457 225.0 240.0 225.89543 240.0 227.0Z" fill-rule="nonzero"/><path fill="#4285f4" clip-path="url(#id_0)" d="M240.0 298.0L217.0 298.0L217.0 227.0C217.0 225.89543 217.89543 225.0 219.0 225.0L238.0 225.0C239.10457 225.0 240.0 225.89543 240.0 227.0Z" fill-rule="nonzero"/><path stroke="#000000" stroke-width="0.0" stroke-linecap="butt" stroke-opacity="0.0" clip-path="url(#id_0)" d="M313.0 298.0L290.0 298.0L290.0 255.0C290.0 253.89543 290.89542 253.0 292.0 253.0L311.0 253.0C312.10458 253.0 313.0 253.89543 313.0 255.0Z" fill-rule="nonzero"/><path fill="#4285f4" clip-path="url(#id_0)" d="M313.0 298.0L290.0 298.0L290.0 255.0C290.0 253.89543 290.89542 253.0 292.0 253.0L311.0 253.0C312.10458 253.0 313.0 253.89543 313.0 255.0Z" fill-rule="nonzero"/><path stroke="#000000" stroke-width="0.0" stroke-linecap="butt" stroke-opacity="0.0" clip-path="url(#id_0)" d="M385.0 298.0L362.0 298.0L362.0 244.0C362.0 242.89543 362.89542 242.0 364.0 242.0L383.0 242.0C384.10458 242.0 385.0 242.89543 385.0 244.0Z" fill-rule="nonzero"/><path fill="#4285f4" clip-path="url(#id_0)" d="M385.0 298.0L362.0 298.0L362.0 244.0C362.0 242.89543 362.89542 242.0 364.0 242.0L383.0 242.0C384.10458 242.0 385.0 242.89543 385.0 244.0Z" fill-rule="nonzero"/><path stroke="#000000" stroke-width="0.0" stroke-linecap="butt" stroke-opacity="0.0" clip-path="url(#id_0)" d="M458.0 298.0L435.0 298.0L435.0 175.0C435.0 173.89543 435.89542 173.0 437.0 173.0L456.0 173.0C457.10458 173.0 458.0 173.89543 458.0 175.0Z" fill-rule="nonzero"/><path fill="#4285f4" clip-path="url(#id_0)" d="M458.0 298.0L435.0 298.0L435.0 175.0C435.0 173.89543 435.89542 173.0 437.0 173.0L456.0 173.0C457.10458 173.0 458.0 173.89543 458.0 175.0Z" fill-rule="nonzero"/><path stroke="#000000" stroke-width="0.0" stroke-linecap="butt" stroke-opacity="0.0" clip-path="url(#id_0)" d="M531.0 298.0L508.0 298.0L508.0 162.0C508.0 160.89543 508.89542 160.0 510.0 160.0L529.0 160.0C530.10455 160.0 531.0 160.89543 531.0 162.0Z" fill-rule="nonzero"/><path fill="#4285f4" clip-path="url(#id_0)" d="M531.0 298.0L508.0 298.0L508.0 162.0C508.0 160.89543 508.89542 160.0 510.0 160.0L529.0 160.0C530.10455 160.0 531.0 160.89543 531.0 162.0Z" fill-rule="nonzero"/><path stroke="#000000" stroke-width="0.0" stroke-linecap="butt" stroke-opacity="0.0" clip-path="url(#id_0)" d="M118.0 298.0L95.0 298.0L95.0 124.0C95.0 122.89543 95.89543 122.0 97.0 122.0L116.0 122.0C117.10457 122.0 118.0 122.89543 118.0 124.0Z" fill-rule="nonzero"/><path fill="#db4437" clip-path="url(#id_0)" d="M118.0 298.0L95.0 298.0L95.0 124.0C95.0 122.89543 95.89543 122.0 97.0 122.0L116.0 122.0C117.10457 122.0 118.0 122.89543 118.0 124.0Z" fill-rule="nonzero"/><path stroke="#000000" stroke-width="0.0" stroke-linecap="butt" stroke-opacity="0.0" clip-path="url(#id_0)" d="M191.0 298.0L168.0 298.0L168.0 183.0C168.0 181.89543 168.89543 181.0 170.0 181.0L189.0 181.0C190.10457 181.0 191.0 181.89543 191.0 183.0Z" fill-rule="nonzero"/><path fill="#db4437" clip-path="url(#id_0)" d="M191.0 298.0L168.0 298.0L168.0 183.0C168.0 181.89543 168.89543 181.0 170.0 181.0L189.0 181.0C190.10457 181.0 191.0 181.89543 191.0 183.0Z" fill-rule="nonzero"/><path stroke="#000000" stroke-width="0.0" stroke-linecap="butt" stroke-opacity="0.0" clip-path="url(#id_0)" d="M264.0 298.0L241.0 298.0L241.0 225.0C241.0 223.89543 241.89543 223.0 243.0 223.0L262.0 223.0C263.10458 223.0 264.0 223.89543 264.0 225.0Z" fill-rule="nonzero"/><path fill="#db4437" clip-path="url(#id_0)" d="M264.0 298.0L241.0 298.0L241.0 225.0C241.0 223.89543 241.89543 223.0 243.0 223.0L262.0 223.0C263.10458 223.0 264.0 223.89543 264.0 225.0Z" fill-rule="nonzero"/><path stroke="#000000" stroke-width="0.0" stroke-linecap="butt" stroke-opacity="0.0" clip-path="url(#id_0)" d="M337.0 298.0L314.0 298.0L314.0 253.0C314.0 251.89543 314.89542 251.0 316.0 251.0L335.0 251.0C336.10458 251.0 337.0 251.89543 337.0 253.0Z" fill-rule="nonzero"/><path fill="#db4437" clip-path="url(#id_0)" d="M337.0 298.0L314.0 298.0L314.0 253.0C314.0 251.89543 314.89542 251.0 316.0 251.0L335.0 251.0C336.10458 251.0 337.0 251.89543 337.0 253.0Z" fill-rule="nonzero"/><path stroke="#000000" stroke-width="0.0" stroke-linecap="butt" stroke-opacity="0.0" clip-path="url(#id_0)" d="M409.0 298.0L386.0 298.0L386.0 242.0C386.0 240.89543 386.89542 240.0 388.0 240.0L407.0 240.0C408.10458 240.0 409.0 240.89543 409.0 242.0Z" fill-rule="nonzero"/><path fill="#db4437" clip-path="url(#id_0)" d="M409.0 298.0L386.0 298.0L386.0 242.0C386.0 240.89543 386.89542 240.0 388.0 240.0L407.0 240.0C408.10458 240.0 409.0 240.89543 409.0 242.0Z" fill-rule="nonzero"/><path stroke="#000000" stroke-width="0.0" stroke-linecap="butt" stroke-opacity="0.0" clip-path="url(#id_0)" d="M482.0 298.0L459.0 298.0L459.0 172.0C459.0 170.89543 459.89542 170.0 461.0 170.0L480.0 170.0C481.10458 170.0 482.0 170.89543 482.0 172.0Z" fill-rule="nonzero"/><path fill="#db4437" clip-path="url(#id_0)" d="M482.0 298.0L459.0 298.0L459.0 172.0C459.0 170.89543 459.89542 170.0 461.0 170.0L480.0 170.0C481.10458 170.0 482.0 170.89543 482.0 172.0Z" fill-rule="nonzero"/><path stroke="#000000" stroke-width="0.0" stroke-linecap="butt" stroke-opacity="0.0" clip-path="url(#id_0)" d="M555.0 298.0L532.0 298.0L532.0 151.0C532.0 149.89543 532.89545 149.0 534.0 149.0L553.0 149.0C554.10455 149.0 555.0 149.89543 555.0 151.0Z" fill-rule="nonzero"/><path fill="#db4437" clip-path="url(#id_0)" d="M555.0 298.0L532.0 298.0L532.0 151.0C532.0 149.89543 532.89545 149.0 534.0 149.0L553.0 149.0C554.10455 149.0 555.0 149.89543 555.0 151.0Z" fill-rule="nonzero"/><path fill="#424242" d="M273.45312 349.575Q272.15625 349.575 271.34375 348.73126Q270.54688 347.8719 270.54688 346.45L270.54688 346.2625Q270.54688 345.3094 270.90625 344.575Q271.26562 343.825 271.90625 343.41876Q272.5625 342.9969 273.3125 342.9969Q274.54688 342.9969 275.23438 343.8094Q275.92188 344.6219 275.92188 346.1375L275.92188 346.59064L271.625 346.59064Q271.65625 347.52814 272.17188 348.10626Q272.70312 348.6844 273.51562 348.6844Q274.07812 348.6844 274.46875 348.45Q274.875 348.21564 275.1875 347.825L275.84375 348.34064Q275.04688 349.575 273.45312 349.575ZM273.3125 343.8875Q272.65625 343.8875 272.20312 344.3719Q271.76562 344.84064 271.67188 345.7L274.84375 345.7L274.84375 345.6219Q274.79688 344.79376 274.39062 344.34064Q274.0 343.8875 273.3125 343.8875ZM277.84375 343.10626L277.875 343.8094Q278.5625 342.9969 279.75 342.9969Q281.07812 342.9969 281.5625 344.0125Q281.875 343.5594 282.375 343.27814Q282.89062 342.9969 283.57812 342.9969Q285.67188 342.9969 285.70312 345.2L285.70312 349.45L284.625 349.45L284.625 345.2625Q284.625 344.59064 284.3125 344.2625Q284.0 343.91876 283.26562 343.91876Q282.65625 343.91876 282.25 344.27814Q281.85938 344.6375 281.79688 345.2469L281.79688 349.45L280.71875 349.45L280.71875 345.29376Q280.71875 343.91876 279.35938 343.91876Q278.29688 343.91876 277.90625 344.825L277.90625 349.45L276.8125 349.45L276.8125 343.10626L277.84375 343.10626ZM293.1875 346.35626Q293.1875 347.8094 292.51562 348.7Q291.85938 349.575 290.73438 349.575Q289.53125 349.575 288.875 348.71564L288.8125 349.45L287.82812 349.45L287.82812 340.45L288.90625 340.45L288.90625 343.8094Q289.5625 342.9969 290.71875 342.9969Q291.875 342.9969 292.53125 343.8719Q293.1875 344.73126 293.1875 346.2625L293.1875 346.35626ZM292.10938 346.23126Q292.10938 345.1219 291.67188 344.52814Q291.25 343.91876 290.45312 343.91876Q289.375 343.91876 288.90625 344.90314L288.90625 347.65314Q289.40625 348.65314 290.45312 348.65314Q291.23438 348.65314 291.67188 348.04376Q292.10938 347.4344 292.10938 346.23126ZM297.45312 349.575Q296.15625 349.575 295.34375 348.73126Q294.54688 347.8719 294.54688 346.45L294.54688 346.2625Q294.54688 345.3094 294.90625 344.575Q295.26562 343.825 295.90625 343.41876Q296.5625 342.9969 297.3125 342.9969Q298.54688 342.9969 299.23438 343.8094Q299.92188 344.6219 299.92188 346.1375L299.92188 346.59064L295.625 346.59064Q295.65625 347.52814 296.17188 348.10626Q296.70312 348.6844 297.51562 348.6844Q298.07812 348.6844 298.46875 348.45Q298.875 348.21564 299.1875 347.825L299.84375 348.34064Q299.04688 349.575 297.45312 349.575ZM297.3125 343.8875Q296.65625 343.8875 296.20312 344.3719Q295.76562 344.84064 295.67188 345.7L298.84375 345.7L298.84375 345.6219Q298.79688 344.79376 298.39062 344.34064Q298.0 343.8875 297.3125 343.8875ZM300.5625 346.23126Q300.5625 344.7625 301.25 343.8875Q301.9375 342.9969 303.0625 342.9969Q304.17188 342.9969 304.82812 343.7469L304.82812 340.45L305.90625 340.45L305.90625 349.45L304.90625 349.45L304.85938 348.7625Q304.20312 349.575 303.04688 349.575Q301.95312 349.575 301.25 348.66876Q300.5625 347.7625 300.5625 346.3094L300.5625 346.23126ZM301.64062 346.35626Q301.64062 347.4344 302.07812 348.04376Q302.53125 348.65314 303.3125 348.65314Q304.34375 348.65314 304.82812 347.71564L304.82812 344.8094Q304.34375 343.91876 303.32812 343.91876Q302.53125 343.91876 302.07812 344.52814Q301.64062 345.1375 301.64062 346.35626ZM307.5625 346.23126Q307.5625 344.7625 308.25 343.8875Q308.9375 342.9969 310.0625 342.9969Q311.17188 342.9969 311.82812 343.7469L311.82812 340.45L312.90625 340.45L312.90625 349.45L311.90625 349.45L311.85938 348.7625Q311.20312 349.575 310.04688 349.575Q308.95312 349.575 308.25 348.66876Q307.5625 347.7625 307.5625 346.3094L307.5625 346.23126ZM308.64062 346.35626Q308.64062 347.4344 309.07812 348.04376Q309.53125 348.65314 310.3125 348.65314Q311.34375 348.65314 311.82812 347.71564L311.82812 344.8094Q311.34375 343.91876 310.32812 343.91876Q309.53125 343.91876 309.07812 344.52814Q308.64062 345.1375 308.64062 346.35626ZM316.0 349.45L314.92188 349.45L314.92188 343.10626L316.0 343.10626L316.0 349.45ZM314.82812 341.4344Q314.82812 341.16876 314.98438 340.98126Q315.15625 340.79376 315.46875 340.79376Q315.78125 340.79376 315.9375 340.98126Q316.10938 341.16876 316.10938 341.4344Q316.10938 341.6844 315.9375 341.8719Q315.78125 342.04376 315.46875 342.04376Q315.15625 342.04376 314.98438 341.8719Q314.82812 341.6844 314.82812 341.4344ZM318.84375 343.10626L318.875 343.90314Q319.60938 342.9969 320.78125 342.9969Q322.79688 342.9969 322.8125 345.2625L322.8125 349.45L321.71875 349.45L321.71875 345.2469Q321.71875 344.575 321.40625 344.2469Q321.10938 343.91876 320.45312 343.91876Q319.92188 343.91876 319.51562 344.2Q319.125 344.48126 318.90625 344.9344L318.90625 349.45L317.82812 349.45L317.82812 343.10626L318.84375 343.10626ZM324.5625 346.23126Q324.5625 344.7469 325.25 343.8719Q325.9375 342.9969 327.0625 342.9969Q328.21875 342.9969 328.875 343.8094L328.92188 343.10626L329.92188 343.10626L329.92188 349.29376Q329.92188 350.52814 329.1875 351.23126Q328.45312 351.95 327.23438 351.95Q326.54688 351.95 325.89062 351.65314Q325.23438 351.35626 324.89062 350.85626L325.45312 350.2Q326.14062 351.0594 327.15625 351.0594Q327.9375 351.0594 328.375 350.60626Q328.82812 350.16876 328.82812 349.35626L328.82812 348.8094Q328.17188 349.575 327.04688 349.575Q325.9375 349.575 325.25 348.6844Q324.5625 347.77814 324.5625 346.23126ZM325.65625 346.35626Q325.65625 347.41876 326.09375 348.04376Q326.53125 348.65314 327.32812 348.65314Q328.34375 348.65314 328.82812 347.71564L328.82812 344.825Q328.32812 343.91876 327.32812 343.91876Q326.54688 343.91876 326.09375 344.52814Q325.65625 345.1375 325.65625 346.35626ZM336.39062 350.34064L331.03125 350.34064L331.03125 349.45L336.39062 349.45L336.39062 350.34064ZM336.5625 346.23126Q336.5625 344.7625 337.25 343.8875Q337.9375 342.9969 339.0625 342.9969Q340.17188 342.9969 340.82812 343.7469L340.82812 340.45L341.90625 340.45L341.90625 349.45L340.90625 349.45L340.85938 348.7625Q340.20312 349.575 339.04688 349.575Q337.95312 349.575 337.25 348.66876Q336.5625 347.7625 336.5625 346.3094L336.5625 346.23126ZM337.64062 346.35626Q337.64062 347.4344 338.07812 348.04376Q338.53125 348.65314 339.3125 348.65314Q340.34375 348.65314 340.82812 347.71564L340.82812 344.8094Q340.34375 343.91876 339.32812 343.91876Q338.53125 343.91876 338.07812 344.52814Q337.64062 345.1375 337.64062 346.35626ZM345.0 349.45L343.92188 349.45L343.92188 343.10626L345.0 343.10626L345.0 349.45ZM343.82812 341.4344Q343.82812 341.16876 343.98438 340.98126Q344.15625 340.79376 344.46875 340.79376Q344.78125 340.79376 344.9375 340.98126Q345.10938 341.16876 345.10938 341.4344Q345.10938 341.6844 344.9375 341.8719Q344.78125 342.04376 344.46875 342.04376Q344.15625 342.04376 343.98438 341.8719Q343.82812 341.6844 343.82812 341.4344ZM347.84375 343.10626L347.875 343.8094Q348.5625 342.9969 349.75 342.9969Q351.07812 342.9969 351.5625 344.0125Q351.875 343.5594 352.375 343.27814Q352.89062 342.9969 353.57812 342.9969Q355.67188 342.9969 355.70312 345.2L355.70312 349.45L354.625 349.45L354.625 345.2625Q354.625 344.59064 354.3125 344.2625Q354.0 343.91876 353.26562 343.91876Q352.65625 343.91876 352.25 344.27814Q351.85938 344.6375 351.79688 345.2469L351.79688 349.45L350.71875 349.45L350.71875 345.29376Q350.71875 343.91876 349.35938 343.91876Q348.29688 343.91876 347.90625 344.825L347.90625 349.45L346.8125 349.45L346.8125 343.10626L347.84375 343.10626Z" fill-rule="nonzero"/><path fill="#757575" d="M38.6125 299.3094Q38.6125 301.21564 37.95625 302.15314Q37.315624 303.075 35.925 303.075Q34.565624 303.075 33.909374 302.16876Q33.253124 301.2625 33.221874 299.45L33.221874 298.0125Q33.221874 296.1219 33.8625 295.21564Q34.51875 294.29376 35.909374 294.29376Q37.284374 294.29376 37.940624 295.1844Q38.596874 296.0594 38.6125 297.90314L38.6125 299.3094ZM37.51875 297.825Q37.51875 296.45 37.128124 295.825Q36.753124 295.1844 35.909374 295.1844Q35.08125 295.1844 34.690624 295.825Q34.315624 296.45 34.315624 297.7469L34.315624 299.48126Q34.315624 300.85626 34.70625 301.52814Q35.1125 302.1844 35.925 302.1844Q36.721874 302.1844 37.1125 301.5594Q37.503124 300.9344 37.51875 299.60626L37.51875 297.825Z" fill-rule="nonzero"/><path fill="#757575" d="M28.6125 229.75381Q28.6125 231.66006 27.95625 232.59756Q27.315624 233.51944 25.925 233.51944Q24.565624 233.51944 23.909374 232.61319Q23.253124 231.70694 23.221874 229.89444L23.221874 228.45694Q23.221874 226.56631 23.8625 225.66006Q24.51875 224.73819 25.909374 224.73819Q27.284374 224.73819 27.940624 225.62881Q28.596874 226.50381 28.6125 228.34756L28.6125 229.75381ZM27.51875 228.26944Q27.51875 226.89444 27.128124 226.26944Q26.753124 225.62881 25.909374 225.62881Q25.08125 225.62881 24.690624 226.26944Q24.315624 226.89444 24.315624 228.19131L24.315624 229.92569Q24.315624 231.30069 24.70625 231.97256Q25.1125 232.62881 25.925 232.62881Q26.721874 232.62881 27.1125 232.00381Q27.503124 231.37881 27.51875 230.05069L27.51875 228.26944ZM30.39375 232.83194Q30.39375 232.55069 30.55 232.36319Q30.721874 232.17569 31.05 232.17569Q31.39375 232.17569 31.565624 232.36319Q31.7375 232.55069 31.7375 232.83194Q31.7375 233.09756 31.565624 233.28506Q31.39375 233.45694 31.05 233.45694Q30.721874 233.45694 30.55 233.28506Q30.39375 233.09756 30.39375 232.83194ZM38.846874 233.39444L33.253124 233.39444L33.253124 232.61319L36.20625 229.33194Q36.8625 228.58194 37.1125 228.12881Q37.3625 227.66006 37.3625 227.16006Q37.3625 226.48819 36.95625 226.06631Q36.565624 225.62881 35.878124 225.62881Q35.08125 225.62881 34.628124 226.09756Q34.175 226.55069 34.175 227.37881L33.096874 227.37881Q33.096874 226.19131 33.846874 225.47256Q34.6125 224.73819 35.878124 224.73819Q37.08125 224.73819 37.76875 225.36319Q38.45625 225.98819 38.45625 227.03506Q38.45625 228.28506 36.846874 230.03506L34.565624 232.50381L38.846874 232.50381L38.846874 233.39444Z" fill-rule="nonzero"/><path fill="#757575" d="M28.6125 160.19826Q28.6125 162.1045 27.95625 163.042Q27.315624 163.96388 25.925 163.96388Q24.565624 163.96388 23.909374 163.05763Q23.253124 162.15138 23.221874 160.33888L23.221874 158.90138Q23.221874 157.01076 23.8625 156.1045Q24.51875 155.18263 25.909374 155.18263Q27.284374 155.18263 27.940624 156.07326Q28.596874 156.94826 28.6125 158.792L28.6125 160.19826ZM27.51875 158.71388Q27.51875 157.33888 27.128124 156.71388Q26.753124 156.07326 25.909374 156.07326Q25.08125 156.07326 24.690624 156.71388Q24.315624 157.33888 24.315624 158.63576L24.315624 160.37013Q24.315624 161.74513 24.70625 162.417Q25.1125 163.07326 25.925 163.07326Q26.721874 163.07326 27.1125 162.44826Q27.503124 161.82326 27.51875 160.49513L27.51875 158.71388ZM30.39375 163.27638Q30.39375 162.99513 30.55 162.80763Q30.721874 162.62013 31.05 162.62013Q31.39375 162.62013 31.565624 162.80763Q31.7375 162.99513 31.7375 163.27638Q31.7375 163.542 31.565624 163.7295Q31.39375 163.90138 31.05 163.90138Q30.721874 163.90138 30.55 163.7295Q30.39375 163.542 30.39375 163.27638ZM37.83125 160.9795L39.01875 160.9795L39.01875 161.8545L37.83125 161.8545L37.83125 163.83888L36.753124 163.83888L36.753124 161.8545L32.8625 161.8545L32.8625 161.21388L36.675 155.30763L37.83125 155.30763L37.83125 160.9795ZM34.096874 160.9795L36.753124 160.9795L36.753124 156.792L36.6125 157.02638L34.096874 160.9795Z" fill-rule="nonzero"/><path fill="#757575" d="M28.6125 90.64271Q28.6125 92.54896 27.95625 93.48646Q27.315624 94.40833 25.925 94.40833Q24.565624 94.40833 23.909374 93.50208Q23.253124 92.59583 23.221874 90.78333L23.221874 89.34583Q23.221874 87.45521 23.8625 86.54896Q24.51875 85.62708 25.909374 85.62708Q27.284374 85.62708 27.940624 86.51771Q28.596874 87.39271 28.6125 89.23646L28.6125 90.64271ZM27.51875 89.15833Q27.51875 87.78333 27.128124 87.15833Q26.753124 86.51771 25.909374 86.51771Q25.08125 86.51771 24.690624 87.15833Q24.315624 87.78333 24.315624 89.08021L24.315624 90.81458Q24.315624 92.18958 24.70625 92.86146Q25.1125 93.51771 25.925 93.51771Q26.721874 93.51771 27.1125 92.89271Q27.503124 92.26771 27.51875 90.93958L27.51875 89.15833ZM30.39375 93.72083Q30.39375 93.43958 30.55 93.25208Q30.721874 93.06458 31.05 93.06458Q31.39375 93.06458 31.565624 93.25208Q31.7375 93.43958 31.7375 93.72083Q31.7375 93.98646 31.565624 94.17396Q31.39375 94.34583 31.05 94.34583Q30.721874 94.34583 30.55 94.17396Q30.39375 93.98646 30.39375 93.72083ZM37.51875 85.75208L37.51875 86.65833L37.315624 86.65833Q36.05 86.68958 35.3 87.42396Q34.55 88.14271 34.425 89.45521Q35.1125 88.68958 36.26875 88.68958Q37.378124 88.68958 38.05 89.47083Q38.721874 90.25208 38.721874 91.50208Q38.721874 92.81458 38.003124 93.61146Q37.284374 94.40833 36.065624 94.40833Q34.846874 94.40833 34.08125 93.47083Q33.33125 92.51771 33.33125 91.03333L33.33125 90.62708Q33.33125 88.26771 34.33125 87.01771Q35.33125 85.76771 37.315624 85.75208L37.51875 85.75208ZM36.096874 89.59583Q35.534374 89.59583 35.065624 89.92396Q34.596874 90.25208 34.409374 90.76771L34.409374 91.15833Q34.409374 92.22083 34.878124 92.86146Q35.3625 93.50208 36.065624 93.50208Q36.8 93.50208 37.221874 92.97083Q37.64375 92.42396 37.64375 91.54896Q37.64375 90.67396 37.221874 90.14271Q36.8 89.59583 36.096874 89.59583Z" fill-rule="nonzero"/><path fill="#757575" d="M78.24968 316.45L78.24968 307.91876L81.046555 307.91876Q82.43718 307.91876 83.12468 308.4969Q83.827805 309.0594 83.827805 310.1844Q83.827805 310.79376 83.484055 311.2625Q83.15593 311.71564 82.56218 311.96564Q83.265305 312.15314 83.65593 312.7Q84.06218 313.23126 84.06218 313.98126Q84.06218 315.1375 83.31218 315.79376Q82.577805 316.45 81.21843 316.45L78.24968 316.45ZM79.37468 312.46564L79.37468 315.52814L81.234055 315.52814Q82.03093 315.52814 82.484055 315.1219Q82.93718 314.71564 82.93718 313.9969Q82.93718 312.46564 81.24968 312.46564L79.37468 312.46564ZM79.37468 311.5594L81.077805 311.5594Q81.81218 311.5594 82.24968 311.2Q82.702805 310.825 82.702805 310.1844Q82.702805 309.48126 82.296555 309.16876Q81.890305 308.84064 81.046555 308.84064L79.37468 308.84064L79.37468 311.5594ZM86.265305 316.45L85.18718 316.45L85.18718 307.45L86.265305 307.45L86.265305 316.45ZM90.71843 316.575Q89.421555 316.575 88.609055 315.73126Q87.81218 314.8719 87.81218 313.45L87.81218 313.2625Q87.81218 312.3094 88.171555 311.575Q88.53093 310.825 89.171555 310.41876Q89.827805 309.9969 90.577805 309.9969Q91.81218 309.9969 92.49968 310.8094Q93.18718 311.6219 93.18718 313.1375L93.18718 313.59064L88.890305 313.59064Q88.921555 314.52814 89.43718 315.10626Q89.96843 315.6844 90.78093 315.6844Q91.34343 315.6844 91.734055 315.45Q92.140305 315.21564 92.452805 314.825L93.109055 315.34064Q92.31218 316.575 90.71843 316.575ZM90.577805 310.8875Q89.921555 310.8875 89.46843 311.3719Q89.03093 311.84064 88.93718 312.7L92.109055 312.7L92.109055 312.6219Q92.06218 311.79376 91.65593 311.34064Q91.265305 310.8875 90.577805 310.8875ZM97.99968 315.825Q97.37468 316.575 96.140305 316.575Q95.12468 316.575 94.59343 315.98126Q94.06218 315.3875 94.06218 314.23126L94.06218 310.10626L95.140305 310.10626L95.140305 314.2Q95.140305 315.65314 96.31218 315.65314Q97.56218 315.65314 97.96843 314.71564L97.96843 310.10626L99.06218 310.10626L99.06218 316.45L98.03093 316.45L97.99968 315.825ZM105.65593 317.34064L100.296555 317.34064L100.296555 316.45L105.65593 316.45L105.65593 317.34064ZM109.53093 316.45L108.452805 316.45L108.452805 309.23126L106.265305 310.02814L106.265305 309.04376L109.37468 307.8719L109.53093 307.8719L109.53093 316.45Z" fill-rule="nonzero"/><path fill="#757575" d="M151.16124 316.45L151.16124 307.91876L153.95811 307.91876Q155.34874 307.91876 156.03624 308.4969Q156.73936 309.0594 156.73936 310.1844Q156.73936 310.79376 156.39561 311.2625Q156.06749 311.71564 155.47374 311.96564Q156.17686 312.15314 156.56749 312.7Q156.97374 313.23126 156.97374 313.98126Q156.97374 315.1375 156.22374 315.79376Q155.48936 316.45 154.12999 316.45L151.16124 316.45ZM152.28624 312.46564L152.28624 315.52814L154.14561 315.52814Q154.94249 315.52814 155.39561 315.1219Q155.84874 314.71564 155.84874 313.9969Q155.84874 312.46564 154.16124 312.46564L152.28624 312.46564ZM152.28624 311.5594L153.98936 311.5594Q154.72374 311.5594 155.16124 311.2Q155.61436 310.825 155.61436 310.1844Q155.61436 309.48126 155.20811 309.16876Q154.80186 308.84064 153.95811 308.84064L152.28624 308.84064L152.28624 311.5594ZM159.17686 316.45L158.09874 316.45L158.09874 307.45L159.17686 307.45L159.17686 316.45ZM163.62999 316.575Q162.33311 316.575 161.52061 315.73126Q160.72374 314.8719 160.72374 313.45L160.72374 313.2625Q160.72374 312.3094 161.08311 311.575Q161.44249 310.825 162.08311 310.41876Q162.73936 309.9969 163.48936 309.9969Q164.72374 309.9969 165.41124 310.8094Q166.09874 311.6219 166.09874 313.1375L166.09874 313.59064L161.80186 313.59064Q161.83311 314.52814 162.34874 315.10626Q162.87999 315.6844 163.69249 315.6844Q164.25499 315.6844 164.64561 315.45Q165.05186 315.21564 165.36436 314.825L166.02061 315.34064Q165.22374 316.575 163.62999 316.575ZM163.48936 310.8875Q162.83311 310.8875 162.37999 311.3719Q161.94249 311.84064 161.84874 312.7L165.02061 312.7L165.02061 312.6219Q164.97374 311.79376 164.56749 311.34064Q164.17686 310.8875 163.48936 310.8875ZM170.91124 315.825Q170.28624 316.575 169.05186 316.575Q168.03624 316.575 167.50499 315.98126Q166.97374 315.3875 166.97374 314.23126L166.97374 310.10626L168.05186 310.10626L168.05186 314.2Q168.05186 315.65314 169.22374 315.65314Q170.47374 315.65314 170.87999 314.71564L170.87999 310.10626L171.97374 310.10626L171.97374 316.45L170.94249 316.45L170.91124 315.825ZM178.56749 317.34064L173.20811 317.34064L173.20811 316.45L178.56749 316.45L178.56749 317.34064ZM184.47374 316.45L178.87999 316.45L178.87999 315.66876L181.83311 312.3875Q182.48936 311.6375 182.73936 311.1844Q182.98936 310.71564 182.98936 310.21564Q182.98936 309.54376 182.58311 309.1219Q182.19249 308.6844 181.50499 308.6844Q180.70811 308.6844 180.25499 309.15314Q179.80186 309.60626 179.80186 310.4344L178.72374 310.4344Q178.72374 309.2469 179.47374 308.52814Q180.23936 307.79376 181.50499 307.79376Q182.70811 307.79376 183.39561 308.41876Q184.08311 309.04376 184.08311 310.09064Q184.08311 311.34064 182.47374 313.09064L180.19249 315.5594L184.47374 315.5594L184.47374 316.45Z" fill-rule="nonzero"/><path fill="#757575" d="M224.07281 316.45L224.07281 307.91876L226.86969 307.91876Q228.26031 307.91876 228.94781 308.4969Q229.65094 309.0594 229.65094 310.1844Q229.65094 310.79376 229.30719 311.2625Q228.97906 311.71564 228.38531 311.96564Q229.08844 312.15314 229.47906 312.7Q229.88531 313.23126 229.88531 313.98126Q229.88531 315.1375 229.13531 315.79376Q228.40094 316.45 227.04156 316.45L224.07281 316.45ZM225.19781 312.46564L225.19781 315.52814L227.05719 315.52814Q227.85406 315.52814 228.30719 315.1219Q228.76031 314.71564 228.76031 313.9969Q228.76031 312.46564 227.07281 312.46564L225.19781 312.46564ZM225.19781 311.5594L226.90094 311.5594Q227.63531 311.5594 228.07281 311.2Q228.52594 310.825 228.52594 310.1844Q228.52594 309.48126 228.11969 309.16876Q227.71344 308.84064 226.86969 308.84064L225.19781 308.84064L225.19781 311.5594ZM232.08844 316.45L231.01031 316.45L231.01031 307.45L232.08844 307.45L232.08844 316.45ZM236.54156 316.575Q235.24469 316.575 234.43219 315.73126Q233.63531 314.8719 233.63531 313.45L233.63531 313.2625Q233.63531 312.3094 233.99469 311.575Q234.35406 310.825 234.99469 310.41876Q235.65094 309.9969 236.40094 309.9969Q237.63531 309.9969 238.32281 310.8094Q239.01031 311.6219 239.01031 313.1375L239.01031 313.59064L234.71344 313.59064Q234.74469 314.52814 235.26031 315.10626Q235.79156 315.6844 236.60406 315.6844Q237.16656 315.6844 237.55719 315.45Q237.96344 315.21564 238.27594 314.825L238.93219 315.34064Q238.13531 316.575 236.54156 316.575ZM236.40094 310.8875Q235.74469 310.8875 235.29156 311.3719Q234.85406 311.84064 234.76031 312.7L237.93219 312.7L237.93219 312.6219Q237.88531 311.79376 237.47906 311.34064Q237.08844 310.8875 236.40094 310.8875ZM243.82281 315.825Q243.19781 316.575 241.96344 316.575Q240.94781 316.575 240.41656 315.98126Q239.88531 315.3875 239.88531 314.23126L239.88531 310.10626L240.96344 310.10626L240.96344 314.2Q240.96344 315.65314 242.13531 315.65314Q243.38531 315.65314 243.79156 314.71564L243.79156 310.10626L244.88531 310.10626L244.88531 316.45L243.85406 316.45L243.82281 315.825ZM251.47906 317.34064L246.11969 317.34064L246.11969 316.45L251.47906 316.45L251.47906 317.34064ZM253.36969 311.65314L254.18219 311.65314Q254.96344 311.6375 255.40094 311.2469Q255.83844 310.85626 255.83844 310.1844Q255.83844 308.6844 254.33844 308.6844Q253.63531 308.6844 253.21344 309.09064Q252.80719 309.4969 252.80719 310.15314L251.71344 310.15314Q251.71344 309.1375 252.44781 308.46564Q253.19781 307.79376 254.33844 307.79376Q255.54156 307.79376 256.22906 308.4344Q256.91656 309.075 256.91656 310.21564Q256.91656 310.77814 256.5572 311.29376Q256.1978 311.8094 255.57281 312.075Q256.27594 312.29376 256.65094 312.8094Q257.04156 313.325 257.04156 314.075Q257.04156 315.21564 256.29156 315.90314Q255.54156 316.575 254.33844 316.575Q253.15094 316.575 252.38531 315.91876Q251.63531 315.2625 251.63531 314.2L252.72906 314.2Q252.72906 314.8719 253.16656 315.27814Q253.60406 315.6844 254.35406 315.6844Q255.13531 315.6844 255.54156 315.27814Q255.96344 314.85626 255.96344 314.09064Q255.96344 313.35626 255.51031 312.96564Q255.05719 312.5594 254.18219 312.54376L253.36969 312.54376L253.36969 311.65314Z" fill-rule="nonzero"/><path fill="#757575" d="M296.98438 316.45L296.98438 307.91876L299.78125 307.91876Q301.17188 307.91876 301.85938 308.4969Q302.5625 309.0594 302.5625 310.1844Q302.5625 310.79376 302.21875 311.2625Q301.89062 311.71564 301.29688 311.96564Q302.0 312.15314 302.39062 312.7Q302.79688 313.23126 302.79688 313.98126Q302.79688 315.1375 302.04688 315.79376Q301.3125 316.45 299.95312 316.45L296.98438 316.45ZM298.10938 312.46564L298.10938 315.52814L299.96875 315.52814Q300.76562 315.52814 301.21875 315.1219Q301.67188 314.71564 301.67188 313.9969Q301.67188 312.46564 299.98438 312.46564L298.10938 312.46564ZM298.10938 311.5594L299.8125 311.5594Q300.54688 311.5594 300.98438 311.2Q301.4375 310.825 301.4375 310.1844Q301.4375 309.48126 301.03125 309.16876Q300.625 308.84064 299.78125 308.84064L298.10938 308.84064L298.10938 311.5594ZM305.0 316.45L303.92188 316.45L303.92188 307.45L305.0 307.45L305.0 316.45ZM309.45312 316.575Q308.15625 316.575 307.34375 315.73126Q306.54688 314.8719 306.54688 313.45L306.54688 313.2625Q306.54688 312.3094 306.90625 311.575Q307.26562 310.825 307.90625 310.41876Q308.5625 309.9969 309.3125 309.9969Q310.54688 309.9969 311.23438 310.8094Q311.92188 311.6219 311.92188 313.1375L311.92188 313.59064L307.625 313.59064Q307.65625 314.52814 308.17188 315.10626Q308.70312 315.6844 309.51562 315.6844Q310.07812 315.6844 310.46875 315.45Q310.875 315.21564 311.1875 314.825L311.84375 315.34064Q311.04688 316.575 309.45312 316.575ZM309.3125 310.8875Q308.65625 310.8875 308.20312 311.3719Q307.76562 311.84064 307.67188 312.7L310.84375 312.7L310.84375 312.6219Q310.79688 311.79376 310.39062 311.34064Q310.0 310.8875 309.3125 310.8875ZM316.73438 315.825Q316.10938 316.575 314.875 316.575Q313.85938 316.575 313.32812 315.98126Q312.79688 315.3875 312.79688 314.23126L312.79688 310.10626L313.875 310.10626L313.875 314.2Q313.875 315.65314 315.04688 315.65314Q316.29688 315.65314 316.70312 314.71564L316.70312 310.10626L317.79688 310.10626L317.79688 316.45L316.76562 316.45L316.73438 315.825ZM324.39062 317.34064L319.03125 317.34064L319.03125 316.45L324.39062 316.45L324.39062 317.34064ZM329.28125 313.59064L330.46875 313.59064L330.46875 314.46564L329.28125 314.46564L329.28125 316.45L328.20312 316.45L328.20312 314.46564L324.3125 314.46564L324.3125 313.825L328.125 307.91876L329.28125 307.91876L329.28125 313.59064ZM325.54688 313.59064L328.20312 313.59064L328.20312 309.40314L328.0625 309.6375L325.54688 313.59064Z" fill-rule="nonzero"/><path fill="#757575" d="M365.84906 307.91876L368.64594 314.8719L371.4272 307.91876L372.89594 307.91876L372.89594 316.45L371.77094 316.45L371.77094 313.1219L371.8803 309.54376L369.0678 316.45L368.20844 316.45L365.41156 309.5594L365.52094 313.1219L365.52094 316.45L364.39594 316.45L364.39594 307.91876L365.84906 307.91876ZM379.22406 312.5125L375.52094 312.5125L375.52094 315.52814L379.8178 315.52814L379.8178 316.45L374.39594 316.45L374.39594 307.91876L379.77094 307.91876L379.77094 308.84064L375.52094 308.84064L375.52094 311.59064L379.22406 311.59064L379.22406 312.5125ZM387.3022 308.84064L384.5522 308.84064L384.5522 316.45L383.4428 316.45L383.4428 308.84064L380.6928 308.84064L380.6928 307.91876L387.3022 307.91876L387.3022 308.84064ZM393.22406 312.5125L389.52094 312.5125L389.52094 315.52814L393.8178 315.52814L393.8178 316.45L388.39594 316.45L388.39594 307.91876L393.77094 307.91876L393.77094 308.84064L389.52094 308.84064L389.52094 311.59064L393.22406 311.59064L393.22406 312.5125ZM401.95844 312.46564Q401.95844 313.71564 401.53656 314.65314Q401.1147 315.575 400.33344 316.075Q399.5678 316.575 398.53656 316.575Q397.53656 316.575 396.7553 316.075Q395.97406 315.575 395.53656 314.66876Q395.1147 313.7469 395.09906 312.52814L395.09906 311.91876Q395.09906 310.6844 395.52094 309.7469Q395.95844 308.8094 396.7397 308.3094Q397.52094 307.79376 398.53656 307.79376Q399.5522 307.79376 400.33344 308.29376Q401.1147 308.79376 401.53656 309.73126Q401.95844 310.66876 401.95844 311.91876L401.95844 312.46564ZM400.84906 311.90314Q400.84906 310.3875 400.2397 309.575Q399.6303 308.7625 398.53656 308.7625Q397.45844 308.7625 396.84906 309.575Q396.2397 310.3875 396.22406 311.825L396.22406 312.46564Q396.22406 313.9344 396.83344 314.77814Q397.45844 315.60626 398.53656 315.60626Q399.6303 315.60626 400.22406 314.825Q400.83344 314.02814 400.84906 312.54376L400.84906 311.90314ZM406.53656 312.9969L404.52094 312.9969L404.52094 316.45L403.39594 316.45L403.39594 307.91876L406.22406 307.91876Q407.66156 307.91876 408.4272 308.575Q409.20844 309.23126 409.20844 310.48126Q409.20844 311.27814 408.77094 311.8719Q408.34906 312.46564 407.58344 312.7625L409.58344 316.3719L409.58344 316.45L408.3803 316.45L406.53656 312.9969ZM404.52094 312.075L406.2553 312.075Q407.09906 312.075 407.58344 311.65314Q408.08344 311.21564 408.08344 310.48126Q408.08344 309.7 407.6147 309.27814Q407.14594 308.85626 406.2553 308.84064L404.52094 308.84064L404.52094 312.075Z" fill-rule="nonzero"/><path fill="#757575" d="M438.94812 312.9969L436.9325 312.9969L436.9325 316.45L435.8075 316.45L435.8075 307.91876L438.63562 307.91876Q440.07312 307.91876 440.83875 308.575Q441.62 309.23126 441.62 310.48126Q441.62 311.27814 441.1825 311.8719Q440.76062 312.46564 439.995 312.7625L441.995 316.3719L441.995 316.45L440.79187 316.45L438.94812 312.9969ZM436.9325 312.075L438.66687 312.075Q439.51062 312.075 439.995 311.65314Q440.495 311.21564 440.495 310.48126Q440.495 309.7 440.02625 309.27814Q439.5575 308.85626 438.66687 308.84064L436.9325 308.84064L436.9325 312.075ZM449.37 312.46564Q449.37 313.71564 448.94812 314.65314Q448.52625 315.575 447.745 316.075Q446.97937 316.575 445.94812 316.575Q444.94812 316.575 444.16687 316.075Q443.38562 315.575 442.94812 314.66876Q442.52625 313.7469 442.51062 312.52814L442.51062 311.91876Q442.51062 310.6844 442.9325 309.7469Q443.37 308.8094 444.15125 308.3094Q444.9325 307.79376 445.94812 307.79376Q446.96375 307.79376 447.745 308.29376Q448.52625 308.79376 448.94812 309.73126Q449.37 310.66876 449.37 311.91876L449.37 312.46564ZM448.26062 311.90314Q448.26062 310.3875 447.65125 309.575Q447.04187 308.7625 445.94812 308.7625Q444.87 308.7625 444.26062 309.575Q443.65125 310.3875 443.63562 311.825L443.63562 312.46564Q443.63562 313.9344 444.245 314.77814Q444.87 315.60626 445.94812 315.60626Q447.04187 315.60626 447.63562 314.825Q448.245 314.02814 448.26062 312.54376L448.26062 311.90314ZM456.82312 307.91876L456.82312 313.71564Q456.8075 314.91876 456.0575 315.7Q455.3075 316.46564 454.02625 316.5594L453.71375 316.575Q452.32312 316.575 451.47937 315.825Q450.65125 315.0594 450.65125 313.73126L450.65125 307.91876L451.76062 307.91876L451.76062 313.7Q451.76062 314.6219 452.26062 315.1375Q452.77625 315.65314 453.71375 315.65314Q454.6825 315.65314 455.1825 315.1375Q455.6825 314.6219 455.6825 313.7L455.6825 307.91876L456.82312 307.91876ZM465.12 315.325Q464.6825 315.95 463.90125 316.2625Q463.12 316.575 462.08875 316.575Q461.0575 316.575 460.245 316.09064Q459.4325 315.59064 458.995 314.6844Q458.5575 313.77814 458.54187 312.59064L458.54187 311.85626Q458.54187 309.91876 459.4325 308.85626Q460.33875 307.79376 461.96375 307.79376Q463.3075 307.79376 464.12 308.48126Q464.9325 309.16876 465.12 310.41876L463.995 310.41876Q463.66687 308.73126 461.97937 308.73126Q460.83875 308.73126 460.26062 309.52814Q459.6825 310.3094 459.66687 311.825L459.66687 312.5125Q459.66687 313.95 460.32312 314.8094Q460.97937 315.65314 462.10437 315.65314Q462.72937 315.65314 463.19812 315.5125Q463.6825 315.3719 463.995 315.02814L463.995 313.1219L462.02625 313.1219L462.02625 312.2L465.12 312.2L465.12 315.325ZM471.63562 312.5125L467.9325 312.5125L467.9325 315.52814L472.22937 315.52814L472.22937 316.45L466.8075 316.45L466.8075 307.91876L472.1825 307.91876L472.1825 308.84064L467.9325 308.84064L467.9325 311.59064L471.63562 311.59064L471.63562 312.5125ZM478.21375 317.34064L472.85437 317.34064L472.85437 316.45L478.21375 316.45L478.21375 317.34064ZM479.94812 315.52814L483.995 315.52814L483.995 316.45L478.8075 316.45L478.8075 307.91876L479.94812 307.91876L479.94812 315.52814Z" fill-rule="nonzero"/><path fill="#757575" d="M524.5003 313.7469Q524.34406 315.09064 523.5003 315.84064Q522.65656 316.575 521.2659 316.575Q519.7503 316.575 518.84406 315.4969Q517.9378 314.40314 517.9378 312.575L517.9378 311.7625Q517.9378 310.575 518.3597 309.66876Q518.78156 308.7625 519.5628 308.27814Q520.34406 307.79376 521.3597 307.79376Q522.71906 307.79376 523.53156 308.5594Q524.3597 309.325 524.5003 310.65314L523.3753 310.65314Q523.21906 309.6375 522.7347 309.1844Q522.2503 308.73126 521.3597 308.73126Q520.28156 308.73126 519.6722 309.52814Q519.0628 310.325 519.0628 311.79376L519.0628 312.6219Q519.0628 314.0125 519.6409 314.84064Q520.21906 315.65314 521.2659 315.65314Q522.2034 315.65314 522.7034 315.23126Q523.2034 314.79376 523.3753 313.7469L524.5003 313.7469ZM527.4378 316.45L526.3128 316.45L526.3128 307.91876L527.4378 307.91876L527.4378 316.45ZM529.21906 316.45L529.21906 307.91876L531.6409 307.91876Q532.7503 307.91876 533.59406 308.41876Q534.4534 308.90314 534.9222 309.8094Q535.3909 310.71564 535.3909 311.90314L535.3909 312.4344Q535.3909 313.65314 534.9222 314.5594Q534.46906 315.46564 533.59406 315.95Q532.7347 316.4344 531.59406 316.45L529.21906 316.45ZM530.34406 308.84064L530.34406 315.52814L531.53156 315.52814Q532.8284 315.52814 533.5472 314.73126Q534.28156 313.91876 534.28156 312.41876L534.28156 311.91876Q534.28156 310.46564 533.59406 309.66876Q532.9222 308.85626 531.65656 308.84064L530.34406 308.84064ZM542.0472 312.5125L538.34406 312.5125L538.34406 315.52814L542.6409 315.52814L542.6409 316.45L537.21906 316.45L537.21906 307.91876L542.59406 307.91876L542.59406 308.84064L538.34406 308.84064L538.34406 311.59064L542.0472 311.59064L542.0472 312.5125ZM547.1253 311.075Q546.8753 311.04376 546.59406 311.04376Q545.5159 311.04376 545.1409 311.95L545.1409 316.45L544.0628 316.45L544.0628 310.10626L545.1097 310.10626L545.1253 310.84064Q545.65656 309.9969 546.6409 309.9969Q546.9534 309.9969 547.1253 310.075L547.1253 311.075Z" fill-rule="nonzero"/><path fill="#4285f4" d="M251.0 57.416668C251.0 56.864384 251.44771 56.416668 252.0 56.416668L262.0 56.416668C262.55228 56.416668 263.0 56.864384 263.0 57.416668L263.0 67.416664C263.0 67.96895 262.55228 68.416664 262.0 68.416664L252.0 68.416664C251.44771 68.416664 251.0 67.96895 251.0 67.416664Z" fill-rule="nonzero"/><path fill="#757575" d="M277.29688 66.916664L271.70312 66.916664L271.70312 66.135414L274.65625 62.854164Q275.3125 62.104164 275.5625 61.65104Q275.8125 61.18229 275.8125 60.68229Q275.8125 60.010414 275.40625 59.58854Q275.01562 59.15104 274.32812 59.15104Q273.53125 59.15104 273.07812 59.61979Q272.625 60.072914 272.625 60.90104L271.54688 60.90104Q271.54688 59.71354 272.29688 58.99479Q273.0625 58.260414 274.32812 58.260414Q275.53125 58.260414 276.21875 58.885414Q276.90625 59.510414 276.90625 60.55729Q276.90625 61.80729 275.29688 63.55729L273.01562 66.02604L277.29688 66.02604L277.29688 66.916664ZM279.20312 62.635414L279.64062 58.385414L284.01562 58.385414L284.01562 59.385414L280.5625 59.385414L280.29688 61.71354Q280.9375 61.33854 281.73438 61.33854Q282.89062 61.33854 283.57812 62.11979Q284.26562 62.885414 284.26562 64.197914Q284.26562 65.510414 283.54688 66.27604Q282.84375 67.041664 281.5625 67.041664Q280.4375 67.041664 279.71875 66.416664Q279.0 65.77604 278.90625 64.666664L279.92188 64.666664Q280.03125 65.40104 280.45312 65.77604Q280.875 66.15104 281.5625 66.15104Q282.3125 66.15104 282.75 65.635414Q283.1875 65.11979 283.1875 64.21354Q283.1875 63.354164 282.71875 62.83854Q282.25 62.322914 281.46875 62.322914Q280.76562 62.322914 280.35938 62.61979L280.07812 62.854164L279.20312 62.635414ZM289.96875 58.385414L289.96875 59.291664L289.76562 59.291664Q288.5 59.322914 287.75 60.05729Q287.0 60.77604 286.875 62.08854Q287.5625 61.322914 288.71875 61.322914Q289.82812 61.322914 290.5 62.104164Q291.17188 62.885414 291.17188 64.135414Q291.17188 65.447914 290.45312 66.24479Q289.73438 67.041664 288.51562 67.041664Q287.29688 67.041664 286.53125 66.104164Q285.78125 65.15104 285.78125 63.666664L285.78125 63.260414Q285.78125 60.90104 286.78125 59.65104Q287.78125 58.40104 289.76562 58.385414L289.96875 58.385414ZM288.54688 62.229164Q287.98438 62.229164 287.51562 62.55729Q287.04688 62.885414 286.85938 63.40104L286.85938 63.791664Q286.85938 64.854164 287.32812 65.49479Q287.8125 66.135414 288.51562 66.135414Q289.25 66.135414 289.67188 65.604164Q290.09375 65.05729 290.09375 64.18229Q290.09375 63.30729 289.67188 62.77604Q289.25 62.229164 288.54688 62.229164Z" fill-rule="nonzero"/><path fill="#db4437" d="M308.0 57.416668C308.0 56.864384 308.44772 56.416668 309.0 56.416668L319.0 56.416668C319.55228 56.416668 320.0 56.864384 320.0 57.416668L320.0 67.416664C320.0 67.96895 319.55228 68.416664 319.0 68.416664L309.0 68.416664C308.44772 68.416664 308.0 67.96895 308.0 67.416664Z" fill-rule="nonzero"/><path fill="#757575" d="M329.20312 62.635414L329.64062 58.385414L334.01562 58.385414L334.01562 59.385414L330.5625 59.385414L330.29688 61.71354Q330.9375 61.33854 331.73438 61.33854Q332.89062 61.33854 333.57812 62.11979Q334.26562 62.885414 334.26562 64.197914Q334.26562 65.510414 333.54688 66.27604Q332.84375 67.041664 331.5625 67.041664Q330.4375 67.041664 329.71875 66.416664Q329.0 65.77604 328.90625 64.666664L329.92188 64.666664Q330.03125 65.40104 330.45312 65.77604Q330.875 66.15104 331.5625 66.15104Q332.3125 66.15104 332.75 65.635414Q333.1875 65.11979 333.1875 64.21354Q333.1875 63.354164 332.71875 62.83854Q332.25 62.322914 331.46875 62.322914Q330.76562 62.322914 330.35938 62.61979L330.07812 62.854164L329.20312 62.635414ZM339.26562 66.916664L338.1875 66.916664L338.1875 59.697914L336.0 60.49479L336.0 59.510414L339.10938 58.33854L339.26562 58.33854L339.26562 66.916664ZM348.29688 66.916664L342.70312 66.916664L342.70312 66.135414L345.65625 62.854164Q346.3125 62.104164 346.5625 61.65104Q346.8125 61.18229 346.8125 60.68229Q346.8125 60.010414 346.40625 59.58854Q346.01562 59.15104 345.32812 59.15104Q344.53125 59.15104 344.07812 59.61979Q343.625 60.072914 343.625 60.90104L342.54688 60.90104Q342.54688 59.71354 343.29688 58.99479Q344.0625 58.260414 345.32812 58.260414Q346.53125 58.260414 347.21875 58.885414Q347.90625 59.510414 347.90625 60.55729Q347.90625 61.80729 346.29688 63.55729L344.01562 66.02604L348.29688 66.02604L348.29688 66.916664Z" fill-rule="nonzero"/><path fill="#757575" d="M24.39375 31.20625Q21.971874 30.51875 20.878124 29.51875Q19.784374 28.503124 19.784374 27.01875Q19.784374 25.33125 21.128124 24.2375Q22.471874 23.128124 24.6125 23.128124Q26.08125 23.128124 27.221874 23.70625Q28.378124 24.26875 29.003124 25.26875Q29.628124 26.253124 29.628124 27.440624L27.753124 27.440624Q27.753124 26.159374 26.925 25.425Q26.1125 24.675 24.6125 24.675Q23.221874 24.675 22.440624 25.284374Q21.675 25.89375 21.675 26.9875Q21.675 27.846874 22.409374 28.45625Q23.14375 29.05 24.909374 29.55Q26.690624 30.05 27.690624 30.659374Q28.690624 31.253124 29.175 32.05Q29.659374 32.846874 29.659374 33.940624Q29.659374 35.659374 28.315624 36.70625Q26.971874 37.753124 24.70625 37.753124Q23.253124 37.753124 21.971874 37.190624Q20.70625 36.628124 20.01875 35.659374Q19.33125 34.675 19.33125 33.425L21.221874 33.425Q21.221874 34.721874 22.175 35.471874Q23.128124 36.20625 24.70625 36.20625Q26.190624 36.20625 26.9875 35.6125Q27.784374 35.003124 27.784374 33.95625Q27.784374 32.909374 27.05 32.346874Q26.315624 31.76875 24.39375 31.20625ZM36.159374 36.26875Q37.128124 36.26875 37.846874 35.690624Q38.565624 35.096874 38.64375 34.221874L40.3625 34.221874Q40.3 35.128124 39.721874 35.95625Q39.159374 36.76875 38.190624 37.26875Q37.2375 37.753124 36.159374 37.753124Q34.003124 37.753124 32.721874 36.315624Q31.45625 34.8625 31.45625 32.3625L31.45625 32.065624Q31.45625 30.51875 32.01875 29.315624Q32.58125 28.1125 33.64375 27.45625Q34.70625 26.784374 36.14375 26.784374Q37.925 26.784374 39.096874 27.846874Q40.284374 28.909374 40.3625 30.6125L38.64375 30.6125Q38.565624 29.596874 37.8625 28.940624Q37.175 28.26875 36.14375 28.26875Q34.76875 28.26875 34.003124 29.26875Q33.253124 30.253124 33.253124 32.128124L33.253124 32.471874Q33.253124 34.3 34.003124 35.284374Q34.753124 36.26875 36.159374 36.26875ZM41.440624 32.175Q41.440624 30.6125 42.05 29.378124Q42.659374 28.128124 43.7375 27.45625Q44.83125 26.784374 46.2375 26.784374Q48.39375 26.784374 49.721874 28.284374Q51.065624 29.76875 51.065624 32.253124L51.065624 32.378124Q51.065624 33.925 50.471874 35.159374Q49.878124 36.378124 48.76875 37.065624Q47.675 37.753124 46.253124 37.753124Q44.1125 37.753124 42.76875 36.253124Q41.440624 34.753124 41.440624 32.3L41.440624 32.175ZM43.253124 32.378124Q43.253124 34.14375 44.065624 35.20625Q44.89375 36.26875 46.253124 36.26875Q47.628124 36.26875 48.440624 35.190624Q49.253124 34.1125 49.253124 32.175Q49.253124 30.425 48.425 29.346874Q47.596874 28.26875 46.2375 28.26875Q44.89375 28.26875 44.065624 29.33125Q43.253124 30.39375 43.253124 32.378124ZM58.01875 28.596874Q57.6125 28.534374 57.14375 28.534374Q55.3625 28.534374 54.721874 30.05L54.721874 37.55L52.925 37.55L52.925 26.9875L54.675 26.9875L54.70625 28.20625Q55.596874 26.784374 57.221874 26.784374Q57.753124 26.784374 58.01875 26.925L58.01875 28.596874ZM64.3 37.753124Q62.159374 37.753124 60.8 36.346874Q59.45625 34.925 59.45625 32.565624L59.45625 32.221874Q59.45625 30.659374 60.05 29.425Q60.659374 28.190624 61.7375 27.4875Q62.815624 26.784374 64.08125 26.784374Q66.14375 26.784374 67.28438 28.14375Q68.425 29.503124 68.425 32.034374L68.425 32.784374L61.26875 32.784374Q61.3 34.346874 62.175 35.315624Q63.05 36.26875 64.39375 36.26875Q65.3625 36.26875 66.01875 35.878124Q66.69063 35.4875 67.19063 34.846874L68.28438 35.70625Q66.95625 37.753124 64.3 37.753124ZM64.08125 28.26875Q62.9875 28.26875 62.2375 29.065624Q61.503124 29.8625 61.33125 31.3L66.6125 31.3L66.6125 31.159374Q66.53438 29.784374 65.8625 29.034374Q65.20625 28.26875 64.08125 28.26875ZM77.06563 34.753124Q77.06563 34.01875 76.51875 33.6125Q75.97188 33.20625 74.59688 32.909374Q73.22188 32.6125 72.40938 32.20625Q71.6125 31.8 71.22188 31.2375Q70.84688 30.659374 70.84688 29.878124Q70.84688 28.58125 71.94063 27.690624Q73.03438 26.784374 74.75313 26.784374Q76.55 26.784374 77.65938 27.721874Q78.78438 28.64375 78.78438 30.08125L76.95625 30.08125Q76.95625 29.346874 76.33125 28.815624Q75.70625 28.26875 74.75313 28.26875Q73.75313 28.26875 73.19063 28.70625Q72.64375 29.128124 72.64375 29.83125Q72.64375 30.471874 73.15938 30.815624Q73.675 31.14375 75.03438 31.45625Q76.39375 31.753124 77.22188 32.175Q78.06563 32.58125 78.47188 33.175Q78.87813 33.76875 78.87813 34.6125Q78.87813 36.034374 77.7375 36.89375Q76.6125 37.753124 74.8 37.753124Q73.53438 37.753124 72.55 37.3Q71.58125 36.846874 71.01875 36.05Q70.47188 35.2375 70.47188 34.3L72.28438 34.3Q72.33125 35.20625 73.00313 35.7375Q73.69063 36.26875 74.8 36.26875Q75.83125 36.26875 76.44063 35.8625Q77.06563 35.440624 77.06563 34.753124ZM94.8625 32.378124Q94.8625 34.8 93.75313 36.284374Q92.64375 37.753124 90.76875 37.753124Q88.75313 37.753124 87.65938 36.33125L87.58125 37.55L85.925 37.55L85.925 22.55L87.72188 22.55L87.72188 28.14375Q88.81563 26.784374 90.7375 26.784374Q92.65938 26.784374 93.75313 28.2375Q94.8625 29.690624 94.8625 32.221874L94.8625 32.378124ZM93.05 32.175Q93.05 30.33125 92.33125 29.33125Q91.62813 28.315624 90.3 28.315624Q88.50313 28.315624 87.72188 29.9875L87.72188 34.55Q88.55 36.20625 90.31563 36.20625Q91.6125 36.20625 92.33125 35.20625Q93.05 34.20625 93.05 32.175ZM100.37813 34.909374L102.83125 26.9875L104.76875 26.9875L100.51875 39.175Q99.53438 41.815624 97.39375 41.815624L97.05 41.784374L96.37813 41.659374L96.37813 40.190624L96.8625 40.2375Q97.78438 40.2375 98.28438 39.8625Q98.8 39.4875 99.12813 38.503124L99.53438 37.425L95.76875 26.9875L97.7375 26.9875L100.37813 34.909374ZM115.3 37.753124Q113.15938 37.753124 111.8 36.346874Q110.45625 34.925 110.45625 32.565624L110.45625 32.221874Q110.45625 30.659374 111.05 29.425Q111.65938 28.190624 112.7375 27.4875Q113.81563 26.784374 115.08125 26.784374Q117.14375 26.784374 118.28438 28.14375Q119.425 29.503124 119.425 32.034374L119.425 32.784374L112.26875 32.784374Q112.3 34.346874 113.175 35.315624Q114.05 36.26875 115.39375 36.26875Q116.3625 36.26875 117.01875 35.878124Q117.69063 35.4875 118.19063 34.846874L119.28438 35.70625Q117.95625 37.753124 115.3 37.753124ZM115.08125 28.26875Q113.9875 28.26875 113.2375 29.065624Q112.50313 29.8625 112.33125 31.3L117.6125 31.3L117.6125 31.159374Q117.53438 29.784374 116.8625 29.034374Q116.20625 28.26875 115.08125 28.26875ZM123.6125 26.9875L123.65938 28.159374Q124.83125 26.784374 126.8 26.784374Q129.01875 26.784374 129.81563 28.4875Q130.34688 27.721874 131.19063 27.253124Q132.03438 26.784374 133.19063 26.784374Q136.65938 26.784374 136.72188 30.471874L136.72188 37.55L134.90938 37.55L134.90938 30.58125Q134.90938 29.440624 134.39375 28.878124Q133.87813 28.315624 132.65938 28.315624Q131.65938 28.315624 130.9875 28.925Q130.33125 29.51875 130.22188 30.534374L130.22188 37.55L128.40938 37.55L128.40938 30.628124Q128.40938 28.315624 126.14375 28.315624Q124.3625 28.315624 123.72188 29.83125L123.72188 37.55L121.90938 37.55L121.90938 26.9875L123.6125 26.9875ZM148.8625 32.378124Q148.8625 34.8 147.75313 36.284374Q146.64375 37.753124 144.76875 37.753124Q142.75313 37.753124 141.65938 36.33125L141.58125 37.55L139.925 37.55L139.925 22.55L141.72188 22.55L141.72188 28.14375Q142.81563 26.784374 144.7375 26.784374Q146.65938 26.784374 147.75313 28.2375Q148.8625 29.690624 148.8625 32.221874L148.8625 32.378124ZM147.05 32.175Q147.05 30.33125 146.33125 29.33125Q145.62813 28.315624 144.3 28.315624Q142.50313 28.315624 141.72188 29.9875L141.72188 34.55Q142.55 36.20625 144.31563 36.20625Q145.6125 36.20625 146.33125 35.20625Q147.05 34.20625 147.05 32.175ZM155.3 37.753124Q153.15938 37.753124 151.8 36.346874Q150.45625 34.925 150.45625 32.565624L150.45625 32.221874Q150.45625 30.659374 151.05 29.425Q151.65938 28.190624 152.7375 27.4875Q153.81563 26.784374 155.08125 26.784374Q157.14375 26.784374 158.28438 28.14375Q159.425 29.503124 159.425 32.034374L159.425 32.784374L152.26875 32.784374Q152.3 34.346874 153.175 35.315624Q154.05 36.26875 155.39375 36.26875Q156.3625 36.26875 157.01875 35.878124Q157.69063 35.4875 158.19063 34.846874L159.28438 35.70625Q157.95625 37.753124 155.3 37.753124ZM155.08125 28.26875Q153.9875 28.26875 153.2375 29.065624Q152.50313 29.8625 152.33125 31.3L157.6125 31.3L157.6125 31.159374Q157.53438 29.784374 156.8625 29.034374Q156.20625 28.26875 155.08125 28.26875ZM161.47188 32.175Q161.47188 29.753124 162.62813 28.26875Q163.78438 26.784374 165.64375 26.784374Q167.50313 26.784374 168.58125 28.05L168.58125 22.55L170.39375 22.55L170.39375 37.55L168.7375 37.55L168.64375 36.409374Q167.56563 37.753124 165.62813 37.753124Q163.8 37.753124 162.62813 36.253124Q161.47188 34.7375 161.47188 32.315624L161.47188 32.175ZM163.28438 32.378124Q163.28438 34.175 164.01875 35.190624Q164.76875 36.20625 166.08125 36.20625Q167.8 36.20625 168.58125 34.675L168.58125 29.815624Q167.78438 28.315624 166.09688 28.315624Q164.76875 28.315624 164.01875 29.346874Q163.28438 30.378124 163.28438 32.378124ZM172.47188 32.175Q172.47188 29.753124 173.62813 28.26875Q174.78438 26.784374 176.64375 26.784374Q178.50313 26.784374 179.58125 28.05L179.58125 22.55L181.39375 22.55L181.39375 37.55L179.7375 37.55L179.64375 36.409374Q178.56563 37.753124 176.62813 37.753124Q174.8 37.753124 173.62813 36.253124Q172.47188 34.7375 172.47188 32.315624L172.47188 32.175ZM174.28438 32.378124Q174.28438 34.175 175.01875 35.190624Q175.76875 36.20625 177.08125 36.20625Q178.8 36.20625 179.58125 34.675L179.58125 29.815624Q178.78438 28.315624 177.09688 28.315624Q175.76875 28.315624 175.01875 29.346874Q174.28438 30.378124 174.28438 32.378124ZM185.87813 37.55L184.08125 37.55L184.08125 26.9875L185.87813 26.9875L185.87813 37.55ZM183.925 24.175Q183.925 23.7375 184.19063 23.440624Q184.47188 23.128124 184.9875 23.128124Q185.51875 23.128124 185.78438 23.440624Q186.06563 23.7375 186.06563 24.175Q186.06563 24.6125 185.78438 24.909374Q185.51875 25.20625 184.9875 25.20625Q184.47188 25.20625 184.19063 24.909374Q183.925 24.6125 183.925 24.175ZM190.62813 26.9875L190.69063 28.315624Q191.89375 26.784374 193.84688 26.784374Q197.20625 26.784374 197.22188 30.565624L197.22188 37.55L195.425 37.55L195.425 30.55Q195.40938 29.409374 194.89375 28.8625Q194.39375 28.315624 193.3 28.315624Q192.425 28.315624 191.75313 28.784374Q191.09688 29.253124 190.72188 30.01875L190.72188 37.55L188.925 37.55L188.925 26.9875L190.62813 26.9875ZM199.4875 32.175Q199.4875 29.70625 200.62813 28.253124Q201.76875 26.784374 203.65938 26.784374Q205.59688 26.784374 206.675 28.159374L206.76875 26.9875L208.40938 26.9875L208.40938 37.3Q208.40938 39.346874 207.19063 40.51875Q205.9875 41.70625 203.925 41.70625Q202.78438 41.70625 201.69063 41.221874Q200.59688 40.7375 200.01875 39.878124L200.95625 38.8Q202.12813 40.2375 203.8 40.2375Q205.12813 40.2375 205.8625 39.4875Q206.59688 38.753124 206.59688 37.409374L206.59688 36.4875Q205.51875 37.753124 203.64375 37.753124Q201.78438 37.753124 200.62813 36.253124Q199.4875 34.753124 199.4875 32.175ZM201.3 32.378124Q201.3 34.175 202.03438 35.190624Q202.76875 36.20625 204.08125 36.20625Q205.8 36.20625 206.59688 34.659374L206.59688 29.83125Q205.76875 28.315624 204.1125 28.315624Q202.78438 28.315624 202.03438 29.346874Q201.3 30.378124 201.3 32.378124ZM215.47188 32.175Q215.47188 29.753124 216.62813 28.26875Q217.78438 26.784374 219.64375 26.784374Q221.50313 26.784374 222.58125 28.05L222.58125 22.55L224.39375 22.55L224.39375 37.55L222.7375 37.55L222.64375 36.409374Q221.56563 37.753124 219.62813 37.753124Q217.8 37.753124 216.62813 36.253124Q215.47188 34.7375 215.47188 32.315624L215.47188 32.175ZM217.28438 32.378124Q217.28438 34.175 218.01875 35.190624Q218.76875 36.20625 220.08125 36.20625Q221.8 36.20625 222.58125 34.675L222.58125 29.815624Q221.78438 28.315624 220.09688 28.315624Q218.76875 28.315624 218.01875 29.346874Q217.28438 30.378124 217.28438 32.378124ZM228.87813 37.55L227.08125 37.55L227.08125 26.9875L228.87813 26.9875L228.87813 37.55ZM226.925 24.175Q226.925 23.7375 227.19063 23.440624Q227.47188 23.128124 227.9875 23.128124Q228.51875 23.128124 228.78438 23.440624Q229.06563 23.7375 229.06563 24.175Q229.06563 24.6125 228.78438 24.909374Q228.51875 25.20625 227.9875 25.20625Q227.47188 25.20625 227.19063 24.909374Q226.925 24.6125 226.925 24.175ZM233.6125 26.9875L233.65938 28.159374Q234.83125 26.784374 236.8 26.784374Q239.01875 26.784374 239.81563 28.4875Q240.34688 27.721874 241.19063 27.253124Q242.03438 26.784374 243.19063 26.784374Q246.65938 26.784374 246.72188 30.471874L246.72188 37.55L244.90938 37.55L244.90938 30.58125Q244.90938 29.440624 244.39375 28.878124Q243.87813 28.315624 242.65938 28.315624Q241.65938 28.315624 240.9875 28.925Q240.33125 29.51875 240.22188 30.534374L240.22188 37.55L238.40938 37.55L238.40938 30.628124Q238.40938 28.315624 236.14375 28.315624Q234.3625 28.315624 233.72188 29.83125L233.72188 37.55L231.90938 37.55L231.90938 26.9875L233.6125 26.9875Z" fill-rule="nonzero"/></svg>