<svg version="1.1" viewBox="0.0 0.0 600.0 371.0" fill="none" stroke="none" stroke-linecap="square" stroke-miterlimit="10" width="600" height="371" xmlns:xlink="http://www.w3.org/1999/xlink" xmlns="http://www.w3.org/2000/svg"><path fill="#ffffff" d="M0 0L600.0 0L600.0 371.0L0 371.0L0 0Z" fill-rule="nonzero"/><path stroke="#333333" stroke-width="1.0" stroke-linecap="butt" d="M45.5 298.5L581.5 298.5" fill-rule="nonzero"/><path stroke="#cccccc" stroke-width="1.0" stroke-linecap="butt" d="M45.5 228.5L581.5 228.5" fill-rule="nonzero"/><path stroke="#cccccc" stroke-width="1.0" stroke-linecap="butt" d="M45.5 159.5L581.5 159.5" fill-rule="nonzero"/><path stroke="#cccccc" stroke-width="1.0" stroke-linecap="butt" d="M45.5 89.5L581.5 89.5" fill-rule="nonzero"/><clipPath id="id_0"><path d="M45.55 89.78333L581.45 89.78333L581.45 298.45L45.55 298.45L45.55 89.78333Z" clip-rule="nonzero"/></clipPath><path stroke="#000000" stroke-width="0.0" stroke-linecap="butt" stroke-opacity="0.0" clip-path="url(#id_0)" d="M94.0 298.0L71.0 298.0L71.0 122.0C71.0 120.89543 71.89543 120.0 73.0 120.0L92.0 120.0C93.10457 120.0 94.0 120.89543 94.0 122.0Z" fill-rule="nonzero"/><path fill="#4285f4" clip-path="url(#id_0)" d="M94.0 298.0L71.0 298.0L71.0 122.0C71.0 120.89543 71.89543 120.0 73.0 120.0L92.0 120.0C93.10457 120.0 94.0 120.89543 94.0 122.0Z" fill-rule="nonzero"/><path stroke="#000000" stroke-width="0.0" stroke-linecap="butt" stroke-opacity="0.0" clip-path="url(#id_0)" d="M167.0 298.0L144.0 298.0L144.0 182.0C144.0 180.89543 144.89543 180.0 146.0 180.0L165.0 180.0C166.10457 180.0 167.0 180.89543 167.0 182.0Z" fill-rule="nonzero"/><path fill="#4285f4" clip-path="url(#id_0)" d="M167.0 298.0L144.0 298.0L144.0 182.0C144.0 180.89543 144.89543 180.0 146.0 180.0L165.0 180.0C166.10457 180.0 167.0 180.89543 167.0 182.0Z" fill-rule="nonzero"/><path stroke="#000000" stroke-width="0.0" stroke-linecap="butt" stroke-opacity="0.0" clip-path="url(#id_0)" d="M240.0 298.0L217.0 298.0L217.0 225.0C217.0 223.89543 217.89543 223.0 219.0 223.0L238.0 223.0C239.10457 223.0 240.0 223.89543 240.0 225.0Z" fill-rule="nonzero"/><path fill="#4285f4" clip-path="url(#id_0)" d="M240.0 298.0L217.0 298.0L217.0 225.0C217.0 223.89543 217.89543 223.0 219.0 223.0L238.0 223.0C239.10457 223.0 240.0 223.89543 240.0 225.0Z" fill-rule="nonzero"/><path stroke="#000000" stroke-width="0.0" stroke-linecap="butt" stroke-opacity="0.0" clip-path="url(#id_0)" d="M313.0 298.0L290.0 298.0L290.0 253.0C290.0 251.89543 290.89542 251.0 292.0 251.0L311.0 251.0C312.10458 251.0 313.0 251.89543 313.0 253.0Z" fill-rule="nonzero"/><path fill="#4285f4" clip-path="url(#id_0)" d="M313.0 298.0L290.0 298.0L290.0 253.0C290.0 251.89543 290.89542 251.0 292.0 251.0L311.0 251.0C312.10458 251.0 313.0 251.89543 313.0 253.0Z" fill-rule="nonzero"/><path stroke="#000000" stroke-width="0.0" stroke-linecap="butt" stroke-opacity="0.0" clip-path="url(#id_0)" d="M385.0 298.0L362.0 298.0L362.0 242.0C362.0 240.89543 362.89542 240.0 364.0 240.0L383.0 240.0C384.10458 240.0 385.0 240.89543 385.0 242.0Z" fill-rule="nonzero"/><path fill="#4285f4" clip-path="url(#id_0)" d="M385.0 298.0L362.0 298.0L362.0 242.0C362.0 240.89543 362.89542 240.0 364.0 240.0L383.0 240.0C384.10458 240.0 385.0 240.89543 385.0 242.0Z" fill-rule="nonzero"/><path stroke="#000000" stroke-width="0.0" stroke-linecap="butt" stroke-opacity="0.0" clip-path="url(#id_0)" d="M458.0 298.0L435.0 298.0L435.0 172.0C435.0 170.89543 435.89542 170.0 437.0 170.0L456.0 170.0C457.10458 170.0 458.0 170.89543 458.0 172.0Z" fill-rule="nonzero"/><path fill="#4285f4" clip-path="url(#id_0)" d="M458.0 298.0L435.0 298.0L435.0 172.0C435.0 170.89543 435.89542 170.0 437.0 170.0L456.0 170.0C457.10458 170.0 458.0 170.89543 458.0 172.0Z" fill-rule="nonzero"/><path stroke="#000000" stroke-width="0.0" stroke-linecap="butt" stroke-opacity="0.0" clip-path="url(#id_0)" d="M531.0 298.0L508.0 298.0L508.0 152.0C508.0 150.89543 508.89542 150.0 510.0 150.0L529.0 150.0C530.10455 150.0 531.0 150.89543 531.0 152.0Z" fill-rule="nonzero"/><path fill="#4285f4" clip-path="url(#id_0)" d="M531.0 298.0L508.0 298.0L508.0 152.0C508.0 150.89543 508.89542 150.0 510.0 150.0L529.0 150.0C530.10455 150.0 531.0 150.89543 531.0 152.0Z" fill-rule="nonzero"/><path stroke="#000000" stroke-width="0.0" stroke-linecap="butt" stroke-opacity="0.0" clip-path="url(#id_0)" d="M118.0 298.0L95.0 298.0L95.0 129.0C95.0 127.89543 95.89543 127.0 97.0 127.0L116.0 127.0C117.10457 127.0 118.0 127.89543 118.0 129.0Z" fill-rule="nonzero"/><path fill="#db4437" clip-path="url(#id_0)" d="M118.0 298.0L95.0 298.0L95.0 129.0C95.0 127.89543 95.89543 127.0 97.0 127.0L116.0 127.0C117.10457 127.0 118.0 127.89543 118.0 129.0Z" fill-rule="nonzero"/><path stroke="#000000" stroke-width="0.0" stroke-linecap="butt" stroke-opacity="0.0" clip-path="url(#id_0)" d="M191.0 298.0L168.0 298.0L168.0 189.0C168.0 187.89543 168.89543 187.0 170.0 187.0L189.0 187.0C190.10457 187.0 191.0 187.89543 191.0 189.0Z" fill-rule="nonzero"/><path fill="#db4437" clip-path="url(#id_0)" d="M191.0 298.0L168.0 298.0L168.0 189.0C168.0 187.89543 168.89543 187.0 170.0 187.0L189.0 187.0C190.10457 187.0 191.0 187.89543 191.0 189.0Z" fill-rule="nonzero"/><path stroke="#000000" stroke-width="0.0" stroke-linecap="butt" stroke-opacity="0.0" clip-path="url(#id_0)" d="M264.0 298.0L241.0 298.0L241.0 231.0C241.0 229.89543 241.89543 229.0 243.0 229.0L262.0 229.0C263.10458 229.0 264.0 229.89543 264.0 231.0Z" fill-rule="nonzero"/><path fill="#db4437" clip-path="url(#id_0)" d="M264.0 298.0L241.0 298.0L241.0 231.0C241.0 229.89543 241.89543 229.0 243.0 229.0L262.0 229.0C263.10458 229.0 264.0 229.89543 264.0 231.0Z" fill-rule="nonzero"/><path stroke="#000000" stroke-width="0.0" stroke-linecap="butt" stroke-opacity="0.0" clip-path="url(#id_0)" d="M337.0 298.0L314.0 298.0L314.0 258.0C314.0 256.89542 314.89542 256.0 316.0 256.0L335.0 256.0C336.10458 256.0 337.0 256.89542 337.0 258.0Z" fill-rule="nonzero"/><path fill="#db4437" clip-path="url(#id_0)" d="M337.0 298.0L314.0 298.0L314.0 258.0C314.0 256.89542 314.89542 256.0 316.0 256.0L335.0 256.0C336.10458 256.0 337.0 256.89542 337.0 258.0Z" fill-rule="nonzero"/><path stroke="#000000" stroke-width="0.0" stroke-linecap="butt" stroke-opacity="0.0" clip-path="url(#id_0)" d="M409.0 298.0L386.0 298.0L386.0 245.0C386.0 243.89543 386.89542 243.0 388.0 243.0L407.0 243.0C408.10458 243.0 409.0 243.89543 409.0 245.0Z" fill-rule="nonzero"/><path fill="#db4437" clip-path="url(#id_0)" d="M409.0 298.0L386.0 298.0L386.0 245.0C386.0 243.89543 386.89542 243.0 388.0 243.0L407.0 243.0C408.10458 243.0 409.0 243.89543 409.0 245.0Z" fill-rule="nonzero"/><path stroke="#000000" stroke-width="0.0" stroke-linecap="butt" stroke-opacity="0.0" clip-path="url(#id_0)" d="M482.0 298.0L459.0 298.0L459.0 178.0C459.0 176.89543 459.89542 176.0 461.0 176.0L480.0 176.0C481.10458 176.0 482.0 176.89543 482.0 178.0Z" fill-rule="nonzero"/><path fill="#db4437" clip-path="url(#id_0)" d="M482.0 298.0L459.0 298.0L459.0 178.0C459.0 176.89543 459.89542 176.0 461.0 176.0L480.0 176.0C481.10458 176.0 482.0 176.89543 482.0 178.0Z" fill-rule="nonzero"/><path stroke="#000000" stroke-width="0.0" stroke-linecap="butt" stroke-opacity="0.0" clip-path="url(#id_0)" d="M555.0 298.0L532.0 298.0L532.0 171.0C532.0 169.89543 532.89545 169.0 534.0 169.0L553.0 169.0C554.10455 169.0 555.0 169.89543 555.0 171.0Z" fill-rule="nonzero"/><path fill="#db4437" clip-path="url(#id_0)" d="M555.0 298.0L532.0 298.0L532.0 171.0C532.0 169.89543 532.89545 169.0 534.0 169.0L553.0 169.0C554.10455 169.0 555.0 169.89543 555.0 171.0Z" fill-rule="nonzero"/><path fill="#424242" d="M291.1875 346.35626Q291.1875 347.8094 290.51562 348.7Q289.85938 349.575 288.73438 349.575Q287.53125 349.575 286.875 348.71564L286.8125 349.45L285.82812 349.45L285.82812 340.45L286.90625 340.45L286.90625 343.8094Q287.5625 342.9969 288.71875 342.9969Q289.875 342.9969 290.53125 343.8719Q291.1875 344.73126 291.1875 346.2625L291.1875 346.35626ZM290.10938 346.23126Q290.10938 345.1219 289.67188 344.52814Q289.25 343.91876 288.45312 343.91876Q287.375 343.91876 286.90625 344.90314L286.90625 347.65314Q287.40625 348.65314 288.45312 348.65314Q289.23438 348.65314 289.67188 348.04376Q290.10938 347.4344 290.10938 346.23126ZM296.73438 349.45Q296.64062 349.2625 296.57812 348.77814Q295.82812 349.575 294.78125 349.575Q293.84375 349.575 293.23438 349.04376Q292.64062 348.5125 292.64062 347.6844Q292.64062 346.7 293.39062 346.15314Q294.14062 345.60626 295.51562 345.60626L296.5625 345.60626L296.5625 345.10626Q296.5625 344.54376 296.21875 344.21564Q295.89062 343.8719 295.21875 343.8719Q294.64062 343.8719 294.25 344.16876Q293.85938 344.45 293.85938 344.8719L292.76562 344.8719Q292.76562 344.3875 293.09375 343.95Q293.4375 343.5125 294.01562 343.2625Q294.59375 342.9969 295.28125 342.9969Q296.39062 342.9969 297.0 343.54376Q297.625 344.09064 297.65625 345.04376L297.65625 347.96564Q297.65625 348.84064 297.875 349.35626L297.875 349.45L296.73438 349.45ZM294.9375 348.6219Q295.45312 348.6219 295.90625 348.35626Q296.35938 348.09064 296.5625 347.66876L296.5625 346.3719L295.71875 346.3719Q293.71875 346.3719 293.71875 347.54376Q293.71875 348.04376 294.0625 348.34064Q294.40625 348.6219 294.9375 348.6219ZM301.29688 341.575L301.29688 343.10626L302.46875 343.10626L302.46875 343.95L301.29688 343.95L301.29688 347.8719Q301.29688 348.2625 301.45312 348.45Q301.60938 348.6375 301.98438 348.6375Q302.17188 348.6375 302.5 348.575L302.5 349.45Q302.07812 349.575 301.67188 349.575Q300.95312 349.575 300.57812 349.1375Q300.20312 348.6844 300.20312 347.8719L300.20312 343.95L299.04688 343.95L299.04688 343.10626L300.20312 343.10626L300.20312 341.575L301.29688 341.575ZM306.35938 348.6844Q306.9375 348.6844 307.375 348.34064Q307.8125 347.98126 307.85938 347.45L308.89062 347.45Q308.85938 347.9969 308.5 348.4969Q308.15625 348.98126 307.57812 349.27814Q307.01562 349.575 306.35938 349.575Q305.0625 349.575 304.29688 348.71564Q303.54688 347.84064 303.54688 346.34064L303.54688 346.15314Q303.54688 345.23126 303.875 344.5125Q304.21875 343.79376 304.84375 343.40314Q305.48438 342.9969 306.35938 342.9969Q307.42188 342.9969 308.125 343.6375Q308.84375 344.2625 308.89062 345.29376L307.85938 345.29376Q307.8125 344.66876 307.39062 344.27814Q306.96875 343.8875 306.35938 343.8875Q305.53125 343.8875 305.07812 344.48126Q304.625 345.075 304.625 346.2L304.625 346.40314Q304.625 347.4969 305.07812 348.09064Q305.53125 348.6844 306.35938 348.6844ZM310.90625 343.8719Q311.625 342.9969 312.78125 342.9969Q314.79688 342.9969 314.8125 345.2625L314.8125 349.45L313.71875 349.45L313.71875 345.2469Q313.71875 344.575 313.40625 344.2469Q313.10938 343.91876 312.45312 343.91876Q311.92188 343.91876 311.51562 344.2Q311.125 344.48126 310.90625 344.9344L310.90625 349.45L309.82812 349.45L309.82812 340.45L310.90625 340.45L310.90625 343.8719ZM321.39062 350.34064L316.03125 350.34064L316.03125 349.45L321.39062 349.45L321.39062 350.34064ZM325.51562 347.7625Q325.51562 347.325 325.17188 347.09064Q324.84375 346.84064 324.01562 346.66876Q323.20312 346.4969 322.71875 346.2469Q322.23438 345.9969 322.0 345.66876Q321.78125 345.325 321.78125 344.85626Q321.78125 344.075 322.4375 343.54376Q323.09375 342.9969 324.125 342.9969Q325.20312 342.9969 325.85938 343.5594Q326.53125 344.10626 326.53125 344.96564L325.45312 344.96564Q325.45312 344.52814 325.0625 344.21564Q324.6875 343.8875 324.125 343.8875Q323.53125 343.8875 323.1875 344.15314Q322.85938 344.40314 322.85938 344.8094Q322.85938 345.2 323.17188 345.40314Q323.48438 345.60626 324.29688 345.79376Q325.10938 345.96564 325.60938 346.21564Q326.10938 346.46564 326.34375 346.825Q326.59375 347.1844 326.59375 347.6844Q326.59375 348.54376 325.90625 349.0594Q325.23438 349.575 324.15625 349.575Q323.39062 349.575 322.79688 349.3094Q322.21875 349.02814 321.89062 348.54376Q321.5625 348.0594 321.5625 347.4969L322.64062 347.4969Q322.67188 348.04376 323.07812 348.3719Q323.48438 348.6844 324.15625 348.6844Q324.76562 348.6844 325.14062 348.4344Q325.51562 348.1844 325.51562 347.7625ZM329.0 349.45L327.92188 349.45L327.92188 343.10626L329.0 343.10626L329.0 349.45ZM327.82812 341.4344Q327.82812 341.16876 327.98438 340.98126Q328.15625 340.79376 328.46875 340.79376Q328.78125 340.79376 328.9375 340.98126Q329.10938 341.16876 329.10938 341.4344Q329.10938 341.6844 328.9375 341.8719Q328.78125 342.04376 328.46875 342.04376Q328.15625 342.04376 327.98438 341.8719Q327.82812 341.6844 327.82812 341.4344ZM331.84375 348.5594L335.54688 348.5594L335.54688 349.45L330.51562 349.45L330.51562 348.65314L334.01562 344.0125L330.5625 344.0125L330.5625 343.10626L335.375 343.10626L335.375 343.8719L331.84375 348.5594ZM339.45312 349.575Q338.15625 349.575 337.34375 348.73126Q336.54688 347.8719 336.54688 346.45L336.54688 346.2625Q336.54688 345.3094 336.90625 344.575Q337.26562 343.825 337.90625 343.41876Q338.5625 342.9969 339.3125 342.9969Q340.54688 342.9969 341.23438 343.8094Q341.92188 344.6219 341.92188 346.1375L341.92188 346.59064L337.625 346.59064Q337.65625 347.52814 338.17188 348.10626Q338.70312 348.6844 339.51562 348.6844Q340.07812 348.6844 340.46875 348.45Q340.875 348.21564 341.1875 347.825L341.84375 348.34064Q341.04688 349.575 339.45312 349.575ZM339.3125 343.8875Q338.65625 343.8875 338.20312 344.3719Q337.76562 344.84064 337.67188 345.7L340.84375 345.7L340.84375 345.6219Q340.79688 344.79376 340.39062 344.34064Q340.0 343.8875 339.3125 343.8875Z" fill-rule="nonzero"/><path fill="#757575" d="M38.6125 299.3094Q38.6125 301.21564 37.95625 302.15314Q37.315624 303.075 35.925 303.075Q34.565624 303.075 33.909374 302.16876Q33.253124 301.2625 33.221874 299.45L33.221874 298.0125Q33.221874 296.1219 33.8625 295.21564Q34.51875 294.29376 35.909374 294.29376Q37.284374 294.29376 37.940624 295.1844Q38.596874 296.0594 38.6125 297.90314L38.6125 299.3094ZM37.51875 297.825Q37.51875 296.45 37.128124 295.825Q36.753124 295.1844 35.909374 295.1844Q35.08125 295.1844 34.690624 295.825Q34.315624 296.45 34.315624 297.7469L34.315624 299.48126Q34.315624 300.85626 34.70625 301.52814Q35.1125 302.1844 35.925 302.1844Q36.721874 302.1844 37.1125 301.5594Q37.503124 300.9344 37.51875 299.60626L37.51875 297.825Z" fill-rule="nonzero"/><path fill="#757575" d="M28.6125 229.75381Q28.6125 231.66006 27.95625 232.59756Q27.315624 233.51944 25.925 233.51944Q24.565624 233.51944 23.909374 232.61319Q23.253124 231.70694 23.221874 229.89444L23.221874 228.45694Q23.221874 226.56631 23.8625 225.66006Q24.51875 224.73819 25.909374 224.73819Q27.284374 224.73819 27.940624 225.62881Q28.596874 226.50381 28.6125 228.34756L28.6125 229.75381ZM27.51875 228.26944Q27.51875 226.89444 27.128124 226.26944Q26.753124 225.62881 25.909374 225.62881Q25.08125 225.62881 24.690624 226.26944Q24.315624 226.89444 24.315624 228.19131L24.315624 229.92569Q24.315624 231.30069 24.70625 231.97256Q25.1125 232.62881 25.925 232.62881Q26.721874 232.62881 27.1125 232.00381Q27.503124 231.37881 27.51875 230.05069L27.51875 228.26944ZM30.39375 232.83194Q30.39375 232.55069 30.55 232.36319Q30.721874 232.17569 31.05 232.17569Q31.39375 232.17569 31.565624 232.36319Q31.7375 232.55069 31.7375 232.83194Q31.7375 233.09756 31.565624 233.28506Q31.39375 233.45694 31.05 233.45694Q30.721874 233.45694 30.55 233.28506Q30.39375 233.09756 30.39375 232.83194ZM38.846874 233.39444L33.253124 233.39444L33.253124 232.61319L36.20625 229.33194Q36.8625 228.58194 37.1125 228.12881Q37.3625 227.66006 37.3625 227.16006Q37.3625 226.48819 36.95625 226.06631Q36.565624 225.62881 35.878124 225.62881Q35.08125 225.62881 34.628124 226.09756Q34.175 226.55069 34.175 227.37881L33.096874 227.37881Q33.096874 226.19131 33.846874 225.47256Q34.6125 224.73819 35.878124 224.73819Q37.08125 224.73819 37.76875 225.36319Q38.45625 225.98819 38.45625 227.03506Q38.45625 228.28506 36.846874 230.03506L34.565624 232.50381L38.846874 232.50381L38.846874 233.39444Z" fill-rule="nonzero"/><path fill="#757575" d="M28.6125 160.19826Q28.6125 162.1045 27.95625 163.042Q27.315624 163.96388 25.925 163.96388Q24.565624 163.96388 23.909374 163.05763Q23.253124 162.15138 23.221874 160.33888L23.221874 158.90138Q23.221874 157.01076 23.8625 156.1045Q24.51875 155.18263 25.909374 155.18263Q27.284374 155.18263 27.940624 156.07326Q28.596874 156.94826 28.6125 158.792L28.6125 160.19826ZM27.51875 158.71388Q27.51875 157.33888 27.128124 156.71388Q26.753124 156.07326 25.909374 156.07326Q25.08125 156.07326 24.690624 156.71388Q24.315624 157.33888 24.315624 158.63576L24.315624 160.37013Q24.315624 161.74513 24.70625 162.417Q25.1125 163.07326 25.925 163.07326Q26.721874 163.07326 27.1125 162.44826Q27.503124 161.82326 27.51875 160.49513L27.51875 158.71388ZM30.39375 163.27638Q30.39375 162.99513 30.55 162.80763Q30.721874 162.62013 31.05 162.62013Q31.39375 162.62013 31.565624 162.80763Q31.7375 162.99513 31.7375 163.27638Q31.7375 163.542 31.565624 163.7295Q31.39375 163.90138 31.05 163.90138Q30.721874 163.90138 30.55 163.7295Q30.39375 163.542 30.39375 163.27638ZM37.83125 160.9795L39.01875 160.9795L39.01875 161.8545L37.83125 161.8545L37.83125 163.83888L36.753124 163.83888L36.753124 161.8545L32.8625 161.8545L32.8625 161.21388L36.675 155.30763L37.83125 155.30763L37.83125 160.9795ZM34.096874 160.9795L36.753124 160.9795L36.753124 156.792L36.6125 157.02638L34.096874 160.9795Z" fill-rule="nonzero"/><path fill="#757575" d="M28.6125 90.64271Q28.6125 92.54896 27.95625 93.48646Q27.315624 94.40833 25.925 94.40833Q24.565624 94.40833 23.909374 93.50208Q23.253124 92.59583 23.221874 90.78333L23.221874 89.34583Q23.221874 87.45521 23.8625 86.54896Q24.51875 85.62708 25.909374 85.62708Q27.284374 85.62708 27.940624 86.51771Q28.596874 87.39271 28.6125 89.23646L28.6125 90.64271ZM27.51875 89.15833Q27.51875 87.78333 27.128124 87.15833Q26.753124 86.51771 25.909374 86.51771Q25.08125 86.51771 24.690624 87.15833Q24.315624 87.78333 24.315624 89.08021L24.315624 90.81458Q24.315624 92.18958 24.70625 92.86146Q25.1125 93.51771 25.925 93.51771Q26.721874 93.51771 27.1125 92.89271Q27.503124 92.26771 27.51875 90.93958L27.51875 89.15833ZM30.39375 93.72083Q30.39375 93.43958 30.55 93.25208Q30.721874 93.06458 31.05 93.06458Q31.39375 93.06458 31.565624 93.25208Q31.7375 93.43958 31.7375 93.72083Q31.7375 93.98646 31.565624 94.17396Q31.39375 94.34583 31.05 94.34583Q30.721874 94.34583 30.55 94.17396Q30.39375 93.98646 30.39375 93.72083ZM37.51875 85.75208L37.51875 86.65833L37.315624 86.65833Q36.05 86.68958 35.3 87.42396Q34.55 88.14271 34.425 89.45521Q35.1125 88.68958 36.26875 88.68958Q37.378124 88.68958 38.05 89.47083Q38.721874 90.25208 38.721874 91.50208Q38.721874 92.81458 38.003124 93.61146Q37.284374 94.40833 36.065624 94.40833Q34.846874 94.40833 34.08125 93.47083Q33.33125 92.51771 33.33125 91.03333L33.33125 90.62708Q33.33125 88.26771 34.33125 87.01771Q35.33125 85.76771 37.315624 85.75208L37.51875 85.75208ZM36.096874 89.59583Q35.534374 89.59583 35.065624 89.92396Q34.596874 90.25208 34.409374 90.76771L34.409374 91.15833Q34.409374 92.22083 34.878124 92.86146Q35.3625 93.50208 36.065624 93.50208Q36.8 93.50208 37.221874 92.97083Q37.64375 92.42396 37.64375 91.54896Q37.64375 90.67396 37.221874 90.14271Q36.8 89.59583 36.096874 89.59583Z" fill-rule="nonzero"/><path fill="#757575" d="M78.24968 316.45L78.24968 307.91876L81.046555 307.91876Q82.43718 307.91876 83.12468 308.4969Q83.827805 309.0594 83.827805 310.1844Q83.827805 310.79376 83.484055 311.2625Q83.15593 311.71564 82.56218 311.96564Q83.265305 312.15314 83.65593 312.7Q84.06218 313.23126 84.06218 313.98126Q84.06218 315.1375 83.31218 315.79376Q82.577805 316.45 81.21843 316.45L78.24968 316.45ZM79.37468 312.46564L79.37468 315.52814L81.234055 315.52814Q82.03093 315.52814 82.484055 315.1219Q82.93718 314.71564 82.93718 313.9969Q82.93718 312.46564 81.24968 312.46564L79.37468 312.46564ZM79.37468 311.5594L81.077805 311.5594Q81.81218 311.5594 82.24968 311.2Q82.702805 310.825 82.702805 310.1844Q82.702805 309.48126 82.296555 309.16876Q81.890305 308.84064 81.046555 308.84064L79.37468 308.84064L79.37468 311.5594ZM86.265305 316.45L85.18718 316.45L85.18718 307.45L86.265305 307.45L86.265305 316.45ZM90.71843 316.575Q89.421555 316.575 88.609055 315.73126Q87.81218 314.8719 87.81218 313.45L87.81218 313.2625Q87.81218 312.3094 88.171555 311.575Q88.53093 310.825 89.171555 310.41876Q89.827805 309.9969 90.577805 309.9969Q91.81218 309.9969 92.49968 310.8094Q93.18718 311.6219 93.18718 313.1375L93.18718 313.59064L88.890305 313.59064Q88.921555 314.52814 89.43718 315.10626Q89.96843 315.6844 90.78093 315.6844Q91.34343 315.6844 91.734055 315.45Q92.140305 315.21564 92.452805 314.825L93.109055 315.34064Q92.31218 316.575 90.71843 316.575ZM90.577805 310.8875Q89.921555 310.8875 89.46843 311.3719Q89.03093 311.84064 88.93718 312.7L92.109055 312.7L92.109055 312.6219Q92.06218 311.79376 91.65593 311.34064Q91.265305 310.8875 90.577805 310.8875ZM97.99968 315.825Q97.37468 316.575 96.140305 316.575Q95.12468 316.575 94.59343 315.98126Q94.06218 315.3875 94.06218 314.23126L94.06218 310.10626L95.140305 310.10626L95.140305 314.2Q95.140305 315.65314 96.31218 315.65314Q97.56218 315.65314 97.96843 314.71564L97.96843 310.10626L99.06218 310.10626L99.06218 316.45L98.03093 316.45L97.99968 315.825ZM105.65593 317.34064L100.296555 317.34064L100.296555 316.45L105.65593 316.45L105.65593 317.34064ZM109.53093 316.45L108.452805 316.45L108.452805 309.23126L106.265305 310.02814L106.265305 309.04376L109.37468 307.8719L109.53093 307.8719L109.53093 316.45Z" fill-rule="nonzero"/><path fill="#757575" d="M151.16124 316.45L151.16124 307.91876L153.95811 307.91876Q155.34874 307.91876 156.03624 308.4969Q156.73936 309.0594 156.73936 310.1844Q156.73936 310.79376 156.39561 311.2625Q156.06749 311.71564 155.47374 311.96564Q156.17686 312.15314 156.56749 312.7Q156.97374 313.23126 156.97374 313.98126Q156.97374 315.1375 156.22374 315.79376Q155.48936 316.45 154.12999 316.45L151.16124 316.45ZM152.28624 312.46564L152.28624 315.52814L154.14561 315.52814Q154.94249 315.52814 155.39561 315.1219Q155.84874 314.71564 155.84874 313.9969Q155.84874 312.46564 154.16124 312.46564L152.28624 312.46564ZM152.28624 311.5594L153.98936 311.5594Q154.72374 311.5594 155.16124 311.2Q155.61436 310.825 155.61436 310.1844Q155.61436 309.48126 155.20811 309.16876Q154.80186 308.84064 153.95811 308.84064L152.28624 308.84064L152.28624 311.5594ZM159.17686 316.45L158.09874 316.45L158.09874 307.45L159.17686 307.45L159.17686 316.45ZM163.62999 316.575Q162.33311 316.575 161.52061 315.73126Q160.72374 314.8719 160.72374 313.45L160.72374 313.2625Q160.72374 312.3094 161.08311 311.575Q161.44249 310.825 162.08311 310.41876Q162.73936 309.9969 163.48936 309.9969Q164.72374 309.9969 165.41124 310.8094Q166.09874 311.6219 166.09874 313.1375L166.09874 313.59064L161.80186 313.59064Q161.83311 314.52814 162.34874 315.10626Q162.87999 315.6844 163.69249 315.6844Q164.25499 315.6844 164.64561 315.45Q165.05186 315.21564 165.36436 314.825L166.02061 315.34064Q165.22374 316.575 163.62999 316.575ZM163.48936 310.8875Q162.83311 310.8875 162.37999 311.3719Q161.94249 311.84064 161.84874 312.7L165.02061 312.7L165.02061 312.6219Q164.97374 311.79376 164.56749 311.34064Q164.17686 310.8875 163.48936 310.8875ZM170.91124 315.825Q170.28624 316.575 169.05186 316.575Q168.03624 316.575 167.50499 315.98126Q166.97374 315.3875 166.97374 314.23126L166.97374 310.10626L168.05186 310.10626L168.05186 314.2Q168.05186 315.65314 169.22374 315.65314Q170.47374 315.65314 170.87999 314.71564L170.87999 310.10626L171.97374 310.10626L171.97374 316.45L170.94249 316.45L170.91124 315.825ZM178.56749 317.34064L173.20811 317.34064L173.20811 316.45L178.56749 316.45L178.56749 317.34064ZM184.47374 316.45L178.87999 316.45L178.87999 315.66876L181.83311 312.3875Q182.48936 311.6375 182.73936 311.1844Q182.98936 310.71564 182.98936 310.21564Q182.98936 309.54376 182.58311 309.1219Q182.19249 308.6844 181.50499 308.6844Q180.70811 308.6844 180.25499 309.15314Q179.80186 309.60626 179.80186 310.4344L178.72374 310.4344Q178.72374 309.2469 179.47374 308.52814Q180.23936 307.79376 181.50499 307.79376Q182.70811 307.79376 183.39561 308.41876Q184.08311 309.04376 184.08311 310.09064Q184.08311 311.34064 182.47374 313.09064L180.19249 315.5594L184.47374 315.5594L184.47374 316.45Z" fill-rule="nonzero"/><path fill="#757575" d="M224.07281 316.45L224.07281 307.91876L226.86969 307.91876Q228.26031 307.91876 228.94781 308.4969Q229.65094 309.0594 229.65094 310.1844Q229.65094 310.79376 229.30719 311.2625Q228.97906 311.71564 228.38531 311.96564Q229.08844 312.15314 229.47906 312.7Q229.88531 313.23126 229.88531 313.98126Q229.88531 315.1375 229.13531 315.79376Q228.40094 316.45 227.04156 316.45L224.07281 316.45ZM225.19781 312.46564L225.19781 315.52814L227.05719 315.52814Q227.85406 315.52814 228.30719 315.1219Q228.76031 314.71564 228.76031 313.9969Q228.76031 312.46564 227.07281 312.46564L225.19781 312.46564ZM225.19781 311.5594L226.90094 311.5594Q227.63531 311.5594 228.07281 311.2Q228.52594 310.825 228.52594 310.1844Q228.52594 309.48126 228.11969 309.16876Q227.71344 308.84064 226.86969 308.84064L225.19781 308.84064L225.19781 311.5594ZM232.08844 316.45L231.01031 316.45L231.01031 307.45L232.08844 307.45L232.08844 316.45ZM236.54156 316.575Q235.24469 316.575 234.43219 315.73126Q233.63531 314.8719 233.63531 313.45L233.63531 313.2625Q233.63531 312.3094 233.99469 311.575Q234.35406 310.825 234.99469 310.41876Q235.65094 309.9969 236.40094 309.9969Q237.63531 309.9969 238.32281 310.8094Q239.01031 311.6219 239.01031 313.1375L239.01031 313.59064L234.71344 313.59064Q234.74469 314.52814 235.26031 315.10626Q235.79156 315.6844 236.60406 315.6844Q237.16656 315.6844 237.55719 315.45Q237.96344 315.21564 238.27594 314.825L238.93219 315.34064Q238.13531 316.575 236.54156 316.575ZM236.40094 310.8875Q235.74469 310.8875 235.29156 311.3719Q234.85406 311.84064 234.76031 312.7L237.93219 312.7L237.93219 312.6219Q237.88531 311.79376 237.47906 311.34064Q237.08844 310.8875 236.40094 310.8875ZM243.82281 315.825Q243.19781 316.575 241.96344 316.575Q240.94781 316.575 240.41656 315.98126Q239.88531 315.3875 239.88531 314.23126L239.88531 310.10626L240.96344 310.10626L240.96344 314.2Q240.96344 315.65314 242.13531 315.65314Q243.38531 315.65314 243.79156 314.71564L243.79156 310.10626L244.88531 310.10626L244.88531 316.45L243.85406 316.45L243.82281 315.825ZM251.47906 317.34064L246.11969 317.34064L246.11969 316.45L251.47906 316.45L251.47906 317.34064ZM253.36969 311.65314L254.18219 311.65314Q254.96344 311.6375 255.40094 311.2469Q255.83844 310.85626 255.83844 310.1844Q255.83844 308.6844 254.33844 308.6844Q253.63531 308.6844 253.21344 309.09064Q252.80719 309.4969 252.80719 310.15314L251.71344 310.15314Q251.71344 309.1375 252.44781 308.46564Q253.19781 307.79376 254.33844 307.79376Q255.54156 307.79376 256.22906 308.4344Q256.91656 309.075 256.91656 310.21564Q256.91656 310.77814 256.5572 311.29376Q256.1978 311.8094 255.57281 312.075Q256.27594 312.29376 256.65094 312.8094Q257.04156 313.325 257.04156 314.075Q257.04156 315.21564 256.29156 315.90314Q255.54156 316.575 254.33844 316.575Q253.15094 316.575 252.38531 315.91876Q251.63531 315.2625 251.63531 314.2L252.72906 314.2Q252.72906 314.8719 253.16656 315.27814Q253.60406 315.6844 254.35406 315.6844Q255.13531 315.6844 255.54156 315.27814Q255.96344 314.85626 255.96344 314.09064Q255.96344 313.35626 255.51031 312.96564Q255.05719 312.5594 254.18219 312.54376L253.36969 312.54376L253.36969 311.65314Z" fill-rule="nonzero"/><path fill="#757575" d="M296.98438 316.45L296.98438 307.91876L299.78125 307.91876Q301.17188 307.91876 301.85938 308.4969Q302.5625 309.0594 302.5625 310.1844Q302.5625 310.79376 302.21875 311.2625Q301.89062 311.71564 301.29688 311.96564Q302.0 312.15314 302.39062 312.7Q302.79688 313.23126 302.79688 313.98126Q302.79688 315.1375 302.04688 315.79376Q301.3125 316.45 299.95312 316.45L296.98438 316.45ZM298.10938 312.46564L298.10938 315.52814L299.96875 315.52814Q300.76562 315.52814 301.21875 315.1219Q301.67188 314.71564 301.67188 313.9969Q301.67188 312.46564 299.98438 312.46564L298.10938 312.46564ZM298.10938 311.5594L299.8125 311.5594Q300.54688 311.5594 300.98438 311.2Q301.4375 310.825 301.4375 310.1844Q301.4375 309.48126 301.03125 309.16876Q300.625 308.84064 299.78125 308.84064L298.10938 308.84064L298.10938 311.5594ZM305.0 316.45L303.92188 316.45L303.92188 307.45L305.0 307.45L305.0 316.45ZM309.45312 316.575Q308.15625 316.575 307.34375 315.73126Q306.54688 314.8719 306.54688 313.45L306.54688 313.2625Q306.54688 312.3094 306.90625 311.575Q307.26562 310.825 307.90625 310.41876Q308.5625 309.9969 309.3125 309.9969Q310.54688 309.9969 311.23438 310.8094Q311.92188 311.6219 311.92188 313.1375L311.92188 313.59064L307.625 313.59064Q307.65625 314.52814 308.17188 315.10626Q308.70312 315.6844 309.51562 315.6844Q310.07812 315.6844 310.46875 315.45Q310.875 315.21564 311.1875 314.825L311.84375 315.34064Q311.04688 316.575 309.45312 316.575ZM309.3125 310.8875Q308.65625 310.8875 308.20312 311.3719Q307.76562 311.84064 307.67188 312.7L310.84375 312.7L310.84375 312.6219Q310.79688 311.79376 310.39062 311.34064Q310.0 310.8875 309.3125 310.8875ZM316.73438 315.825Q316.10938 316.575 314.875 316.575Q313.85938 316.575 313.32812 315.98126Q312.79688 315.3875 312.79688 314.23126L312.79688 310.10626L313.875 310.10626L313.875 314.2Q313.875 315.65314 315.04688 315.65314Q316.29688 315.65314 316.70312 314.71564L316.70312 310.10626L317.79688 310.10626L317.79688 316.45L316.76562 316.45L316.73438 315.825ZM324.39062 317.34064L319.03125 317.34064L319.03125 316.45L324.39062 316.45L324.39062 317.34064ZM329.28125 313.59064L330.46875 313.59064L330.46875 314.46564L329.28125 314.46564L329.28125 316.45L328.20312 316.45L328.20312 314.46564L324.3125 314.46564L324.3125 313.825L328.125 307.91876L329.28125 307.91876L329.28125 313.59064ZM325.54688 313.59064L328.20312 313.59064L328.20312 309.40314L328.0625 309.6375L325.54688 313.59064Z" fill-rule="nonzero"/><path fill="#757575" d="M365.84906 307.91876L368.64594 314.8719L371.4272 307.91876L372.89594 307.91876L372.89594 316.45L371.77094 316.45L371.77094 313.1219L371.8803 309.54376L369.0678 316.45L368.20844 316.45L365.41156 309.5594L365.52094 313.1219L365.52094 316.45L364.39594 316.45L364.39594 307.91876L365.84906 307.91876ZM379.22406 312.5125L375.52094 312.5125L375.52094 315.52814L379.8178 315.52814L379.8178 316.45L374.39594 316.45L374.39594 307.91876L379.77094 307.91876L379.77094 308.84064L375.52094 308.84064L375.52094 311.59064L379.22406 311.59064L379.22406 312.5125ZM387.3022 308.84064L384.5522 308.84064L384.5522 316.45L383.4428 316.45L383.4428 308.84064L380.6928 308.84064L380.6928 307.91876L387.3022 307.91876L387.3022 308.84064ZM393.22406 312.5125L389.52094 312.5125L389.52094 315.52814L393.8178 315.52814L393.8178 316.45L388.39594 316.45L388.39594 307.91876L393.77094 307.91876L393.77094 308.84064L389.52094 308.84064L389.52094 311.59064L393.22406 311.59064L393.22406 312.5125ZM401.95844 312.46564Q401.95844 313.71564 401.53656 314.65314Q401.1147 315.575 400.33344 316.075Q399.5678 316.575 398.53656 316.575Q397.53656 316.575 396.7553 316.075Q395.97406 315.575 395.53656 314.66876Q395.1147 313.7469 395.09906 312.52814L395.09906 311.91876Q395.09906 310.6844 395.52094 309.7469Q395.95844 308.8094 396.7397 308.3094Q397.52094 307.79376 398.53656 307.79376Q399.5522 307.79376 400.33344 308.29376Q401.1147 308.79376 401.53656 309.73126Q401.95844 310.66876 401.95844 311.91876L401.95844 312.46564ZM400.84906 311.90314Q400.84906 310.3875 400.2397 309.575Q399.6303 308.7625 398.53656 308.7625Q397.45844 308.7625 396.84906 309.575Q396.2397 310.3875 396.22406 311.825L396.22406 312.46564Q396.22406 313.9344 396.83344 314.77814Q397.45844 315.60626 398.53656 315.60626Q399.6303 315.60626 400.22406 314.825Q400.83344 314.02814 400.84906 312.54376L400.84906 311.90314ZM406.53656 312.9969L404.52094 312.9969L404.52094 316.45L403.39594 316.45L403.39594 307.91876L406.22406 307.91876Q407.66156 307.91876 408.4272 308.575Q409.20844 309.23126 409.20844 310.48126Q409.20844 311.27814 408.77094 311.8719Q408.34906 312.46564 407.58344 312.7625L409.58344 316.3719L409.58344 316.45L408.3803 316.45L406.53656 312.9969ZM404.52094 312.075L406.2553 312.075Q407.09906 312.075 407.58344 311.65314Q408.08344 311.21564 408.08344 310.48126Q408.08344 309.7 407.6147 309.27814Q407.14594 308.85626 406.2553 308.84064L404.52094 308.84064L404.52094 312.075Z" fill-rule="nonzero"/><path fill="#757575" d="M438.94812 312.9969L436.9325 312.9969L436.9325 316.45L435.8075 316.45L435.8075 307.91876L438.63562 307.91876Q440.07312 307.91876 440.83875 308.575Q441.62 309.23126 441.62 310.48126Q441.62 311.27814 441.1825 311.8719Q440.76062 312.46564 439.995 312.7625L441.995 316.3719L441.995 316.45L440.79187 316.45L438.94812 312.9969ZM436.9325 312.075L438.66687 312.075Q439.51062 312.075 439.995 311.65314Q440.495 311.21564 440.495 310.48126Q440.495 309.7 440.02625 309.27814Q439.5575 308.85626 438.66687 308.84064L436.9325 308.84064L436.9325 312.075ZM449.37 312.46564Q449.37 313.71564 448.94812 314.65314Q448.52625 315.575 447.745 316.075Q446.97937 316.575 445.94812 316.575Q444.94812 316.575 444.16687 316.075Q443.38562 315.575 442.94812 314.66876Q442.52625 313.7469 442.51062 312.52814L442.51062 311.91876Q442.51062 310.6844 442.9325 309.7469Q443.37 308.8094 444.15125 308.3094Q444.9325 307.79376 445.94812 307.79376Q446.96375 307.79376 447.745 308.29376Q448.52625 308.79376 448.94812 309.73126Q449.37 310.66876 449.37 311.91876L449.37 312.46564ZM448.26062 311.90314Q448.26062 310.3875 447.65125 309.575Q447.04187 308.7625 445.94812 308.7625Q444.87 308.7625 444.26062 309.575Q443.65125 310.3875 443.63562 311.825L443.63562 312.46564Q443.63562 313.9344 444.245 314.77814Q444.87 315.60626 445.94812 315.60626Q447.04187 315.60626 447.63562 314.825Q448.245 314.02814 448.26062 312.54376L448.26062 311.90314ZM456.82312 307.91876L456.82312 313.71564Q456.8075 314.91876 456.0575 315.7Q455.3075 316.46564 454.02625 316.5594L453.71375 316.575Q452.32312 316.575 451.47937 315.825Q450.65125 315.0594 450.65125 313.73126L450.65125 307.91876L451.76062 307.91876L451.76062 313.7Q451.76062 314.6219 452.26062 315.1375Q452.77625 315.65314 453.71375 315.65314Q454.6825 315.65314 455.1825 315.1375Q455.6825 314.6219 455.6825 313.7L455.6825 307.91876L456.82312 307.91876ZM465.12 315.325Q464.6825 315.95 463.90125 316.2625Q463.12 316.575 462.08875 316.575Q461.0575 316.575 460.245 316.09064Q459.4325 315.59064 458.995 314.6844Q458.5575 313.77814 458.54187 312.59064L458.54187 311.85626Q458.54187 309.91876 459.4325 308.85626Q460.33875 307.79376 461.96375 307.79376Q463.3075 307.79376 464.12 308.48126Q464.9325 309.16876 465.12 310.41876L463.995 310.41876Q463.66687 308.73126 461.97937 308.73126Q460.83875 308.73126 460.26062 309.52814Q459.6825 310.3094 459.66687 311.825L459.66687 312.5125Q459.66687 313.95 460.32312 314.8094Q460.97937 315.65314 462.10437 315.65314Q462.72937 315.65314 463.19812 315.5125Q463.6825 315.3719 463.995 315.02814L463.995 313.1219L462.02625 313.1219L462.02625 312.2L465.12 312.2L465.12 315.325ZM471.63562 312.5125L467.9325 312.5125L467.9325 315.52814L472.22937 315.52814L472.22937 316.45L466.8075 316.45L466.8075 307.91876L472.1825 307.91876L472.1825 308.84064L467.9325 308.84064L467.9325 311.59064L471.63562 311.59064L471.63562 312.5125ZM478.21375 317.34064L472.85437 317.34064L472.85437 316.45L478.21375 316.45L478.21375 317.34064ZM479.94812 315.52814L483.995 315.52814L483.995 316.45L478.8075 316.45L478.8075 307.91876L479.94812 307.91876L479.94812 315.52814Z" fill-rule="nonzero"/><path fill="#757575" d="M524.5003 313.7469Q524.34406 315.09064 523.5003 315.84064Q522.65656 316.575 521.2659 316.575Q519.7503 316.575 518.84406 315.4969Q517.9378 314.40314 517.9378 312.575L517.9378 311.7625Q517.9378 310.575 518.3597 309.66876Q518.78156 308.7625 519.5628 308.27814Q520.34406 307.79376 521.3597 307.79376Q522.71906 307.79376 523.53156 308.5594Q524.3597 309.325 524.5003 310.65314L523.3753 310.65314Q523.21906 309.6375 522.7347 309.1844Q522.2503 308.73126 521.3597 308.73126Q520.28156 308.73126 519.6722 309.52814Q519.0628 310.325 519.0628 311.79376L519.0628 312.6219Q519.0628 314.0125 519.6409 314.84064Q520.21906 315.65314 521.2659 315.65314Q522.2034 315.65314 522.7034 315.23126Q523.2034 314.79376 523.3753 313.7469L524.5003 313.7469ZM527.4378 316.45L526.3128 316.45L526.3128 307.91876L527.4378 307.91876L527.4378 316.45ZM529.21906 316.45L529.21906 307.91876L531.6409 307.91876Q532.7503 307.91876 533.59406 308.41876Q534.4534 308.90314 534.9222 309.8094Q535.3909 310.71564 535.3909 311.90314L535.3909 312.4344Q535.3909 313.65314 534.9222 314.5594Q534.46906 315.46564 533.59406 315.95Q532.7347 316.4344 531.59406 316.45L529.21906 316.45ZM530.34406 308.84064L530.34406 315.52814L531.53156 315.52814Q532.8284 315.52814 533.5472 314.73126Q534.28156 313.91876 534.28156 312.41876L534.28156 311.91876Q534.28156 310.46564 533.59406 309.66876Q532.9222 308.85626 531.65656 308.84064L530.34406 308.84064ZM542.0472 312.5125L538.34406 312.5125L538.34406 315.52814L542.6409 315.52814L542.6409 316.45L537.21906 316.45L537.21906 307.91876L542.59406 307.91876L542.59406 308.84064L538.34406 308.84064L538.34406 311.59064L542.0472 311.59064L542.0472 312.5125ZM547.1253 311.075Q546.8753 311.04376 546.59406 311.04376Q545.5159 311.04376 545.1409 311.95L545.1409 316.45L544.0628 316.45L544.0628 310.10626L545.1097 310.10626L545.1253 310.84064Q545.65656 309.9969 546.6409 309.9969Q546.9534 309.9969 547.1253 310.075L547.1253 311.075Z" fill-rule="nonzero"/><path fill="#4285f4" d="M254.5 57.416668C254.5 56.864384 254.94771 56.416668 255.5 56.416668L265.5 56.416668C266.05228 56.416668 266.5 56.864384 266.5 57.416668L266.5 67.416664C266.5 67.96895 266.05228 68.416664 265.5 68.416664L255.5 68.416664C254.94771 68.416664 254.5 67.96895 254.5 67.416664Z" fill-rule="nonzero"/><path fill="#757575" d="M279.46875 58.385414L279.46875 59.291664L279.26562 59.291664Q278.0 59.322914 277.25 60.05729Q276.5 60.77604 276.375 62.08854Q277.0625 61.322914 278.21875 61.322914Q279.32812 61.322914 280.0 62.104164Q280.67188 62.885414 280.67188 64.135414Q280.67188 65.447914 279.95312 66.24479Q279.23438 67.041664 278.01562 67.041664Q276.79688 67.041664 276.03125 66.104164Q275.28125 65.15104 275.28125 63.666664L275.28125 63.260414Q275.28125 60.90104 276.28125 59.65104Q277.28125 58.40104 279.26562 58.385414L279.46875 58.385414ZM278.04688 62.229164Q277.48438 62.229164 277.01562 62.55729Q276.54688 62.885414 276.35938 63.40104L276.35938 63.791664Q276.35938 64.854164 276.82812 65.49479Q277.3125 66.135414 278.01562 66.135414Q278.75 66.135414 279.17188 65.604164Q279.59375 65.05729 279.59375 64.18229Q279.59375 63.30729 279.17188 62.77604Q278.75 62.229164 278.04688 62.229164ZM286.78125 64.05729L287.96875 64.05729L287.96875 64.93229L286.78125 64.93229L286.78125 66.916664L285.70312 66.916664L285.70312 64.93229L281.8125 64.93229L281.8125 64.291664L285.625 58.385414L286.78125 58.385414L286.78125 64.05729ZM283.04688 64.05729L285.70312 64.05729L285.70312 59.86979L285.5625 60.104164L283.04688 64.05729Z" fill-rule="nonzero"/><path fill="#db4437" d="M304.5 57.416668C304.5 56.864384 304.94772 56.416668 305.5 56.416668L315.5 56.416668C316.05228 56.416668 316.5 56.864384 316.5 57.416668L316.5 67.416664C316.5 67.96895 316.05228 68.416664 315.5 68.416664L305.5 68.416664C304.94772 68.416664 304.5 67.96895 304.5 67.416664Z" fill-rule="nonzero"/><path fill="#757575" d="M328.76562 66.916664L327.6875 66.916664L327.6875 59.697914L325.5 60.49479L325.5 59.510414L328.60938 58.33854L328.76562 58.33854L328.76562 66.916664ZM337.79688 66.916664L332.20312 66.916664L332.20312 66.135414L335.15625 62.854164Q335.8125 62.104164 336.0625 61.65104Q336.3125 61.18229 336.3125 60.68229Q336.3125 60.010414 335.90625 59.58854Q335.51562 59.15104 334.82812 59.15104Q334.03125 59.15104 333.57812 59.61979Q333.125 60.072914 333.125 60.90104L332.04688 60.90104Q332.04688 59.71354 332.79688 58.99479Q333.5625 58.260414 334.82812 58.260414Q336.03125 58.260414 336.71875 58.885414Q337.40625 59.510414 337.40625 60.55729Q337.40625 61.80729 335.79688 63.55729L333.51562 66.02604L337.79688 66.02604L337.79688 66.916664ZM344.39062 60.604164Q344.39062 61.24479 344.04688 61.74479Q343.70312 62.24479 343.14062 62.52604Q343.79688 62.80729 344.1875 63.36979Q344.57812 63.916664 344.57812 64.61979Q344.57812 65.71354 343.82812 66.385414Q343.09375 67.041664 341.875 67.041664Q340.64062 67.041664 339.89062 66.385414Q339.15625 65.71354 339.15625 64.61979Q339.15625 63.916664 339.53125 63.36979Q339.90625 62.80729 340.57812 62.52604Q340.01562 62.24479 339.6875 61.74479Q339.35938 61.24479 339.35938 60.604164Q339.35938 59.52604 340.04688 58.90104Q340.73438 58.260414 341.875 58.260414Q343.0 58.260414 343.6875 58.90104Q344.39062 59.52604 344.39062 60.604164ZM343.5 64.58854Q343.5 63.86979 343.04688 63.43229Q342.59375 62.979164 341.85938 62.979164Q341.125 62.979164 340.67188 63.43229Q340.23438 63.86979 340.23438 64.604164Q340.23438 65.322914 340.67188 65.74479Q341.10938 66.15104 341.875 66.15104Q342.625 66.15104 343.0625 65.729164Q343.5 65.30729 343.5 64.58854ZM341.875 59.15104Q341.23438 59.15104 340.82812 59.55729Q340.4375 59.947914 340.4375 60.635414Q340.4375 61.27604 340.82812 61.68229Q341.21875 62.08854 341.85938 62.08854Q342.51562 62.08854 342.90625 61.68229Q343.29688 61.27604 343.29688 60.635414Q343.29688 59.979164 342.89062 59.572914Q342.48438 59.15104 341.875 59.15104Z" fill-rule="nonzero"/><path fill="#757575" d="M26.815624 23.315624L26.815624 24.846874L26.4875 24.846874Q24.378124 24.89375 23.128124 26.1125Q21.878124 27.315624 21.690624 29.51875Q22.815624 28.221874 24.753124 28.221874Q26.6125 28.221874 27.721874 29.534374Q28.83125 30.846874 28.83125 32.909374Q28.83125 35.1125 27.628124 36.440624Q26.425 37.753124 24.425 37.753124Q22.378124 37.753124 21.1125 36.190624Q19.846874 34.6125 19.846874 32.14375L19.846874 31.440624Q19.846874 27.51875 21.51875 25.440624Q23.190624 23.3625 26.503124 23.315624L26.815624 23.315624ZM24.45625 29.721874Q23.51875 29.721874 22.7375 30.284374Q21.95625 30.846874 21.659374 31.675L21.659374 32.346874Q21.659374 34.096874 22.440624 35.175Q23.2375 36.253124 24.425 36.253124Q25.64375 36.253124 26.33125 35.3625Q27.034374 34.45625 27.034374 33.003124Q27.034374 31.534374 26.33125 30.628124Q25.628124 29.721874 24.45625 29.721874ZM38.3625 32.76875L40.33125 32.76875L40.33125 34.253124L38.3625 34.253124L38.3625 37.55L36.55 37.55L36.55 34.253124L30.065624 34.253124L30.065624 33.190624L36.440624 23.33125L38.3625 23.33125L38.3625 32.76875ZM32.1125 32.76875L36.55 32.76875L36.55 25.8L36.33125 26.190624L32.1125 32.76875ZM50.409374 35.096874L53.01875 26.9875L54.8625 26.9875L51.08125 37.55L49.70625 37.55L45.878124 26.9875L47.721874 26.9875L50.409374 35.096874ZM63.065624 34.753124Q63.065624 34.01875 62.51875 33.6125Q61.971874 33.20625 60.596874 32.909374Q59.221874 32.6125 58.409374 32.20625Q57.6125 31.8 57.221874 31.2375Q56.846874 30.659374 56.846874 29.878124Q56.846874 28.58125 57.940624 27.690624Q59.034374 26.784374 60.753124 26.784374Q62.55 26.784374 63.659374 27.721874Q64.78438 28.64375 64.78438 30.08125L62.95625 30.08125Q62.95625 29.346874 62.33125 28.815624Q61.70625 28.26875 60.753124 28.26875Q59.753124 28.26875 59.190624 28.70625Q58.64375 29.128124 58.64375 29.83125Q58.64375 30.471874 59.159374 30.815624Q59.675 31.14375 61.034374 31.45625Q62.39375 31.753124 63.221874 32.175Q64.06563 32.58125 64.47188 33.175Q64.87813 33.76875 64.87813 34.6125Q64.87813 36.034374 63.7375 36.89375Q62.6125 37.753124 60.8 37.753124Q59.534374 37.753124 58.55 37.3Q57.58125 36.846874 57.01875 36.05Q56.471874 35.2375 56.471874 34.3L58.284374 34.3Q58.33125 35.20625 59.003124 35.7375Q59.690624 36.26875 60.8 36.26875Q61.83125 36.26875 62.440624 35.8625Q63.065624 35.440624 63.065624 34.753124ZM77.675 37.55L75.84688 37.55L75.84688 25.503124L72.20625 26.846874L72.20625 25.20625L77.39375 23.26875L77.675 23.26875L77.675 37.55ZM92.05 37.55L82.7375 37.55L82.7375 36.253124L87.65938 30.784374Q88.75313 29.534374 89.15938 28.76875Q89.58125 27.9875 89.58125 27.159374Q89.58125 26.05 88.90938 25.33125Q88.2375 24.6125 87.1125 24.6125Q85.75313 24.6125 85.00313 25.39375Q84.26875 26.159374 84.26875 27.51875L82.45625 27.51875Q82.45625 25.55 83.72188 24.346874Q84.9875 23.128124 87.1125 23.128124Q89.09688 23.128124 90.2375 24.175Q91.39375 25.221874 91.39375 26.940624Q91.39375 29.05 88.72188 31.940624L84.90938 36.08125L92.05 36.08125L92.05 37.55ZM102.3625 27.034374Q102.3625 28.1125 101.8 28.940624Q101.2375 29.76875 100.26875 30.2375Q101.39375 30.70625 102.03438 31.628124Q102.69063 32.55 102.69063 33.70625Q102.69063 35.55 101.44063 36.659374Q100.19063 37.753124 98.15938 37.753124Q96.1125 37.753124 94.87813 36.659374Q93.64375 35.55 93.64375 33.70625Q93.64375 32.565624 94.26875 31.64375Q94.90938 30.70625 96.01875 30.221874Q95.06563 29.753124 94.51875 28.925Q93.97188 28.096874 93.97188 27.034374Q93.97188 25.2375 95.12813 24.190624Q96.28438 23.128124 98.15938 23.128124Q100.03438 23.128124 101.19063 24.190624Q102.3625 25.2375 102.3625 27.034374ZM100.87813 33.675Q100.87813 32.4875 100.1125 31.7375Q99.3625 30.971874 98.14375 30.971874Q96.925 30.971874 96.19063 31.721874Q95.45625 32.45625 95.45625 33.675Q95.45625 34.878124 96.175 35.58125Q96.89375 36.26875 98.15938 36.26875Q99.44063 36.26875 100.15938 35.58125Q100.87813 34.878124 100.87813 33.675ZM98.15938 24.6125Q97.09688 24.6125 96.44063 25.284374Q95.78438 25.940624 95.78438 27.065624Q95.78438 28.159374 96.425 28.83125Q97.08125 29.4875 98.15938 29.4875Q99.25313 29.4875 99.89375 28.83125Q100.55 28.159374 100.55 27.08125Q100.55 25.9875 99.87813 25.3Q99.20625 24.6125 98.15938 24.6125Z" fill-rule="nonzero"/></svg>