<?xml version="1.0" encoding="UTF-8" standalone="no"?>
<svg
   xmlns:dc="http://purl.org/dc/elements/1.1/"
   xmlns:cc="http://creativecommons.org/ns#"
   xmlns:rdf="http://www.w3.org/1999/02/22-rdf-syntax-ns#"
   xmlns:svg="http://www.w3.org/2000/svg"
   xmlns="http://www.w3.org/2000/svg"
   xmlns:sodipodi="http://sodipodi.sourceforge.net/DTD/sodipodi-0.dtd"
   xmlns:inkscape="http://www.inkscape.org/namespaces/inkscape"
   width="338pt"
   height="126pt"
   viewBox="0 0 338 126"
   version="1.1"
   id="svg147"
   sodipodi:docname="conv_1x1.svg"
   inkscape:version="0.92.3 (2405546, 2018-03-11)"
   inkscape:export-filename="/home/mario/magomar@gmail.com/UOC/TFM/figs/ch3/conv_1x1.png"
   inkscape:export-xdpi="96"
   inkscape:export-ydpi="96">
  <metadata
     id="metadata153">
    <rdf:RDF>
      <cc:Work
         rdf:about="">
        <dc:format>image/svg+xml</dc:format>
        <dc:type
           rdf:resource="http://purl.org/dc/dcmitype/StillImage" />
      </cc:Work>
    </rdf:RDF>
  </metadata>
  <defs
     id="defs151" />
  <sodipodi:namedview
     pagecolor="#ffffff"
     bordercolor="#666666"
     borderopacity="1"
     objecttolerance="10"
     gridtolerance="10"
     guidetolerance="10"
     inkscape:pageopacity="0"
     inkscape:pageshadow="2"
     inkscape:window-width="1783"
     inkscape:window-height="1105"
     id="namedview149"
     showgrid="false"
     inkscape:zoom="2.4225729"
     inkscape:cx="184.21919"
     inkscape:cy="57.397381"
     inkscape:window-x="883"
     inkscape:window-y="631"
     inkscape:window-maximized="0"
     inkscape:current-layer="svg147" />
  <g
     id="surface1">
    <path
       style=" stroke:none;fill-rule:nonzero;fill:rgb(100%,100%,100%);fill-opacity:1;"
       d="M 0 0 L 337.5 0 L 337.5 126.25 L 0 126.25 Z M 0 0 "
       id="path2" />
    <path
       style=" stroke:none;fill-rule:nonzero;fill:rgb(100%,100%,100%);fill-opacity:1;"
       d="M 0 0 L 337.5 0 L 337.5 126.25 L 0 126.25 Z M 0 0 "
       id="path4" />
    <path
       style="fill-rule:nonzero;fill:rgb(40%,74.901961%,100%);fill-opacity:1;stroke-width:1;stroke-linecap:round;stroke-linejoin:round;stroke:rgb(0%,0%,0%);stroke-opacity:1;stroke-miterlimit:10;"
       d="M 63 108 L 81 108 L 81 126 L 63 126 Z M 63 108 "
       transform="matrix(1.25,0,0,1.25,-10,-55)"
       id="path6" />
    <path
       style="fill-rule:nonzero;fill:rgb(100%,100%,100%);fill-opacity:1;stroke-width:1;stroke-linecap:round;stroke-linejoin:round;stroke:rgb(0%,0%,0%);stroke-opacity:1;stroke-miterlimit:10;"
       d="M 63 72 L 81 72 L 81 90 L 63 90 Z M 63 72 "
       transform="matrix(1.25,0,0,1.25,-10,-55)"
       id="path8" />
    <path
       style="fill-rule:nonzero;fill:rgb(100%,100%,100%);fill-opacity:1;stroke-width:1;stroke-linecap:round;stroke-linejoin:round;stroke:rgb(0%,0%,0%);stroke-opacity:1;stroke-miterlimit:10;"
       d="M 63 90 L 81 90 L 81 108 L 63 108 Z M 63 90 "
       transform="matrix(1.25,0,0,1.25,-10,-55)"
       id="path10" />
    <path
       style="fill-rule:nonzero;fill:rgb(100%,100%,100%);fill-opacity:1;stroke-width:1;stroke-linecap:round;stroke-linejoin:round;stroke:rgb(0%,0%,0%);stroke-opacity:1;stroke-miterlimit:10;"
       d="M 27 108 L 45 108 L 45 126 L 27 126 Z M 27 108 "
       transform="matrix(1.25,0,0,1.25,-10,-55)"
       id="path12" />
    <path
       style="fill-rule:nonzero;fill:rgb(100%,100%,100%);fill-opacity:1;stroke-width:1;stroke-linecap:round;stroke-linejoin:round;stroke:rgb(0%,0%,0%);stroke-opacity:1;stroke-miterlimit:10;"
       d="M 45 108 L 63 108 L 63 126 L 45 126 Z M 45 108 "
       transform="matrix(1.25,0,0,1.25,-10,-55)"
       id="path14" />
    <path
       style="fill-rule:nonzero;fill:rgb(69.803922%,85.098039%,100%);fill-opacity:1;stroke-width:1;stroke-linecap:round;stroke-linejoin:round;stroke:rgb(0%,0%,0%);stroke-opacity:1;stroke-miterlimit:10;"
       d="M 27 72 L 45 72 L 45 90 L 27 90 Z M 27 72 "
       transform="matrix(1.25,0,0,1.25,-10,-55)"
       id="path16" />
    <path
       style="fill-rule:nonzero;fill:rgb(100%,100%,100%);fill-opacity:1;stroke-width:1;stroke-linecap:round;stroke-linejoin:round;stroke:rgb(0%,0%,0%);stroke-opacity:1;stroke-miterlimit:10;"
       d="M 27 90 L 45 90 L 45 108 L 27 108 Z M 27 90 "
       transform="matrix(1.25,0,0,1.25,-10,-55)"
       id="path18" />
    <path
       style="fill-rule:nonzero;fill:rgb(100%,100%,100%);fill-opacity:1;stroke-width:1;stroke-linecap:round;stroke-linejoin:round;stroke:rgb(0%,0%,0%);stroke-opacity:1;stroke-miterlimit:10;"
       d="M 45 72 L 63 72 L 63 90 L 45 90 Z M 45 72 "
       transform="matrix(1.25,0,0,1.25,-10,-55)"
       id="path20" />
    <path
       style="fill-rule:nonzero;fill:rgb(100%,100%,100%);fill-opacity:1;stroke-width:1;stroke-linecap:round;stroke-linejoin:round;stroke:rgb(0%,0%,0%);stroke-opacity:1;stroke-miterlimit:10;"
       d="M 45 90 L 63 90 L 63 108 L 45 108 Z M 45 90 "
       transform="matrix(1.25,0,0,1.25,-10,-55)"
       id="path22" />
    <path
       style="fill-rule:nonzero;fill:rgb(40%,74.901961%,100%);fill-opacity:1;stroke-width:1;stroke-linecap:round;stroke-linejoin:round;stroke:rgb(0%,0%,0%);stroke-opacity:1;stroke-miterlimit:10;"
       d="M 54 117 L 72 117 L 72 135 L 54 135 Z M 54 117 "
       transform="matrix(1.25,0,0,1.25,-10,-55)"
       id="path24" />
    <path
       style="fill-rule:nonzero;fill:rgb(100%,100%,100%);fill-opacity:1;stroke-width:1;stroke-linecap:round;stroke-linejoin:round;stroke:rgb(0%,0%,0%);stroke-opacity:1;stroke-miterlimit:10;"
       d="M 54 81 L 72 81 L 72 99 L 54 99 Z M 54 81 "
       transform="matrix(1.25,0,0,1.25,-10,-55)"
       id="path26" />
    <path
       style="fill-rule:nonzero;fill:rgb(100%,100%,100%);fill-opacity:1;stroke-width:1;stroke-linecap:round;stroke-linejoin:round;stroke:rgb(0%,0%,0%);stroke-opacity:1;stroke-miterlimit:10;"
       d="M 54 99 L 72 99 L 72 117 L 54 117 Z M 54 99 "
       transform="matrix(1.25,0,0,1.25,-10,-55)"
       id="path28" />
    <path
       style="fill-rule:nonzero;fill:rgb(100%,100%,100%);fill-opacity:1;stroke-width:1;stroke-linecap:round;stroke-linejoin:round;stroke:rgb(0%,0%,0%);stroke-opacity:1;stroke-miterlimit:10;"
       d="M 18 117 L 36 117 L 36 135 L 18 135 Z M 18 117 "
       transform="matrix(1.25,0,0,1.25,-10,-55)"
       id="path30" />
    <path
       style="fill-rule:nonzero;fill:rgb(100%,100%,100%);fill-opacity:1;stroke-width:1;stroke-linecap:round;stroke-linejoin:round;stroke:rgb(0%,0%,0%);stroke-opacity:1;stroke-miterlimit:10;"
       d="M 36 117 L 54 117 L 54 135 L 36 135 Z M 36 117 "
       transform="matrix(1.25,0,0,1.25,-10,-55)"
       id="path32" />
    <path
       style="fill-rule:nonzero;fill:rgb(69.803922%,85.098039%,100%);fill-opacity:1;stroke-width:1;stroke-linecap:round;stroke-linejoin:round;stroke:rgb(0%,0%,0%);stroke-opacity:1;stroke-miterlimit:10;"
       d="M 18 81 L 36 81 L 36 99 L 18 99 Z M 18 81 "
       transform="matrix(1.25,0,0,1.25,-10,-55)"
       id="path34" />
    <path
       style="fill-rule:nonzero;fill:rgb(100%,100%,100%);fill-opacity:1;stroke-width:1;stroke-linecap:round;stroke-linejoin:round;stroke:rgb(0%,0%,0%);stroke-opacity:1;stroke-miterlimit:10;"
       d="M 18 99 L 36 99 L 36 117 L 18 117 Z M 18 99 "
       transform="matrix(1.25,0,0,1.25,-10,-55)"
       id="path36" />
    <path
       style="fill-rule:nonzero;fill:rgb(100%,100%,100%);fill-opacity:1;stroke-width:1;stroke-linecap:round;stroke-linejoin:round;stroke:rgb(0%,0%,0%);stroke-opacity:1;stroke-miterlimit:10;"
       d="M 36 81 L 54 81 L 54 99 L 36 99 Z M 36 81 "
       transform="matrix(1.25,0,0,1.25,-10,-55)"
       id="path38" />
    <path
       style="fill-rule:nonzero;fill:rgb(100%,100%,100%);fill-opacity:1;stroke-width:1;stroke-linecap:round;stroke-linejoin:round;stroke:rgb(0%,0%,0%);stroke-opacity:1;stroke-miterlimit:10;"
       d="M 36 99 L 54 99 L 54 117 L 36 117 Z M 36 99 "
       transform="matrix(1.25,0,0,1.25,-10,-55)"
       id="path40" />
    <path
       style=" stroke:none;fill-rule:nonzero;fill:rgb(0%,0%,0%);fill-opacity:1;"
       d="M 280.628906 12.765625 C 280.628906 11.4375 280.988281 10.398438 281.703125 9.640625 C 282.417969 8.875 283.34375 8.488281 284.476562 8.488281 C 285.21875 8.488281 285.890625 8.671875 286.488281 9.035156 C 287.085938 9.386719 287.542969 9.882812 287.855469 10.519531 C 288.167969 11.160156 288.324219 11.875 288.324219 12.667969 C 288.324219 13.488281 288.160156 14.226562 287.835938 14.875 C 287.511719 15.515625 287.042969 16.003906 286.429688 16.339844 C 285.832031 16.667969 285.179688 16.828125 284.476562 16.828125 C 283.722656 16.828125 283.042969 16.648438 282.445312 16.28125 C 281.847656 15.917969 281.390625 15.417969 281.078125 14.777344 C 280.777344 14.140625 280.628906 13.46875 280.628906 12.765625 Z M 281.722656 12.785156 C 281.722656 13.761719 281.984375 14.53125 282.503906 15.089844 C 283.023438 15.636719 283.683594 15.910156 284.476562 15.910156 C 285.269531 15.910156 285.929688 15.632812 286.449219 15.070312 C 286.96875 14.511719 287.230469 13.710938 287.230469 12.667969 C 287.230469 12.019531 287.121094 11.453125 286.898438 10.96875 C 286.675781 10.476562 286.351562 10.089844 285.921875 9.816406 C 285.492188 9.542969 285.015625 9.40625 284.496094 9.40625 C 283.742188 9.40625 283.089844 9.667969 282.542969 10.1875 C 281.996094 10.710938 281.722656 11.574219 281.722656 12.785156 Z M 281.722656 12.785156 "
       id="path42" />
    <path
       style=" stroke:none;fill-rule:nonzero;fill:rgb(0%,0%,0%);fill-opacity:1;"
       d="M 293.40625 16.691406 L 293.40625 15.832031 C 292.945312 16.496094 292.332031 16.828125 291.550781 16.828125 C 291.207031 16.828125 290.890625 16.757812 290.59375 16.632812 C 290.289062 16.492188 290.066406 16.320312 289.910156 16.125 C 289.761719 15.929688 289.664062 15.691406 289.617188 15.402344 C 289.578125 15.207031 289.558594 14.894531 289.558594 14.464844 L 289.558594 10.851562 L 290.535156 10.851562 L 290.535156 14.09375 C 290.535156 14.617188 290.558594 14.960938 290.613281 15.128906 C 290.660156 15.390625 290.789062 15.597656 290.984375 15.753906 C 291.1875 15.898438 291.441406 15.96875 291.746094 15.96875 C 292.042969 15.96875 292.320312 15.898438 292.585938 15.753906 C 292.84375 15.597656 293.023438 15.390625 293.132812 15.128906 C 293.234375 14.871094 293.289062 14.484375 293.289062 13.976562 L 293.289062 10.851562 L 294.285156 10.851562 L 294.285156 16.691406 Z M 293.40625 16.691406 "
       id="path44" />
    <path
       style=" stroke:none;fill-rule:nonzero;fill:rgb(0%,0%,0%);fill-opacity:1;"
       d="M 297.996094 15.8125 L 298.132812 16.671875 C 297.84375 16.734375 297.597656 16.769531 297.390625 16.769531 C 297.023438 16.769531 296.746094 16.710938 296.550781 16.59375 C 296.355469 16.476562 296.210938 16.328125 296.121094 16.144531 C 296.042969 15.964844 296.003906 15.578125 296.003906 14.992188 L 296.003906 11.632812 L 295.28125 11.632812 L 295.28125 10.851562 L 296.003906 10.851562 L 296.003906 9.40625 L 297 8.820312 L 297 10.851562 L 297.996094 10.851562 L 297.996094 11.632812 L 297 11.632812 L 297 15.03125 C 297 15.320312 297.011719 15.5 297.039062 15.578125 C 297.078125 15.65625 297.136719 15.722656 297.214844 15.773438 C 297.292969 15.828125 297.402344 15.851562 297.546875 15.851562 C 297.664062 15.851562 297.8125 15.839844 297.996094 15.8125 Z M 297.996094 15.8125 "
       id="path46" />
    <path
       style=" stroke:none;fill-rule:nonzero;fill:rgb(0%,0%,0%);fill-opacity:1;"
       d="M 298.953125 18.917969 L 298.953125 10.851562 L 299.851562 10.851562 L 299.851562 11.613281 C 300.058594 11.316406 300.292969 11.09375 300.554688 10.949219 C 300.828125 10.808594 301.160156 10.734375 301.550781 10.734375 C 302.046875 10.734375 302.480469 10.867188 302.859375 11.125 C 303.238281 11.375 303.523438 11.730469 303.71875 12.199219 C 303.914062 12.667969 304.011719 13.175781 304.011719 13.722656 C 304.011719 14.324219 303.902344 14.863281 303.679688 15.34375 C 303.472656 15.828125 303.164062 16.199219 302.761719 16.457031 C 302.359375 16.699219 301.929688 16.828125 301.472656 16.828125 C 301.148438 16.828125 300.855469 16.753906 300.59375 16.613281 C 300.332031 16.472656 300.117188 16.296875 299.949219 16.085938 L 299.949219 18.917969 Z M 299.851562 13.800781 C 299.851562 14.558594 300 15.117188 300.300781 15.480469 C 300.613281 15.832031 300.984375 16.007812 301.414062 16.007812 C 301.84375 16.007812 302.214844 15.828125 302.527344 15.460938 C 302.851562 15.085938 303.015625 14.503906 303.015625 13.722656 C 303.015625 12.980469 302.859375 12.429688 302.546875 12.0625 C 302.246094 11.6875 301.882812 11.496094 301.453125 11.496094 C 301.035156 11.496094 300.664062 11.699219 300.339844 12.101562 C 300.015625 12.492188 299.851562 13.058594 299.851562 13.800781 Z M 299.851562 13.800781 "
       id="path48" />
    <path
       style=" stroke:none;fill-rule:nonzero;fill:rgb(0%,0%,0%);fill-opacity:1;"
       d="M 309.035156 16.691406 L 309.035156 15.832031 C 308.574219 16.496094 307.960938 16.828125 307.179688 16.828125 C 306.835938 16.828125 306.519531 16.757812 306.222656 16.632812 C 305.917969 16.492188 305.695312 16.320312 305.539062 16.125 C 305.390625 15.929688 305.292969 15.691406 305.246094 15.402344 C 305.207031 15.207031 305.1875 14.894531 305.1875 14.464844 L 305.1875 10.851562 L 306.164062 10.851562 L 306.164062 14.09375 C 306.164062 14.617188 306.1875 14.960938 306.242188 15.128906 C 306.289062 15.390625 306.417969 15.597656 306.613281 15.753906 C 306.816406 15.898438 307.070312 15.96875 307.375 15.96875 C 307.671875 15.96875 307.949219 15.898438 308.214844 15.753906 C 308.472656 15.597656 308.652344 15.390625 308.761719 15.128906 C 308.863281 14.871094 308.917969 14.484375 308.917969 13.976562 L 308.917969 10.851562 L 309.914062 10.851562 L 309.914062 16.691406 Z M 309.035156 16.691406 "
       id="path50" />
    <path
       style=" stroke:none;fill-rule:nonzero;fill:rgb(0%,0%,0%);fill-opacity:1;"
       d="M 313.628906 15.8125 L 313.765625 16.671875 C 313.476562 16.734375 313.226562 16.769531 313.023438 16.769531 C 312.65625 16.769531 312.378906 16.710938 312.183594 16.59375 C 311.988281 16.476562 311.839844 16.328125 311.753906 16.144531 C 311.675781 15.964844 311.636719 15.578125 311.636719 14.992188 L 311.636719 11.632812 L 310.914062 11.632812 L 310.914062 10.851562 L 311.636719 10.851562 L 311.636719 9.40625 L 312.632812 8.820312 L 312.632812 10.851562 L 313.628906 10.851562 L 313.628906 11.632812 L 312.632812 11.632812 L 312.632812 15.03125 C 312.632812 15.320312 312.640625 15.5 312.671875 15.578125 C 312.710938 15.65625 312.769531 15.722656 312.847656 15.773438 C 312.925781 15.828125 313.03125 15.851562 313.179688 15.851562 C 313.296875 15.851562 313.441406 15.839844 313.628906 15.8125 Z M 313.628906 15.8125 "
       id="path52" />
    <path
       style=" stroke:none;fill-rule:nonzero;fill:rgb(0%,0%,0%);fill-opacity:1;"
       d="M 151.398438 16.691406 L 151.398438 8.644531 L 152.472656 8.644531 L 152.472656 12.628906 L 156.476562 8.644531 L 157.902344 8.644531 L 154.542969 11.90625 L 158.058594 16.691406 L 156.652344 16.691406 L 153.78125 12.609375 L 152.472656 13.898438 L 152.472656 16.691406 Z M 151.398438 16.691406 "
       id="path54" />
    <path
       style=" stroke:none;fill-rule:nonzero;fill:rgb(0%,0%,0%);fill-opacity:1;"
       d="M 162.808594 14.816406 L 163.84375 14.933594 C 163.671875 15.535156 163.363281 16.003906 162.925781 16.339844 C 162.496094 16.667969 161.9375 16.828125 161.265625 16.828125 C 160.414062 16.828125 159.742188 16.570312 159.234375 16.046875 C 158.734375 15.515625 158.492188 14.773438 158.492188 13.820312 C 158.492188 12.84375 158.746094 12.089844 159.253906 11.554688 C 159.761719 11.007812 160.414062 10.734375 161.226562 10.734375 C 162.007812 10.734375 162.636719 11.003906 163.121094 11.535156 C 163.613281 12.058594 163.863281 12.800781 163.863281 13.761719 C 163.863281 13.828125 163.863281 13.917969 163.863281 14.035156 L 159.507812 14.035156 C 159.546875 14.675781 159.726562 15.164062 160.054688 15.5 C 160.375 15.839844 160.785156 16.007812 161.285156 16.007812 C 161.644531 16.007812 161.953125 15.917969 162.203125 15.734375 C 162.460938 15.539062 162.660156 15.234375 162.808594 14.816406 Z M 159.566406 13.214844 L 162.828125 13.214844 C 162.789062 12.722656 162.660156 12.351562 162.457031 12.101562 C 162.144531 11.726562 161.734375 11.535156 161.226562 11.535156 C 160.765625 11.535156 160.386719 11.691406 160.074219 12.003906 C 159.769531 12.304688 159.605469 12.707031 159.566406 13.214844 Z M 159.566406 13.214844 "
       id="path56" />
    <path
       style=" stroke:none;fill-rule:nonzero;fill:rgb(0%,0%,0%);fill-opacity:1;"
       d="M 165.0625 16.691406 L 165.0625 10.851562 L 165.960938 10.851562 L 165.960938 11.75 C 166.179688 11.335938 166.390625 11.0625 166.585938 10.929688 C 166.78125 10.800781 166.996094 10.734375 167.230469 10.734375 C 167.550781 10.734375 167.894531 10.839844 168.246094 11.046875 L 167.894531 11.964844 C 167.660156 11.824219 167.414062 11.75 167.171875 11.75 C 166.960938 11.75 166.765625 11.816406 166.585938 11.945312 C 166.414062 12.078125 166.292969 12.257812 166.214844 12.492188 C 166.105469 12.84375 166.058594 13.230469 166.058594 13.644531 L 166.058594 16.691406 Z M 165.0625 16.691406 "
       id="path58" />
    <path
       style=" stroke:none;fill-rule:nonzero;fill:rgb(0%,0%,0%);fill-opacity:1;"
       d="M 168.828125 16.691406 L 168.828125 10.851562 L 169.726562 10.851562 L 169.726562 11.691406 C 170.140625 11.054688 170.761719 10.734375 171.582031 10.734375 C 171.933594 10.734375 172.25 10.800781 172.539062 10.929688 C 172.835938 11.046875 173.054688 11.210938 173.203125 11.417969 C 173.34375 11.613281 173.445312 11.855469 173.515625 12.140625 C 173.554688 12.324219 173.574219 12.644531 173.574219 13.097656 L 173.574219 16.691406 L 172.578125 16.691406 L 172.578125 13.136719 C 172.578125 12.734375 172.539062 12.433594 172.460938 12.238281 C 172.382812 12.042969 172.246094 11.886719 172.050781 11.769531 C 171.855469 11.640625 171.625 11.574219 171.367188 11.574219 C 170.945312 11.574219 170.585938 11.710938 170.273438 11.984375 C 169.96875 12.246094 169.824219 12.753906 169.824219 13.507812 L 169.824219 16.691406 Z M 168.828125 16.691406 "
       id="path60" />
    <path
       style=" stroke:none;fill-rule:nonzero;fill:rgb(0%,0%,0%);fill-opacity:1;"
       d="M 179.070312 14.816406 L 180.105469 14.933594 C 179.933594 15.535156 179.625 16.003906 179.1875 16.339844 C 178.757812 16.667969 178.199219 16.828125 177.527344 16.828125 C 176.675781 16.828125 176.003906 16.570312 175.496094 16.046875 C 174.996094 15.515625 174.753906 14.773438 174.753906 13.820312 C 174.753906 12.84375 175.007812 12.089844 175.515625 11.554688 C 176.023438 11.007812 176.675781 10.734375 177.488281 10.734375 C 178.269531 10.734375 178.898438 11.003906 179.382812 11.535156 C 179.875 12.058594 180.125 12.800781 180.125 13.761719 C 180.125 13.828125 180.125 13.917969 180.125 14.035156 L 175.769531 14.035156 C 175.808594 14.675781 175.988281 15.164062 176.316406 15.5 C 176.636719 15.839844 177.046875 16.007812 177.546875 16.007812 C 177.90625 16.007812 178.214844 15.917969 178.464844 15.734375 C 178.722656 15.539062 178.921875 15.234375 179.070312 14.816406 Z M 175.828125 13.214844 L 179.089844 13.214844 C 179.050781 12.722656 178.921875 12.351562 178.71875 12.101562 C 178.40625 11.726562 177.996094 11.535156 177.488281 11.535156 C 177.027344 11.535156 176.648438 11.691406 176.335938 12.003906 C 176.03125 12.304688 175.867188 12.707031 175.828125 13.214844 Z M 175.828125 13.214844 "
       id="path62" />
    <path
       style=" stroke:none;fill-rule:nonzero;fill:rgb(0%,0%,0%);fill-opacity:1;"
       d="M 181.320312 16.691406 L 181.320312 8.644531 L 182.296875 8.644531 L 182.296875 16.691406 Z M 181.320312 16.691406 "
       id="path64" />
    <path
       style=" stroke:none;fill-rule:nonzero;fill:rgb(0%,0%,0%);fill-opacity:1;"
       d="M 39.792969 16.691406 L 39.792969 8.644531 L 40.847656 8.644531 L 40.847656 16.691406 Z M 39.792969 16.691406 "
       id="path66" />
    <path
       style=" stroke:none;fill-rule:nonzero;fill:rgb(0%,0%,0%);fill-opacity:1;"
       d="M 42.605469 16.691406 L 42.605469 10.851562 L 43.503906 10.851562 L 43.503906 11.691406 C 43.921875 11.054688 44.539062 10.734375 45.359375 10.734375 C 45.710938 10.734375 46.03125 10.800781 46.316406 10.929688 C 46.617188 11.046875 46.835938 11.210938 46.980469 11.417969 C 47.125 11.613281 47.226562 11.855469 47.292969 12.140625 C 47.332031 12.324219 47.351562 12.644531 47.351562 13.097656 L 47.351562 16.691406 L 46.355469 16.691406 L 46.355469 13.136719 C 46.355469 12.734375 46.316406 12.433594 46.238281 12.238281 C 46.160156 12.042969 46.023438 11.886719 45.828125 11.769531 C 45.632812 11.640625 45.40625 11.574219 45.144531 11.574219 C 44.726562 11.574219 44.363281 11.710938 44.050781 11.984375 C 43.75 12.246094 43.601562 12.753906 43.601562 13.507812 L 43.601562 16.691406 Z M 42.605469 16.691406 "
       id="path68" />
    <path
       style=" stroke:none;fill-rule:nonzero;fill:rgb(0%,0%,0%);fill-opacity:1;"
       d="M 48.859375 18.917969 L 48.859375 10.851562 L 49.757812 10.851562 L 49.757812 11.613281 C 49.964844 11.316406 50.199219 11.09375 50.460938 10.949219 C 50.734375 10.808594 51.066406 10.734375 51.457031 10.734375 C 51.949219 10.734375 52.386719 10.867188 52.765625 11.125 C 53.140625 11.375 53.429688 11.730469 53.625 12.199219 C 53.820312 12.667969 53.917969 13.175781 53.917969 13.722656 C 53.917969 14.324219 53.804688 14.863281 53.585938 15.34375 C 53.375 15.828125 53.070312 16.199219 52.667969 16.457031 C 52.261719 16.699219 51.832031 16.828125 51.378906 16.828125 C 51.050781 16.828125 50.757812 16.753906 50.5 16.613281 C 50.238281 16.472656 50.023438 16.296875 49.855469 16.085938 L 49.855469 18.917969 Z M 49.757812 13.800781 C 49.757812 14.558594 49.90625 15.117188 50.207031 15.480469 C 50.519531 15.832031 50.890625 16.007812 51.320312 16.007812 C 51.75 16.007812 52.121094 15.828125 52.433594 15.460938 C 52.757812 15.085938 52.921875 14.503906 52.921875 13.722656 C 52.921875 12.980469 52.765625 12.429688 52.453125 12.0625 C 52.152344 11.6875 51.789062 11.496094 51.359375 11.496094 C 50.941406 11.496094 50.570312 11.699219 50.246094 12.101562 C 49.917969 12.492188 49.757812 13.058594 49.757812 13.800781 Z M 49.757812 13.800781 "
       id="path70" />
    <path
       style=" stroke:none;fill-rule:nonzero;fill:rgb(0%,0%,0%);fill-opacity:1;"
       d="M 58.941406 16.691406 L 58.941406 15.832031 C 58.480469 16.496094 57.867188 16.828125 57.085938 16.828125 C 56.742188 16.828125 56.425781 16.757812 56.128906 16.632812 C 55.824219 16.492188 55.601562 16.320312 55.445312 16.125 C 55.296875 15.929688 55.199219 15.691406 55.152344 15.402344 C 55.113281 15.207031 55.09375 14.894531 55.09375 14.464844 L 55.09375 10.851562 L 56.070312 10.851562 L 56.070312 14.09375 C 56.070312 14.617188 56.09375 14.960938 56.148438 15.128906 C 56.195312 15.390625 56.324219 15.597656 56.519531 15.753906 C 56.722656 15.898438 56.976562 15.96875 57.28125 15.96875 C 57.578125 15.96875 57.855469 15.898438 58.121094 15.753906 C 58.378906 15.597656 58.558594 15.390625 58.667969 15.128906 C 58.769531 14.871094 58.824219 14.484375 58.824219 13.976562 L 58.824219 10.851562 L 59.820312 10.851562 L 59.820312 16.691406 Z M 58.941406 16.691406 "
       id="path72" />
    <path
       style=" stroke:none;fill-rule:nonzero;fill:rgb(0%,0%,0%);fill-opacity:1;"
       d="M 63.53125 15.8125 L 63.667969 16.671875 C 63.382812 16.734375 63.132812 16.769531 62.925781 16.769531 C 62.5625 16.769531 62.28125 16.710938 62.085938 16.59375 C 61.890625 16.476562 61.746094 16.328125 61.65625 16.144531 C 61.578125 15.964844 61.539062 15.578125 61.539062 14.992188 L 61.539062 11.632812 L 60.816406 11.632812 L 60.816406 10.851562 L 61.539062 10.851562 L 61.539062 9.40625 L 62.535156 8.820312 L 62.535156 10.851562 L 63.53125 10.851562 L 63.53125 11.632812 L 62.535156 11.632812 L 62.535156 15.03125 C 62.535156 15.320312 62.546875 15.5 62.574219 15.578125 C 62.613281 15.65625 62.671875 15.722656 62.75 15.773438 C 62.828125 15.828125 62.9375 15.851562 63.082031 15.851562 C 63.199219 15.851562 63.347656 15.839844 63.53125 15.8125 Z M 63.53125 15.8125 "
       id="path74" />
    <path
       style="fill-rule:nonzero;fill:rgb(40%,74.901961%,100%);fill-opacity:1;stroke-width:1;stroke-linecap:round;stroke-linejoin:round;stroke:rgb(0%,0%,0%);stroke-opacity:1;stroke-miterlimit:10;"
       d="M 45 126 L 63 126 L 63 144 L 45 144 Z M 45 126 "
       transform="matrix(1.25,0,0,1.25,-10,-55)"
       id="path76" />
    <path
       style="fill-rule:nonzero;fill:rgb(100%,100%,100%);fill-opacity:1;stroke-width:1;stroke-linecap:round;stroke-linejoin:round;stroke:rgb(0%,0%,0%);stroke-opacity:1;stroke-miterlimit:10;"
       d="M 45 90 L 63 90 L 63 108 L 45 108 Z M 45 90 "
       transform="matrix(1.25,0,0,1.25,-10,-55)"
       id="path78" />
    <path
       style="fill-rule:nonzero;fill:rgb(100%,100%,100%);fill-opacity:1;stroke-width:1;stroke-linecap:round;stroke-linejoin:round;stroke:rgb(0%,0%,0%);stroke-opacity:1;stroke-miterlimit:10;"
       d="M 45 108 L 63 108 L 63 126 L 45 126 Z M 45 108 "
       transform="matrix(1.25,0,0,1.25,-10,-55)"
       id="path80" />
    <path
       style="fill-rule:nonzero;fill:rgb(100%,100%,100%);fill-opacity:1;stroke-width:1;stroke-linecap:round;stroke-linejoin:round;stroke:rgb(0%,0%,0%);stroke-opacity:1;stroke-miterlimit:10;"
       d="M 9 126 L 27 126 L 27 144 L 9 144 Z M 9 126 "
       transform="matrix(1.25,0,0,1.25,-10,-55)"
       id="path82" />
    <path
       style="fill-rule:nonzero;fill:rgb(100%,100%,100%);fill-opacity:1;stroke-width:1;stroke-linecap:round;stroke-linejoin:round;stroke:rgb(0%,0%,0%);stroke-opacity:1;stroke-miterlimit:10;"
       d="M 27 126 L 45 126 L 45 144 L 27 144 Z M 27 126 "
       transform="matrix(1.25,0,0,1.25,-10,-55)"
       id="path84" />
    <path
       style="fill-rule:nonzero;fill:rgb(69.803922%,85.098039%,100%);fill-opacity:1;stroke-width:1;stroke-linecap:round;stroke-linejoin:round;stroke:rgb(0%,0%,0%);stroke-opacity:1;stroke-miterlimit:10;"
       d="M 9 90 L 27 90 L 27 108 L 9 108 Z M 9 90 "
       transform="matrix(1.25,0,0,1.25,-10,-55)"
       id="path86" />
    <path
       style="fill-rule:nonzero;fill:rgb(100%,100%,100%);fill-opacity:1;stroke-width:1;stroke-linecap:round;stroke-linejoin:round;stroke:rgb(0%,0%,0%);stroke-opacity:1;stroke-miterlimit:10;"
       d="M 9 108 L 27 108 L 27 126 L 9 126 Z M 9 108 "
       transform="matrix(1.25,0,0,1.25,-10,-55)"
       id="path88" />
    <path
       style="fill-rule:nonzero;fill:rgb(100%,100%,100%);fill-opacity:1;stroke-width:1;stroke-linecap:round;stroke-linejoin:round;stroke:rgb(0%,0%,0%);stroke-opacity:1;stroke-miterlimit:10;"
       d="M 27 90 L 45 90 L 45 108 L 27 108 Z M 27 90 "
       transform="matrix(1.25,0,0,1.25,-10,-55)"
       id="path90" />
    <path
       style="fill-rule:nonzero;fill:rgb(100%,100%,100%);fill-opacity:1;stroke-width:1;stroke-linecap:round;stroke-linejoin:round;stroke:rgb(0%,0%,0%);stroke-opacity:1;stroke-miterlimit:10;"
       d="M 27 108 L 45 108 L 45 126 L 27 126 Z M 27 108 "
       transform="matrix(1.25,0,0,1.25,-10,-55)"
       id="path92" />
    <path
       style=" stroke:none;fill-rule:nonzero;fill:rgb(0%,0%,0%);fill-opacity:1;"
       d="M 114.300781 78.472656 L 114.808594 76.910156 C 115.964844 77.3125 116.808594 77.664062 117.347656 77.964844 C 117.199219 76.648438 117.132812 75.738281 117.132812 75.230469 L 118.714844 75.230469 C 118.683594 75.960938 118.601562 76.871094 118.460938 77.964844 C 119.210938 77.585938 120.082031 77.234375 121.058594 76.910156 L 121.566406 78.472656 C 120.628906 78.773438 119.714844 78.972656 118.832031 79.078125 C 119.269531 79.46875 119.90625 80.160156 120.726562 81.148438 L 119.398438 82.085938 C 118.96875 81.511719 118.464844 80.726562 117.894531 79.722656 C 117.347656 80.765625 116.867188 81.550781 116.46875 82.085938 L 115.160156 81.148438 C 116.019531 80.105469 116.628906 79.417969 116.996094 79.078125 C 116.042969 78.894531 115.144531 78.695312 114.300781 78.472656 Z M 114.300781 78.472656 "
       id="path94" />
    <path
       style=" stroke:none;fill-rule:nonzero;fill:rgb(0%,0%,0%);fill-opacity:1;"
       d="M 228.523438 77.914062 L 217.878906 77.914062 L 217.878906 76.078125 L 228.523438 76.078125 Z M 228.523438 82.796875 L 217.878906 82.796875 L 217.878906 80.960938 L 228.523438 80.960938 Z M 228.523438 82.796875 "
       id="path96" />
    <path
       style="fill-rule:nonzero;fill:rgb(69.803922%,85.098039%,100%);fill-opacity:1;stroke-width:1;stroke-linecap:round;stroke-linejoin:round;stroke:rgb(0%,0%,0%);stroke-opacity:1;stroke-miterlimit:10;"
       d="M 140.96875 72 L 158.96875 72 L 158.96875 90 L 140.96875 90 Z M 140.96875 72 "
       transform="matrix(1.25,0,0,1.25,-10,-55)"
       id="path98" />
    <path
       style="fill-rule:nonzero;fill:rgb(69.803922%,85.098039%,100%);fill-opacity:1;stroke-width:1;stroke-linecap:round;stroke-linejoin:round;stroke:rgb(0%,0%,0%);stroke-opacity:1;stroke-miterlimit:10;"
       d="M 131.96875 81 L 149.96875 81 L 149.96875 99 L 131.96875 99 Z M 131.96875 81 "
       transform="matrix(1.25,0,0,1.25,-10,-55)"
       id="path100" />
    <path
       style="fill-rule:nonzero;fill:rgb(69.803922%,85.098039%,100%);fill-opacity:1;stroke-width:1;stroke-linecap:round;stroke-linejoin:round;stroke:rgb(0%,0%,0%);stroke-opacity:1;stroke-miterlimit:10;"
       d="M 122.96875 90 L 140.96875 90 L 140.96875 108 L 122.96875 108 Z M 122.96875 90 "
       transform="matrix(1.25,0,0,1.25,-10,-55)"
       id="path102" />
    <path
       style="fill-rule:nonzero;fill:rgb(40%,74.901961%,100%);fill-opacity:1;stroke-width:1;stroke-linecap:round;stroke-linejoin:round;stroke:rgb(0%,0%,0%);stroke-opacity:1;stroke-miterlimit:10;"
       d="M 140.96875 108 L 158.96875 108 L 158.96875 126 L 140.96875 126 Z M 140.96875 108 "
       transform="matrix(1.25,0,0,1.25,-10,-55)"
       id="path104" />
    <path
       style="fill-rule:nonzero;fill:rgb(40%,74.901961%,100%);fill-opacity:1;stroke-width:1;stroke-linecap:round;stroke-linejoin:round;stroke:rgb(0%,0%,0%);stroke-opacity:1;stroke-miterlimit:10;"
       d="M 131.96875 117 L 149.96875 117 L 149.96875 135 L 131.96875 135 Z M 131.96875 117 "
       transform="matrix(1.25,0,0,1.25,-10,-55)"
       id="path106" />
    <path
       style="fill-rule:nonzero;fill:rgb(40%,74.901961%,100%);fill-opacity:1;stroke-width:1;stroke-linecap:round;stroke-linejoin:round;stroke:rgb(0%,0%,0%);stroke-opacity:1;stroke-miterlimit:10;"
       d="M 122.96875 126 L 140.96875 126 L 140.96875 144 L 122.96875 144 Z M 122.96875 126 "
       transform="matrix(1.25,0,0,1.25,-10,-55)"
       id="path108" />
    <path
       style="fill-rule:nonzero;fill:rgb(40%,74.901961%,100%);fill-opacity:1;stroke-width:1;stroke-linecap:round;stroke-linejoin:round;stroke:rgb(0%,0%,0%);stroke-opacity:1;stroke-miterlimit:10;"
       d="M 258.575 113.3625 L 276.575 113.3625 L 276.575 131.3625 L 258.575 131.3625 Z M 258.575 113.3625 "
       transform="matrix(1.25,0,0,1.25,-10,-55)"
       id="path110" />
    <path
       style="fill-rule:nonzero;fill:rgb(100%,100%,100%);fill-opacity:1;stroke-width:1;stroke-linecap:round;stroke-linejoin:round;stroke:rgb(0%,0%,0%);stroke-opacity:1;stroke-miterlimit:10;"
       d="M 258.575 77.3625 L 276.575 77.3625 L 276.575 95.3625 L 258.575 95.3625 Z M 258.575 77.3625 "
       transform="matrix(1.25,0,0,1.25,-10,-55)"
       id="path112" />
    <path
       style="fill-rule:nonzero;fill:rgb(100%,100%,100%);fill-opacity:1;stroke-width:1;stroke-linecap:round;stroke-linejoin:round;stroke:rgb(0%,0%,0%);stroke-opacity:1;stroke-miterlimit:10;"
       d="M 258.575 95.3625 L 276.575 95.3625 L 276.575 113.3625 L 258.575 113.3625 Z M 258.575 95.3625 "
       transform="matrix(1.25,0,0,1.25,-10,-55)"
       id="path114" />
    <path
       style="fill-rule:nonzero;fill:rgb(100%,100%,100%);fill-opacity:1;stroke-width:1;stroke-linecap:round;stroke-linejoin:round;stroke:rgb(0%,0%,0%);stroke-opacity:1;stroke-miterlimit:10;"
       d="M 222.575 113.3625 L 240.575 113.3625 L 240.575 131.3625 L 222.575 131.3625 Z M 222.575 113.3625 "
       transform="matrix(1.25,0,0,1.25,-10,-55)"
       id="path116" />
    <path
       style="fill-rule:nonzero;fill:rgb(100%,100%,100%);fill-opacity:1;stroke-width:1;stroke-linecap:round;stroke-linejoin:round;stroke:rgb(0%,0%,0%);stroke-opacity:1;stroke-miterlimit:10;"
       d="M 240.575 113.3625 L 258.575 113.3625 L 258.575 131.3625 L 240.575 131.3625 Z M 240.575 113.3625 "
       transform="matrix(1.25,0,0,1.25,-10,-55)"
       id="path118" />
    <path
       style="fill-rule:nonzero;fill:rgb(100%,100%,100%);fill-opacity:1;stroke-width:1;stroke-linecap:round;stroke-linejoin:round;stroke:rgb(0%,0%,0%);stroke-opacity:1;stroke-miterlimit:10;"
       d="M 222.575 77.3625 L 240.575 77.3625 L 240.575 95.3625 L 222.575 95.3625 Z M 222.575 77.3625 "
       transform="matrix(1.25,0,0,1.25,-10,-55)"
       id="path120" />
    <path
       style="fill-rule:nonzero;fill:rgb(100%,100%,100%);fill-opacity:1;stroke-width:1;stroke-linecap:round;stroke-linejoin:round;stroke:rgb(0%,0%,0%);stroke-opacity:1;stroke-miterlimit:10;"
       d="M 222.575 95.3625 L 240.575 95.3625 L 240.575 113.3625 L 222.575 113.3625 Z M 222.575 95.3625 "
       transform="matrix(1.25,0,0,1.25,-10,-55)"
       id="path122" />
    <path
       style="fill-rule:nonzero;fill:rgb(100%,100%,100%);fill-opacity:1;stroke-width:1;stroke-linecap:round;stroke-linejoin:round;stroke:rgb(0%,0%,0%);stroke-opacity:1;stroke-miterlimit:10;"
       d="M 240.575 77.3625 L 258.575 77.3625 L 258.575 95.3625 L 240.575 95.3625 Z M 240.575 77.3625 "
       transform="matrix(1.25,0,0,1.25,-10,-55)"
       id="path124" />
    <path
       style="fill-rule:nonzero;fill:rgb(100%,100%,100%);fill-opacity:1;stroke-width:1;stroke-linecap:round;stroke-linejoin:round;stroke:rgb(0%,0%,0%);stroke-opacity:1;stroke-miterlimit:10;"
       d="M 240.575 95.3625 L 258.575 95.3625 L 258.575 113.3625 L 240.575 113.3625 Z M 240.575 95.3625 "
       transform="matrix(1.25,0,0,1.25,-10,-55)"
       id="path126" />
    <path
       style="fill-rule:nonzero;fill:rgb(100%,100%,100%);fill-opacity:1;stroke-width:1;stroke-linecap:round;stroke-linejoin:round;stroke:rgb(0%,0%,0%);stroke-opacity:1;stroke-miterlimit:10;"
       d="M 249.575 122.3625 L 267.575 122.3625 L 267.575 140.3625 L 249.575 140.3625 Z M 249.575 122.3625 "
       transform="matrix(1.25,0,0,1.25,-10,-55)"
       id="path128" />
    <path
       style="fill-rule:nonzero;fill:rgb(100%,100%,100%);fill-opacity:1;stroke-width:1;stroke-linecap:round;stroke-linejoin:round;stroke:rgb(0%,0%,0%);stroke-opacity:1;stroke-miterlimit:10;"
       d="M 249.575 86.3625 L 267.575 86.3625 L 267.575 104.3625 L 249.575 104.3625 Z M 249.575 86.3625 "
       transform="matrix(1.25,0,0,1.25,-10,-55)"
       id="path130" />
    <path
       style="fill-rule:nonzero;fill:rgb(100%,100%,100%);fill-opacity:1;stroke-width:1;stroke-linecap:round;stroke-linejoin:round;stroke:rgb(0%,0%,0%);stroke-opacity:1;stroke-miterlimit:10;"
       d="M 249.575 104.3625 L 267.575 104.3625 L 267.575 122.3625 L 249.575 122.3625 Z M 249.575 104.3625 "
       transform="matrix(1.25,0,0,1.25,-10,-55)"
       id="path132" />
    <path
       style="fill-rule:nonzero;fill:rgb(100%,100%,100%);fill-opacity:1;stroke-width:1;stroke-linecap:round;stroke-linejoin:round;stroke:rgb(0%,0%,0%);stroke-opacity:1;stroke-miterlimit:10;"
       d="M 213.575 122.3625 L 231.575 122.3625 L 231.575 140.3625 L 213.575 140.3625 Z M 213.575 122.3625 "
       transform="matrix(1.25,0,0,1.25,-10,-55)"
       id="path134" />
    <path
       style="fill-rule:nonzero;fill:rgb(100%,100%,100%);fill-opacity:1;stroke-width:1;stroke-linecap:round;stroke-linejoin:round;stroke:rgb(0%,0%,0%);stroke-opacity:1;stroke-miterlimit:10;"
       d="M 231.575 122.3625 L 249.575 122.3625 L 249.575 140.3625 L 231.575 140.3625 Z M 231.575 122.3625 "
       transform="matrix(1.25,0,0,1.25,-10,-55)"
       id="path136" />
    <path
       style="fill-rule:nonzero;fill:rgb(69.803922%,85.098039%,100%);fill-opacity:1;stroke-width:1;stroke-linecap:round;stroke-linejoin:round;stroke:rgb(0%,0%,0%);stroke-opacity:1;stroke-miterlimit:10;"
       d="M 213.575 86.3625 L 231.575 86.3625 L 231.575 104.3625 L 213.575 104.3625 Z M 213.575 86.3625 "
       transform="matrix(1.25,0,0,1.25,-10,-55)"
       id="path138" />
    <path
       style="fill-rule:nonzero;fill:rgb(100%,100%,100%);fill-opacity:1;stroke-width:1;stroke-linecap:round;stroke-linejoin:round;stroke:rgb(0%,0%,0%);stroke-opacity:1;stroke-miterlimit:10;"
       d="M 213.575 104.3625 L 231.575 104.3625 L 231.575 122.3625 L 213.575 122.3625 Z M 213.575 104.3625 "
       transform="matrix(1.25,0,0,1.25,-10,-55)"
       id="path140" />
    <path
       style="fill-rule:nonzero;fill:rgb(100%,100%,100%);fill-opacity:1;stroke-width:1;stroke-linecap:round;stroke-linejoin:round;stroke:rgb(0%,0%,0%);stroke-opacity:1;stroke-miterlimit:10;"
       d="M 231.575 86.3625 L 249.575 86.3625 L 249.575 104.3625 L 231.575 104.3625 Z M 231.575 86.3625 "
       transform="matrix(1.25,0,0,1.25,-10,-55)"
       id="path142" />
    <path
       style="fill-rule:nonzero;fill:rgb(100%,100%,100%);fill-opacity:1;stroke-width:1;stroke-linecap:round;stroke-linejoin:round;stroke:rgb(0%,0%,0%);stroke-opacity:1;stroke-miterlimit:10;"
       d="M 231.575 104.3625 L 249.575 104.3625 L 249.575 122.3625 L 231.575 122.3625 Z M 231.575 104.3625 "
       transform="matrix(1.25,0,0,1.25,-10,-55)"
       id="path144" />
  </g>
  <ellipse
     style="fill:none;stroke:#000000;stroke-width:0.75"
     id="path155"
     cx="117.95311"
     cy="78.47821"
     rx="4.9534116"
     ry="5.1082053" />
</svg>
