<?xml version="1.0" encoding="UTF-8" standalone="no"?>
<svg
   xmlns:dc="http://purl.org/dc/elements/1.1/"
   xmlns:cc="http://creativecommons.org/ns#"
   xmlns:rdf="http://www.w3.org/1999/02/22-rdf-syntax-ns#"
   xmlns:svg="http://www.w3.org/2000/svg"
   xmlns="http://www.w3.org/2000/svg"
   xmlns:sodipodi="http://sodipodi.sourceforge.net/DTD/sodipodi-0.dtd"
   xmlns:inkscape="http://www.inkscape.org/namespaces/inkscape"
   width="261pt"
   height="104pt"
   viewBox="0 0 261 104"
   version="1.1"
   id="svg121"
   sodipodi:docname="correlation.svg"
   inkscape:export-filename="/home/mario/magomar@gmail.com/UOC/TFM/figs/other/correlation.svg.png"
   inkscape:export-xdpi="96"
   inkscape:export-ydpi="96"
   inkscape:version="0.92.3 (2405546, 2018-03-11)">
  <metadata
     id="metadata127">
    <rdf:RDF>
      <cc:Work
         rdf:about="">
        <dc:format>image/svg+xml</dc:format>
        <dc:type
           rdf:resource="http://purl.org/dc/dcmitype/StillImage" />
      </cc:Work>
    </rdf:RDF>
  </metadata>
  <defs
     id="defs125" />
  <sodipodi:namedview
     pagecolor="#ffffff"
     bordercolor="#666666"
     borderopacity="1"
     objecttolerance="10"
     gridtolerance="10"
     guidetolerance="10"
     inkscape:pageopacity="0"
     inkscape:pageshadow="2"
     inkscape:window-width="1676"
     inkscape:window-height="1080"
     id="namedview123"
     showgrid="false"
     inkscape:zoom="3.1372784"
     inkscape:cx="53.889919"
     inkscape:cy="84.190408"
     inkscape:window-x="1074"
     inkscape:window-y="757"
     inkscape:window-maximized="0"
     inkscape:current-layer="svg121" />
  <g
     id="surface1">
    <path
       style=" stroke:none;fill-rule:nonzero;fill:rgb(100%,100%,100%);fill-opacity:1;"
       d="M 0 0 L 261.25 0 L 261.25 103.75 L 0 103.75 Z M 0 0 "
       id="path2" />
    <path
       style="stroke:none;fill-rule:nonzero;fill:none;fill-opacity:1"
       d="M 0 0 L 261.25 0 L 261.25 103.75 L 0 103.75 Z M 0 0 "
       id="path4" />
    <path
       style="fill-rule:nonzero;fill:rgb(100%,100%,100%);fill-opacity:1;stroke-width:1;stroke-linecap:round;stroke-linejoin:round;stroke:rgb(0%,0%,0%);stroke-opacity:1;stroke-miterlimit:10;"
       d="M 242.215625 157.215625 L 260.215625 157.215625 L 260.215625 175.215625 L 242.215625 175.215625 Z M 242.215625 157.215625 "
       transform="matrix(1.25,0,0,1.25,-66.25,-128.75)"
       id="path6" />
    <path
       style=" stroke:none;fill-rule:nonzero;fill:rgb(0%,0%,0%);fill-opacity:1;"
       d="M 245.144531 82.585938 L 245.144531 80.652344 L 241.648438 80.652344 L 241.648438 79.753906 L 245.320312 74.539062 L 246.140625 74.539062 L 246.140625 79.753906 L 247.234375 79.753906 L 247.234375 80.652344 L 246.140625 80.652344 L 246.140625 82.585938 Z M 245.144531 79.753906 L 245.144531 76.121094 L 242.625 79.753906 Z M 245.144531 79.753906 "
       id="path8" />
    <path
       style=" stroke:none;fill-rule:nonzero;fill:rgb(0%,0%,0%);fill-opacity:1;"
       d="M 248.238281 80.457031 L 249.234375 80.320312 C 249.351562 80.882812 249.539062 81.289062 249.800781 81.53125 C 250.074219 81.78125 250.414062 81.902344 250.816406 81.902344 C 251.273438 81.902344 251.65625 81.746094 251.96875 81.433594 C 252.292969 81.113281 252.457031 80.707031 252.457031 80.222656 C 252.457031 79.769531 252.308594 79.398438 252.007812 79.109375 C 251.722656 78.8125 251.351562 78.660156 250.894531 78.660156 C 250.699219 78.660156 250.464844 78.699219 250.191406 78.777344 L 250.308594 77.898438 C 250.375 77.914062 250.425781 77.917969 250.464844 77.917969 C 250.882812 77.917969 251.257812 77.8125 251.597656 77.585938 C 251.9375 77.367188 252.105469 77.03125 252.105469 76.570312 C 252.105469 76.210938 251.980469 75.90625 251.734375 75.671875 C 251.488281 75.4375 251.167969 75.320312 250.777344 75.320312 C 250.398438 75.320312 250.082031 75.449219 249.820312 75.691406 C 249.574219 75.925781 249.410156 76.289062 249.332031 76.765625 L 248.335938 76.589844 C 248.464844 75.925781 248.738281 75.414062 249.15625 75.046875 C 249.585938 74.6875 250.121094 74.5 250.757812 74.5 C 251.199219 74.5 251.605469 74.597656 251.96875 74.792969 C 252.347656 74.980469 252.632812 75.234375 252.828125 75.554688 C 253.023438 75.882812 253.121094 76.230469 253.121094 76.589844 C 253.121094 76.941406 253.023438 77.265625 252.828125 77.546875 C 252.644531 77.835938 252.371094 78.066406 252.007812 78.230469 C 252.488281 78.339844 252.859375 78.5625 253.121094 78.914062 C 253.382812 79.257812 253.511719 79.6875 253.511719 80.203125 C 253.511719 80.90625 253.25 81.507812 252.730469 82 C 252.222656 82.484375 251.578125 82.722656 250.796875 82.722656 C 250.09375 82.722656 249.507812 82.519531 249.039062 82.097656 C 248.570312 81.683594 248.304688 81.136719 248.238281 80.457031 Z M 248.238281 80.457031 "
       id="path10" />
    <path
       style="fill-rule:nonzero;fill:rgb(100%,100%,100%);fill-opacity:1;stroke-width:1;stroke-linecap:round;stroke-linejoin:round;stroke:rgb(0%,0%,0%);stroke-opacity:1;stroke-miterlimit:10;"
       d="M 224.215625 157.215625 L 242.215625 157.215625 L 242.215625 175.215625 L 224.215625 175.215625 Z M 224.215625 157.215625 "
       transform="matrix(1.25,0,0,1.25,-66.25,-128.75)"
       id="path12" />
    <path
       style=" stroke:none;fill-rule:nonzero;fill:rgb(0%,0%,0%);fill-opacity:1;"
       d="M 219.480469 80.457031 L 220.476562 80.320312 C 220.59375 80.882812 220.78125 81.289062 221.042969 81.53125 C 221.316406 81.78125 221.65625 81.902344 222.058594 81.902344 C 222.515625 81.902344 222.898438 81.746094 223.210938 81.433594 C 223.535156 81.113281 223.699219 80.707031 223.699219 80.222656 C 223.699219 79.769531 223.550781 79.398438 223.25 79.109375 C 222.964844 78.8125 222.59375 78.660156 222.136719 78.660156 C 221.941406 78.660156 221.707031 78.699219 221.433594 78.777344 L 221.550781 77.898438 C 221.617188 77.914062 221.667969 77.917969 221.707031 77.917969 C 222.125 77.917969 222.5 77.8125 222.839844 77.585938 C 223.179688 77.367188 223.347656 77.03125 223.347656 76.570312 C 223.347656 76.210938 223.222656 75.90625 222.976562 75.671875 C 222.730469 75.4375 222.410156 75.320312 222.019531 75.320312 C 221.640625 75.320312 221.324219 75.449219 221.0625 75.691406 C 220.816406 75.925781 220.652344 76.289062 220.574219 76.765625 L 219.578125 76.589844 C 219.707031 75.925781 219.980469 75.414062 220.398438 75.046875 C 220.828125 74.6875 221.363281 74.5 222 74.5 C 222.441406 74.5 222.847656 74.597656 223.210938 74.792969 C 223.589844 74.980469 223.875 75.234375 224.070312 75.554688 C 224.265625 75.882812 224.363281 76.230469 224.363281 76.589844 C 224.363281 76.941406 224.265625 77.265625 224.070312 77.546875 C 223.886719 77.835938 223.613281 78.066406 223.25 78.230469 C 223.730469 78.339844 224.101562 78.5625 224.363281 78.914062 C 224.625 79.257812 224.753906 79.6875 224.753906 80.203125 C 224.753906 80.90625 224.492188 81.507812 223.972656 82 C 223.464844 82.484375 222.820312 82.722656 222.039062 82.722656 C 221.335938 82.722656 220.75 82.519531 220.28125 82.097656 C 219.8125 81.683594 219.546875 81.136719 219.480469 80.457031 Z M 219.480469 80.457031 "
       id="path14" />
    <path
       style=" stroke:none;fill-rule:nonzero;fill:rgb(0%,0%,0%);fill-opacity:1;"
       d="M 225.796875 75.59375 L 225.796875 74.636719 L 231.011719 74.636719 L 231.011719 75.398438 C 230.503906 75.945312 229.996094 76.679688 229.488281 77.585938 C 228.980469 78.484375 228.589844 79.417969 228.316406 80.378906 C 228.121094 81.042969 227.996094 81.78125 227.945312 82.585938 L 226.929688 82.585938 C 226.941406 81.953125 227.066406 81.191406 227.300781 80.300781 C 227.535156 79.402344 227.875 78.539062 228.316406 77.703125 C 228.773438 76.875 229.246094 76.171875 229.742188 75.59375 Z M 225.796875 75.59375 "
       id="path16" />
    <path
       style="fill-rule:nonzero;fill:rgb(100%,100%,100%);fill-opacity:1;stroke-width:1;stroke-linecap:round;stroke-linejoin:round;stroke:rgb(0%,0%,0%);stroke-opacity:1;stroke-miterlimit:10;"
       d="M 242.215625 139.215625 L 260.215625 139.215625 L 260.215625 157.215625 L 242.215625 157.215625 Z M 242.215625 139.215625 "
       transform="matrix(1.25,0,0,1.25,-66.25,-128.75)"
       id="path18" />
    <path
       style=" stroke:none;fill-rule:nonzero;fill:rgb(0%,0%,0%);fill-opacity:1;"
       d="M 247.175781 59.128906 L 247.175781 60.085938 L 241.84375 60.085938 C 241.84375 59.851562 241.882812 59.628906 241.960938 59.402344 C 242.105469 59.042969 242.324219 58.679688 242.625 58.328125 C 242.925781 57.976562 243.355469 57.578125 243.914062 57.117188 C 244.785156 56.390625 245.371094 55.820312 245.671875 55.398438 C 245.984375 54.984375 246.140625 54.589844 246.140625 54.207031 C 246.140625 53.816406 245.996094 53.496094 245.710938 53.230469 C 245.4375 52.957031 245.078125 52.820312 244.636719 52.820312 C 244.15625 52.820312 243.769531 52.96875 243.484375 53.25 C 243.199219 53.539062 243.054688 53.933594 243.054688 54.441406 L 242.039062 54.324219 C 242.105469 53.574219 242.363281 52.996094 242.820312 52.605469 C 243.277344 52.207031 243.886719 52 244.65625 52 C 245.425781 52 246.03125 52.214844 246.472656 52.644531 C 246.929688 53.074219 247.15625 53.601562 247.15625 54.226562 C 247.15625 54.554688 247.089844 54.871094 246.960938 55.183594 C 246.832031 55.496094 246.609375 55.828125 246.296875 56.179688 C 245.996094 56.523438 245.496094 56.992188 244.792969 57.585938 C 244.195312 58.085938 243.808594 58.421875 243.640625 58.601562 C 243.472656 58.789062 243.335938 58.964844 243.230469 59.128906 Z M 247.175781 59.128906 "
       id="path20" />
    <path
       style=" stroke:none;fill-rule:nonzero;fill:rgb(0%,0%,0%);fill-opacity:1;"
       d="M 248.238281 57.976562 L 249.273438 57.878906 C 249.351562 58.386719 249.527344 58.773438 249.800781 59.03125 C 250.085938 59.28125 250.425781 59.402344 250.816406 59.402344 C 251.296875 59.402344 251.703125 59.226562 252.027344 58.875 C 252.367188 58.515625 252.535156 58.035156 252.535156 57.449219 C 252.535156 56.878906 252.371094 56.429688 252.046875 56.101562 C 251.734375 55.78125 251.324219 55.613281 250.816406 55.613281 C 250.492188 55.613281 250.199219 55.691406 249.9375 55.847656 C 249.691406 55.996094 249.488281 56.175781 249.332031 56.394531 L 248.414062 56.277344 L 249.195312 52.136719 L 253.199219 52.136719 L 253.199219 53.09375 L 249.976562 53.09375 L 249.546875 55.242188 C 250.027344 54.921875 250.535156 54.753906 251.070312 54.753906 C 251.773438 54.753906 252.367188 55 252.847656 55.476562 C 253.328125 55.960938 253.570312 56.585938 253.570312 57.351562 C 253.570312 58.085938 253.363281 58.714844 252.945312 59.246094 C 252.425781 59.902344 251.714844 60.222656 250.816406 60.222656 C 250.085938 60.222656 249.488281 60.023438 249.019531 59.617188 C 248.5625 59.203125 248.304688 58.65625 248.238281 57.976562 Z M 248.238281 57.976562 "
       id="path22" />
    <path
       style="fill-rule:nonzero;fill:rgb(69.803922%,85.098039%,100%);fill-opacity:1;stroke-width:1;stroke-linecap:round;stroke-linejoin:round;stroke:rgb(0%,0%,0%);stroke-opacity:1;stroke-miterlimit:10;"
       d="M 224.215625 139.215625 L 242.215625 139.215625 L 242.215625 157.215625 L 224.215625 157.215625 Z M 224.215625 139.215625 "
       transform="matrix(1.25,0,0,1.25,-66.25,-128.75)"
       id="path24" />
    <path
       style=" stroke:none;fill-rule:nonzero;fill:rgb(0%,0%,0%);fill-opacity:1;"
       d="M 223.210938 60.085938 L 222.214844 60.085938 L 222.214844 53.777344 C 221.980469 54.011719 221.667969 54.246094 221.277344 54.480469 C 220.886719 54.707031 220.542969 54.867188 220.242188 54.96875 L 220.242188 54.011719 C 220.789062 53.769531 221.269531 53.460938 221.6875 53.09375 C 222.105469 52.71875 222.398438 52.351562 222.566406 52 L 223.210938 52 Z M 223.210938 60.085938 "
       id="path26" />
    <path
       style=" stroke:none;fill-rule:nonzero;fill:rgb(0%,0%,0%);fill-opacity:1;"
       d="M 225.894531 58.230469 L 226.832031 58.132812 C 226.910156 58.578125 227.058594 58.90625 227.28125 59.109375 C 227.515625 59.304688 227.816406 59.402344 228.179688 59.402344 C 228.480469 59.402344 228.738281 59.339844 228.960938 59.207031 C 229.195312 59.066406 229.382812 58.875 229.527344 58.640625 C 229.683594 58.40625 229.808594 58.09375 229.898438 57.703125 C 230.003906 57.3125 230.054688 56.914062 230.054688 56.492188 C 230.054688 56.453125 230.046875 56.390625 230.035156 56.296875 C 229.839844 56.609375 229.574219 56.863281 229.234375 57.058594 C 228.894531 57.253906 228.523438 57.351562 228.121094 57.351562 C 227.457031 57.351562 226.890625 57.113281 226.421875 56.628906 C 225.964844 56.152344 225.738281 55.511719 225.738281 54.714844 C 225.738281 53.894531 225.980469 53.242188 226.460938 52.742188 C 226.941406 52.25 227.546875 52 228.277344 52 C 228.796875 52 229.273438 52.148438 229.703125 52.429688 C 230.132812 52.703125 230.457031 53.105469 230.679688 53.621094 C 230.914062 54.144531 231.03125 54.902344 231.03125 55.886719 C 231.03125 56.917969 230.921875 57.738281 230.699219 58.347656 C 230.476562 58.964844 230.144531 59.433594 229.703125 59.753906 C 229.261719 60.066406 228.738281 60.222656 228.140625 60.222656 C 227.515625 60.222656 227 60.046875 226.597656 59.695312 C 226.207031 59.34375 225.972656 58.855469 225.894531 58.230469 Z M 229.9375 54.675781 C 229.9375 54.105469 229.78125 53.65625 229.46875 53.328125 C 229.167969 52.992188 228.8125 52.820312 228.394531 52.820312 C 227.953125 52.820312 227.566406 53.007812 227.242188 53.367188 C 226.917969 53.71875 226.753906 54.183594 226.753906 54.753906 C 226.753906 55.261719 226.902344 55.683594 227.203125 56.003906 C 227.515625 56.316406 227.898438 56.472656 228.355469 56.472656 C 228.824219 56.472656 229.203125 56.316406 229.488281 56.003906 C 229.789062 55.683594 229.9375 55.238281 229.9375 54.675781 Z M 229.9375 54.675781 "
       id="path28" />
    <path
       style=" stroke:none;fill-rule:nonzero;fill:rgb(0%,0%,0%);fill-opacity:1;"
       d="M 86.808594 67.558594 L 87.316406 65.996094 C 88.472656 66.402344 89.320312 66.753906 89.855469 67.050781 C 89.710938 65.738281 89.640625 64.824219 89.640625 64.316406 L 91.222656 64.316406 C 91.195312 65.046875 91.109375 65.957031 90.96875 67.050781 C 91.722656 66.675781 92.589844 66.324219 93.566406 65.996094 L 94.074219 67.558594 C 93.136719 67.859375 92.222656 68.0625 91.339844 68.164062 C 91.78125 68.554688 92.414062 69.246094 93.234375 70.234375 L 91.90625 71.171875 C 91.476562 70.601562 90.972656 69.8125 90.402344 68.808594 C 89.855469 69.851562 89.378906 70.640625 88.976562 71.171875 L 87.667969 70.234375 C 88.527344 69.195312 89.136719 68.503906 89.503906 68.164062 C 88.550781 67.984375 87.652344 67.78125 86.808594 67.558594 Z M 86.808594 67.558594 "
       id="path30" />
    <path
       style=" stroke:none;fill-rule:nonzero;fill:rgb(0%,0%,0%);fill-opacity:1;"
       d="M 190.738281 65.429688 L 180.09375 65.429688 L 180.09375 63.59375 L 190.738281 63.59375 Z M 190.738281 70.3125 L 180.09375 70.3125 L 180.09375 68.476562 L 190.738281 68.476562 Z M 190.738281 70.3125 "
       id="path32" />
    <path
       style="fill-rule:nonzero;fill:rgb(100%,100%,100%);fill-opacity:1;stroke-width:1;stroke-linecap:round;stroke-linejoin:round;stroke:rgb(0%,0%,0%);stroke-opacity:1;stroke-miterlimit:10;"
       d="M 72 166.61875 L 90 166.61875 L 90 184.61875 L 72 184.61875 Z M 72 166.61875 "
       transform="matrix(1.25,0,0,1.25,-66.25,-128.75)"
       id="path34" />
    <path
       style=" stroke:none;fill-rule:nonzero;fill:rgb(0%,0%,0%);fill-opacity:1;"
       d="M 32.398438 87.347656 L 32.398438 86.390625 L 37.613281 86.390625 L 37.613281 87.152344 C 37.105469 87.699219 36.597656 88.429688 36.089844 89.339844 C 35.582031 90.238281 35.191406 91.171875 34.917969 92.132812 C 34.722656 92.796875 34.597656 93.535156 34.546875 94.339844 L 33.53125 94.339844 C 33.542969 93.703125 33.667969 92.941406 33.902344 92.054688 C 34.136719 91.15625 34.472656 90.292969 34.917969 89.457031 C 35.371094 88.625 35.847656 87.921875 36.34375 87.347656 Z M 32.398438 87.347656 "
       id="path36" />
    <path
       style="fill-rule:nonzero;fill:rgb(69.803922%,85.098039%,100%);fill-opacity:1;stroke-width:1;stroke-linecap:round;stroke-linejoin:round;stroke:rgb(0%,0%,0%);stroke-opacity:1;stroke-miterlimit:10;"
       d="M 72 130.61875 L 90 130.61875 L 90 148.61875 L 72 148.61875 Z M 72 130.61875 "
       transform="matrix(1.25,0,0,1.25,-66.25,-128.75)"
       id="path38" />
    <path
       style=" stroke:none;fill-rule:nonzero;fill:rgb(0%,0%,0%);fill-opacity:1;"
       d="M 36.070312 49.339844 L 35.074219 49.339844 L 35.074219 43.03125 C 34.839844 43.265625 34.527344 43.5 34.136719 43.734375 C 33.746094 43.957031 33.398438 44.121094 33.101562 44.222656 L 33.101562 43.265625 C 33.648438 43.019531 34.128906 42.714844 34.546875 42.347656 C 34.960938 41.972656 35.253906 41.605469 35.425781 41.253906 L 36.070312 41.253906 Z M 36.070312 49.339844 "
       id="path40" />
    <path
       style="fill-rule:nonzero;fill:rgb(69.803922%,85.098039%,100%);fill-opacity:1;stroke-width:1;stroke-linecap:round;stroke-linejoin:round;stroke:rgb(0%,0%,0%);stroke-opacity:1;stroke-miterlimit:10;"
       d="M 72 148.61875 L 90 148.61875 L 90 166.61875 L 72 166.61875 Z M 72 148.61875 "
       transform="matrix(1.25,0,0,1.25,-66.25,-128.75)"
       id="path42" />
    <path
       style=" stroke:none;fill-rule:nonzero;fill:rgb(0%,0%,0%);fill-opacity:1;"
       d="M 35.503906 71.839844 L 35.503906 69.90625 L 32.007812 69.90625 L 32.007812 69.007812 L 35.679688 63.792969 L 36.5 63.792969 L 36.5 69.007812 L 37.59375 69.007812 L 37.59375 69.90625 L 36.5 69.90625 L 36.5 71.839844 Z M 35.503906 69.007812 L 35.503906 65.375 L 32.984375 69.007812 Z M 35.503906 69.007812 "
       id="path44" />
    <path
       style="fill-rule:nonzero;fill:rgb(100%,100%,100%);fill-opacity:1;stroke-width:1;stroke-linecap:round;stroke-linejoin:round;stroke:rgb(0%,0%,0%);stroke-opacity:1;stroke-miterlimit:10;"
       d="M 54 166.61875 L 72 166.61875 L 72 184.61875 L 54 184.61875 Z M 54 166.61875 "
       transform="matrix(1.25,0,0,1.25,-66.25,-128.75)"
       id="path46" />
    <path
       style=" stroke:none;fill-rule:nonzero;fill:rgb(0%,0%,0%);fill-opacity:1;"
       d="M 14.976562 88.265625 L 13.980469 88.34375 C 13.902344 87.953125 13.777344 87.667969 13.609375 87.484375 C 13.347656 87.210938 13.023438 87.074219 12.632812 87.074219 C 12.304688 87.074219 12.027344 87.160156 11.792969 87.328125 C 11.480469 87.5625 11.230469 87.894531 11.050781 88.324219 C 10.878906 88.753906 10.789062 89.375 10.777344 90.179688 C 11.011719 89.828125 11.296875 89.570312 11.636719 89.398438 C 11.988281 89.21875 12.351562 89.125 12.730469 89.125 C 13.394531 89.125 13.953125 89.367188 14.410156 89.847656 C 14.878906 90.332031 15.113281 90.957031 15.113281 91.722656 C 15.113281 92.230469 15 92.707031 14.78125 93.148438 C 14.558594 93.578125 14.257812 93.910156 13.882812 94.144531 C 13.503906 94.363281 13.074219 94.476562 12.59375 94.476562 C 11.773438 94.476562 11.101562 94.179688 10.582031 93.578125 C 10.058594 92.96875 9.800781 91.964844 9.800781 90.570312 C 9.800781 89.023438 10.085938 87.890625 10.660156 87.171875 C 11.152344 86.5625 11.832031 86.253906 12.691406 86.253906 C 13.316406 86.253906 13.828125 86.4375 14.234375 86.800781 C 14.636719 87.152344 14.882812 87.640625 14.976562 88.265625 Z M 10.933594 91.722656 C 10.933594 92.074219 11.003906 92.40625 11.148438 92.71875 C 11.289062 93.019531 11.492188 93.253906 11.753906 93.421875 C 12.011719 93.578125 12.285156 93.65625 12.574219 93.65625 C 12.988281 93.65625 13.347656 93.496094 13.648438 93.167969 C 13.945312 92.832031 14.097656 92.367188 14.097656 91.78125 C 14.097656 91.222656 13.945312 90.785156 13.648438 90.472656 C 13.359375 90.148438 12.988281 89.984375 12.535156 89.984375 C 12.089844 89.984375 11.714844 90.148438 11.402344 90.472656 C 11.089844 90.785156 10.933594 91.203125 10.933594 91.722656 Z M 10.933594 91.722656 "
       id="path48" />
    <path
       style="fill-rule:nonzero;fill:rgb(100%,100%,100%);fill-opacity:1;stroke-width:1;stroke-linecap:round;stroke-linejoin:round;stroke:rgb(0%,0%,0%);stroke-opacity:1;stroke-miterlimit:10;"
       d="M 90 148.61875 L 108 148.61875 L 108 166.61875 L 90 166.61875 Z M 90 148.61875 "
       transform="matrix(1.25,0,0,1.25,-66.25,-128.75)"
       id="path50" />
    <path
       style=" stroke:none;fill-rule:nonzero;fill:rgb(0%,0%,0%);fill-opacity:1;"
       d="M 54.839844 69.730469 L 55.875 69.632812 C 55.953125 70.140625 56.128906 70.527344 56.402344 70.785156 C 56.6875 71.035156 57.027344 71.15625 57.417969 71.15625 C 57.898438 71.15625 58.300781 70.980469 58.628906 70.628906 C 58.964844 70.265625 59.136719 69.789062 59.136719 69.203125 C 59.136719 68.632812 58.972656 68.183594 58.648438 67.855469 C 58.335938 67.53125 57.925781 67.367188 57.417969 67.367188 C 57.089844 67.367188 56.796875 67.445312 56.539062 67.601562 C 56.289062 67.746094 56.089844 67.929688 55.933594 68.148438 L 55.015625 68.03125 L 55.796875 63.890625 L 59.800781 63.890625 L 59.800781 64.847656 L 56.578125 64.847656 L 56.148438 66.996094 C 56.628906 66.671875 57.136719 66.507812 57.671875 66.507812 C 58.375 66.507812 58.964844 66.75 59.449219 67.230469 C 59.929688 67.714844 60.171875 68.339844 60.171875 69.105469 C 60.171875 69.835938 59.960938 70.46875 59.546875 71 C 59.023438 71.652344 58.316406 71.976562 57.417969 71.976562 C 56.6875 71.976562 56.089844 71.777344 55.621094 71.371094 C 55.164062 70.957031 54.902344 70.410156 54.839844 69.730469 Z M 54.839844 69.730469 "
       id="path52" />
    <path
       style="fill-rule:nonzero;fill:rgb(69.803922%,85.098039%,100%);fill-opacity:1;stroke-width:1;stroke-linecap:round;stroke-linejoin:round;stroke:rgb(0%,0%,0%);stroke-opacity:1;stroke-miterlimit:10;"
       d="M 54 148.61875 L 72 148.61875 L 72 166.61875 L 54 166.61875 Z M 54 148.61875 "
       transform="matrix(1.25,0,0,1.25,-66.25,-128.75)"
       id="path54" />
    <path
       style=" stroke:none;fill-rule:nonzero;fill:rgb(0%,0%,0%);fill-opacity:1;"
       d="M 9.839844 69.710938 L 10.835938 69.574219 C 10.953125 70.136719 11.140625 70.539062 11.402344 70.785156 C 11.675781 71.035156 12.011719 71.15625 12.417969 71.15625 C 12.871094 71.15625 13.257812 71 13.570312 70.6875 C 13.894531 70.363281 14.058594 69.960938 14.058594 69.476562 C 14.058594 69.023438 13.90625 68.652344 13.609375 68.363281 C 13.320312 68.066406 12.949219 67.914062 12.496094 67.914062 C 12.300781 67.914062 12.066406 67.953125 11.792969 68.03125 L 11.910156 67.152344 C 11.972656 67.167969 12.027344 67.171875 12.066406 67.171875 C 12.480469 67.171875 12.859375 67.0625 13.199219 66.839844 C 13.535156 66.621094 13.707031 66.28125 13.707031 65.824219 C 13.707031 65.460938 13.582031 65.160156 13.335938 64.925781 C 13.085938 64.691406 12.769531 64.574219 12.378906 64.574219 C 12 64.574219 11.679688 64.699219 11.421875 64.945312 C 11.171875 65.179688 11.011719 65.539062 10.933594 66.019531 L 9.9375 65.84375 C 10.066406 65.179688 10.339844 64.667969 10.757812 64.300781 C 11.1875 63.9375 11.71875 63.753906 12.359375 63.753906 C 12.800781 63.753906 13.203125 63.851562 13.570312 64.046875 C 13.945312 64.230469 14.234375 64.484375 14.429688 64.808594 C 14.625 65.136719 14.722656 65.480469 14.722656 65.84375 C 14.722656 66.195312 14.625 66.515625 14.429688 66.800781 C 14.246094 67.089844 13.972656 67.316406 13.609375 67.484375 C 14.089844 67.589844 14.460938 67.816406 14.722656 68.167969 C 14.980469 68.507812 15.113281 68.9375 15.113281 69.457031 C 15.113281 70.160156 14.851562 70.761719 14.332031 71.253906 C 13.824219 71.738281 13.179688 71.976562 12.398438 71.976562 C 11.695312 71.976562 11.109375 71.769531 10.640625 71.351562 C 10.171875 70.9375 9.902344 70.390625 9.839844 69.710938 Z M 9.839844 69.710938 "
       id="path56" />
    <path
       style="fill-rule:nonzero;fill:rgb(100%,100%,100%);fill-opacity:1;stroke-width:1;stroke-linecap:round;stroke-linejoin:round;stroke:rgb(0%,0%,0%);stroke-opacity:1;stroke-miterlimit:10;"
       d="M 90 166.61875 L 108 166.61875 L 108 184.61875 L 90 184.61875 Z M 90 166.61875 "
       transform="matrix(1.25,0,0,1.25,-66.25,-128.75)"
       id="path58" />
    <path
       style=" stroke:none;fill-rule:nonzero;fill:rgb(0%,0%,0%);fill-opacity:1;"
       d="M 56.363281 89.964844 C 55.945312 89.824219 55.640625 89.613281 55.445312 89.339844 C 55.25 89.054688 55.152344 88.714844 55.152344 88.324219 C 55.152344 87.738281 55.359375 87.25 55.777344 86.859375 C 56.207031 86.457031 56.765625 86.253906 57.457031 86.253906 C 58.160156 86.253906 58.726562 86.464844 59.15625 86.878906 C 59.585938 87.285156 59.800781 87.777344 59.800781 88.363281 C 59.800781 88.730469 59.703125 89.054688 59.507812 89.339844 C 59.3125 89.613281 59.011719 89.824219 58.609375 89.964844 C 59.101562 90.136719 59.480469 90.402344 59.742188 90.765625 C 60 91.117188 60.132812 91.542969 60.132812 92.035156 C 60.132812 92.726562 59.882812 93.304688 59.390625 93.773438 C 58.90625 94.242188 58.269531 94.476562 57.476562 94.476562 C 56.679688 94.476562 56.035156 94.242188 55.542969 93.773438 C 55.058594 93.304688 54.820312 92.71875 54.820312 92.015625 C 54.820312 91.496094 54.949219 91.058594 55.210938 90.707031 C 55.484375 90.34375 55.867188 90.097656 56.363281 89.964844 Z M 56.167969 88.304688 C 56.167969 88.683594 56.285156 88.996094 56.519531 89.242188 C 56.765625 89.476562 57.085938 89.59375 57.476562 89.59375 C 57.867188 89.59375 58.179688 89.476562 58.414062 89.242188 C 58.660156 88.996094 58.785156 88.695312 58.785156 88.34375 C 58.785156 87.992188 58.660156 87.695312 58.414062 87.445312 C 58.164062 87.199219 57.851562 87.074219 57.476562 87.074219 C 57.097656 87.074219 56.785156 87.199219 56.539062 87.445312 C 56.289062 87.679688 56.167969 87.96875 56.167969 88.304688 Z M 55.835938 92.015625 C 55.835938 92.304688 55.898438 92.578125 56.03125 92.835938 C 56.171875 93.097656 56.375 93.300781 56.636719 93.441406 C 56.894531 93.585938 57.183594 93.65625 57.496094 93.65625 C 57.964844 93.65625 58.347656 93.507812 58.648438 93.207031 C 58.960938 92.910156 59.117188 92.523438 59.117188 92.054688 C 59.117188 91.574219 58.960938 91.175781 58.648438 90.863281 C 58.335938 90.550781 57.9375 90.394531 57.457031 90.394531 C 56.988281 90.394531 56.597656 90.550781 56.285156 90.863281 C 55.984375 91.175781 55.835938 91.5625 55.835938 92.015625 Z M 55.835938 92.015625 "
       id="path60" />
    <path
       style="fill-rule:nonzero;fill:rgb(100%,100%,100%);fill-opacity:1;stroke-width:1;stroke-linecap:round;stroke-linejoin:round;stroke:rgb(0%,0%,0%);stroke-opacity:1;stroke-miterlimit:10;"
       d="M 90 130.61875 L 108 130.61875 L 108 148.61875 L 90 148.61875 Z M 90 130.61875 "
       transform="matrix(1.25,0,0,1.25,-66.25,-128.75)"
       id="path62" />
    <path
       style=" stroke:none;fill-rule:nonzero;fill:rgb(0%,0%,0%);fill-opacity:1;"
       d="M 60.035156 48.382812 L 60.035156 49.339844 L 54.703125 49.339844 C 54.703125 49.105469 54.742188 48.878906 54.820312 48.65625 C 54.960938 48.292969 55.183594 47.933594 55.484375 47.582031 C 55.78125 47.230469 56.210938 46.828125 56.773438 46.371094 C 57.644531 45.644531 58.230469 45.070312 58.53125 44.652344 C 58.84375 44.238281 59 43.839844 59 43.460938 C 59 43.070312 58.855469 42.746094 58.570312 42.484375 C 58.296875 42.210938 57.9375 42.074219 57.496094 42.074219 C 57.011719 42.074219 56.628906 42.21875 56.34375 42.503906 C 56.054688 42.792969 55.914062 43.1875 55.914062 43.695312 L 54.898438 43.578125 C 54.960938 42.824219 55.222656 42.25 55.679688 41.859375 C 56.132812 41.457031 56.746094 41.253906 57.515625 41.253906 C 58.28125 41.253906 58.886719 41.46875 59.332031 41.898438 C 59.785156 42.328125 60.015625 42.855469 60.015625 43.480469 C 60.015625 43.808594 59.949219 44.125 59.820312 44.4375 C 59.6875 44.75 59.46875 45.082031 59.15625 45.433594 C 58.855469 45.773438 58.355469 46.242188 57.652344 46.839844 C 57.050781 47.335938 56.667969 47.675781 56.5 47.855469 C 56.328125 48.039062 56.191406 48.214844 56.089844 48.382812 Z M 60.035156 48.382812 "
       id="path64" />
    <path
       style="fill-rule:nonzero;fill:rgb(69.803922%,85.098039%,100%);fill-opacity:1;stroke-width:1;stroke-linecap:round;stroke-linejoin:round;stroke:rgb(0%,0%,0%);stroke-opacity:1;stroke-miterlimit:10;"
       d="M 54 130.61875 L 72 130.61875 L 72 148.61875 L 54 148.61875 Z M 54 130.61875 "
       transform="matrix(1.25,0,0,1.25,-66.25,-128.75)"
       id="path66" />
    <path
       style=" stroke:none;fill-rule:nonzero;fill:rgb(0%,0%,0%);fill-opacity:1;"
       d="M 9.839844 45.375 C 9.839844 44.425781 9.9375 43.65625 10.132812 43.070312 C 10.328125 42.484375 10.613281 42.035156 10.992188 41.722656 C 11.382812 41.410156 11.871094 41.253906 12.457031 41.253906 C 12.898438 41.253906 13.28125 41.347656 13.609375 41.527344 C 13.933594 41.699219 14.199219 41.945312 14.410156 42.269531 C 14.617188 42.597656 14.78125 42.992188 14.898438 43.460938 C 15.027344 43.929688 15.09375 44.570312 15.09375 45.375 C 15.09375 46.3125 14.996094 47.074219 14.800781 47.660156 C 14.605469 48.234375 14.3125 48.683594 13.921875 49.007812 C 13.542969 49.320312 13.054688 49.476562 12.457031 49.476562 C 11.6875 49.476562 11.082031 49.199219 10.640625 48.636719 C 10.105469 47.972656 9.839844 46.886719 9.839844 45.375 Z M 10.855469 45.375 C 10.855469 46.691406 11.003906 47.570312 11.304688 48.011719 C 11.617188 48.441406 12 48.65625 12.457031 48.65625 C 12.910156 48.65625 13.296875 48.441406 13.609375 48.011719 C 13.921875 47.570312 14.078125 46.691406 14.078125 45.375 C 14.078125 44.046875 13.921875 43.167969 13.609375 42.738281 C 13.296875 42.296875 12.910156 42.074219 12.457031 42.074219 C 12 42.074219 11.636719 42.265625 11.363281 42.640625 C 11.023438 43.136719 10.855469 44.046875 10.855469 45.375 Z M 10.855469 45.375 "
       id="path68" />
    <path
       style="fill-rule:nonzero;fill:rgb(69.803922%,85.098039%,100%);fill-opacity:1;stroke-width:1;stroke-linecap:round;stroke-linejoin:round;stroke:rgb(0%,0%,0%);stroke-opacity:1;stroke-miterlimit:10;"
       d="M 144.03125 157.215625 L 162.03125 157.215625 L 162.03125 175.215625 L 144.03125 175.215625 Z M 144.03125 157.215625 "
       transform="matrix(1.25,0,0,1.25,-66.25,-128.75)"
       id="path70" />
    <path
       style=" stroke:none;fill-rule:nonzero;fill:rgb(0%,0%,0%);fill-opacity:1;"
       d="M 127.574219 81.628906 L 127.574219 82.585938 L 122.242188 82.585938 C 122.242188 82.351562 122.28125 82.128906 122.359375 81.902344 C 122.503906 81.542969 122.722656 81.179688 123.023438 80.828125 C 123.324219 80.476562 123.753906 80.078125 124.3125 79.617188 C 125.183594 78.890625 125.769531 78.320312 126.070312 77.898438 C 126.382812 77.484375 126.539062 77.089844 126.539062 76.707031 C 126.539062 76.316406 126.394531 75.996094 126.109375 75.730469 C 125.835938 75.457031 125.476562 75.320312 125.035156 75.320312 C 124.554688 75.320312 124.167969 75.46875 123.882812 75.75 C 123.597656 76.039062 123.453125 76.433594 123.453125 76.941406 L 122.4375 76.824219 C 122.503906 76.074219 122.761719 75.496094 123.21875 75.105469 C 123.675781 74.707031 124.285156 74.5 125.054688 74.5 C 125.824219 74.5 126.429688 74.714844 126.871094 75.144531 C 127.328125 75.574219 127.554688 76.101562 127.554688 76.726562 C 127.554688 77.054688 127.488281 77.371094 127.359375 77.683594 C 127.230469 77.996094 127.007812 78.328125 126.695312 78.679688 C 126.394531 79.023438 125.894531 79.492188 125.191406 80.085938 C 124.59375 80.585938 124.207031 80.921875 124.039062 81.101562 C 123.871094 81.289062 123.734375 81.464844 123.628906 81.628906 Z M 127.574219 81.628906 "
       id="path72" />
    <path
       style="fill-rule:nonzero;fill:rgb(69.803922%,85.098039%,100%);fill-opacity:1;stroke-width:1;stroke-linecap:round;stroke-linejoin:round;stroke:rgb(0%,0%,0%);stroke-opacity:1;stroke-miterlimit:10;"
       d="M 162.03125 157.215625 L 180.03125 157.215625 L 180.03125 175.215625 L 162.03125 175.215625 Z M 162.03125 157.215625 "
       transform="matrix(1.25,0,0,1.25,-66.25,-128.75)"
       id="path74" />
    <path
       style=" stroke:none;fill-rule:nonzero;fill:rgb(0%,0%,0%);fill-opacity:1;"
       d="M 144.878906 80.457031 L 145.875 80.320312 C 145.992188 80.882812 146.179688 81.289062 146.441406 81.53125 C 146.714844 81.78125 147.054688 81.902344 147.457031 81.902344 C 147.914062 81.902344 148.296875 81.746094 148.609375 81.433594 C 148.933594 81.113281 149.097656 80.707031 149.097656 80.222656 C 149.097656 79.769531 148.949219 79.398438 148.648438 79.109375 C 148.363281 78.8125 147.992188 78.660156 147.535156 78.660156 C 147.339844 78.660156 147.105469 78.699219 146.832031 78.777344 L 146.949219 77.898438 C 147.015625 77.914062 147.066406 77.917969 147.105469 77.917969 C 147.523438 77.917969 147.898438 77.8125 148.238281 77.585938 C 148.578125 77.367188 148.746094 77.03125 148.746094 76.570312 C 148.746094 76.210938 148.621094 75.90625 148.375 75.671875 C 148.128906 75.4375 147.808594 75.320312 147.417969 75.320312 C 147.039062 75.320312 146.722656 75.449219 146.460938 75.691406 C 146.214844 75.925781 146.050781 76.289062 145.972656 76.765625 L 144.976562 76.589844 C 145.105469 75.925781 145.378906 75.414062 145.796875 75.046875 C 146.226562 74.6875 146.761719 74.5 147.398438 74.5 C 147.839844 74.5 148.246094 74.597656 148.609375 74.792969 C 148.988281 74.980469 149.273438 75.234375 149.46875 75.554688 C 149.664062 75.882812 149.761719 76.230469 149.761719 76.589844 C 149.761719 76.941406 149.664062 77.265625 149.46875 77.546875 C 149.285156 77.835938 149.011719 78.066406 148.648438 78.230469 C 149.128906 78.339844 149.5 78.5625 149.761719 78.914062 C 150.023438 79.257812 150.152344 79.6875 150.152344 80.203125 C 150.152344 80.90625 149.890625 81.507812 149.371094 82 C 148.863281 82.484375 148.21875 82.722656 147.4375 82.722656 C 146.734375 82.722656 146.148438 82.519531 145.679688 82.097656 C 145.210938 81.683594 144.945312 81.136719 144.878906 80.457031 Z M 144.878906 80.457031 "
       id="path76" />
    <path
       style="fill-rule:nonzero;fill:rgb(69.803922%,85.098039%,100%);fill-opacity:1;stroke-width:1;stroke-linecap:round;stroke-linejoin:round;stroke:rgb(0%,0%,0%);stroke-opacity:1;stroke-miterlimit:10;"
       d="M 162.03125 139.215625 L 180.03125 139.215625 L 180.03125 157.215625 L 162.03125 157.215625 Z M 162.03125 139.215625 "
       transform="matrix(1.25,0,0,1.25,-66.25,-128.75)"
       id="path78" />
    <path
       style=" stroke:none;fill-rule:nonzero;fill:rgb(0%,0%,0%);fill-opacity:1;"
       d="M 148.609375 60.085938 L 147.613281 60.085938 L 147.613281 53.777344 C 147.378906 54.011719 147.066406 54.246094 146.675781 54.480469 C 146.285156 54.707031 145.941406 54.867188 145.640625 54.96875 L 145.640625 54.011719 C 146.1875 53.769531 146.667969 53.460938 147.085938 53.09375 C 147.503906 52.71875 147.796875 52.351562 147.964844 52 L 148.609375 52 Z M 148.609375 60.085938 "
       id="path80" />
    <path
       style="fill-rule:nonzero;fill:rgb(69.803922%,85.098039%,100%);fill-opacity:1;stroke-width:1;stroke-linecap:round;stroke-linejoin:round;stroke:rgb(0%,0%,0%);stroke-opacity:1;stroke-miterlimit:10;"
       d="M 144.03125 139.215625 L 162.03125 139.215625 L 162.03125 157.215625 L 144.03125 157.215625 Z M 144.03125 139.215625 "
       transform="matrix(1.25,0,0,1.25,-66.25,-128.75)"
       id="path82" />
    <path
       style=" stroke:none;fill-rule:nonzero;fill:rgb(0%,0%,0%);fill-opacity:1;"
       d="M 122.378906 56.121094 C 122.378906 55.175781 122.476562 54.402344 122.671875 53.816406 C 122.867188 53.230469 123.152344 52.78125 123.53125 52.46875 C 123.921875 52.15625 124.410156 52 124.996094 52 C 125.4375 52 125.824219 52.09375 126.148438 52.273438 C 126.472656 52.445312 126.742188 52.695312 126.949219 53.015625 C 127.15625 53.34375 127.320312 53.738281 127.4375 54.207031 C 127.566406 54.675781 127.632812 55.316406 127.632812 56.121094 C 127.632812 57.058594 127.535156 57.820312 127.339844 58.40625 C 127.144531 58.984375 126.851562 59.433594 126.460938 59.753906 C 126.082031 60.066406 125.59375 60.222656 124.996094 60.222656 C 124.226562 60.222656 123.621094 59.945312 123.179688 59.382812 C 122.644531 58.71875 122.378906 57.636719 122.378906 56.121094 Z M 123.394531 56.121094 C 123.394531 57.441406 123.542969 58.320312 123.84375 58.757812 C 124.15625 59.1875 124.539062 59.402344 124.996094 59.402344 C 125.453125 59.402344 125.835938 59.1875 126.148438 58.757812 C 126.460938 58.320312 126.617188 57.441406 126.617188 56.121094 C 126.617188 54.792969 126.460938 53.914062 126.148438 53.484375 C 125.835938 53.046875 125.453125 52.820312 124.996094 52.820312 C 124.539062 52.820312 124.175781 53.011719 123.902344 53.386719 C 123.5625 53.886719 123.394531 54.792969 123.394531 56.121094 Z M 123.394531 56.121094 "
       id="path84" />
    <path
       style=" stroke:none;fill-rule:nonzero;fill:rgb(0%,0%,0%);fill-opacity:1;"
       d="M 220.179688 12.765625 C 220.179688 11.4375 220.539062 10.398438 221.253906 9.640625 C 221.96875 8.875 222.894531 8.488281 224.027344 8.488281 C 224.769531 8.488281 225.441406 8.671875 226.039062 9.035156 C 226.636719 9.386719 227.09375 9.882812 227.40625 10.519531 C 227.71875 11.160156 227.875 11.875 227.875 12.667969 C 227.875 13.488281 227.710938 14.226562 227.386719 14.875 C 227.0625 15.515625 226.59375 16.003906 225.980469 16.339844 C 225.382812 16.667969 224.730469 16.828125 224.027344 16.828125 C 223.273438 16.828125 222.59375 16.648438 221.996094 16.28125 C 221.398438 15.917969 220.941406 15.417969 220.628906 14.777344 C 220.328125 14.140625 220.179688 13.46875 220.179688 12.765625 Z M 221.273438 12.785156 C 221.273438 13.761719 221.535156 14.53125 222.054688 15.089844 C 222.574219 15.636719 223.234375 15.910156 224.027344 15.910156 C 224.820312 15.910156 225.480469 15.632812 226 15.070312 C 226.519531 14.511719 226.78125 13.710938 226.78125 12.667969 C 226.78125 12.019531 226.671875 11.453125 226.449219 10.96875 C 226.226562 10.476562 225.902344 10.089844 225.472656 9.816406 C 225.042969 9.542969 224.566406 9.40625 224.046875 9.40625 C 223.292969 9.40625 222.640625 9.667969 222.09375 10.1875 C 221.546875 10.710938 221.273438 11.574219 221.273438 12.785156 Z M 221.273438 12.785156 "
       id="path86" />
    <path
       style=" stroke:none;fill-rule:nonzero;fill:rgb(0%,0%,0%);fill-opacity:1;"
       d="M 232.953125 16.691406 L 232.953125 15.832031 C 232.496094 16.496094 231.878906 16.828125 231.097656 16.828125 C 230.757812 16.828125 230.441406 16.757812 230.140625 16.632812 C 229.839844 16.492188 229.613281 16.320312 229.457031 16.125 C 229.3125 15.929688 229.214844 15.691406 229.164062 15.402344 C 229.125 15.207031 229.105469 14.894531 229.105469 14.464844 L 229.105469 10.851562 L 230.082031 10.851562 L 230.082031 14.09375 C 230.082031 14.617188 230.109375 14.960938 230.160156 15.128906 C 230.210938 15.390625 230.335938 15.597656 230.53125 15.753906 C 230.738281 15.898438 230.992188 15.96875 231.292969 15.96875 C 231.59375 15.96875 231.871094 15.898438 232.132812 15.753906 C 232.394531 15.597656 232.574219 15.390625 232.679688 15.128906 C 232.785156 14.871094 232.835938 14.484375 232.835938 13.976562 L 232.835938 10.851562 L 233.832031 10.851562 L 233.832031 16.691406 Z M 232.953125 16.691406 "
       id="path88" />
    <path
       style=" stroke:none;fill-rule:nonzero;fill:rgb(0%,0%,0%);fill-opacity:1;"
       d="M 237.546875 15.8125 L 237.683594 16.671875 C 237.394531 16.734375 237.148438 16.769531 236.941406 16.769531 C 236.574219 16.769531 236.296875 16.710938 236.101562 16.59375 C 235.90625 16.476562 235.761719 16.328125 235.671875 16.144531 C 235.59375 15.964844 235.554688 15.578125 235.554688 14.992188 L 235.554688 11.632812 L 234.832031 11.632812 L 234.832031 10.851562 L 235.554688 10.851562 L 235.554688 9.40625 L 236.550781 8.820312 L 236.550781 10.851562 L 237.546875 10.851562 L 237.546875 11.632812 L 236.550781 11.632812 L 236.550781 15.03125 C 236.550781 15.320312 236.5625 15.5 236.589844 15.578125 C 236.628906 15.65625 236.6875 15.722656 236.765625 15.773438 C 236.84375 15.828125 236.953125 15.851562 237.097656 15.851562 C 237.214844 15.851562 237.363281 15.839844 237.546875 15.8125 Z M 237.546875 15.8125 "
       id="path90" />
    <path
       style=" stroke:none;fill-rule:nonzero;fill:rgb(0%,0%,0%);fill-opacity:1;"
       d="M 238.503906 18.917969 L 238.503906 10.851562 L 239.402344 10.851562 L 239.402344 11.613281 C 239.609375 11.316406 239.84375 11.09375 240.105469 10.949219 C 240.378906 10.808594 240.710938 10.734375 241.101562 10.734375 C 241.59375 10.734375 242.03125 10.867188 242.410156 11.125 C 242.785156 11.375 243.074219 11.730469 243.269531 12.199219 C 243.464844 12.667969 243.5625 13.175781 243.5625 13.722656 C 243.5625 14.324219 243.449219 14.863281 243.230469 15.34375 C 243.019531 15.828125 242.714844 16.199219 242.3125 16.457031 C 241.90625 16.699219 241.476562 16.828125 241.023438 16.828125 C 240.695312 16.828125 240.402344 16.753906 240.144531 16.613281 C 239.882812 16.472656 239.667969 16.296875 239.5 16.085938 L 239.5 18.917969 Z M 239.402344 13.800781 C 239.402344 14.558594 239.550781 15.117188 239.851562 15.480469 C 240.164062 15.832031 240.535156 16.007812 240.964844 16.007812 C 241.394531 16.007812 241.765625 15.828125 242.078125 15.460938 C 242.402344 15.085938 242.566406 14.503906 242.566406 13.722656 C 242.566406 12.980469 242.410156 12.429688 242.097656 12.0625 C 241.796875 11.6875 241.433594 11.496094 241.003906 11.496094 C 240.585938 11.496094 240.214844 11.699219 239.890625 12.101562 C 239.5625 12.492188 239.402344 13.058594 239.402344 13.800781 Z M 239.402344 13.800781 "
       id="path92" />
    <path
       style=" stroke:none;fill-rule:nonzero;fill:rgb(0%,0%,0%);fill-opacity:1;"
       d="M 248.585938 16.691406 L 248.585938 15.832031 C 248.125 16.496094 247.511719 16.828125 246.730469 16.828125 C 246.386719 16.828125 246.070312 16.757812 245.773438 16.632812 C 245.46875 16.492188 245.246094 16.320312 245.089844 16.125 C 244.941406 15.929688 244.84375 15.691406 244.796875 15.402344 C 244.757812 15.207031 244.738281 14.894531 244.738281 14.464844 L 244.738281 10.851562 L 245.714844 10.851562 L 245.714844 14.09375 C 245.714844 14.617188 245.738281 14.960938 245.792969 15.128906 C 245.839844 15.390625 245.96875 15.597656 246.164062 15.753906 C 246.367188 15.898438 246.621094 15.96875 246.925781 15.96875 C 247.222656 15.96875 247.5 15.898438 247.765625 15.753906 C 248.023438 15.597656 248.203125 15.390625 248.3125 15.128906 C 248.414062 14.871094 248.46875 14.484375 248.46875 13.976562 L 248.46875 10.851562 L 249.464844 10.851562 L 249.464844 16.691406 Z M 248.585938 16.691406 "
       id="path94" />
    <path
       style=" stroke:none;fill-rule:nonzero;fill:rgb(0%,0%,0%);fill-opacity:1;"
       d="M 253.179688 15.8125 L 253.316406 16.671875 C 253.027344 16.734375 252.777344 16.769531 252.574219 16.769531 C 252.207031 16.769531 251.929688 16.710938 251.734375 16.59375 C 251.539062 16.476562 251.390625 16.328125 251.304688 16.144531 C 251.226562 15.964844 251.1875 15.578125 251.1875 14.992188 L 251.1875 11.632812 L 250.464844 11.632812 L 250.464844 10.851562 L 251.1875 10.851562 L 251.1875 9.40625 L 252.183594 8.820312 L 252.183594 10.851562 L 253.179688 10.851562 L 253.179688 11.632812 L 252.183594 11.632812 L 252.183594 15.03125 C 252.183594 15.320312 252.191406 15.5 252.222656 15.578125 C 252.261719 15.65625 252.320312 15.722656 252.398438 15.773438 C 252.476562 15.828125 252.582031 15.851562 252.730469 15.851562 C 252.847656 15.851562 252.992188 15.839844 253.179688 15.8125 Z M 253.179688 15.8125 "
       id="path96" />
    <path
       style=" stroke:none;fill-rule:nonzero;fill:rgb(0%,0%,0%);fill-opacity:1;"
       d="M 120.1875 16.691406 L 120.1875 8.644531 L 121.261719 8.644531 L 121.261719 12.628906 L 125.265625 8.644531 L 126.691406 8.644531 L 123.332031 11.90625 L 126.847656 16.691406 L 125.441406 16.691406 L 122.570312 12.609375 L 121.261719 13.898438 L 121.261719 16.691406 Z M 120.1875 16.691406 "
       id="path98" />
    <path
       style=" stroke:none;fill-rule:nonzero;fill:rgb(0%,0%,0%);fill-opacity:1;"
       d="M 131.59375 14.816406 L 132.628906 14.933594 C 132.460938 15.535156 132.152344 16.003906 131.710938 16.339844 C 131.28125 16.667969 130.726562 16.828125 130.050781 16.828125 C 129.203125 16.828125 128.527344 16.570312 128.019531 16.046875 C 127.523438 15.515625 127.277344 14.773438 127.277344 13.820312 C 127.277344 12.84375 127.53125 12.089844 128.039062 11.554688 C 128.546875 11.007812 129.203125 10.734375 130.011719 10.734375 C 130.792969 10.734375 131.425781 11.003906 131.90625 11.535156 C 132.402344 12.058594 132.648438 12.800781 132.648438 13.761719 C 132.648438 13.828125 132.648438 13.917969 132.648438 14.035156 L 128.292969 14.035156 C 128.332031 14.675781 128.515625 15.164062 128.839844 15.5 C 129.164062 15.839844 129.574219 16.007812 130.070312 16.007812 C 130.433594 16.007812 130.742188 15.917969 130.988281 15.734375 C 131.25 15.539062 131.449219 15.234375 131.59375 14.816406 Z M 128.351562 13.214844 L 131.613281 13.214844 C 131.574219 12.722656 131.449219 12.351562 131.242188 12.101562 C 130.929688 11.726562 130.519531 11.535156 130.011719 11.535156 C 129.554688 11.535156 129.171875 11.691406 128.859375 12.003906 C 128.558594 12.304688 128.390625 12.707031 128.351562 13.214844 Z M 128.351562 13.214844 "
       id="path100" />
    <path
       style=" stroke:none;fill-rule:nonzero;fill:rgb(0%,0%,0%);fill-opacity:1;"
       d="M 133.847656 16.691406 L 133.847656 10.851562 L 134.746094 10.851562 L 134.746094 11.75 C 134.96875 11.335938 135.175781 11.0625 135.371094 10.929688 C 135.566406 10.800781 135.78125 10.734375 136.015625 10.734375 C 136.339844 10.734375 136.679688 10.839844 137.03125 11.046875 L 136.679688 11.964844 C 136.445312 11.824219 136.203125 11.75 135.957031 11.75 C 135.75 11.75 135.554688 11.816406 135.371094 11.945312 C 135.203125 12.078125 135.078125 12.257812 135 12.492188 C 134.894531 12.84375 134.84375 13.230469 134.84375 13.644531 L 134.84375 16.691406 Z M 133.847656 16.691406 "
       id="path102" />
    <path
       style=" stroke:none;fill-rule:nonzero;fill:rgb(0%,0%,0%);fill-opacity:1;"
       d="M 137.613281 16.691406 L 137.613281 10.851562 L 138.511719 10.851562 L 138.511719 11.691406 C 138.929688 11.054688 139.546875 10.734375 140.367188 10.734375 C 140.71875 10.734375 141.039062 10.800781 141.324219 10.929688 C 141.625 11.046875 141.84375 11.210938 141.988281 11.417969 C 142.132812 11.613281 142.234375 11.855469 142.300781 12.140625 C 142.339844 12.324219 142.359375 12.644531 142.359375 13.097656 L 142.359375 16.691406 L 141.363281 16.691406 L 141.363281 13.136719 C 141.363281 12.734375 141.324219 12.433594 141.246094 12.238281 C 141.167969 12.042969 141.03125 11.886719 140.835938 11.769531 C 140.640625 11.640625 140.414062 11.574219 140.152344 11.574219 C 139.734375 11.574219 139.371094 11.710938 139.058594 11.984375 C 138.757812 12.246094 138.609375 12.753906 138.609375 13.507812 L 138.609375 16.691406 Z M 137.613281 16.691406 "
       id="path104" />
    <path
       style=" stroke:none;fill-rule:nonzero;fill:rgb(0%,0%,0%);fill-opacity:1;"
       d="M 147.855469 14.816406 L 148.890625 14.933594 C 148.71875 15.535156 148.414062 16.003906 147.972656 16.339844 C 147.542969 16.667969 146.988281 16.828125 146.3125 16.828125 C 145.464844 16.828125 144.789062 16.570312 144.28125 16.046875 C 143.785156 15.515625 143.539062 14.773438 143.539062 13.820312 C 143.539062 12.84375 143.792969 12.089844 144.300781 11.554688 C 144.808594 11.007812 145.464844 10.734375 146.273438 10.734375 C 147.054688 10.734375 147.683594 11.003906 148.167969 11.535156 C 148.660156 12.058594 148.910156 12.800781 148.910156 13.761719 C 148.910156 13.828125 148.910156 13.917969 148.910156 14.035156 L 144.554688 14.035156 C 144.59375 14.675781 144.773438 15.164062 145.101562 15.5 C 145.425781 15.839844 145.835938 16.007812 146.332031 16.007812 C 146.695312 16.007812 147 15.917969 147.25 15.734375 C 147.507812 15.539062 147.710938 15.234375 147.855469 14.816406 Z M 144.613281 13.214844 L 147.875 13.214844 C 147.835938 12.722656 147.710938 12.351562 147.503906 12.101562 C 147.191406 11.726562 146.78125 11.535156 146.273438 11.535156 C 145.816406 11.535156 145.433594 11.691406 145.121094 12.003906 C 144.820312 12.304688 144.652344 12.707031 144.613281 13.214844 Z M 144.613281 13.214844 "
       id="path106" />
    <path
       style=" stroke:none;fill-rule:nonzero;fill:rgb(0%,0%,0%);fill-opacity:1;"
       d="M 150.109375 16.691406 L 150.109375 8.644531 L 151.085938 8.644531 L 151.085938 16.691406 Z M 150.109375 16.691406 "
       id="path108" />
    <path
       style=" stroke:none;fill-rule:nonzero;fill:rgb(0%,0%,0%);fill-opacity:1;"
       d="M 24.792969 16.691406 L 24.792969 8.644531 L 25.847656 8.644531 L 25.847656 16.691406 Z M 24.792969 16.691406 "
       id="path110" />
    <path
       style=" stroke:none;fill-rule:nonzero;fill:rgb(0%,0%,0%);fill-opacity:1;"
       d="M 27.605469 16.691406 L 27.605469 10.851562 L 28.503906 10.851562 L 28.503906 11.691406 C 28.921875 11.054688 29.539062 10.734375 30.359375 10.734375 C 30.710938 10.734375 31.03125 10.800781 31.316406 10.929688 C 31.617188 11.046875 31.835938 11.210938 31.980469 11.417969 C 32.125 11.613281 32.226562 11.855469 32.292969 12.140625 C 32.332031 12.324219 32.351562 12.644531 32.351562 13.097656 L 32.351562 16.691406 L 31.355469 16.691406 L 31.355469 13.136719 C 31.355469 12.734375 31.316406 12.433594 31.238281 12.238281 C 31.160156 12.042969 31.023438 11.886719 30.828125 11.769531 C 30.632812 11.640625 30.40625 11.574219 30.144531 11.574219 C 29.726562 11.574219 29.363281 11.710938 29.050781 11.984375 C 28.75 12.246094 28.601562 12.753906 28.601562 13.507812 L 28.601562 16.691406 Z M 27.605469 16.691406 "
       id="path112" />
    <path
       style=" stroke:none;fill-rule:nonzero;fill:rgb(0%,0%,0%);fill-opacity:1;"
       d="M 33.859375 18.917969 L 33.859375 10.851562 L 34.757812 10.851562 L 34.757812 11.613281 C 34.964844 11.316406 35.199219 11.09375 35.460938 10.949219 C 35.734375 10.808594 36.066406 10.734375 36.457031 10.734375 C 36.949219 10.734375 37.386719 10.867188 37.765625 11.125 C 38.140625 11.375 38.429688 11.730469 38.625 12.199219 C 38.820312 12.667969 38.917969 13.175781 38.917969 13.722656 C 38.917969 14.324219 38.804688 14.863281 38.585938 15.34375 C 38.375 15.828125 38.070312 16.199219 37.667969 16.457031 C 37.261719 16.699219 36.832031 16.828125 36.378906 16.828125 C 36.050781 16.828125 35.757812 16.753906 35.5 16.613281 C 35.238281 16.472656 35.023438 16.296875 34.855469 16.085938 L 34.855469 18.917969 Z M 34.757812 13.800781 C 34.757812 14.558594 34.90625 15.117188 35.207031 15.480469 C 35.519531 15.832031 35.890625 16.007812 36.320312 16.007812 C 36.75 16.007812 37.121094 15.828125 37.433594 15.460938 C 37.757812 15.085938 37.921875 14.503906 37.921875 13.722656 C 37.921875 12.980469 37.765625 12.429688 37.453125 12.0625 C 37.152344 11.6875 36.789062 11.496094 36.359375 11.496094 C 35.941406 11.496094 35.570312 11.699219 35.246094 12.101562 C 34.917969 12.492188 34.757812 13.058594 34.757812 13.800781 Z M 34.757812 13.800781 "
       id="path114" />
    <path
       style=" stroke:none;fill-rule:nonzero;fill:rgb(0%,0%,0%);fill-opacity:1;"
       d="M 43.941406 16.691406 L 43.941406 15.832031 C 43.480469 16.496094 42.867188 16.828125 42.085938 16.828125 C 41.742188 16.828125 41.425781 16.757812 41.128906 16.632812 C 40.824219 16.492188 40.601562 16.320312 40.445312 16.125 C 40.296875 15.929688 40.199219 15.691406 40.152344 15.402344 C 40.113281 15.207031 40.09375 14.894531 40.09375 14.464844 L 40.09375 10.851562 L 41.070312 10.851562 L 41.070312 14.09375 C 41.070312 14.617188 41.09375 14.960938 41.148438 15.128906 C 41.195312 15.390625 41.324219 15.597656 41.519531 15.753906 C 41.722656 15.898438 41.976562 15.96875 42.28125 15.96875 C 42.578125 15.96875 42.855469 15.898438 43.121094 15.753906 C 43.378906 15.597656 43.558594 15.390625 43.667969 15.128906 C 43.769531 14.871094 43.824219 14.484375 43.824219 13.976562 L 43.824219 10.851562 L 44.820312 10.851562 L 44.820312 16.691406 Z M 43.941406 16.691406 "
       id="path116" />
    <path
       style=" stroke:none;fill-rule:nonzero;fill:rgb(0%,0%,0%);fill-opacity:1;"
       d="M 48.53125 15.8125 L 48.667969 16.671875 C 48.382812 16.734375 48.132812 16.769531 47.925781 16.769531 C 47.5625 16.769531 47.28125 16.710938 47.085938 16.59375 C 46.890625 16.476562 46.746094 16.328125 46.65625 16.144531 C 46.578125 15.964844 46.539062 15.578125 46.539062 14.992188 L 46.539062 11.632812 L 45.816406 11.632812 L 45.816406 10.851562 L 46.539062 10.851562 L 46.539062 9.40625 L 47.535156 8.820312 L 47.535156 10.851562 L 48.53125 10.851562 L 48.53125 11.632812 L 47.535156 11.632812 L 47.535156 15.03125 C 47.535156 15.320312 47.546875 15.5 47.574219 15.578125 C 47.613281 15.65625 47.671875 15.722656 47.75 15.773438 C 47.828125 15.828125 47.9375 15.851562 48.082031 15.851562 C 48.199219 15.851562 48.347656 15.839844 48.53125 15.8125 Z M 48.53125 15.8125 "
       id="path118" />
  </g>
  <ellipse
     style="fill:none;stroke:#000000;stroke-width:0.82392812"
     id="path137"
     cx="90.484474"
     cy="67.901825"
     rx="5.1028414"
     ry="4.7442503" />
</svg>
