<?xml version="1.0" encoding="UTF-8" standalone="no"?>
<svg
   xmlns:dc="http://purl.org/dc/elements/1.1/"
   xmlns:cc="http://creativecommons.org/ns#"
   xmlns:rdf="http://www.w3.org/1999/02/22-rdf-syntax-ns#"
   xmlns:svg="http://www.w3.org/2000/svg"
   xmlns="http://www.w3.org/2000/svg"
   xmlns:sodipodi="http://sodipodi.sourceforge.net/DTD/sodipodi-0.dtd"
   xmlns:inkscape="http://www.inkscape.org/namespaces/inkscape"
   width="311pt"
   height="150pt"
   viewBox="0 0 311 150"
   version="1.1"
   id="svg212"
   sodipodi:docname="conv_stride.svg"
   inkscape:version="0.92.3 (2405546, 2018-03-11)"
   inkscape:export-filename="/home/mario/magomar@gmail.com/UOC/TFM/figs/other/conv_stride.svg.png"
   inkscape:export-xdpi="96"
   inkscape:export-ydpi="96">
  <metadata
     id="metadata216">
    <rdf:RDF>
      <cc:Work
         rdf:about="">
        <dc:format>image/svg+xml</dc:format>
        <dc:type
           rdf:resource="http://purl.org/dc/dcmitype/StillImage" />
      </cc:Work>
    </rdf:RDF>
  </metadata>
  <sodipodi:namedview
     pagecolor="#ffffff"
     bordercolor="#666666"
     borderopacity="1"
     objecttolerance="10"
     gridtolerance="10"
     guidetolerance="10"
     inkscape:pageopacity="0"
     inkscape:pageshadow="2"
     inkscape:window-width="1960"
     inkscape:window-height="1120"
     id="namedview214"
     showgrid="false"
     inkscape:zoom="3.7234727"
     inkscape:cx="219.61676"
     inkscape:cy="82.848738"
     inkscape:window-x="968"
     inkscape:window-y="520"
     inkscape:window-maximized="0"
     inkscape:current-layer="svg212" />
  <defs
     id="defs23">
    <clipPath
       id="clip1">
      <path
         d="M 46.777344 126.25 L 69.277344 126.25 L 69.277344 148.75 L 46.777344 148.75 Z M 46.777344 126.25 "
         id="path2" />
    </clipPath>
    <clipPath
       id="clip2">
      <path
         d="M 91.777344 126.25 L 114.277344 126.25 L 114.277344 148.75 L 91.777344 148.75 Z M 91.777344 126.25 "
         id="path5" />
    </clipPath>
    <clipPath
       id="clip3">
      <path
         d="M 69.277344 126.25 L 91.777344 126.25 L 91.777344 148.75 L 69.277344 148.75 Z M 69.277344 126.25 "
         id="path8" />
    </clipPath>
    <clipPath
       id="clip4">
      <path
         d="M 24.277344 126.25 L 46.777344 126.25 L 46.777344 148.75 L 24.277344 148.75 Z M 24.277344 126.25 "
         id="path11" />
    </clipPath>
    <clipPath
       id="clip5">
      <path
         d="M 91.777344 81.25 L 114.277344 81.25 L 114.277344 103.75 L 91.777344 103.75 Z M 91.777344 81.25 "
         id="path14" />
    </clipPath>
    <clipPath
       id="clip6">
      <path
         d="M 91.777344 103.75 L 114.277344 103.75 L 114.277344 126.25 L 91.777344 126.25 Z M 91.777344 103.75 "
         id="path17" />
    </clipPath>
    <clipPath
       id="clip7">
      <path
         d="M 91.777344 58.75 L 114.277344 58.75 L 114.277344 81.25 L 91.777344 81.25 Z M 91.777344 58.75 "
         id="path20" />
    </clipPath>
  </defs>
  <g
     id="surface1">
    <rect
       x="0"
       y="0"
       width="311"
       height="150"
       style="fill:rgb(100%,100%,100%);fill-opacity:1;stroke:none;"
       id="rect25" />
    <g
       clip-path="url(#clip1)"
       clip-rule="nonzero"
       id="g29">
      <path
         style="fill-rule:nonzero;fill:rgb(100%,100%,100%);fill-opacity:1;stroke-width:2;stroke-linecap:round;stroke-linejoin:round;stroke:rgb(0%,0%,0%);stroke-opacity:1;stroke-dasharray:1,4;stroke-miterlimit:10;"
         d="M 48.421875 236 L 66.421875 236 L 66.421875 254 L 48.421875 254 Z M 48.421875 236 "
         transform="matrix(1.25,0,0,1.25,-13.75,-168.75)"
         id="path27" />
    </g>
    <path
       style=" stroke:none;fill-rule:nonzero;fill:rgb(0%,0%,0%);fill-opacity:1;"
       d="M 55.367188 137.101562 C 55.367188 136.152344 55.464844 135.382812 55.660156 134.796875 C 55.855469 134.210938 56.140625 133.761719 56.519531 133.449219 C 56.910156 133.136719 57.398438 132.980469 57.984375 132.980469 C 58.425781 132.980469 58.8125 133.074219 59.136719 133.253906 C 59.460938 133.425781 59.730469 133.671875 59.9375 133.996094 C 60.144531 134.324219 60.308594 134.71875 60.425781 135.1875 C 60.554688 135.65625 60.621094 136.296875 60.621094 137.101562 C 60.621094 138.039062 60.523438 138.800781 60.328125 139.386719 C 60.132812 139.960938 59.839844 140.410156 59.449219 140.734375 C 59.070312 141.046875 58.582031 141.203125 57.984375 141.203125 C 57.214844 141.203125 56.609375 140.925781 56.167969 140.363281 C 55.632812 139.699219 55.367188 138.613281 55.367188 137.101562 Z M 56.382812 137.101562 C 56.382812 138.417969 56.53125 139.296875 56.832031 139.738281 C 57.144531 140.167969 57.527344 140.382812 57.984375 140.382812 C 58.441406 140.382812 58.824219 140.167969 59.136719 139.738281 C 59.449219 139.296875 59.605469 138.417969 59.605469 137.101562 C 59.605469 135.773438 59.449219 134.894531 59.136719 134.464844 C 58.824219 134.023438 58.441406 133.800781 57.984375 133.800781 C 57.527344 133.800781 57.164062 133.992188 56.890625 134.367188 C 56.550781 134.863281 56.382812 135.773438 56.382812 137.101562 Z M 56.382812 137.101562 "
       id="path31" />
    <path
       style="fill-rule:nonzero;fill:rgb(69.803922%,85.098039%,100%);fill-opacity:1;stroke-width:1;stroke-linecap:round;stroke-linejoin:round;stroke:rgb(0%,0%,0%);stroke-opacity:1;stroke-dasharray:1,4;stroke-miterlimit:10;"
       d="M 12.421875 236 L 30.421875 236 L 30.421875 254 L 12.421875 254 Z M 12.421875 236 "
       transform="matrix(1.25,0,0,1.25,-13.75,-168.75)"
       id="path33" />
    <path
       style=" stroke:none;fill-rule:nonzero;fill:rgb(0%,0%,0%);fill-opacity:1;"
       d="M 10.367188 137.101562 C 10.367188 136.152344 10.464844 135.382812 10.660156 134.796875 C 10.855469 134.210938 11.140625 133.761719 11.519531 133.449219 C 11.910156 133.136719 12.398438 132.980469 12.984375 132.980469 C 13.425781 132.980469 13.8125 133.074219 14.136719 133.253906 C 14.460938 133.425781 14.730469 133.671875 14.9375 133.996094 C 15.144531 134.324219 15.308594 134.71875 15.425781 135.1875 C 15.554688 135.65625 15.621094 136.296875 15.621094 137.101562 C 15.621094 138.039062 15.523438 138.800781 15.328125 139.386719 C 15.132812 139.960938 14.839844 140.410156 14.449219 140.734375 C 14.070312 141.046875 13.582031 141.203125 12.984375 141.203125 C 12.214844 141.203125 11.609375 140.925781 11.167969 140.363281 C 10.632812 139.699219 10.367188 138.613281 10.367188 137.101562 Z M 11.382812 137.101562 C 11.382812 138.417969 11.53125 139.296875 11.832031 139.738281 C 12.144531 140.167969 12.527344 140.382812 12.984375 140.382812 C 13.441406 140.382812 13.824219 140.167969 14.136719 139.738281 C 14.449219 139.296875 14.605469 138.417969 14.605469 137.101562 C 14.605469 135.773438 14.449219 134.894531 14.136719 134.464844 C 13.824219 134.023438 13.441406 133.800781 12.984375 133.800781 C 12.527344 133.800781 12.164062 133.992188 11.890625 134.367188 C 11.550781 134.863281 11.382812 135.773438 11.382812 137.101562 Z M 11.382812 137.101562 "
       id="path35" />
    <g
       clip-path="url(#clip2)"
       clip-rule="nonzero"
       id="g39">
      <path
         style="fill-rule:nonzero;fill:rgb(100%,100%,100%);fill-opacity:1;stroke-width:2;stroke-linecap:round;stroke-linejoin:round;stroke:rgb(0%,0%,0%);stroke-opacity:1;stroke-dasharray:1,4;stroke-miterlimit:10;"
         d="M 84.421875 236 L 102.421875 236 L 102.421875 254 L 84.421875 254 Z M 84.421875 236 "
         transform="matrix(1.25,0,0,1.25,-13.75,-168.75)"
         id="path37" />
    </g>
    <path
       style=" stroke:none;fill-rule:nonzero;fill:rgb(0%,0%,0%);fill-opacity:1;"
       d="M 100.367188 137.101562 C 100.367188 136.152344 100.464844 135.382812 100.660156 134.796875 C 100.855469 134.210938 101.140625 133.761719 101.519531 133.449219 C 101.910156 133.136719 102.398438 132.980469 102.984375 132.980469 C 103.425781 132.980469 103.8125 133.074219 104.136719 133.253906 C 104.460938 133.425781 104.730469 133.671875 104.9375 133.996094 C 105.144531 134.324219 105.308594 134.71875 105.425781 135.1875 C 105.554688 135.65625 105.621094 136.296875 105.621094 137.101562 C 105.621094 138.039062 105.523438 138.800781 105.328125 139.386719 C 105.132812 139.960938 104.839844 140.410156 104.449219 140.734375 C 104.070312 141.046875 103.582031 141.203125 102.984375 141.203125 C 102.214844 141.203125 101.609375 140.925781 101.167969 140.363281 C 100.632812 139.699219 100.367188 138.613281 100.367188 137.101562 Z M 101.382812 137.101562 C 101.382812 138.417969 101.53125 139.296875 101.832031 139.738281 C 102.144531 140.167969 102.527344 140.382812 102.984375 140.382812 C 103.441406 140.382812 103.824219 140.167969 104.136719 139.738281 C 104.449219 139.296875 104.605469 138.417969 104.605469 137.101562 C 104.605469 135.773438 104.449219 134.894531 104.136719 134.464844 C 103.824219 134.023438 103.441406 133.800781 102.984375 133.800781 C 102.527344 133.800781 102.164062 133.992188 101.890625 134.367188 C 101.550781 134.863281 101.382812 135.773438 101.382812 137.101562 Z M 101.382812 137.101562 "
       id="path41" />
    <g
       clip-path="url(#clip3)"
       clip-rule="nonzero"
       id="g45">
      <path
         style="fill-rule:nonzero;fill:rgb(100%,100%,100%);fill-opacity:1;stroke-width:2;stroke-linecap:round;stroke-linejoin:round;stroke:rgb(0%,0%,0%);stroke-opacity:1;stroke-dasharray:1,4;stroke-miterlimit:10;"
         d="M 66.421875 236 L 84.421875 236 L 84.421875 254 L 66.421875 254 Z M 66.421875 236 "
         transform="matrix(1.25,0,0,1.25,-13.75,-168.75)"
         id="path43" />
    </g>
    <path
       style=" stroke:none;fill-rule:nonzero;fill:rgb(0%,0%,0%);fill-opacity:1;"
       d="M 77.867188 137.101562 C 77.867188 136.152344 77.964844 135.382812 78.160156 134.796875 C 78.355469 134.210938 78.640625 133.761719 79.019531 133.449219 C 79.410156 133.136719 79.898438 132.980469 80.484375 132.980469 C 80.925781 132.980469 81.3125 133.074219 81.636719 133.253906 C 81.960938 133.425781 82.230469 133.671875 82.4375 133.996094 C 82.644531 134.324219 82.808594 134.71875 82.925781 135.1875 C 83.054688 135.65625 83.121094 136.296875 83.121094 137.101562 C 83.121094 138.039062 83.023438 138.800781 82.828125 139.386719 C 82.632812 139.960938 82.339844 140.410156 81.949219 140.734375 C 81.570312 141.046875 81.082031 141.203125 80.484375 141.203125 C 79.714844 141.203125 79.109375 140.925781 78.667969 140.363281 C 78.132812 139.699219 77.867188 138.613281 77.867188 137.101562 Z M 78.882812 137.101562 C 78.882812 138.417969 79.03125 139.296875 79.332031 139.738281 C 79.644531 140.167969 80.027344 140.382812 80.484375 140.382812 C 80.941406 140.382812 81.324219 140.167969 81.636719 139.738281 C 81.949219 139.296875 82.105469 138.417969 82.105469 137.101562 C 82.105469 135.773438 81.949219 134.894531 81.636719 134.464844 C 81.324219 134.023438 80.941406 133.800781 80.484375 133.800781 C 80.027344 133.800781 79.664062 133.992188 79.390625 134.367188 C 79.050781 134.863281 78.882812 135.773438 78.882812 137.101562 Z M 78.882812 137.101562 "
       id="path47" />
    <g
       clip-path="url(#clip4)"
       clip-rule="nonzero"
       id="g51">
      <path
         style="fill-rule:nonzero;fill:rgb(69.803922%,85.098039%,100%);fill-opacity:1;stroke-width:2;stroke-linecap:round;stroke-linejoin:round;stroke:rgb(0%,0%,0%);stroke-opacity:1;stroke-dasharray:1,4;stroke-miterlimit:10;"
         d="M 30.421875 236 L 48.421875 236 L 48.421875 254 L 30.421875 254 Z M 30.421875 236 "
         transform="matrix(1.25,0,0,1.25,-13.75,-168.75)"
         id="path49" />
    </g>
    <path
       style=" stroke:none;fill-rule:nonzero;fill:rgb(0%,0%,0%);fill-opacity:1;"
       d="M 32.867188 137.101562 C 32.867188 136.152344 32.964844 135.382812 33.160156 134.796875 C 33.355469 134.210938 33.640625 133.761719 34.019531 133.449219 C 34.410156 133.136719 34.898438 132.980469 35.484375 132.980469 C 35.925781 132.980469 36.3125 133.074219 36.636719 133.253906 C 36.960938 133.425781 37.230469 133.671875 37.4375 133.996094 C 37.644531 134.324219 37.808594 134.71875 37.925781 135.1875 C 38.054688 135.65625 38.121094 136.296875 38.121094 137.101562 C 38.121094 138.039062 38.023438 138.800781 37.828125 139.386719 C 37.632812 139.960938 37.339844 140.410156 36.949219 140.734375 C 36.570312 141.046875 36.082031 141.203125 35.484375 141.203125 C 34.714844 141.203125 34.109375 140.925781 33.667969 140.363281 C 33.132812 139.699219 32.867188 138.613281 32.867188 137.101562 Z M 33.882812 137.101562 C 33.882812 138.417969 34.03125 139.296875 34.332031 139.738281 C 34.644531 140.167969 35.027344 140.382812 35.484375 140.382812 C 35.941406 140.382812 36.324219 140.167969 36.636719 139.738281 C 36.949219 139.296875 37.105469 138.417969 37.105469 137.101562 C 37.105469 135.773438 36.949219 134.894531 36.636719 134.464844 C 36.324219 134.023438 35.941406 133.800781 35.484375 133.800781 C 35.027344 133.800781 34.664062 133.992188 34.390625 134.367188 C 34.050781 134.863281 33.882812 135.773438 33.882812 137.101562 Z M 33.882812 137.101562 "
       id="path53" />
    <g
       clip-path="url(#clip5)"
       clip-rule="nonzero"
       id="g57">
      <path
         style="fill-rule:nonzero;fill:rgb(100%,100%,100%);fill-opacity:1;stroke-width:2;stroke-linecap:round;stroke-linejoin:round;stroke:rgb(0%,0%,0%);stroke-opacity:1;stroke-dasharray:1,4;stroke-miterlimit:10;"
         d="M 84.421875 200 L 102.421875 200 L 102.421875 218 L 84.421875 218 Z M 84.421875 200 "
         transform="matrix(1.25,0,0,1.25,-13.75,-168.75)"
         id="path55" />
    </g>
    <path
       style=" stroke:none;fill-rule:nonzero;fill:rgb(0%,0%,0%);fill-opacity:1;"
       d="M 100.367188 92.101562 C 100.367188 91.152344 100.464844 90.382812 100.660156 89.796875 C 100.855469 89.210938 101.140625 88.761719 101.519531 88.449219 C 101.910156 88.136719 102.398438 87.980469 102.984375 87.980469 C 103.425781 87.980469 103.8125 88.074219 104.136719 88.253906 C 104.460938 88.425781 104.730469 88.671875 104.9375 88.996094 C 105.144531 89.324219 105.308594 89.71875 105.425781 90.1875 C 105.554688 90.65625 105.621094 91.296875 105.621094 92.101562 C 105.621094 93.039062 105.523438 93.800781 105.328125 94.386719 C 105.132812 94.960938 104.839844 95.410156 104.449219 95.734375 C 104.070312 96.046875 103.582031 96.203125 102.984375 96.203125 C 102.214844 96.203125 101.609375 95.925781 101.167969 95.363281 C 100.632812 94.699219 100.367188 93.613281 100.367188 92.101562 Z M 101.382812 92.101562 C 101.382812 93.417969 101.53125 94.296875 101.832031 94.738281 C 102.144531 95.167969 102.527344 95.382812 102.984375 95.382812 C 103.441406 95.382812 103.824219 95.167969 104.136719 94.738281 C 104.449219 94.296875 104.605469 93.417969 104.605469 92.101562 C 104.605469 90.773438 104.449219 89.894531 104.136719 89.464844 C 103.824219 89.023438 103.441406 88.800781 102.984375 88.800781 C 102.527344 88.800781 102.164062 88.992188 101.890625 89.367188 C 101.550781 89.863281 101.382812 90.773438 101.382812 92.101562 Z M 101.382812 92.101562 "
       id="path59" />
    <g
       clip-path="url(#clip6)"
       clip-rule="nonzero"
       id="g63">
      <path
         style="fill-rule:nonzero;fill:rgb(100%,100%,100%);fill-opacity:1;stroke-width:2;stroke-linecap:round;stroke-linejoin:round;stroke:rgb(0%,0%,0%);stroke-opacity:1;stroke-dasharray:1,4;stroke-miterlimit:10;"
         d="M 84.421875 218 L 102.421875 218 L 102.421875 236 L 84.421875 236 Z M 84.421875 218 "
         transform="matrix(1.25,0,0,1.25,-13.75,-168.75)"
         id="path61" />
    </g>
    <path
       style=" stroke:none;fill-rule:nonzero;fill:rgb(0%,0%,0%);fill-opacity:1;"
       d="M 100.367188 114.601562 C 100.367188 113.652344 100.464844 112.882812 100.660156 112.296875 C 100.855469 111.710938 101.140625 111.261719 101.519531 110.949219 C 101.910156 110.636719 102.398438 110.480469 102.984375 110.480469 C 103.425781 110.480469 103.8125 110.574219 104.136719 110.753906 C 104.460938 110.925781 104.730469 111.171875 104.9375 111.496094 C 105.144531 111.824219 105.308594 112.21875 105.425781 112.6875 C 105.554688 113.15625 105.621094 113.796875 105.621094 114.601562 C 105.621094 115.539062 105.523438 116.300781 105.328125 116.886719 C 105.132812 117.460938 104.839844 117.910156 104.449219 118.234375 C 104.070312 118.546875 103.582031 118.703125 102.984375 118.703125 C 102.214844 118.703125 101.609375 118.425781 101.167969 117.863281 C 100.632812 117.199219 100.367188 116.113281 100.367188 114.601562 Z M 101.382812 114.601562 C 101.382812 115.917969 101.53125 116.796875 101.832031 117.238281 C 102.144531 117.667969 102.527344 117.882812 102.984375 117.882812 C 103.441406 117.882812 103.824219 117.667969 104.136719 117.238281 C 104.449219 116.796875 104.605469 115.917969 104.605469 114.601562 C 104.605469 113.273438 104.449219 112.394531 104.136719 111.964844 C 103.824219 111.523438 103.441406 111.300781 102.984375 111.300781 C 102.527344 111.300781 102.164062 111.492188 101.890625 111.867188 C 101.550781 112.363281 101.382812 113.273438 101.382812 114.601562 Z M 101.382812 114.601562 "
       id="path65" />
    <g
       clip-path="url(#clip7)"
       clip-rule="nonzero"
       id="g69">
      <path
         style="fill-rule:nonzero;fill:rgb(100%,100%,100%);fill-opacity:1;stroke-width:2;stroke-linecap:round;stroke-linejoin:round;stroke:rgb(0%,0%,0%);stroke-opacity:1;stroke-dasharray:1,4;stroke-miterlimit:10;"
         d="M 84.421875 182 L 102.421875 182 L 102.421875 200 L 84.421875 200 Z M 84.421875 182 "
         transform="matrix(1.25,0,0,1.25,-13.75,-168.75)"
         id="path67" />
    </g>
    <path
       style=" stroke:none;fill-rule:nonzero;fill:rgb(0%,0%,0%);fill-opacity:1;"
       d="M 100.367188 69.601562 C 100.367188 68.652344 100.464844 67.882812 100.660156 67.296875 C 100.855469 66.710938 101.140625 66.261719 101.519531 65.949219 C 101.910156 65.636719 102.398438 65.480469 102.984375 65.480469 C 103.425781 65.480469 103.8125 65.574219 104.136719 65.753906 C 104.460938 65.925781 104.730469 66.171875 104.9375 66.496094 C 105.144531 66.824219 105.308594 67.21875 105.425781 67.6875 C 105.554688 68.15625 105.621094 68.796875 105.621094 69.601562 C 105.621094 70.539062 105.523438 71.300781 105.328125 71.886719 C 105.132812 72.460938 104.839844 72.910156 104.449219 73.234375 C 104.070312 73.546875 103.582031 73.703125 102.984375 73.703125 C 102.214844 73.703125 101.609375 73.425781 101.167969 72.863281 C 100.632812 72.199219 100.367188 71.113281 100.367188 69.601562 Z M 101.382812 69.601562 C 101.382812 70.917969 101.53125 71.796875 101.832031 72.238281 C 102.144531 72.667969 102.527344 72.882812 102.984375 72.882812 C 103.441406 72.882812 103.824219 72.667969 104.136719 72.238281 C 104.449219 71.796875 104.605469 70.917969 104.605469 69.601562 C 104.605469 68.273438 104.449219 67.394531 104.136719 66.964844 C 103.824219 66.523438 103.441406 66.300781 102.984375 66.300781 C 102.527344 66.300781 102.164062 66.492188 101.890625 66.867188 C 101.550781 67.363281 101.382812 68.273438 101.382812 69.601562 Z M 101.382812 69.601562 "
       id="path71" />
    <path
       style="fill-rule:nonzero;fill:rgb(100%,100%,100%);fill-opacity:1;stroke-width:1;stroke-linecap:round;stroke-linejoin:round;stroke:rgb(0%,0%,0%);stroke-opacity:1;stroke-dasharray:1,4;stroke-miterlimit:10;"
       d="M 84.421875 164 L 102.421875 164 L 102.421875 182 L 84.421875 182 Z M 84.421875 164 "
       transform="matrix(1.25,0,0,1.25,-13.75,-168.75)"
       id="path73" />
    <path
       style=" stroke:none;fill-rule:nonzero;fill:rgb(0%,0%,0%);fill-opacity:1;"
       d="M 100.367188 47.101562 C 100.367188 46.152344 100.464844 45.382812 100.660156 44.796875 C 100.855469 44.210938 101.140625 43.761719 101.519531 43.449219 C 101.910156 43.136719 102.398438 42.980469 102.984375 42.980469 C 103.425781 42.980469 103.8125 43.074219 104.136719 43.253906 C 104.460938 43.425781 104.730469 43.671875 104.9375 43.996094 C 105.144531 44.324219 105.308594 44.71875 105.425781 45.1875 C 105.554688 45.65625 105.621094 46.296875 105.621094 47.101562 C 105.621094 48.039062 105.523438 48.800781 105.328125 49.386719 C 105.132812 49.960938 104.839844 50.410156 104.449219 50.734375 C 104.070312 51.046875 103.582031 51.203125 102.984375 51.203125 C 102.214844 51.203125 101.609375 50.925781 101.167969 50.363281 C 100.632812 49.699219 100.367188 48.613281 100.367188 47.101562 Z M 101.382812 47.101562 C 101.382812 48.417969 101.53125 49.296875 101.832031 49.738281 C 102.144531 50.167969 102.527344 50.382812 102.984375 50.382812 C 103.441406 50.382812 103.824219 50.167969 104.136719 49.738281 C 104.449219 49.296875 104.605469 48.417969 104.605469 47.101562 C 104.605469 45.773438 104.449219 44.894531 104.136719 44.464844 C 103.824219 44.023438 103.441406 43.800781 102.984375 43.800781 C 102.527344 43.800781 102.164062 43.992188 101.890625 44.367188 C 101.550781 44.863281 101.382812 45.773438 101.382812 47.101562 Z M 101.382812 47.101562 "
       id="path75" />
    <path
       style="fill-rule:nonzero;fill:rgb(100%,100%,100%);fill-opacity:1;stroke-width:1;stroke-linecap:round;stroke-linejoin:round;stroke:rgb(0%,0%,0%);stroke-opacity:1;stroke-dasharray:1,4;stroke-miterlimit:10;"
       d="M 12.421875 200 L 30.421875 200 L 30.421875 218 L 12.421875 218 Z M 12.421875 200 "
       transform="matrix(1.25,0,0,1.25,-13.75,-168.75)"
       id="path77" />
    <path
       style=" stroke:none;fill-rule:nonzero;fill:rgb(0%,0%,0%);fill-opacity:1;"
       d="M 10.367188 92.101562 C 10.367188 91.152344 10.464844 90.382812 10.660156 89.796875 C 10.855469 89.210938 11.140625 88.761719 11.519531 88.449219 C 11.910156 88.136719 12.398438 87.980469 12.984375 87.980469 C 13.425781 87.980469 13.8125 88.074219 14.136719 88.253906 C 14.460938 88.425781 14.730469 88.671875 14.9375 88.996094 C 15.144531 89.324219 15.308594 89.71875 15.425781 90.1875 C 15.554688 90.65625 15.621094 91.296875 15.621094 92.101562 C 15.621094 93.039062 15.523438 93.800781 15.328125 94.386719 C 15.132812 94.960938 14.839844 95.410156 14.449219 95.734375 C 14.070312 96.046875 13.582031 96.203125 12.984375 96.203125 C 12.214844 96.203125 11.609375 95.925781 11.167969 95.363281 C 10.632812 94.699219 10.367188 93.613281 10.367188 92.101562 Z M 11.382812 92.101562 C 11.382812 93.417969 11.53125 94.296875 11.832031 94.738281 C 12.144531 95.167969 12.527344 95.382812 12.984375 95.382812 C 13.441406 95.382812 13.824219 95.167969 14.136719 94.738281 C 14.449219 94.296875 14.605469 93.417969 14.605469 92.101562 C 14.605469 90.773438 14.449219 89.894531 14.136719 89.464844 C 13.824219 89.023438 13.441406 88.800781 12.984375 88.800781 C 12.527344 88.800781 12.164062 88.992188 11.890625 89.367188 C 11.550781 89.863281 11.382812 90.773438 11.382812 92.101562 Z M 11.382812 92.101562 "
       id="path79" />
    <path
       style="fill-rule:nonzero;fill:rgb(69.803922%,85.098039%,100%);fill-opacity:1;stroke-width:1;stroke-linecap:round;stroke-linejoin:round;stroke:rgb(0%,0%,0%);stroke-opacity:1;stroke-miterlimit:10;"
       d="M 48.421875 182 L 66.421875 182 L 66.421875 200 L 48.421875 200 Z M 48.421875 182 "
       transform="matrix(1.25,0,0,1.25,-13.75,-168.75)"
       id="path81" />
    <path
       style=" stroke:none;fill-rule:nonzero;fill:rgb(0%,0%,0%);fill-opacity:1;"
       d="M 59.097656 73.566406 L 58.101562 73.566406 L 58.101562 67.257812 C 57.867188 67.492188 57.554688 67.726562 57.164062 67.960938 C 56.773438 68.183594 56.429688 68.347656 56.128906 68.449219 L 56.128906 67.492188 C 56.675781 67.246094 57.15625 66.941406 57.574219 66.574219 C 57.992188 66.199219 58.285156 65.832031 58.453125 65.480469 L 59.097656 65.480469 Z M 59.097656 73.566406 "
       id="path83" />
    <path
       style="fill-rule:nonzero;fill:rgb(100%,100%,100%);fill-opacity:1;stroke-width:1;stroke-linecap:round;stroke-linejoin:round;stroke:rgb(0%,0%,0%);stroke-opacity:1;stroke-dasharray:4,4;stroke-miterlimit:10;"
       d="M 30.421875 182 L 48.421875 182 L 48.421875 200 L 30.421875 200 Z M 30.421875 182 "
       transform="matrix(1.25,0,0,1.25,-13.75,-168.75)"
       id="path85" />
    <path
       style=" stroke:none;fill-rule:nonzero;fill:rgb(0%,0%,0%);fill-opacity:1;"
       d="M 32.867188 69.601562 C 32.867188 68.652344 32.964844 67.882812 33.160156 67.296875 C 33.355469 66.710938 33.640625 66.261719 34.019531 65.949219 C 34.410156 65.636719 34.898438 65.480469 35.484375 65.480469 C 35.925781 65.480469 36.3125 65.574219 36.636719 65.753906 C 36.960938 65.925781 37.230469 66.171875 37.4375 66.496094 C 37.644531 66.824219 37.808594 67.21875 37.925781 67.6875 C 38.054688 68.15625 38.121094 68.796875 38.121094 69.601562 C 38.121094 70.539062 38.023438 71.300781 37.828125 71.886719 C 37.632812 72.460938 37.339844 72.910156 36.949219 73.234375 C 36.570312 73.546875 36.082031 73.703125 35.484375 73.703125 C 34.714844 73.703125 34.109375 73.425781 33.667969 72.863281 C 33.132812 72.199219 32.867188 71.113281 32.867188 69.601562 Z M 33.882812 69.601562 C 33.882812 70.917969 34.03125 71.796875 34.332031 72.238281 C 34.644531 72.667969 35.027344 72.882812 35.484375 72.882812 C 35.941406 72.882812 36.324219 72.667969 36.636719 72.238281 C 36.949219 71.796875 37.105469 70.917969 37.105469 69.601562 C 37.105469 68.273438 36.949219 67.394531 36.636719 66.964844 C 36.324219 66.523438 35.941406 66.300781 35.484375 66.300781 C 35.027344 66.300781 34.664062 66.492188 34.390625 66.867188 C 34.050781 67.363281 33.882812 68.273438 33.882812 69.601562 Z M 33.882812 69.601562 "
       id="path87" />
    <path
       style="fill-rule:nonzero;fill:rgb(69.803922%,85.098039%,100%);fill-opacity:1;stroke-width:1;stroke-linecap:round;stroke-linejoin:round;stroke:rgb(0%,0%,0%);stroke-opacity:1;stroke-dasharray:1,4;stroke-miterlimit:10;"
       d="M 12.421875 218 L 30.421875 218 L 30.421875 236 L 12.421875 236 Z M 12.421875 218 "
       transform="matrix(1.25,0,0,1.25,-13.75,-168.75)"
       id="path89" />
    <path
       style=" stroke:none;fill-rule:nonzero;fill:rgb(0%,0%,0%);fill-opacity:1;"
       d="M 10.367188 114.601562 C 10.367188 113.652344 10.464844 112.882812 10.660156 112.296875 C 10.855469 111.710938 11.140625 111.261719 11.519531 110.949219 C 11.910156 110.636719 12.398438 110.480469 12.984375 110.480469 C 13.425781 110.480469 13.8125 110.574219 14.136719 110.753906 C 14.460938 110.925781 14.730469 111.171875 14.9375 111.496094 C 15.144531 111.824219 15.308594 112.21875 15.425781 112.6875 C 15.554688 113.15625 15.621094 113.796875 15.621094 114.601562 C 15.621094 115.539062 15.523438 116.300781 15.328125 116.886719 C 15.132812 117.460938 14.839844 117.910156 14.449219 118.234375 C 14.070312 118.546875 13.582031 118.703125 12.984375 118.703125 C 12.214844 118.703125 11.609375 118.425781 11.167969 117.863281 C 10.632812 117.199219 10.367188 116.113281 10.367188 114.601562 Z M 11.382812 114.601562 C 11.382812 115.917969 11.53125 116.796875 11.832031 117.238281 C 12.144531 117.667969 12.527344 117.882812 12.984375 117.882812 C 13.441406 117.882812 13.824219 117.667969 14.136719 117.238281 C 14.449219 116.796875 14.605469 115.917969 14.605469 114.601562 C 14.605469 113.273438 14.449219 112.394531 14.136719 111.964844 C 13.824219 111.523438 13.441406 111.300781 12.984375 111.300781 C 12.527344 111.300781 12.164062 111.492188 11.890625 111.867188 C 11.550781 112.363281 11.382812 113.273438 11.382812 114.601562 Z M 11.382812 114.601562 "
       id="path91" />
    <path
       style="fill-rule:nonzero;fill:rgb(100%,100%,100%);fill-opacity:1;stroke-width:1;stroke-linecap:round;stroke-linejoin:round;stroke:rgb(0%,0%,0%);stroke-opacity:1;stroke-dasharray:1,4;stroke-miterlimit:10;"
       d="M 30.421875 164 L 48.421875 164 L 48.421875 182 L 30.421875 182 Z M 30.421875 164 "
       transform="matrix(1.25,0,0,1.25,-13.75,-168.75)"
       id="path93" />
    <path
       style=" stroke:none;fill-rule:nonzero;fill:rgb(0%,0%,0%);fill-opacity:1;"
       d="M 32.867188 47.101562 C 32.867188 46.152344 32.964844 45.382812 33.160156 44.796875 C 33.355469 44.210938 33.640625 43.761719 34.019531 43.449219 C 34.410156 43.136719 34.898438 42.980469 35.484375 42.980469 C 35.925781 42.980469 36.3125 43.074219 36.636719 43.253906 C 36.960938 43.425781 37.230469 43.671875 37.4375 43.996094 C 37.644531 44.324219 37.808594 44.71875 37.925781 45.1875 C 38.054688 45.65625 38.121094 46.296875 38.121094 47.101562 C 38.121094 48.039062 38.023438 48.800781 37.828125 49.386719 C 37.632812 49.960938 37.339844 50.410156 36.949219 50.734375 C 36.570312 51.046875 36.082031 51.203125 35.484375 51.203125 C 34.714844 51.203125 34.109375 50.925781 33.667969 50.363281 C 33.132812 49.699219 32.867188 48.613281 32.867188 47.101562 Z M 33.882812 47.101562 C 33.882812 48.417969 34.03125 49.296875 34.332031 49.738281 C 34.644531 50.167969 35.027344 50.382812 35.484375 50.382812 C 35.941406 50.382812 36.324219 50.167969 36.636719 49.738281 C 36.949219 49.296875 37.105469 48.417969 37.105469 47.101562 C 37.105469 45.773438 36.949219 44.894531 36.636719 44.464844 C 36.324219 44.023438 35.941406 43.800781 35.484375 43.800781 C 35.027344 43.800781 34.664062 43.992188 34.390625 44.367188 C 34.050781 44.863281 33.882812 45.773438 33.882812 47.101562 Z M 33.882812 47.101562 "
       id="path95" />
    <path
       style="fill-rule:nonzero;fill:rgb(100%,100%,100%);fill-opacity:1;stroke-width:1;stroke-linecap:round;stroke-linejoin:round;stroke:rgb(0%,0%,0%);stroke-opacity:1;stroke-miterlimit:10;"
       d="M 30.421875 200 L 48.421875 200 L 48.421875 218 L 30.421875 218 Z M 30.421875 200 "
       transform="matrix(1.25,0,0,1.25,-13.75,-168.75)"
       id="path97" />
    <path
       style=" stroke:none;fill-rule:nonzero;fill:rgb(0%,0%,0%);fill-opacity:1;"
       d="M 32.867188 93.9375 L 33.863281 93.800781 C 33.980469 94.363281 34.167969 94.765625 34.429688 95.011719 C 34.703125 95.261719 35.042969 95.382812 35.445312 95.382812 C 35.902344 95.382812 36.285156 95.226562 36.597656 94.914062 C 36.921875 94.589844 37.085938 94.1875 37.085938 93.703125 C 37.085938 93.25 36.9375 92.878906 36.636719 92.589844 C 36.351562 92.292969 35.980469 92.140625 35.523438 92.140625 C 35.328125 92.140625 35.09375 92.179688 34.820312 92.257812 L 34.9375 91.378906 C 35.003906 91.394531 35.054688 91.398438 35.09375 91.398438 C 35.511719 91.398438 35.886719 91.289062 36.226562 91.066406 C 36.566406 90.847656 36.734375 90.507812 36.734375 90.050781 C 36.734375 89.6875 36.609375 89.386719 36.363281 89.152344 C 36.117188 88.917969 35.796875 88.800781 35.40625 88.800781 C 35.027344 88.800781 34.710938 88.925781 34.449219 89.171875 C 34.203125 89.40625 34.039062 89.765625 33.960938 90.246094 L 32.964844 90.070312 C 33.09375 89.40625 33.367188 88.894531 33.785156 88.527344 C 34.214844 88.164062 34.75 87.980469 35.386719 87.980469 C 35.828125 87.980469 36.234375 88.078125 36.597656 88.273438 C 36.976562 88.457031 37.261719 88.710938 37.457031 89.035156 C 37.652344 89.363281 37.75 89.707031 37.75 90.070312 C 37.75 90.421875 37.652344 90.742188 37.457031 91.027344 C 37.273438 91.316406 37 91.542969 36.636719 91.710938 C 37.117188 91.816406 37.488281 92.042969 37.75 92.394531 C 38.011719 92.734375 38.140625 93.164062 38.140625 93.683594 C 38.140625 94.386719 37.878906 94.988281 37.359375 95.480469 C 36.851562 95.964844 36.207031 96.203125 35.425781 96.203125 C 34.722656 96.203125 34.136719 95.996094 33.667969 95.578125 C 33.199219 95.164062 32.933594 94.617188 32.867188 93.9375 Z M 32.867188 93.9375 "
       id="path99" />
    <path
       style="fill-rule:nonzero;fill:rgb(100%,100%,100%);fill-opacity:1;stroke-width:1;stroke-linecap:round;stroke-linejoin:round;stroke:rgb(0%,0%,0%);stroke-opacity:1;stroke-dasharray:1,4;stroke-miterlimit:10;"
       d="M 12.421875 182 L 30.421875 182 L 30.421875 200 L 12.421875 200 Z M 12.421875 182 "
       transform="matrix(1.25,0,0,1.25,-13.75,-168.75)"
       id="path101" />
    <path
       style=" stroke:none;fill-rule:nonzero;fill:rgb(0%,0%,0%);fill-opacity:1;"
       d="M 10.367188 69.601562 C 10.367188 68.652344 10.464844 67.882812 10.660156 67.296875 C 10.855469 66.710938 11.140625 66.261719 11.519531 65.949219 C 11.910156 65.636719 12.398438 65.480469 12.984375 65.480469 C 13.425781 65.480469 13.8125 65.574219 14.136719 65.753906 C 14.460938 65.925781 14.730469 66.171875 14.9375 66.496094 C 15.144531 66.824219 15.308594 67.21875 15.425781 67.6875 C 15.554688 68.15625 15.621094 68.796875 15.621094 69.601562 C 15.621094 70.539062 15.523438 71.300781 15.328125 71.886719 C 15.132812 72.460938 14.839844 72.910156 14.449219 73.234375 C 14.070312 73.546875 13.582031 73.703125 12.984375 73.703125 C 12.214844 73.703125 11.609375 73.425781 11.167969 72.863281 C 10.632812 72.199219 10.367188 71.113281 10.367188 69.601562 Z M 11.382812 69.601562 C 11.382812 70.917969 11.53125 71.796875 11.832031 72.238281 C 12.144531 72.667969 12.527344 72.882812 12.984375 72.882812 C 13.441406 72.882812 13.824219 72.667969 14.136719 72.238281 C 14.449219 71.796875 14.605469 70.917969 14.605469 69.601562 C 14.605469 68.273438 14.449219 67.394531 14.136719 66.964844 C 13.824219 66.523438 13.441406 66.300781 12.984375 66.300781 C 12.527344 66.300781 12.164062 66.492188 11.890625 66.867188 C 11.550781 67.363281 11.382812 68.273438 11.382812 69.601562 Z M 11.382812 69.601562 "
       id="path103" />
    <path
       style="fill-rule:nonzero;fill:rgb(100%,100%,100%);fill-opacity:1;stroke-width:1;stroke-linecap:round;stroke-linejoin:round;stroke:rgb(0%,0%,0%);stroke-opacity:1;stroke-miterlimit:10;"
       d="M 66.421875 218 L 84.421875 218 L 84.421875 236 L 66.421875 236 Z M 66.421875 218 "
       transform="matrix(1.25,0,0,1.25,-13.75,-168.75)"
       id="path105" />
    <path
       style=" stroke:none;fill-rule:nonzero;fill:rgb(0%,0%,0%);fill-opacity:1;"
       d="M 79.390625 114.191406 C 78.972656 114.050781 78.667969 113.839844 78.472656 113.566406 C 78.277344 113.28125 78.179688 112.941406 78.179688 112.550781 C 78.179688 111.964844 78.386719 111.476562 78.804688 111.085938 C 79.234375 110.683594 79.792969 110.480469 80.484375 110.480469 C 81.1875 110.480469 81.753906 110.691406 82.183594 111.105469 C 82.613281 111.511719 82.828125 112.003906 82.828125 112.589844 C 82.828125 112.957031 82.730469 113.28125 82.535156 113.566406 C 82.339844 113.839844 82.039062 114.050781 81.636719 114.191406 C 82.132812 114.363281 82.507812 114.628906 82.769531 114.992188 C 83.03125 115.34375 83.160156 115.769531 83.160156 116.261719 C 83.160156 116.953125 82.914062 117.53125 82.417969 118 C 81.9375 118.46875 81.296875 118.703125 80.503906 118.703125 C 79.710938 118.703125 79.066406 118.46875 78.570312 118 C 78.089844 117.53125 77.847656 116.945312 77.847656 116.242188 C 77.847656 115.722656 77.976562 115.285156 78.238281 114.933594 C 78.511719 114.570312 78.894531 114.324219 79.390625 114.191406 Z M 79.195312 112.53125 C 79.195312 112.910156 79.3125 113.222656 79.546875 113.46875 C 79.792969 113.703125 80.113281 113.820312 80.503906 113.820312 C 80.894531 113.820312 81.207031 113.703125 81.441406 113.46875 C 81.6875 113.222656 81.8125 112.921875 81.8125 112.570312 C 81.8125 112.21875 81.6875 111.921875 81.441406 111.671875 C 81.195312 111.425781 80.882812 111.300781 80.503906 111.300781 C 80.125 111.300781 79.8125 111.425781 79.566406 111.671875 C 79.320312 111.90625 79.195312 112.195312 79.195312 112.53125 Z M 78.863281 116.242188 C 78.863281 116.53125 78.929688 116.804688 79.058594 117.0625 C 79.203125 117.324219 79.402344 117.527344 79.664062 117.667969 C 79.925781 117.8125 80.210938 117.882812 80.523438 117.882812 C 80.992188 117.882812 81.375 117.734375 81.675781 117.433594 C 81.988281 117.136719 82.144531 116.75 82.144531 116.28125 C 82.144531 115.800781 81.988281 115.402344 81.675781 115.089844 C 81.363281 114.777344 80.964844 114.621094 80.484375 114.621094 C 80.015625 114.621094 79.625 114.777344 79.3125 115.089844 C 79.011719 115.402344 78.863281 115.789062 78.863281 116.242188 Z M 78.863281 116.242188 "
       id="path107" />
    <path
       style="fill-rule:nonzero;fill:rgb(100%,100%,100%);fill-opacity:1;stroke-width:1;stroke-linecap:round;stroke-linejoin:round;stroke:rgb(0%,0%,0%);stroke-opacity:1;stroke-miterlimit:10;"
       d="M 66.421875 200 L 84.421875 200 L 84.421875 218 L 66.421875 218 Z M 66.421875 200 "
       transform="matrix(1.25,0,0,1.25,-13.75,-168.75)"
       id="path109" />
    <path
       style=" stroke:none;fill-rule:nonzero;fill:rgb(0%,0%,0%);fill-opacity:1;"
       d="M 77.867188 93.957031 L 78.902344 93.859375 C 78.980469 94.367188 79.15625 94.753906 79.429688 95.011719 C 79.714844 95.261719 80.054688 95.382812 80.445312 95.382812 C 80.925781 95.382812 81.332031 95.207031 81.65625 94.855469 C 81.996094 94.492188 82.164062 94.015625 82.164062 93.429688 C 82.164062 92.859375 82 92.410156 81.675781 92.082031 C 81.363281 91.757812 80.953125 91.59375 80.445312 91.59375 C 80.121094 91.59375 79.828125 91.671875 79.566406 91.828125 C 79.320312 91.972656 79.117188 92.15625 78.960938 92.375 L 78.042969 92.257812 L 78.824219 88.117188 L 82.828125 88.117188 L 82.828125 89.074219 L 79.605469 89.074219 L 79.175781 91.222656 C 79.65625 90.898438 80.164062 90.734375 80.699219 90.734375 C 81.402344 90.734375 81.996094 90.976562 82.476562 91.457031 C 82.957031 91.941406 83.199219 92.566406 83.199219 93.332031 C 83.199219 94.0625 82.992188 94.695312 82.574219 95.226562 C 82.054688 95.878906 81.34375 96.203125 80.445312 96.203125 C 79.714844 96.203125 79.117188 96.003906 78.648438 95.597656 C 78.191406 95.183594 77.933594 94.636719 77.867188 93.957031 Z M 77.867188 93.957031 "
       id="path111" />
    <path
       style="fill-rule:nonzero;fill:rgb(100%,100%,100%);fill-opacity:1;stroke-width:1;stroke-linecap:round;stroke-linejoin:round;stroke:rgb(0%,0%,0%);stroke-opacity:1;stroke-dasharray:1,4;stroke-miterlimit:10;"
       d="M 12.421875 164 L 30.421875 164 L 30.421875 182 L 12.421875 182 Z M 12.421875 164 "
       transform="matrix(1.25,0,0,1.25,-13.75,-168.75)"
       id="path113" />
    <path
       style=" stroke:none;fill-rule:nonzero;fill:rgb(0%,0%,0%);fill-opacity:1;"
       d="M 10.367188 47.101562 C 10.367188 46.152344 10.464844 45.382812 10.660156 44.796875 C 10.855469 44.210938 11.140625 43.761719 11.519531 43.449219 C 11.910156 43.136719 12.398438 42.980469 12.984375 42.980469 C 13.425781 42.980469 13.8125 43.074219 14.136719 43.253906 C 14.460938 43.425781 14.730469 43.671875 14.9375 43.996094 C 15.144531 44.324219 15.308594 44.71875 15.425781 45.1875 C 15.554688 45.65625 15.621094 46.296875 15.621094 47.101562 C 15.621094 48.039062 15.523438 48.800781 15.328125 49.386719 C 15.132812 49.960938 14.839844 50.410156 14.449219 50.734375 C 14.070312 51.046875 13.582031 51.203125 12.984375 51.203125 C 12.214844 51.203125 11.609375 50.925781 11.167969 50.363281 C 10.632812 49.699219 10.367188 48.613281 10.367188 47.101562 Z M 11.382812 47.101562 C 11.382812 48.417969 11.53125 49.296875 11.832031 49.738281 C 12.144531 50.167969 12.527344 50.382812 12.984375 50.382812 C 13.441406 50.382812 13.824219 50.167969 14.136719 49.738281 C 14.449219 49.296875 14.605469 48.417969 14.605469 47.101562 C 14.605469 45.773438 14.449219 44.894531 14.136719 44.464844 C 13.824219 44.023438 13.441406 43.800781 12.984375 43.800781 C 12.527344 43.800781 12.164062 43.992188 11.890625 44.367188 C 11.550781 44.863281 11.382812 45.773438 11.382812 47.101562 Z M 11.382812 47.101562 "
       id="path115" />
    <path
       style="fill-rule:nonzero;fill:rgb(69.803922%,85.098039%,100%);fill-opacity:1;stroke-width:1;stroke-linecap:round;stroke-linejoin:round;stroke:rgb(0%,0%,0%);stroke-opacity:1;stroke-miterlimit:10;"
       d="M 66.421875 182 L 84.421875 182 L 84.421875 200 L 66.421875 200 Z M 66.421875 182 "
       transform="matrix(1.25,0,0,1.25,-13.75,-168.75)"
       id="path117" />
    <path
       style=" stroke:none;fill-rule:nonzero;fill:rgb(0%,0%,0%);fill-opacity:1;"
       d="M 83.0625 72.609375 L 83.0625 73.566406 L 77.730469 73.566406 C 77.730469 73.332031 77.769531 73.105469 77.847656 72.882812 C 77.992188 72.519531 78.210938 72.160156 78.511719 71.808594 C 78.8125 71.457031 79.242188 71.054688 79.800781 70.597656 C 80.671875 69.871094 81.257812 69.296875 81.558594 68.878906 C 81.871094 68.464844 82.027344 68.066406 82.027344 67.6875 C 82.027344 67.296875 81.882812 66.972656 81.597656 66.710938 C 81.324219 66.4375 80.964844 66.300781 80.523438 66.300781 C 80.042969 66.300781 79.65625 66.445312 79.371094 66.730469 C 79.085938 67.019531 78.941406 67.414062 78.941406 67.921875 L 77.925781 67.804688 C 77.992188 67.050781 78.25 66.476562 78.707031 66.085938 C 79.164062 65.683594 79.773438 65.480469 80.542969 65.480469 C 81.3125 65.480469 81.917969 65.695312 82.359375 66.125 C 82.816406 66.554688 83.042969 67.082031 83.042969 67.707031 C 83.042969 68.035156 82.976562 68.351562 82.847656 68.664062 C 82.71875 68.976562 82.496094 69.308594 82.183594 69.660156 C 81.882812 70 81.382812 70.46875 80.679688 71.066406 C 80.082031 71.5625 79.695312 71.902344 79.527344 72.082031 C 79.359375 72.265625 79.222656 72.441406 79.117188 72.609375 Z M 83.0625 72.609375 "
       id="path119" />
    <path
       style="fill-rule:nonzero;fill:rgb(69.803922%,85.098039%,100%);fill-opacity:1;stroke-width:1;stroke-linecap:round;stroke-linejoin:round;stroke:rgb(0%,0%,0%);stroke-opacity:1;stroke-dasharray:1,4;stroke-miterlimit:10;"
       d="M 66.421875 164 L 84.421875 164 L 84.421875 182 L 66.421875 182 Z M 66.421875 164 "
       transform="matrix(1.25,0,0,1.25,-13.75,-168.75)"
       id="path121" />
    <path
       style=" stroke:none;fill-rule:nonzero;fill:rgb(0%,0%,0%);fill-opacity:1;"
       d="M 77.867188 47.101562 C 77.867188 46.152344 77.964844 45.382812 78.160156 44.796875 C 78.355469 44.210938 78.640625 43.761719 79.019531 43.449219 C 79.410156 43.136719 79.898438 42.980469 80.484375 42.980469 C 80.925781 42.980469 81.3125 43.074219 81.636719 43.253906 C 81.960938 43.425781 82.230469 43.671875 82.4375 43.996094 C 82.644531 44.324219 82.808594 44.71875 82.925781 45.1875 C 83.054688 45.65625 83.121094 46.296875 83.121094 47.101562 C 83.121094 48.039062 83.023438 48.800781 82.828125 49.386719 C 82.632812 49.960938 82.339844 50.410156 81.949219 50.734375 C 81.570312 51.046875 81.082031 51.203125 80.484375 51.203125 C 79.714844 51.203125 79.109375 50.925781 78.667969 50.363281 C 78.132812 49.699219 77.867188 48.613281 77.867188 47.101562 Z M 78.882812 47.101562 C 78.882812 48.417969 79.03125 49.296875 79.332031 49.738281 C 79.644531 50.167969 80.027344 50.382812 80.484375 50.382812 C 80.941406 50.382812 81.324219 50.167969 81.636719 49.738281 C 81.949219 49.296875 82.105469 48.417969 82.105469 47.101562 C 82.105469 45.773438 81.949219 44.894531 81.636719 44.464844 C 81.324219 44.023438 80.941406 43.800781 80.484375 43.800781 C 80.027344 43.800781 79.664062 43.992188 79.390625 44.367188 C 79.050781 44.863281 78.882812 45.773438 78.882812 47.101562 Z M 78.882812 47.101562 "
       id="path123" />
    <path
       style="fill-rule:nonzero;fill:rgb(100%,100%,100%);fill-opacity:1;stroke-width:1;stroke-linecap:round;stroke-linejoin:round;stroke:rgb(0%,0%,0%);stroke-opacity:1;stroke-miterlimit:10;"
       d="M 48.421875 218 L 66.421875 218 L 66.421875 236 L 48.421875 236 Z M 48.421875 218 "
       transform="matrix(1.25,0,0,1.25,-13.75,-168.75)"
       id="path125" />
    <path
       style=" stroke:none;fill-rule:nonzero;fill:rgb(0%,0%,0%);fill-opacity:1;"
       d="M 55.425781 111.574219 L 55.425781 110.617188 L 60.640625 110.617188 L 60.640625 111.378906 C 60.132812 111.925781 59.625 112.65625 59.117188 113.566406 C 58.609375 114.464844 58.21875 115.398438 57.945312 116.359375 C 57.75 117.023438 57.625 117.761719 57.574219 118.566406 L 56.558594 118.566406 C 56.570312 117.929688 56.695312 117.167969 56.929688 116.28125 C 57.164062 115.382812 57.503906 114.519531 57.945312 113.683594 C 58.402344 112.851562 58.875 112.148438 59.371094 111.574219 Z M 55.425781 111.574219 "
       id="path127" />
    <path
       style="fill-rule:nonzero;fill:rgb(100%,100%,100%);fill-opacity:1;stroke-width:1;stroke-linecap:round;stroke-linejoin:round;stroke:rgb(0%,0%,0%);stroke-opacity:1;stroke-miterlimit:10;"
       d="M 48.421875 200 L 66.421875 200 L 66.421875 218 L 48.421875 218 Z M 48.421875 200 "
       transform="matrix(1.25,0,0,1.25,-13.75,-168.75)"
       id="path129" />
    <path
       style=" stroke:none;fill-rule:nonzero;fill:rgb(0%,0%,0%);fill-opacity:1;"
       d="M 58.53125 96.066406 L 58.53125 94.132812 L 55.035156 94.132812 L 55.035156 93.234375 L 58.707031 88.019531 L 59.527344 88.019531 L 59.527344 93.234375 L 60.621094 93.234375 L 60.621094 94.132812 L 59.527344 94.132812 L 59.527344 96.066406 Z M 58.53125 93.234375 L 58.53125 89.601562 L 56.011719 93.234375 Z M 58.53125 93.234375 "
       id="path131" />
    <path
       style="fill-rule:nonzero;fill:rgb(69.803922%,85.098039%,100%);fill-opacity:1;stroke-width:1;stroke-linecap:round;stroke-linejoin:round;stroke:rgb(0%,0%,0%);stroke-opacity:1;stroke-dasharray:1,4;stroke-miterlimit:10;"
       d="M 48.421875 164 L 66.421875 164 L 66.421875 182 L 48.421875 182 Z M 48.421875 164 "
       transform="matrix(1.25,0,0,1.25,-13.75,-168.75)"
       id="path133" />
    <path
       style=" stroke:none;fill-rule:nonzero;fill:rgb(0%,0%,0%);fill-opacity:1;"
       d="M 55.367188 47.101562 C 55.367188 46.152344 55.464844 45.382812 55.660156 44.796875 C 55.855469 44.210938 56.140625 43.761719 56.519531 43.449219 C 56.910156 43.136719 57.398438 42.980469 57.984375 42.980469 C 58.425781 42.980469 58.8125 43.074219 59.136719 43.253906 C 59.460938 43.425781 59.730469 43.671875 59.9375 43.996094 C 60.144531 44.324219 60.308594 44.71875 60.425781 45.1875 C 60.554688 45.65625 60.621094 46.296875 60.621094 47.101562 C 60.621094 48.039062 60.523438 48.800781 60.328125 49.386719 C 60.132812 49.960938 59.839844 50.410156 59.449219 50.734375 C 59.070312 51.046875 58.582031 51.203125 57.984375 51.203125 C 57.214844 51.203125 56.609375 50.925781 56.167969 50.363281 C 55.632812 49.699219 55.367188 48.613281 55.367188 47.101562 Z M 56.382812 47.101562 C 56.382812 48.417969 56.53125 49.296875 56.832031 49.738281 C 57.144531 50.167969 57.527344 50.382812 57.984375 50.382812 C 58.441406 50.382812 58.824219 50.167969 59.136719 49.738281 C 59.449219 49.296875 59.605469 48.417969 59.605469 47.101562 C 59.605469 45.773438 59.449219 44.894531 59.136719 44.464844 C 58.824219 44.023438 58.441406 43.800781 57.984375 43.800781 C 57.527344 43.800781 57.164062 43.992188 56.890625 44.367188 C 56.550781 44.863281 56.382812 45.773438 56.382812 47.101562 Z M 56.382812 47.101562 "
       id="path135" />
    <path
       style="fill-rule:nonzero;fill:rgb(69.803922%,85.098039%,100%);fill-opacity:1;stroke-width:1;stroke-linecap:round;stroke-linejoin:round;stroke:rgb(0%,0%,0%);stroke-opacity:1;stroke-miterlimit:10;"
       d="M 30.421875 218 L 48.421875 218 L 48.421875 236 L 30.421875 236 Z M 30.421875 218 "
       transform="matrix(1.25,0,0,1.25,-13.75,-168.75)"
       id="path137" />
    <path
       style=" stroke:none;fill-rule:nonzero;fill:rgb(0%,0%,0%);fill-opacity:1;"
       d="M 38.003906 112.492188 L 37.007812 112.570312 C 36.929688 112.179688 36.804688 111.894531 36.636719 111.710938 C 36.375 111.4375 36.050781 111.300781 35.660156 111.300781 C 35.335938 111.300781 35.054688 111.386719 34.820312 111.554688 C 34.507812 111.789062 34.261719 112.121094 34.078125 112.550781 C 33.910156 112.980469 33.816406 113.601562 33.804688 114.40625 C 34.039062 114.054688 34.324219 113.796875 34.664062 113.625 C 35.015625 113.445312 35.378906 113.351562 35.757812 113.351562 C 36.421875 113.351562 36.980469 113.59375 37.4375 114.074219 C 37.90625 114.558594 38.140625 115.183594 38.140625 115.949219 C 38.140625 116.457031 38.03125 116.933594 37.808594 117.375 C 37.585938 117.804688 37.289062 118.136719 36.910156 118.371094 C 36.53125 118.589844 36.101562 118.703125 35.621094 118.703125 C 34.800781 118.703125 34.128906 118.40625 33.609375 117.804688 C 33.089844 117.195312 32.828125 116.191406 32.828125 114.796875 C 32.828125 113.25 33.113281 112.117188 33.6875 111.398438 C 34.183594 110.789062 34.859375 110.480469 35.71875 110.480469 C 36.34375 110.480469 36.859375 110.664062 37.261719 111.027344 C 37.664062 111.378906 37.914062 111.867188 38.003906 112.492188 Z M 33.960938 115.949219 C 33.960938 116.300781 34.03125 116.632812 34.175781 116.945312 C 34.320312 117.246094 34.519531 117.480469 34.78125 117.648438 C 35.042969 117.804688 35.316406 117.882812 35.601562 117.882812 C 36.019531 117.882812 36.375 117.722656 36.675781 117.394531 C 36.976562 117.058594 37.125 116.59375 37.125 116.007812 C 37.125 115.449219 36.976562 115.011719 36.675781 114.699219 C 36.390625 114.375 36.019531 114.210938 35.5625 114.210938 C 35.121094 114.210938 34.742188 114.375 34.429688 114.699219 C 34.117188 115.011719 33.960938 115.429688 33.960938 115.949219 Z M 33.960938 115.949219 "
       id="path139" />
    <path
       style="fill-rule:nonzero;fill:rgb(69.803922%,85.098039%,100%);fill-opacity:1;stroke-width:1;stroke-linecap:round;stroke-linejoin:round;stroke:rgb(0%,0%,0%);stroke-opacity:1;stroke-miterlimit:10;"
       d="M 140.38125 209 L 158.38125 209 L 158.38125 227 L 140.38125 227 Z M 140.38125 209 "
       transform="matrix(1.25,0,0,1.25,-13.75,-168.75)"
       id="path141" />
    <path
       style=" stroke:none;fill-rule:nonzero;fill:rgb(0%,0%,0%);fill-opacity:1;"
       d="M 175.511719 106.359375 L 175.511719 107.316406 L 170.179688 107.316406 C 170.179688 107.082031 170.21875 106.855469 170.296875 106.632812 C 170.441406 106.269531 170.660156 105.910156 170.960938 105.558594 C 171.261719 105.207031 171.691406 104.804688 172.25 104.347656 C 173.121094 103.621094 173.707031 103.046875 174.007812 102.628906 C 174.320312 102.214844 174.476562 101.816406 174.476562 101.4375 C 174.476562 101.046875 174.332031 100.722656 174.046875 100.460938 C 173.773438 100.1875 173.414062 100.050781 172.972656 100.050781 C 172.492188 100.050781 172.105469 100.195312 171.820312 100.480469 C 171.535156 100.769531 171.390625 101.164062 171.390625 101.671875 L 170.375 101.554688 C 170.441406 100.800781 170.699219 100.226562 171.15625 99.835938 C 171.613281 99.433594 172.222656 99.230469 172.992188 99.230469 C 173.761719 99.230469 174.367188 99.445312 174.808594 99.875 C 175.265625 100.304688 175.492188 100.832031 175.492188 101.457031 C 175.492188 101.785156 175.425781 102.101562 175.296875 102.414062 C 175.167969 102.726562 174.945312 103.058594 174.632812 103.410156 C 174.332031 103.75 173.832031 104.21875 173.128906 104.816406 C 172.53125 105.3125 172.144531 105.652344 171.976562 105.832031 C 171.808594 106.015625 171.671875 106.191406 171.566406 106.359375 Z M 175.511719 106.359375 "
       id="path143" />
    <path
       style="fill-rule:nonzero;fill:rgb(69.803922%,85.098039%,100%);fill-opacity:1;stroke-width:1;stroke-linecap:round;stroke-linejoin:round;stroke:rgb(0%,0%,0%);stroke-opacity:1;stroke-miterlimit:10;"
       d="M 158.38125 209 L 176.38125 209 L 176.38125 227 L 158.38125 227 Z M 158.38125 209 "
       transform="matrix(1.25,0,0,1.25,-13.75,-168.75)"
       id="path145" />
    <path
       style=" stroke:none;fill-rule:nonzero;fill:rgb(0%,0%,0%);fill-opacity:1;"
       d="M 192.816406 105.1875 L 193.8125 105.050781 C 193.929688 105.613281 194.117188 106.015625 194.378906 106.261719 C 194.652344 106.511719 194.992188 106.632812 195.394531 106.632812 C 195.851562 106.632812 196.234375 106.476562 196.546875 106.164062 C 196.871094 105.839844 197.035156 105.4375 197.035156 104.953125 C 197.035156 104.5 196.886719 104.128906 196.585938 103.839844 C 196.300781 103.542969 195.929688 103.390625 195.472656 103.390625 C 195.277344 103.390625 195.042969 103.429688 194.769531 103.507812 L 194.886719 102.628906 C 194.953125 102.644531 195.003906 102.648438 195.042969 102.648438 C 195.460938 102.648438 195.835938 102.539062 196.175781 102.316406 C 196.515625 102.097656 196.683594 101.757812 196.683594 101.300781 C 196.683594 100.9375 196.558594 100.636719 196.3125 100.402344 C 196.066406 100.167969 195.746094 100.050781 195.355469 100.050781 C 194.976562 100.050781 194.660156 100.175781 194.398438 100.421875 C 194.152344 100.65625 193.988281 101.015625 193.910156 101.496094 L 192.914062 101.320312 C 193.042969 100.65625 193.316406 100.144531 193.734375 99.777344 C 194.164062 99.414062 194.699219 99.230469 195.335938 99.230469 C 195.777344 99.230469 196.183594 99.328125 196.546875 99.523438 C 196.925781 99.707031 197.210938 99.960938 197.40625 100.285156 C 197.601562 100.613281 197.699219 100.957031 197.699219 101.320312 C 197.699219 101.671875 197.601562 101.992188 197.40625 102.277344 C 197.222656 102.566406 196.949219 102.792969 196.585938 102.960938 C 197.066406 103.066406 197.4375 103.292969 197.699219 103.644531 C 197.960938 103.984375 198.089844 104.414062 198.089844 104.933594 C 198.089844 105.636719 197.828125 106.238281 197.308594 106.730469 C 196.800781 107.214844 196.15625 107.453125 195.375 107.453125 C 194.671875 107.453125 194.085938 107.246094 193.617188 106.828125 C 193.148438 106.414062 192.882812 105.867188 192.816406 105.1875 Z M 192.816406 105.1875 "
       id="path147" />
    <path
       style="fill-rule:nonzero;fill:rgb(69.803922%,85.098039%,100%);fill-opacity:1;stroke-width:1;stroke-linecap:round;stroke-linejoin:round;stroke:rgb(0%,0%,0%);stroke-opacity:1;stroke-miterlimit:10;"
       d="M 158.38125 191 L 176.38125 191 L 176.38125 209 L 158.38125 209 Z M 158.38125 191 "
       transform="matrix(1.25,0,0,1.25,-13.75,-168.75)"
       id="path149" />
    <path
       style=" stroke:none;fill-rule:nonzero;fill:rgb(0%,0%,0%);fill-opacity:1;"
       d="M 196.546875 84.816406 L 195.550781 84.816406 L 195.550781 78.507812 C 195.316406 78.742188 195.003906 78.976562 194.613281 79.210938 C 194.222656 79.433594 193.878906 79.597656 193.578125 79.699219 L 193.578125 78.742188 C 194.125 78.496094 194.605469 78.191406 195.023438 77.824219 C 195.441406 77.449219 195.734375 77.082031 195.902344 76.730469 L 196.546875 76.730469 Z M 196.546875 84.816406 "
       id="path151" />
    <path
       style="fill-rule:nonzero;fill:rgb(69.803922%,85.098039%,100%);fill-opacity:1;stroke-width:1;stroke-linecap:round;stroke-linejoin:round;stroke:rgb(0%,0%,0%);stroke-opacity:1;stroke-miterlimit:10;"
       d="M 140.38125 191 L 158.38125 191 L 158.38125 209 L 140.38125 209 Z M 140.38125 191 "
       transform="matrix(1.25,0,0,1.25,-13.75,-168.75)"
       id="path153" />
    <path
       style=" stroke:none;fill-rule:nonzero;fill:rgb(0%,0%,0%);fill-opacity:1;"
       d="M 170.316406 80.851562 C 170.316406 79.902344 170.414062 79.132812 170.609375 78.546875 C 170.804688 77.960938 171.089844 77.511719 171.46875 77.199219 C 171.859375 76.886719 172.347656 76.730469 172.933594 76.730469 C 173.375 76.730469 173.761719 76.824219 174.085938 77.003906 C 174.410156 77.175781 174.679688 77.421875 174.886719 77.746094 C 175.09375 78.074219 175.257812 78.46875 175.375 78.9375 C 175.503906 79.40625 175.570312 80.046875 175.570312 80.851562 C 175.570312 81.789062 175.472656 82.550781 175.277344 83.136719 C 175.082031 83.710938 174.789062 84.160156 174.398438 84.484375 C 174.019531 84.796875 173.53125 84.953125 172.933594 84.953125 C 172.164062 84.953125 171.558594 84.675781 171.117188 84.113281 C 170.582031 83.449219 170.316406 82.363281 170.316406 80.851562 Z M 171.332031 80.851562 C 171.332031 82.167969 171.480469 83.046875 171.78125 83.488281 C 172.09375 83.917969 172.476562 84.132812 172.933594 84.132812 C 173.390625 84.132812 173.773438 83.917969 174.085938 83.488281 C 174.398438 83.046875 174.554688 82.167969 174.554688 80.851562 C 174.554688 79.523438 174.398438 78.644531 174.085938 78.214844 C 173.773438 77.773438 173.390625 77.550781 172.933594 77.550781 C 172.476562 77.550781 172.113281 77.742188 171.839844 78.117188 C 171.5 78.613281 171.332031 79.523438 171.332031 80.851562 Z M 171.332031 80.851562 "
       id="path155" />
    <path
       style="fill-rule:nonzero;fill:rgb(69.803922%,85.098039%,100%);fill-opacity:1;stroke-width:1;stroke-linecap:round;stroke-linejoin:round;stroke:rgb(0%,0%,0%);stroke-opacity:1;stroke-miterlimit:10;"
       d="M 222.925 209 L 240.925 209 L 240.925 227 L 222.925 227 Z M 222.925 209 "
       transform="matrix(1.25,0,0,1.25,-13.75,-168.75)"
       id="path157" />
    <path
       style=" stroke:none;fill-rule:nonzero;fill:rgb(0%,0%,0%);fill-opacity:1;"
       d="M 278.636719 101.242188 L 277.640625 101.320312 C 277.5625 100.929688 277.433594 100.644531 277.269531 100.460938 C 277.003906 100.1875 276.683594 100.050781 276.292969 100.050781 C 275.964844 100.050781 275.6875 100.136719 275.453125 100.304688 C 275.140625 100.539062 274.890625 100.871094 274.710938 101.300781 C 274.539062 101.730469 274.445312 102.351562 274.4375 103.15625 C 274.671875 102.804688 274.953125 102.546875 275.296875 102.375 C 275.648438 102.195312 276.007812 102.101562 276.390625 102.101562 C 277.054688 102.101562 277.609375 102.34375 278.070312 102.824219 C 278.539062 103.308594 278.773438 103.933594 278.773438 104.699219 C 278.773438 105.207031 278.660156 105.683594 278.441406 106.125 C 278.214844 106.554688 277.917969 106.886719 277.542969 107.121094 C 277.160156 107.339844 276.730469 107.453125 276.253906 107.453125 C 275.433594 107.453125 274.757812 107.15625 274.242188 106.554688 C 273.71875 105.945312 273.460938 104.941406 273.460938 103.546875 C 273.460938 102 273.742188 100.867188 274.320312 100.148438 C 274.8125 99.539062 275.492188 99.230469 276.351562 99.230469 C 276.976562 99.230469 277.488281 99.414062 277.894531 99.777344 C 278.292969 100.128906 278.542969 100.617188 278.636719 101.242188 Z M 274.59375 104.699219 C 274.59375 105.050781 274.660156 105.382812 274.808594 105.695312 C 274.949219 105.996094 275.148438 106.230469 275.414062 106.398438 C 275.671875 106.554688 275.945312 106.632812 276.234375 106.632812 C 276.648438 106.632812 277.003906 106.472656 277.308594 106.144531 C 277.605469 105.808594 277.757812 105.34375 277.757812 104.757812 C 277.757812 104.199219 277.605469 103.761719 277.308594 103.449219 C 277.019531 103.125 276.648438 102.960938 276.195312 102.960938 C 275.75 102.960938 275.375 103.125 275.0625 103.449219 C 274.75 103.761719 274.59375 104.179688 274.59375 104.699219 Z M 274.59375 104.699219 "
       id="path159" />
    <path
       style="fill-rule:nonzero;fill:rgb(100%,100%,100%);fill-opacity:1;stroke-width:1;stroke-linecap:round;stroke-linejoin:round;stroke:rgb(0%,0%,0%);stroke-opacity:1;stroke-miterlimit:10;"
       d="M 240.925 209 L 258.925 209 L 258.925 227 L 240.925 227 Z M 240.925 209 "
       transform="matrix(1.25,0,0,1.25,-13.75,-168.75)"
       id="path161" />
    <path
       style=" stroke:none;fill-rule:nonzero;fill:rgb(0%,0%,0%);fill-opacity:1;"
       d="M 297.523438 102.941406 C 297.101562 102.800781 296.800781 102.589844 296.605469 102.316406 C 296.410156 102.03125 296.3125 101.691406 296.3125 101.300781 C 296.3125 100.714844 296.515625 100.226562 296.9375 99.835938 C 297.367188 99.433594 297.921875 99.230469 298.617188 99.230469 C 299.320312 99.230469 299.886719 99.441406 300.316406 99.855469 C 300.746094 100.261719 300.960938 100.753906 300.960938 101.339844 C 300.960938 101.707031 300.863281 102.03125 300.667969 102.316406 C 300.472656 102.589844 300.167969 102.800781 299.769531 102.941406 C 300.261719 103.113281 300.636719 103.378906 300.902344 103.742188 C 301.160156 104.09375 301.292969 104.519531 301.292969 105.011719 C 301.292969 105.703125 301.042969 106.28125 300.550781 106.75 C 300.066406 107.21875 299.425781 107.453125 298.636719 107.453125 C 297.839844 107.453125 297.195312 107.21875 296.703125 106.75 C 296.21875 106.28125 295.980469 105.695312 295.980469 104.992188 C 295.980469 104.472656 296.105469 104.035156 296.371094 103.683594 C 296.644531 103.320312 297.023438 103.074219 297.523438 102.941406 Z M 297.328125 101.28125 C 297.328125 101.660156 297.445312 101.972656 297.679688 102.21875 C 297.921875 102.453125 298.246094 102.570312 298.636719 102.570312 C 299.027344 102.570312 299.339844 102.453125 299.574219 102.21875 C 299.816406 101.972656 299.945312 101.671875 299.945312 101.320312 C 299.945312 100.96875 299.816406 100.671875 299.574219 100.421875 C 299.324219 100.175781 299.011719 100.050781 298.636719 100.050781 C 298.253906 100.050781 297.941406 100.175781 297.699219 100.421875 C 297.449219 100.65625 297.328125 100.945312 297.328125 101.28125 Z M 296.996094 104.992188 C 296.996094 105.28125 297.058594 105.554688 297.191406 105.8125 C 297.332031 106.074219 297.53125 106.277344 297.796875 106.417969 C 298.054688 106.5625 298.34375 106.632812 298.65625 106.632812 C 299.125 106.632812 299.503906 106.484375 299.808594 106.183594 C 300.121094 105.886719 300.277344 105.5 300.277344 105.03125 C 300.277344 104.550781 300.121094 104.152344 299.808594 103.839844 C 299.496094 103.527344 299.09375 103.371094 298.617188 103.371094 C 298.148438 103.371094 297.757812 103.527344 297.445312 103.839844 C 297.140625 104.152344 296.996094 104.539062 296.996094 104.992188 Z M 296.996094 104.992188 "
       id="path163" />
    <path
       style="fill-rule:nonzero;fill:rgb(100%,100%,100%);fill-opacity:1;stroke-width:1;stroke-linecap:round;stroke-linejoin:round;stroke:rgb(0%,0%,0%);stroke-opacity:1;stroke-miterlimit:10;"
       d="M 222.925 191 L 240.925 191 L 240.925 209 L 222.925 209 Z M 222.925 191 "
       transform="matrix(1.25,0,0,1.25,-13.75,-168.75)"
       id="path165" />
    <path
       style=" stroke:none;fill-rule:nonzero;fill:rgb(0%,0%,0%);fill-opacity:1;"
       d="M 273.5 80.851562 C 273.5 79.902344 273.597656 79.132812 273.792969 78.546875 C 273.988281 77.960938 274.269531 77.511719 274.652344 77.199219 C 275.042969 76.886719 275.53125 76.730469 276.117188 76.730469 C 276.554688 76.730469 276.941406 76.824219 277.269531 77.003906 C 277.589844 77.175781 277.859375 77.421875 278.070312 77.746094 C 278.273438 78.074219 278.441406 78.46875 278.558594 78.9375 C 278.683594 79.40625 278.753906 80.046875 278.753906 80.851562 C 278.753906 81.789062 278.65625 82.550781 278.460938 83.136719 C 278.265625 83.710938 277.972656 84.160156 277.582031 84.484375 C 277.199219 84.796875 276.710938 84.953125 276.117188 84.953125 C 275.34375 84.953125 274.738281 84.675781 274.300781 84.113281 C 273.761719 83.449219 273.5 82.363281 273.5 80.851562 Z M 274.515625 80.851562 C 274.515625 82.167969 274.660156 83.046875 274.964844 83.488281 C 275.277344 83.917969 275.65625 84.132812 276.117188 84.132812 C 276.570312 84.132812 276.957031 83.917969 277.269531 83.488281 C 277.582031 83.046875 277.738281 82.167969 277.738281 80.851562 C 277.738281 79.523438 277.582031 78.644531 277.269531 78.214844 C 276.957031 77.773438 276.570312 77.550781 276.117188 77.550781 C 275.65625 77.550781 275.296875 77.742188 275.023438 78.117188 C 274.679688 78.613281 274.515625 79.523438 274.515625 80.851562 Z M 274.515625 80.851562 "
       id="path167" />
    <path
       style="fill-rule:nonzero;fill:rgb(69.803922%,85.098039%,100%);fill-opacity:1;stroke-width:1;stroke-linecap:round;stroke-linejoin:round;stroke:rgb(0%,0%,0%);stroke-opacity:1;stroke-miterlimit:10;"
       d="M 240.925 191 L 258.925 191 L 258.925 209 L 240.925 209 Z M 240.925 191 "
       transform="matrix(1.25,0,0,1.25,-13.75,-168.75)"
       id="path169" />
    <path
       style=" stroke:none;fill-rule:nonzero;fill:rgb(0%,0%,0%);fill-opacity:1;"
       d="M 297.523438 80.441406 C 297.101562 80.300781 296.800781 80.089844 296.605469 79.816406 C 296.410156 79.53125 296.3125 79.191406 296.3125 78.800781 C 296.3125 78.214844 296.515625 77.726562 296.9375 77.335938 C 297.367188 76.933594 297.921875 76.730469 298.617188 76.730469 C 299.320312 76.730469 299.886719 76.941406 300.316406 77.355469 C 300.746094 77.761719 300.960938 78.253906 300.960938 78.839844 C 300.960938 79.207031 300.863281 79.53125 300.667969 79.816406 C 300.472656 80.089844 300.167969 80.300781 299.769531 80.441406 C 300.261719 80.613281 300.636719 80.878906 300.902344 81.242188 C 301.160156 81.59375 301.292969 82.019531 301.292969 82.511719 C 301.292969 83.203125 301.042969 83.78125 300.550781 84.25 C 300.066406 84.71875 299.425781 84.953125 298.636719 84.953125 C 297.839844 84.953125 297.195312 84.71875 296.703125 84.25 C 296.21875 83.78125 295.980469 83.195312 295.980469 82.492188 C 295.980469 81.972656 296.105469 81.535156 296.371094 81.183594 C 296.644531 80.820312 297.023438 80.574219 297.523438 80.441406 Z M 297.328125 78.78125 C 297.328125 79.160156 297.445312 79.472656 297.679688 79.71875 C 297.921875 79.953125 298.246094 80.070312 298.636719 80.070312 C 299.027344 80.070312 299.339844 79.953125 299.574219 79.71875 C 299.816406 79.472656 299.945312 79.171875 299.945312 78.820312 C 299.945312 78.46875 299.816406 78.171875 299.574219 77.921875 C 299.324219 77.675781 299.011719 77.550781 298.636719 77.550781 C 298.253906 77.550781 297.941406 77.675781 297.699219 77.921875 C 297.449219 78.15625 297.328125 78.445312 297.328125 78.78125 Z M 296.996094 82.492188 C 296.996094 82.78125 297.058594 83.054688 297.191406 83.3125 C 297.332031 83.574219 297.53125 83.777344 297.796875 83.917969 C 298.054688 84.0625 298.34375 84.132812 298.65625 84.132812 C 299.125 84.132812 299.503906 83.984375 299.808594 83.683594 C 300.121094 83.386719 300.277344 83 300.277344 82.53125 C 300.277344 82.050781 300.121094 81.652344 299.808594 81.339844 C 299.496094 81.027344 299.09375 80.871094 298.617188 80.871094 C 298.148438 80.871094 297.757812 81.027344 297.445312 81.339844 C 297.140625 81.652344 296.996094 82.039062 296.996094 82.492188 Z M 296.996094 82.492188 "
       id="path171" />
    <path
       style=" stroke:none;fill-rule:nonzero;fill:rgb(0%,0%,0%);fill-opacity:1;"
       d="M 133.328125 92.007812 L 133.835938 90.445312 C 134.996094 90.851562 135.839844 91.203125 136.375 91.5 C 136.230469 90.1875 136.160156 89.273438 136.160156 88.765625 L 137.742188 88.765625 C 137.714844 89.5 137.632812 90.40625 137.488281 91.5 C 138.242188 91.125 139.109375 90.773438 140.085938 90.445312 L 140.59375 92.007812 C 139.65625 92.3125 138.746094 92.511719 137.859375 92.613281 C 138.300781 93.003906 138.933594 93.699219 139.753906 94.683594 L 138.425781 95.621094 C 137.996094 95.050781 137.496094 94.265625 136.921875 93.257812 C 136.375 94.304688 135.898438 95.089844 135.496094 95.621094 L 134.1875 94.683594 C 135.046875 93.644531 135.660156 92.957031 136.023438 92.613281 C 135.074219 92.433594 134.175781 92.234375 133.328125 92.007812 Z M 133.328125 92.007812 "
       id="path173" />
    <path
       style=" stroke:none;fill-rule:nonzero;fill:rgb(0%,0%,0%);fill-opacity:1;"
       d="M 239.191406 90.160156 L 228.546875 90.160156 L 228.546875 88.324219 L 239.191406 88.324219 Z M 239.191406 95.042969 L 228.546875 95.042969 L 228.546875 93.207031 L 239.191406 93.207031 Z M 239.191406 95.042969 "
       id="path175" />
    <path
       style=" stroke:none;fill-rule:nonzero;fill:rgb(0%,0%,0%);fill-opacity:1;"
       d="M 271.070312 12.765625 C 271.070312 11.4375 271.425781 10.398438 272.144531 9.640625 C 272.855469 8.875 273.785156 8.488281 274.917969 8.488281 C 275.660156 8.488281 276.328125 8.671875 276.929688 9.035156 C 277.523438 9.386719 277.984375 9.882812 278.296875 10.519531 C 278.609375 11.160156 278.765625 11.875 278.765625 12.667969 C 278.765625 13.488281 278.597656 14.226562 278.277344 14.875 C 277.949219 15.515625 277.480469 16.003906 276.871094 16.339844 C 276.269531 16.667969 275.621094 16.828125 274.917969 16.828125 C 274.160156 16.828125 273.480469 16.648438 272.886719 16.28125 C 272.285156 15.917969 271.832031 15.417969 271.519531 14.777344 C 271.214844 14.140625 271.070312 13.46875 271.070312 12.765625 Z M 272.164062 12.785156 C 272.164062 13.761719 272.421875 14.53125 272.945312 15.089844 C 273.460938 15.636719 274.121094 15.910156 274.917969 15.910156 C 275.707031 15.910156 276.367188 15.632812 276.890625 15.070312 C 277.40625 14.511719 277.671875 13.710938 277.671875 12.667969 C 277.671875 12.019531 277.558594 11.453125 277.339844 10.96875 C 277.113281 10.476562 276.792969 10.089844 276.363281 9.816406 C 275.933594 9.542969 275.453125 9.40625 274.9375 9.40625 C 274.179688 9.40625 273.53125 9.667969 272.984375 10.1875 C 272.4375 10.710938 272.164062 11.574219 272.164062 12.785156 Z M 272.164062 12.785156 "
       id="path177" />
    <path
       style=" stroke:none;fill-rule:nonzero;fill:rgb(0%,0%,0%);fill-opacity:1;"
       d="M 283.84375 16.691406 L 283.84375 15.832031 C 283.386719 16.496094 282.769531 16.828125 281.988281 16.828125 C 281.648438 16.828125 281.328125 16.757812 281.03125 16.632812 C 280.730469 16.492188 280.503906 16.320312 280.347656 16.125 C 280.203125 15.929688 280.105469 15.691406 280.054688 15.402344 C 280.015625 15.207031 279.996094 14.894531 279.996094 14.464844 L 279.996094 10.851562 L 280.972656 10.851562 L 280.972656 14.09375 C 280.972656 14.617188 280.996094 14.960938 281.050781 15.128906 C 281.101562 15.390625 281.226562 15.597656 281.421875 15.753906 C 281.628906 15.898438 281.882812 15.96875 282.183594 15.96875 C 282.480469 15.96875 282.761719 15.898438 283.023438 15.753906 C 283.28125 15.597656 283.464844 15.390625 283.570312 15.128906 C 283.671875 14.871094 283.726562 14.484375 283.726562 13.976562 L 283.726562 10.851562 L 284.722656 10.851562 L 284.722656 16.691406 Z M 283.84375 16.691406 "
       id="path179" />
    <path
       style=" stroke:none;fill-rule:nonzero;fill:rgb(0%,0%,0%);fill-opacity:1;"
       d="M 288.4375 15.8125 L 288.574219 16.671875 C 288.285156 16.734375 288.035156 16.769531 287.832031 16.769531 C 287.464844 16.769531 287.1875 16.710938 286.992188 16.59375 C 286.796875 16.476562 286.648438 16.328125 286.5625 16.144531 C 286.484375 15.964844 286.445312 15.578125 286.445312 14.992188 L 286.445312 11.632812 L 285.722656 11.632812 L 285.722656 10.851562 L 286.445312 10.851562 L 286.445312 9.40625 L 287.441406 8.820312 L 287.441406 10.851562 L 288.4375 10.851562 L 288.4375 11.632812 L 287.441406 11.632812 L 287.441406 15.03125 C 287.441406 15.320312 287.449219 15.5 287.480469 15.578125 C 287.519531 15.65625 287.578125 15.722656 287.65625 15.773438 C 287.734375 15.828125 287.839844 15.851562 287.988281 15.851562 C 288.105469 15.851562 288.25 15.839844 288.4375 15.8125 Z M 288.4375 15.8125 "
       id="path181" />
    <path
       style=" stroke:none;fill-rule:nonzero;fill:rgb(0%,0%,0%);fill-opacity:1;"
       d="M 289.394531 18.917969 L 289.394531 10.851562 L 290.292969 10.851562 L 290.292969 11.613281 C 290.496094 11.316406 290.730469 11.09375 290.996094 10.949219 C 291.269531 10.808594 291.601562 10.734375 291.992188 10.734375 C 292.484375 10.734375 292.917969 10.867188 293.300781 11.125 C 293.675781 11.375 293.964844 11.730469 294.160156 12.199219 C 294.355469 12.667969 294.453125 13.175781 294.453125 13.722656 C 294.453125 14.324219 294.339844 14.863281 294.121094 15.34375 C 293.910156 15.828125 293.601562 16.199219 293.203125 16.457031 C 292.796875 16.699219 292.367188 16.828125 291.914062 16.828125 C 291.585938 16.828125 291.292969 16.753906 291.035156 16.613281 C 290.769531 16.472656 290.554688 16.296875 290.390625 16.085938 L 290.390625 18.917969 Z M 290.292969 13.800781 C 290.292969 14.558594 290.4375 15.117188 290.742188 15.480469 C 291.054688 15.832031 291.425781 16.007812 291.855469 16.007812 C 292.285156 16.007812 292.65625 15.828125 292.96875 15.460938 C 293.289062 15.085938 293.457031 14.503906 293.457031 13.722656 C 293.457031 12.980469 293.300781 12.429688 292.988281 12.0625 C 292.683594 11.6875 292.324219 11.496094 291.894531 11.496094 C 291.472656 11.496094 291.101562 11.699219 290.78125 12.101562 C 290.453125 12.492188 290.292969 13.058594 290.292969 13.800781 Z M 290.292969 13.800781 "
       id="path183" />
    <path
       style=" stroke:none;fill-rule:nonzero;fill:rgb(0%,0%,0%);fill-opacity:1;"
       d="M 299.476562 16.691406 L 299.476562 15.832031 C 299.015625 16.496094 298.402344 16.828125 297.621094 16.828125 C 297.277344 16.828125 296.960938 16.757812 296.664062 16.632812 C 296.359375 16.492188 296.136719 16.320312 295.980469 16.125 C 295.832031 15.929688 295.734375 15.691406 295.6875 15.402344 C 295.648438 15.207031 295.628906 14.894531 295.628906 14.464844 L 295.628906 10.851562 L 296.605469 10.851562 L 296.605469 14.09375 C 296.605469 14.617188 296.628906 14.960938 296.683594 15.128906 C 296.730469 15.390625 296.859375 15.597656 297.054688 15.753906 C 297.257812 15.898438 297.511719 15.96875 297.816406 15.96875 C 298.113281 15.96875 298.390625 15.898438 298.65625 15.753906 C 298.914062 15.597656 299.09375 15.390625 299.203125 15.128906 C 299.304688 14.871094 299.359375 14.484375 299.359375 13.976562 L 299.359375 10.851562 L 300.355469 10.851562 L 300.355469 16.691406 Z M 299.476562 16.691406 "
       id="path185" />
    <path
       style=" stroke:none;fill-rule:nonzero;fill:rgb(0%,0%,0%);fill-opacity:1;"
       d="M 304.066406 15.8125 L 304.203125 16.671875 C 303.914062 16.734375 303.667969 16.769531 303.460938 16.769531 C 303.09375 16.769531 302.816406 16.710938 302.621094 16.59375 C 302.425781 16.476562 302.28125 16.328125 302.191406 16.144531 C 302.113281 15.964844 302.074219 15.578125 302.074219 14.992188 L 302.074219 11.632812 L 301.351562 11.632812 L 301.351562 10.851562 L 302.074219 10.851562 L 302.074219 9.40625 L 303.070312 8.820312 L 303.070312 10.851562 L 304.066406 10.851562 L 304.066406 11.632812 L 303.070312 11.632812 L 303.070312 15.03125 C 303.070312 15.320312 303.082031 15.5 303.109375 15.578125 C 303.148438 15.65625 303.207031 15.722656 303.285156 15.773438 C 303.363281 15.828125 303.472656 15.851562 303.617188 15.851562 C 303.734375 15.851562 303.882812 15.839844 304.066406 15.8125 Z M 304.066406 15.8125 "
       id="path187" />
    <path
       style=" stroke:none;fill-rule:nonzero;fill:rgb(0%,0%,0%);fill-opacity:1;"
       d="M 167.6875 16.691406 L 167.6875 8.644531 L 168.761719 8.644531 L 168.761719 12.628906 L 172.765625 8.644531 L 174.191406 8.644531 L 170.832031 11.90625 L 174.347656 16.691406 L 172.941406 16.691406 L 170.070312 12.609375 L 168.761719 13.898438 L 168.761719 16.691406 Z M 167.6875 16.691406 "
       id="path189" />
    <path
       style=" stroke:none;fill-rule:nonzero;fill:rgb(0%,0%,0%);fill-opacity:1;"
       d="M 179.09375 14.816406 L 180.128906 14.933594 C 179.960938 15.535156 179.652344 16.003906 179.210938 16.339844 C 178.78125 16.667969 178.226562 16.828125 177.550781 16.828125 C 176.703125 16.828125 176.027344 16.570312 175.519531 16.046875 C 175.023438 15.515625 174.777344 14.773438 174.777344 13.820312 C 174.777344 12.84375 175.03125 12.089844 175.539062 11.554688 C 176.046875 11.007812 176.703125 10.734375 177.511719 10.734375 C 178.292969 10.734375 178.925781 11.003906 179.40625 11.535156 C 179.902344 12.058594 180.148438 12.800781 180.148438 13.761719 C 180.148438 13.828125 180.148438 13.917969 180.148438 14.035156 L 175.792969 14.035156 C 175.832031 14.675781 176.015625 15.164062 176.339844 15.5 C 176.664062 15.839844 177.074219 16.007812 177.570312 16.007812 C 177.933594 16.007812 178.242188 15.917969 178.488281 15.734375 C 178.75 15.539062 178.949219 15.234375 179.09375 14.816406 Z M 175.851562 13.214844 L 179.113281 13.214844 C 179.074219 12.722656 178.949219 12.351562 178.742188 12.101562 C 178.429688 11.726562 178.019531 11.535156 177.511719 11.535156 C 177.054688 11.535156 176.671875 11.691406 176.359375 12.003906 C 176.058594 12.304688 175.890625 12.707031 175.851562 13.214844 Z M 175.851562 13.214844 "
       id="path191" />
    <path
       style=" stroke:none;fill-rule:nonzero;fill:rgb(0%,0%,0%);fill-opacity:1;"
       d="M 181.347656 16.691406 L 181.347656 10.851562 L 182.246094 10.851562 L 182.246094 11.75 C 182.46875 11.335938 182.675781 11.0625 182.871094 10.929688 C 183.066406 10.800781 183.28125 10.734375 183.515625 10.734375 C 183.839844 10.734375 184.179688 10.839844 184.53125 11.046875 L 184.179688 11.964844 C 183.945312 11.824219 183.703125 11.75 183.457031 11.75 C 183.25 11.75 183.054688 11.816406 182.871094 11.945312 C 182.703125 12.078125 182.578125 12.257812 182.5 12.492188 C 182.394531 12.84375 182.34375 13.230469 182.34375 13.644531 L 182.34375 16.691406 Z M 181.347656 16.691406 "
       id="path193" />
    <path
       style=" stroke:none;fill-rule:nonzero;fill:rgb(0%,0%,0%);fill-opacity:1;"
       d="M 185.113281 16.691406 L 185.113281 10.851562 L 186.011719 10.851562 L 186.011719 11.691406 C 186.429688 11.054688 187.046875 10.734375 187.867188 10.734375 C 188.21875 10.734375 188.539062 10.800781 188.824219 10.929688 C 189.125 11.046875 189.34375 11.210938 189.488281 11.417969 C 189.632812 11.613281 189.734375 11.855469 189.800781 12.140625 C 189.839844 12.324219 189.859375 12.644531 189.859375 13.097656 L 189.859375 16.691406 L 188.863281 16.691406 L 188.863281 13.136719 C 188.863281 12.734375 188.824219 12.433594 188.746094 12.238281 C 188.667969 12.042969 188.53125 11.886719 188.335938 11.769531 C 188.140625 11.640625 187.914062 11.574219 187.652344 11.574219 C 187.234375 11.574219 186.871094 11.710938 186.558594 11.984375 C 186.257812 12.246094 186.109375 12.753906 186.109375 13.507812 L 186.109375 16.691406 Z M 185.113281 16.691406 "
       id="path195"
       inkscape:export-xdpi="96"
       inkscape:export-ydpi="96" />
    <path
       style=" stroke:none;fill-rule:nonzero;fill:rgb(0%,0%,0%);fill-opacity:1;"
       d="M 195.355469 14.816406 L 196.390625 14.933594 C 196.21875 15.535156 195.914062 16.003906 195.472656 16.339844 C 195.042969 16.667969 194.488281 16.828125 193.8125 16.828125 C 192.964844 16.828125 192.289062 16.570312 191.78125 16.046875 C 191.285156 15.515625 191.039062 14.773438 191.039062 13.820312 C 191.039062 12.84375 191.292969 12.089844 191.800781 11.554688 C 192.308594 11.007812 192.964844 10.734375 193.773438 10.734375 C 194.554688 10.734375 195.183594 11.003906 195.667969 11.535156 C 196.160156 12.058594 196.410156 12.800781 196.410156 13.761719 C 196.410156 13.828125 196.410156 13.917969 196.410156 14.035156 L 192.054688 14.035156 C 192.09375 14.675781 192.273438 15.164062 192.601562 15.5 C 192.925781 15.839844 193.335938 16.007812 193.832031 16.007812 C 194.195312 16.007812 194.5 15.917969 194.75 15.734375 C 195.007812 15.539062 195.210938 15.234375 195.355469 14.816406 Z M 192.113281 13.214844 L 195.375 13.214844 C 195.335938 12.722656 195.210938 12.351562 195.003906 12.101562 C 194.691406 11.726562 194.28125 11.535156 193.773438 11.535156 C 193.316406 11.535156 192.933594 11.691406 192.621094 12.003906 C 192.320312 12.304688 192.152344 12.707031 192.113281 13.214844 Z M 192.113281 13.214844 "
       id="path197" />
    <path
       style=" stroke:none;fill-rule:nonzero;fill:rgb(0%,0%,0%);fill-opacity:1;"
       d="M 197.609375 16.691406 L 197.609375 8.644531 L 198.585938 8.644531 L 198.585938 16.691406 Z M 197.609375 16.691406 "
       id="path199" />
    <path
       style=" stroke:none;fill-rule:nonzero;fill:rgb(0%,0%,0%);fill-opacity:1;"
       d="M 48.542969 16.691406 L 48.542969 8.644531 L 49.597656 8.644531 L 49.597656 16.691406 Z M 48.542969 16.691406 "
       id="path201" />
    <path
       style=" stroke:none;fill-rule:nonzero;fill:rgb(0%,0%,0%);fill-opacity:1;"
       d="M 51.355469 16.691406 L 51.355469 10.851562 L 52.253906 10.851562 L 52.253906 11.691406 C 52.671875 11.054688 53.289062 10.734375 54.109375 10.734375 C 54.460938 10.734375 54.78125 10.800781 55.066406 10.929688 C 55.367188 11.046875 55.585938 11.210938 55.730469 11.417969 C 55.875 11.613281 55.976562 11.855469 56.042969 12.140625 C 56.082031 12.324219 56.101562 12.644531 56.101562 13.097656 L 56.101562 16.691406 L 55.105469 16.691406 L 55.105469 13.136719 C 55.105469 12.734375 55.066406 12.433594 54.988281 12.238281 C 54.910156 12.042969 54.773438 11.886719 54.578125 11.769531 C 54.382812 11.640625 54.15625 11.574219 53.894531 11.574219 C 53.476562 11.574219 53.113281 11.710938 52.800781 11.984375 C 52.5 12.246094 52.351562 12.753906 52.351562 13.507812 L 52.351562 16.691406 Z M 51.355469 16.691406 "
       id="path203" />
    <path
       style=" stroke:none;fill-rule:nonzero;fill:rgb(0%,0%,0%);fill-opacity:1;"
       d="M 57.609375 18.917969 L 57.609375 10.851562 L 58.507812 10.851562 L 58.507812 11.613281 C 58.714844 11.316406 58.949219 11.09375 59.210938 10.949219 C 59.484375 10.808594 59.816406 10.734375 60.207031 10.734375 C 60.699219 10.734375 61.136719 10.867188 61.515625 11.125 C 61.890625 11.375 62.179688 11.730469 62.375 12.199219 C 62.570312 12.667969 62.667969 13.175781 62.667969 13.722656 C 62.667969 14.324219 62.554688 14.863281 62.335938 15.34375 C 62.125 15.828125 61.820312 16.199219 61.417969 16.457031 C 61.011719 16.699219 60.582031 16.828125 60.128906 16.828125 C 59.800781 16.828125 59.507812 16.753906 59.25 16.613281 C 58.988281 16.472656 58.773438 16.296875 58.605469 16.085938 L 58.605469 18.917969 Z M 58.507812 13.800781 C 58.507812 14.558594 58.65625 15.117188 58.957031 15.480469 C 59.269531 15.832031 59.640625 16.007812 60.070312 16.007812 C 60.5 16.007812 60.871094 15.828125 61.183594 15.460938 C 61.507812 15.085938 61.671875 14.503906 61.671875 13.722656 C 61.671875 12.980469 61.515625 12.429688 61.203125 12.0625 C 60.902344 11.6875 60.539062 11.496094 60.109375 11.496094 C 59.691406 11.496094 59.320312 11.699219 58.996094 12.101562 C 58.667969 12.492188 58.507812 13.058594 58.507812 13.800781 Z M 58.507812 13.800781 "
       id="path205" />
    <path
       style=" stroke:none;fill-rule:nonzero;fill:rgb(0%,0%,0%);fill-opacity:1;"
       d="M 67.691406 16.691406 L 67.691406 15.832031 C 67.230469 16.496094 66.617188 16.828125 65.835938 16.828125 C 65.492188 16.828125 65.175781 16.757812 64.878906 16.632812 C 64.574219 16.492188 64.351562 16.320312 64.195312 16.125 C 64.046875 15.929688 63.949219 15.691406 63.902344 15.402344 C 63.863281 15.207031 63.84375 14.894531 63.84375 14.464844 L 63.84375 10.851562 L 64.820312 10.851562 L 64.820312 14.09375 C 64.820312 14.617188 64.84375 14.960938 64.898438 15.128906 C 64.945312 15.390625 65.074219 15.597656 65.269531 15.753906 C 65.472656 15.898438 65.726562 15.96875 66.03125 15.96875 C 66.328125 15.96875 66.605469 15.898438 66.871094 15.753906 C 67.128906 15.597656 67.308594 15.390625 67.417969 15.128906 C 67.519531 14.871094 67.574219 14.484375 67.574219 13.976562 L 67.574219 10.851562 L 68.570312 10.851562 L 68.570312 16.691406 Z M 67.691406 16.691406 "
       id="path207" />
    <path
       style=" stroke:none;fill-rule:nonzero;fill:rgb(0%,0%,0%);fill-opacity:1;"
       d="M 72.28125 15.8125 L 72.417969 16.671875 C 72.132812 16.734375 71.882812 16.769531 71.675781 16.769531 C 71.3125 16.769531 71.03125 16.710938 70.835938 16.59375 C 70.640625 16.476562 70.496094 16.328125 70.40625 16.144531 C 70.328125 15.964844 70.289062 15.578125 70.289062 14.992188 L 70.289062 11.632812 L 69.566406 11.632812 L 69.566406 10.851562 L 70.289062 10.851562 L 70.289062 9.40625 L 71.285156 8.820312 L 71.285156 10.851562 L 72.28125 10.851562 L 72.28125 11.632812 L 71.285156 11.632812 L 71.285156 15.03125 C 71.285156 15.320312 71.296875 15.5 71.324219 15.578125 C 71.363281 15.65625 71.421875 15.722656 71.5 15.773438 C 71.578125 15.828125 71.6875 15.851562 71.832031 15.851562 C 71.949219 15.851562 72.097656 15.839844 72.28125 15.8125 Z M 72.28125 15.8125 "
       id="path209" />
  </g>
  <ellipse
     style="fill:none;stroke:#000000;stroke-width:0.75"
     id="path218"
     cx="137.06963"
     cy="92.493195"
     rx="4.5320597"
     ry="4.7334847" />
</svg>
