<?xml version="1.0" encoding="UTF-8" standalone="no"?>
<svg
   xmlns:dc="http://purl.org/dc/elements/1.1/"
   xmlns:cc="http://creativecommons.org/ns#"
   xmlns:rdf="http://www.w3.org/1999/02/22-rdf-syntax-ns#"
   xmlns:svg="http://www.w3.org/2000/svg"
   xmlns="http://www.w3.org/2000/svg"
   xmlns:sodipodi="http://sodipodi.sourceforge.net/DTD/sodipodi-0.dtd"
   xmlns:inkscape="http://www.inkscape.org/namespaces/inkscape"
   width="224pt"
   height="101pt"
   viewBox="0 0 224 101"
   version="1.1"
   id="svg109"
   sodipodi:docname="pooling.svg"
   inkscape:export-filename="/home/mario/magomar@gmail.com/UOC/TFM/figs/ch3/pooling.png"
   inkscape:export-xdpi="96"
   inkscape:export-ydpi="96"
   inkscape:version="0.92.3 (2405546, 2018-03-11)">
  <metadata
     id="metadata115">
    <rdf:RDF>
      <cc:Work
         rdf:about="">
        <dc:format>image/svg+xml</dc:format>
        <dc:type
           rdf:resource="http://purl.org/dc/dcmitype/StillImage" />
      </cc:Work>
    </rdf:RDF>
  </metadata>
  <defs
     id="defs113" />
  <sodipodi:namedview
     pagecolor="#ffffff"
     bordercolor="#666666"
     borderopacity="1"
     objecttolerance="10"
     gridtolerance="10"
     guidetolerance="10"
     inkscape:pageopacity="0"
     inkscape:pageshadow="2"
     inkscape:window-width="2263"
     inkscape:window-height="1311"
     id="namedview111"
     showgrid="false"
     inkscape:zoom="1.2924107"
     inkscape:cx="149.33333"
     inkscape:cy="67.333333"
     inkscape:window-x="0"
     inkscape:window-y="32"
     inkscape:window-maximized="0"
     inkscape:current-layer="svg109" />
  <g
     id="surface1">
    <path
       style=" stroke:none;fill-rule:nonzero;fill:rgb(100%,100%,100%);fill-opacity:1;"
       d="M 0 0 L 223.75 0 L 223.75 101.25 L 0 101.25 Z M 0 0 "
       id="path2" />
    <path
       style=" stroke:none;fill-rule:nonzero;fill:rgb(100%,100%,100%);fill-opacity:1;"
       d="M 0 0 L 223.75 0 L 223.75 101.25 L 0 101.25 Z M 0 0 "
       id="path4" />
    <path
       style="fill-rule:nonzero;fill:rgb(100%,100%,100%);fill-opacity:1;stroke-width:1;stroke-linecap:round;stroke-linejoin:round;stroke:rgb(0%,0%,0%);stroke-opacity:1;stroke-miterlimit:10;"
       d="M 72 166.61875 L 90 166.61875 L 90 184.61875 L 72 184.61875 Z M 72 166.61875 "
       transform="matrix(1.25,0,0,1.25,-66.25,-131.25)"
       id="path6" />
    <path
       style=" stroke:none;fill-rule:nonzero;fill:rgb(0%,0%,0%);fill-opacity:1;"
       d="M 32.398438 84.847656 L 32.398438 83.890625 L 37.613281 83.890625 L 37.613281 84.652344 C 37.105469 85.199219 36.597656 85.929688 36.089844 86.839844 C 35.582031 87.738281 35.191406 88.671875 34.917969 89.632812 C 34.722656 90.296875 34.597656 91.035156 34.546875 91.839844 L 33.53125 91.839844 C 33.542969 91.203125 33.667969 90.441406 33.902344 89.554688 C 34.136719 88.65625 34.472656 87.792969 34.917969 86.957031 C 35.371094 86.125 35.847656 85.421875 36.34375 84.847656 Z M 32.398438 84.847656 "
       id="path8" />
    <path
       style="fill-rule:nonzero;fill:rgb(69.803922%,85.098039%,100%);fill-opacity:1;stroke-width:1;stroke-linecap:round;stroke-linejoin:round;stroke:rgb(0%,0%,0%);stroke-opacity:1;stroke-miterlimit:10;"
       d="M 72 130.61875 L 90 130.61875 L 90 148.61875 L 72 148.61875 Z M 72 130.61875 "
       transform="matrix(1.25,0,0,1.25,-66.25,-131.25)"
       id="path10" />
    <path
       style=" stroke:none;fill-rule:nonzero;fill:rgb(0%,0%,0%);fill-opacity:1;"
       d="M 36.070312 46.839844 L 35.074219 46.839844 L 35.074219 40.53125 C 34.839844 40.765625 34.527344 41 34.136719 41.234375 C 33.746094 41.457031 33.398438 41.621094 33.101562 41.722656 L 33.101562 40.765625 C 33.648438 40.519531 34.128906 40.214844 34.546875 39.847656 C 34.960938 39.472656 35.253906 39.105469 35.425781 38.753906 L 36.070312 38.753906 Z M 36.070312 46.839844 "
       id="path12" />
    <path
       style="fill-rule:nonzero;fill:rgb(69.803922%,85.098039%,100%);fill-opacity:1;stroke-width:1;stroke-linecap:round;stroke-linejoin:round;stroke:rgb(0%,0%,0%);stroke-opacity:1;stroke-miterlimit:10;"
       d="M 72 148.61875 L 90 148.61875 L 90 166.61875 L 72 166.61875 Z M 72 148.61875 "
       transform="matrix(1.25,0,0,1.25,-66.25,-131.25)"
       id="path14" />
    <path
       style=" stroke:none;fill-rule:nonzero;fill:rgb(0%,0%,0%);fill-opacity:1;"
       d="M 35.503906 69.339844 L 35.503906 67.40625 L 32.007812 67.40625 L 32.007812 66.507812 L 35.679688 61.292969 L 36.5 61.292969 L 36.5 66.507812 L 37.59375 66.507812 L 37.59375 67.40625 L 36.5 67.40625 L 36.5 69.339844 Z M 35.503906 66.507812 L 35.503906 62.875 L 32.984375 66.507812 Z M 35.503906 66.507812 "
       id="path16" />
    <path
       style="fill-rule:nonzero;fill:rgb(100%,100%,100%);fill-opacity:1;stroke-width:1;stroke-linecap:round;stroke-linejoin:round;stroke:rgb(0%,0%,0%);stroke-opacity:1;stroke-miterlimit:10;"
       d="M 54 166.61875 L 72 166.61875 L 72 184.61875 L 54 184.61875 Z M 54 166.61875 "
       transform="matrix(1.25,0,0,1.25,-66.25,-131.25)"
       id="path18" />
    <path
       style=" stroke:none;fill-rule:nonzero;fill:rgb(0%,0%,0%);fill-opacity:1;"
       d="M 14.976562 85.765625 L 13.980469 85.84375 C 13.902344 85.453125 13.777344 85.167969 13.609375 84.984375 C 13.347656 84.710938 13.023438 84.574219 12.632812 84.574219 C 12.304688 84.574219 12.027344 84.660156 11.792969 84.828125 C 11.480469 85.0625 11.230469 85.394531 11.050781 85.824219 C 10.878906 86.253906 10.789062 86.875 10.777344 87.679688 C 11.011719 87.328125 11.296875 87.070312 11.636719 86.898438 C 11.988281 86.71875 12.351562 86.625 12.730469 86.625 C 13.394531 86.625 13.953125 86.867188 14.410156 87.347656 C 14.878906 87.832031 15.113281 88.457031 15.113281 89.222656 C 15.113281 89.730469 15 90.207031 14.78125 90.648438 C 14.558594 91.078125 14.257812 91.410156 13.882812 91.644531 C 13.503906 91.863281 13.074219 91.976562 12.59375 91.976562 C 11.773438 91.976562 11.101562 91.679688 10.582031 91.078125 C 10.058594 90.46875 9.800781 89.464844 9.800781 88.070312 C 9.800781 86.523438 10.085938 85.390625 10.660156 84.671875 C 11.152344 84.0625 11.832031 83.753906 12.691406 83.753906 C 13.316406 83.753906 13.828125 83.9375 14.234375 84.300781 C 14.636719 84.652344 14.882812 85.140625 14.976562 85.765625 Z M 10.933594 89.222656 C 10.933594 89.574219 11.003906 89.90625 11.148438 90.21875 C 11.289062 90.519531 11.492188 90.753906 11.753906 90.921875 C 12.011719 91.078125 12.285156 91.15625 12.574219 91.15625 C 12.988281 91.15625 13.347656 90.996094 13.648438 90.667969 C 13.945312 90.332031 14.097656 89.867188 14.097656 89.28125 C 14.097656 88.722656 13.945312 88.285156 13.648438 87.972656 C 13.359375 87.648438 12.988281 87.484375 12.535156 87.484375 C 12.089844 87.484375 11.714844 87.648438 11.402344 87.972656 C 11.089844 88.285156 10.933594 88.703125 10.933594 89.222656 Z M 10.933594 89.222656 "
       id="path20" />
    <path
       style="fill-rule:nonzero;fill:rgb(100%,100%,100%);fill-opacity:1;stroke-width:1;stroke-linecap:round;stroke-linejoin:round;stroke:rgb(0%,0%,0%);stroke-opacity:1;stroke-miterlimit:10;"
       d="M 90 148.61875 L 108 148.61875 L 108 166.61875 L 90 166.61875 Z M 90 148.61875 "
       transform="matrix(1.25,0,0,1.25,-66.25,-131.25)"
       id="path22" />
    <path
       style=" stroke:none;fill-rule:nonzero;fill:rgb(0%,0%,0%);fill-opacity:1;"
       d="M 54.839844 67.230469 L 55.875 67.132812 C 55.953125 67.640625 56.128906 68.027344 56.402344 68.285156 C 56.6875 68.535156 57.027344 68.65625 57.417969 68.65625 C 57.898438 68.65625 58.300781 68.480469 58.628906 68.128906 C 58.964844 67.765625 59.136719 67.289062 59.136719 66.703125 C 59.136719 66.132812 58.972656 65.683594 58.648438 65.355469 C 58.335938 65.03125 57.925781 64.867188 57.417969 64.867188 C 57.089844 64.867188 56.796875 64.945312 56.539062 65.101562 C 56.289062 65.246094 56.089844 65.429688 55.933594 65.648438 L 55.015625 65.53125 L 55.796875 61.390625 L 59.800781 61.390625 L 59.800781 62.347656 L 56.578125 62.347656 L 56.148438 64.496094 C 56.628906 64.171875 57.136719 64.007812 57.671875 64.007812 C 58.375 64.007812 58.964844 64.25 59.449219 64.730469 C 59.929688 65.214844 60.171875 65.839844 60.171875 66.605469 C 60.171875 67.335938 59.960938 67.96875 59.546875 68.5 C 59.023438 69.152344 58.316406 69.476562 57.417969 69.476562 C 56.6875 69.476562 56.089844 69.277344 55.621094 68.871094 C 55.164062 68.457031 54.902344 67.910156 54.839844 67.230469 Z M 54.839844 67.230469 "
       id="path24" />
    <path
       style="fill-rule:nonzero;fill:rgb(69.803922%,85.098039%,100%);fill-opacity:1;stroke-width:1;stroke-linecap:round;stroke-linejoin:round;stroke:rgb(0%,0%,0%);stroke-opacity:1;stroke-miterlimit:10;"
       d="M 54 148.61875 L 72 148.61875 L 72 166.61875 L 54 166.61875 Z M 54 148.61875 "
       transform="matrix(1.25,0,0,1.25,-66.25,-131.25)"
       id="path26" />
    <path
       style=" stroke:none;fill-rule:nonzero;fill:rgb(0%,0%,0%);fill-opacity:1;"
       d="M 9.839844 67.210938 L 10.835938 67.074219 C 10.953125 67.636719 11.140625 68.039062 11.402344 68.285156 C 11.675781 68.535156 12.011719 68.65625 12.417969 68.65625 C 12.871094 68.65625 13.257812 68.5 13.570312 68.1875 C 13.894531 67.863281 14.058594 67.460938 14.058594 66.976562 C 14.058594 66.523438 13.90625 66.152344 13.609375 65.863281 C 13.320312 65.566406 12.949219 65.414062 12.496094 65.414062 C 12.300781 65.414062 12.066406 65.453125 11.792969 65.53125 L 11.910156 64.652344 C 11.972656 64.667969 12.027344 64.671875 12.066406 64.671875 C 12.480469 64.671875 12.859375 64.5625 13.199219 64.339844 C 13.535156 64.121094 13.707031 63.78125 13.707031 63.324219 C 13.707031 62.960938 13.582031 62.660156 13.335938 62.425781 C 13.085938 62.191406 12.769531 62.074219 12.378906 62.074219 C 12 62.074219 11.679688 62.199219 11.421875 62.445312 C 11.171875 62.679688 11.011719 63.039062 10.933594 63.519531 L 9.9375 63.34375 C 10.066406 62.679688 10.339844 62.167969 10.757812 61.800781 C 11.1875 61.4375 11.71875 61.253906 12.359375 61.253906 C 12.800781 61.253906 13.203125 61.351562 13.570312 61.546875 C 13.945312 61.730469 14.234375 61.984375 14.429688 62.308594 C 14.625 62.636719 14.722656 62.980469 14.722656 63.34375 C 14.722656 63.695312 14.625 64.015625 14.429688 64.300781 C 14.246094 64.589844 13.972656 64.816406 13.609375 64.984375 C 14.089844 65.089844 14.460938 65.316406 14.722656 65.667969 C 14.980469 66.007812 15.113281 66.4375 15.113281 66.957031 C 15.113281 67.660156 14.851562 68.261719 14.332031 68.753906 C 13.824219 69.238281 13.179688 69.476562 12.398438 69.476562 C 11.695312 69.476562 11.109375 69.269531 10.640625 68.851562 C 10.171875 68.4375 9.902344 67.890625 9.839844 67.210938 Z M 9.839844 67.210938 "
       id="path28" />
    <path
       style="fill-rule:nonzero;fill:rgb(100%,100%,100%);fill-opacity:1;stroke-width:1;stroke-linecap:round;stroke-linejoin:round;stroke:rgb(0%,0%,0%);stroke-opacity:1;stroke-miterlimit:10;"
       d="M 90 166.61875 L 108 166.61875 L 108 184.61875 L 90 184.61875 Z M 90 166.61875 "
       transform="matrix(1.25,0,0,1.25,-66.25,-131.25)"
       id="path30" />
    <path
       style=" stroke:none;fill-rule:nonzero;fill:rgb(0%,0%,0%);fill-opacity:1;"
       d="M 56.363281 87.464844 C 55.945312 87.324219 55.640625 87.113281 55.445312 86.839844 C 55.25 86.554688 55.152344 86.214844 55.152344 85.824219 C 55.152344 85.238281 55.359375 84.75 55.777344 84.359375 C 56.207031 83.957031 56.765625 83.753906 57.457031 83.753906 C 58.160156 83.753906 58.726562 83.964844 59.15625 84.378906 C 59.585938 84.785156 59.800781 85.277344 59.800781 85.863281 C 59.800781 86.230469 59.703125 86.554688 59.507812 86.839844 C 59.3125 87.113281 59.011719 87.324219 58.609375 87.464844 C 59.101562 87.636719 59.480469 87.902344 59.742188 88.265625 C 60 88.617188 60.132812 89.042969 60.132812 89.535156 C 60.132812 90.226562 59.882812 90.804688 59.390625 91.273438 C 58.90625 91.742188 58.269531 91.976562 57.476562 91.976562 C 56.679688 91.976562 56.035156 91.742188 55.542969 91.273438 C 55.058594 90.804688 54.820312 90.21875 54.820312 89.515625 C 54.820312 88.996094 54.949219 88.558594 55.210938 88.207031 C 55.484375 87.84375 55.867188 87.597656 56.363281 87.464844 Z M 56.167969 85.804688 C 56.167969 86.183594 56.285156 86.496094 56.519531 86.742188 C 56.765625 86.976562 57.085938 87.09375 57.476562 87.09375 C 57.867188 87.09375 58.179688 86.976562 58.414062 86.742188 C 58.660156 86.496094 58.785156 86.195312 58.785156 85.84375 C 58.785156 85.492188 58.660156 85.195312 58.414062 84.945312 C 58.164062 84.699219 57.851562 84.574219 57.476562 84.574219 C 57.097656 84.574219 56.785156 84.699219 56.539062 84.945312 C 56.289062 85.179688 56.167969 85.46875 56.167969 85.804688 Z M 55.835938 89.515625 C 55.835938 89.804688 55.898438 90.078125 56.03125 90.335938 C 56.171875 90.597656 56.375 90.800781 56.636719 90.941406 C 56.894531 91.085938 57.183594 91.15625 57.496094 91.15625 C 57.964844 91.15625 58.347656 91.007812 58.648438 90.707031 C 58.960938 90.410156 59.117188 90.023438 59.117188 89.554688 C 59.117188 89.074219 58.960938 88.675781 58.648438 88.363281 C 58.335938 88.050781 57.9375 87.894531 57.457031 87.894531 C 56.988281 87.894531 56.597656 88.050781 56.285156 88.363281 C 55.984375 88.675781 55.835938 89.0625 55.835938 89.515625 Z M 55.835938 89.515625 "
       id="path32" />
    <path
       style="fill-rule:nonzero;fill:rgb(100%,100%,100%);fill-opacity:1;stroke-width:1;stroke-linecap:round;stroke-linejoin:round;stroke:rgb(0%,0%,0%);stroke-opacity:1;stroke-miterlimit:10;"
       d="M 90 130.61875 L 108 130.61875 L 108 148.61875 L 90 148.61875 Z M 90 130.61875 "
       transform="matrix(1.25,0,0,1.25,-66.25,-131.25)"
       id="path34" />
    <path
       style=" stroke:none;fill-rule:nonzero;fill:rgb(0%,0%,0%);fill-opacity:1;"
       d="M 60.035156 45.882812 L 60.035156 46.839844 L 54.703125 46.839844 C 54.703125 46.605469 54.742188 46.378906 54.820312 46.15625 C 54.960938 45.792969 55.183594 45.433594 55.484375 45.082031 C 55.78125 44.730469 56.210938 44.328125 56.773438 43.871094 C 57.644531 43.144531 58.230469 42.570312 58.53125 42.152344 C 58.84375 41.738281 59 41.339844 59 40.960938 C 59 40.570312 58.855469 40.246094 58.570312 39.984375 C 58.296875 39.710938 57.9375 39.574219 57.496094 39.574219 C 57.011719 39.574219 56.628906 39.71875 56.34375 40.003906 C 56.054688 40.292969 55.914062 40.6875 55.914062 41.195312 L 54.898438 41.078125 C 54.960938 40.324219 55.222656 39.75 55.679688 39.359375 C 56.132812 38.957031 56.746094 38.753906 57.515625 38.753906 C 58.28125 38.753906 58.886719 38.96875 59.332031 39.398438 C 59.785156 39.828125 60.015625 40.355469 60.015625 40.980469 C 60.015625 41.308594 59.949219 41.625 59.820312 41.9375 C 59.6875 42.25 59.46875 42.582031 59.15625 42.933594 C 58.855469 43.273438 58.355469 43.742188 57.652344 44.339844 C 57.050781 44.835938 56.667969 45.175781 56.5 45.355469 C 56.328125 45.539062 56.191406 45.714844 56.089844 45.882812 Z M 60.035156 45.882812 "
       id="path36" />
    <path
       style="fill-rule:nonzero;fill:rgb(69.803922%,85.098039%,100%);fill-opacity:1;stroke-width:1;stroke-linecap:round;stroke-linejoin:round;stroke:rgb(0%,0%,0%);stroke-opacity:1;stroke-miterlimit:10;"
       d="M 54 130.61875 L 72 130.61875 L 72 148.61875 L 54 148.61875 Z M 54 130.61875 "
       transform="matrix(1.25,0,0,1.25,-66.25,-131.25)"
       id="path38" />
    <path
       style=" stroke:none;fill-rule:nonzero;fill:rgb(0%,0%,0%);fill-opacity:1;"
       d="M 9.839844 42.875 C 9.839844 41.925781 9.9375 41.15625 10.132812 40.570312 C 10.328125 39.984375 10.613281 39.535156 10.992188 39.222656 C 11.382812 38.910156 11.871094 38.753906 12.457031 38.753906 C 12.898438 38.753906 13.28125 38.847656 13.609375 39.027344 C 13.933594 39.199219 14.199219 39.445312 14.410156 39.769531 C 14.617188 40.097656 14.78125 40.492188 14.898438 40.960938 C 15.027344 41.429688 15.09375 42.070312 15.09375 42.875 C 15.09375 43.8125 14.996094 44.574219 14.800781 45.160156 C 14.605469 45.734375 14.3125 46.183594 13.921875 46.507812 C 13.542969 46.820312 13.054688 46.976562 12.457031 46.976562 C 11.6875 46.976562 11.082031 46.699219 10.640625 46.136719 C 10.105469 45.472656 9.839844 44.386719 9.839844 42.875 Z M 10.855469 42.875 C 10.855469 44.191406 11.003906 45.070312 11.304688 45.511719 C 11.617188 45.941406 12 46.15625 12.457031 46.15625 C 12.910156 46.15625 13.296875 45.941406 13.609375 45.511719 C 13.921875 45.070312 14.078125 44.191406 14.078125 42.875 C 14.078125 41.546875 13.921875 40.667969 13.609375 40.238281 C 13.296875 39.796875 12.910156 39.574219 12.457031 39.574219 C 12 39.574219 11.636719 39.765625 11.363281 40.140625 C 11.023438 40.636719 10.855469 41.546875 10.855469 42.875 Z M 10.855469 42.875 "
       id="path40" />
    <path
       style="fill-rule:nonzero;fill:rgb(100%,100%,100%);fill-opacity:1;stroke-width:1;stroke-linecap:round;stroke-linejoin:round;stroke:rgb(0%,0%,0%);stroke-opacity:1;stroke-miterlimit:10;"
       d="M 194.4125 157.61875 L 212.4125 157.61875 L 212.4125 175.61875 L 194.4125 175.61875 Z M 194.4125 157.61875 "
       transform="matrix(1.25,0,0,1.25,-66.25,-131.25)"
       id="path42" />
    <path
       style=" stroke:none;fill-rule:nonzero;fill:rgb(0%,0%,0%);fill-opacity:1;"
       d="M 185.417969 73.597656 L 185.417969 72.640625 L 190.632812 72.640625 L 190.632812 73.402344 C 190.125 73.949219 189.617188 74.679688 189.109375 75.589844 C 188.601562 76.488281 188.210938 77.421875 187.9375 78.382812 C 187.742188 79.046875 187.613281 79.785156 187.566406 80.589844 L 186.550781 80.589844 C 186.558594 79.953125 186.6875 79.191406 186.921875 78.304688 C 187.15625 77.40625 187.492188 76.542969 187.9375 75.707031 C 188.390625 74.875 188.863281 74.171875 189.363281 73.597656 Z M 185.417969 73.597656 "
       id="path44" />
    <path
       style="fill-rule:nonzero;fill:rgb(100%,100%,100%);fill-opacity:1;stroke-width:1;stroke-linecap:round;stroke-linejoin:round;stroke:rgb(0%,0%,0%);stroke-opacity:1;stroke-miterlimit:10;"
       d="M 212.4125 157.61875 L 230.4125 157.61875 L 230.4125 175.61875 L 212.4125 175.61875 Z M 212.4125 157.61875 "
       transform="matrix(1.25,0,0,1.25,-66.25,-131.25)"
       id="path46" />
    <path
       style=" stroke:none;fill-rule:nonzero;fill:rgb(0%,0%,0%);fill-opacity:1;"
       d="M 209.382812 76.214844 C 208.960938 76.074219 208.660156 75.863281 208.464844 75.589844 C 208.269531 75.304688 208.171875 74.964844 208.171875 74.574219 C 208.171875 73.988281 208.375 73.5 208.796875 73.109375 C 209.226562 72.707031 209.78125 72.503906 210.476562 72.503906 C 211.179688 72.503906 211.746094 72.714844 212.175781 73.128906 C 212.605469 73.535156 212.820312 74.027344 212.820312 74.613281 C 212.820312 74.980469 212.722656 75.304688 212.527344 75.589844 C 212.332031 75.863281 212.027344 76.074219 211.628906 76.214844 C 212.121094 76.386719 212.496094 76.652344 212.761719 77.015625 C 213.019531 77.367188 213.152344 77.792969 213.152344 78.285156 C 213.152344 78.976562 212.902344 79.554688 212.410156 80.023438 C 211.925781 80.492188 211.285156 80.726562 210.496094 80.726562 C 209.699219 80.726562 209.054688 80.492188 208.5625 80.023438 C 208.078125 79.554688 207.839844 78.96875 207.839844 78.265625 C 207.839844 77.746094 207.964844 77.308594 208.230469 76.957031 C 208.503906 76.59375 208.882812 76.347656 209.382812 76.214844 Z M 209.1875 74.554688 C 209.1875 74.933594 209.304688 75.246094 209.539062 75.492188 C 209.78125 75.726562 210.105469 75.84375 210.496094 75.84375 C 210.886719 75.84375 211.199219 75.726562 211.433594 75.492188 C 211.675781 75.246094 211.804688 74.945312 211.804688 74.59375 C 211.804688 74.242188 211.675781 73.945312 211.433594 73.695312 C 211.183594 73.449219 210.871094 73.324219 210.496094 73.324219 C 210.113281 73.324219 209.800781 73.449219 209.558594 73.695312 C 209.308594 73.929688 209.1875 74.21875 209.1875 74.554688 Z M 208.855469 78.265625 C 208.855469 78.554688 208.917969 78.828125 209.050781 79.085938 C 209.191406 79.347656 209.390625 79.550781 209.65625 79.691406 C 209.914062 79.835938 210.203125 79.90625 210.515625 79.90625 C 210.984375 79.90625 211.363281 79.757812 211.667969 79.457031 C 211.980469 79.160156 212.136719 78.773438 212.136719 78.304688 C 212.136719 77.824219 211.980469 77.425781 211.667969 77.113281 C 211.355469 76.800781 210.953125 76.644531 210.476562 76.644531 C 210.007812 76.644531 209.617188 76.800781 209.304688 77.113281 C 209 77.425781 208.855469 77.8125 208.855469 78.265625 Z M 208.855469 78.265625 "
       id="path48" />
    <path
       style="fill-rule:nonzero;fill:rgb(100%,100%,100%);fill-opacity:1;stroke-width:1;stroke-linecap:round;stroke-linejoin:round;stroke:rgb(0%,0%,0%);stroke-opacity:1;stroke-miterlimit:10;"
       d="M 212.4125 139.61875 L 230.4125 139.61875 L 230.4125 157.61875 L 212.4125 157.61875 Z M 212.4125 139.61875 "
       transform="matrix(1.25,0,0,1.25,-66.25,-131.25)"
       id="path50" />
    <path
       style=" stroke:none;fill-rule:nonzero;fill:rgb(0%,0%,0%);fill-opacity:1;"
       d="M 207.859375 55.980469 L 208.894531 55.882812 C 208.972656 56.390625 209.148438 56.777344 209.421875 57.035156 C 209.703125 57.285156 210.046875 57.40625 210.4375 57.40625 C 210.914062 57.40625 211.320312 57.230469 211.648438 56.878906 C 211.984375 56.515625 212.15625 56.039062 212.15625 55.453125 C 212.15625 54.882812 211.988281 54.433594 211.667969 54.105469 C 211.355469 53.78125 210.945312 53.617188 210.4375 53.617188 C 210.109375 53.617188 209.816406 53.695312 209.558594 53.851562 C 209.308594 53.996094 209.109375 54.179688 208.953125 54.398438 L 208.035156 54.28125 L 208.816406 50.140625 L 212.820312 50.140625 L 212.820312 51.097656 L 209.597656 51.097656 L 209.167969 53.246094 C 209.644531 52.921875 210.152344 52.757812 210.691406 52.757812 C 211.394531 52.757812 211.984375 53 212.46875 53.480469 C 212.945312 53.964844 213.191406 54.589844 213.191406 55.355469 C 213.191406 56.085938 212.980469 56.71875 212.566406 57.25 C 212.042969 57.902344 211.335938 58.226562 210.4375 58.226562 C 209.703125 58.226562 209.109375 58.027344 208.640625 57.621094 C 208.179688 57.207031 207.921875 56.660156 207.859375 55.980469 Z M 207.859375 55.980469 "
       id="path52" />
    <path
       style="fill-rule:nonzero;fill:rgb(69.803922%,85.098039%,100%);fill-opacity:1;stroke-width:1;stroke-linecap:round;stroke-linejoin:round;stroke:rgb(0%,0%,0%);stroke-opacity:1;stroke-miterlimit:10;"
       d="M 194.4125 139.61875 L 212.4125 139.61875 L 212.4125 157.61875 L 194.4125 157.61875 Z M 194.4125 139.61875 "
       transform="matrix(1.25,0,0,1.25,-66.25,-131.25)"
       id="path54" />
    <path
       style=" stroke:none;fill-rule:nonzero;fill:rgb(0%,0%,0%);fill-opacity:1;"
       d="M 188.523438 58.089844 L 188.523438 56.15625 L 185.027344 56.15625 L 185.027344 55.257812 L 188.699219 50.042969 L 189.519531 50.042969 L 189.519531 55.257812 L 190.613281 55.257812 L 190.613281 56.15625 L 189.519531 56.15625 L 189.519531 58.089844 Z M 188.523438 55.257812 L 188.523438 51.625 L 186.003906 55.257812 Z M 188.523438 55.257812 "
       id="path56" />
    <path
       style="fill-rule:nonzero;fill:rgb(100%,100%,100%);fill-opacity:1;stroke-width:1;stroke-linecap:round;stroke-linejoin:round;stroke:rgb(0%,0%,0%);stroke-opacity:1;stroke-miterlimit:10;"
       d="M 124.5 144 L 178.5 144 L 178.5 171 L 124.5 171 Z M 124.5 144 "
       transform="matrix(1.25,0,0,1.25,-66.25,-131.25)"
       id="path58" />
    <path
       style=" stroke:none;fill-rule:nonzero;fill:rgb(0%,0%,0%);fill-opacity:1;"
       d="M 104.40625 61.800781 L 104.40625 62.757812 L 99.074219 62.757812 C 99.074219 62.523438 99.113281 62.296875 99.191406 62.074219 C 99.332031 61.710938 99.550781 61.351562 99.855469 61 C 100.152344 60.648438 100.582031 60.246094 101.144531 59.789062 C 102.011719 59.0625 102.597656 58.488281 102.902344 58.070312 C 103.214844 57.65625 103.371094 57.257812 103.371094 56.878906 C 103.371094 56.488281 103.222656 56.164062 102.941406 55.902344 C 102.667969 55.628906 102.304688 55.492188 101.867188 55.492188 C 101.382812 55.492188 100.996094 55.636719 100.714844 55.921875 C 100.425781 56.210938 100.285156 56.605469 100.285156 57.113281 L 99.269531 56.996094 C 99.332031 56.242188 99.589844 55.667969 100.050781 55.277344 C 100.503906 54.875 101.113281 54.671875 101.886719 54.671875 C 102.652344 54.671875 103.257812 54.886719 103.703125 55.316406 C 104.15625 55.746094 104.386719 56.273438 104.386719 56.898438 C 104.386719 57.226562 104.316406 57.542969 104.191406 57.855469 C 104.058594 58.167969 103.839844 58.5 103.527344 58.851562 C 103.222656 59.191406 102.726562 59.660156 102.023438 60.257812 C 101.421875 60.753906 101.035156 61.09375 100.871094 61.273438 C 100.699219 61.457031 100.5625 61.632812 100.460938 61.800781 Z M 104.40625 61.800781 "
       id="path60" />
    <path
       style=" stroke:none;fill-rule:nonzero;fill:rgb(0%,0%,0%);fill-opacity:1;"
       d="M 108.203125 62.757812 L 110.332031 59.730469 L 108.359375 56.917969 L 109.609375 56.917969 L 110.507812 58.285156 C 110.664062 58.546875 110.789062 58.769531 110.898438 58.949219 C 111.0625 58.703125 111.214844 58.488281 111.347656 58.304688 L 112.324219 56.917969 L 113.515625 56.917969 L 111.503906 59.671875 L 113.671875 62.757812 L 112.460938 62.757812 L 111.25 60.941406 L 110.9375 60.453125 L 109.414062 62.757812 Z M 108.203125 62.757812 "
       id="path62" />
    <path
       style=" stroke:none;fill-rule:nonzero;fill:rgb(0%,0%,0%);fill-opacity:1;"
       d="M 122.539062 61.800781 L 122.539062 62.757812 L 117.207031 62.757812 C 117.207031 62.523438 117.246094 62.296875 117.324219 62.074219 C 117.464844 61.710938 117.683594 61.351562 117.988281 61 C 118.285156 60.648438 118.714844 60.246094 119.277344 59.789062 C 120.144531 59.0625 120.730469 58.488281 121.035156 58.070312 C 121.347656 57.65625 121.503906 57.257812 121.503906 56.878906 C 121.503906 56.488281 121.355469 56.164062 121.074219 55.902344 C 120.800781 55.628906 120.4375 55.492188 120 55.492188 C 119.515625 55.492188 119.128906 55.636719 118.847656 55.921875 C 118.558594 56.210938 118.417969 56.605469 118.417969 57.113281 L 117.402344 56.996094 C 117.464844 56.242188 117.722656 55.667969 118.183594 55.277344 C 118.636719 54.875 119.246094 54.671875 120.019531 54.671875 C 120.785156 54.671875 121.390625 54.886719 121.835938 55.316406 C 122.289062 55.746094 122.519531 56.273438 122.519531 56.898438 C 122.519531 57.226562 122.449219 57.542969 122.324219 57.855469 C 122.191406 58.167969 121.972656 58.5 121.660156 58.851562 C 121.355469 59.191406 120.859375 59.660156 120.15625 60.257812 C 119.554688 60.753906 119.167969 61.09375 119.003906 61.273438 C 118.832031 61.457031 118.695312 61.632812 118.59375 61.800781 Z M 122.539062 61.800781 "
       id="path64" />
    <path
       style=" stroke:none;fill-rule:nonzero;fill:rgb(0%,0%,0%);fill-opacity:1;"
       d="M 127.097656 62.757812 L 127.097656 54.710938 L 128.699219 54.710938 L 130.59375 60.414062 C 130.773438 60.9375 130.90625 61.332031 130.984375 61.605469 C 131.070312 61.308594 131.21875 60.878906 131.414062 60.316406 L 133.347656 54.710938 L 134.773438 54.710938 L 134.773438 62.757812 L 133.757812 62.757812 L 133.757812 56.019531 L 131.414062 62.757812 L 130.457031 62.757812 L 128.113281 55.902344 L 128.113281 62.757812 Z M 127.097656 62.757812 "
       id="path66" />
    <path
       style=" stroke:none;fill-rule:nonzero;fill:rgb(0%,0%,0%);fill-opacity:1;"
       d="M 140.179688 62.035156 C 139.8125 62.347656 139.460938 62.570312 139.125 62.699219 C 138.78125 62.824219 138.421875 62.894531 138.03125 62.894531 C 137.390625 62.894531 136.898438 62.738281 136.546875 62.425781 C 136.203125 62.113281 136.039062 61.710938 136.039062 61.214844 C 136.039062 60.929688 136.101562 60.667969 136.234375 60.433594 C 136.359375 60.199219 136.53125 60.011719 136.742188 59.867188 C 136.945312 59.726562 137.179688 59.613281 137.445312 59.535156 C 137.640625 59.496094 137.933594 59.453125 138.324219 59.398438 C 139.128906 59.308594 139.71875 59.191406 140.101562 59.046875 C 140.101562 58.917969 140.101562 58.832031 140.101562 58.792969 C 140.101562 58.390625 140.007812 58.109375 139.828125 57.953125 C 139.5625 57.71875 139.1875 57.601562 138.695312 57.601562 C 138.226562 57.601562 137.878906 57.6875 137.660156 57.855469 C 137.433594 58.011719 137.273438 58.300781 137.171875 58.714844 L 136.214844 58.597656 C 136.292969 58.183594 136.429688 57.851562 136.625 57.601562 C 136.828125 57.34375 137.121094 57.148438 137.503906 57.015625 C 137.894531 56.875 138.332031 56.800781 138.832031 56.800781 C 139.339844 56.800781 139.738281 56.859375 140.042969 56.976562 C 140.355469 57.09375 140.578125 57.246094 140.726562 57.425781 C 140.882812 57.597656 140.984375 57.816406 141.039062 58.089844 C 141.078125 58.261719 141.097656 58.558594 141.097656 58.988281 L 141.097656 60.316406 C 141.097656 61.230469 141.117188 61.808594 141.15625 62.054688 C 141.195312 62.304688 141.277344 62.539062 141.410156 62.757812 L 140.375 62.757812 C 140.265625 62.550781 140.203125 62.308594 140.179688 62.035156 Z M 140.101562 59.828125 C 139.734375 59.972656 139.191406 60.097656 138.480469 60.199219 C 138.074219 60.265625 137.785156 60.335938 137.621094 60.414062 C 137.449219 60.480469 137.316406 60.585938 137.230469 60.726562 C 137.136719 60.871094 137.09375 61.027344 137.09375 61.195312 C 137.09375 61.457031 137.191406 61.679688 137.386719 61.859375 C 137.582031 62.03125 137.875 62.113281 138.265625 62.113281 C 138.640625 62.113281 138.976562 62.03125 139.28125 61.859375 C 139.578125 61.691406 139.796875 61.464844 139.945312 61.175781 C 140.046875 60.957031 140.101562 60.628906 140.101562 60.199219 Z M 140.101562 59.828125 "
       id="path68" />
    <path
       style=" stroke:none;fill-rule:nonzero;fill:rgb(0%,0%,0%);fill-opacity:1;"
       d="M 141.960938 62.757812 L 144.089844 59.730469 L 142.117188 56.917969 L 143.367188 56.917969 L 144.265625 58.285156 C 144.421875 58.546875 144.550781 58.769531 144.65625 58.949219 C 144.824219 58.703125 144.976562 58.488281 145.105469 58.304688 L 146.082031 56.917969 L 147.273438 56.917969 L 145.261719 59.671875 L 147.429688 62.757812 L 146.21875 62.757812 L 145.007812 60.941406 L 144.695312 60.453125 L 143.171875 62.757812 Z M 141.960938 62.757812 "
       id="path70" />
    <path
       style=" stroke:none;fill-rule:nonzero;fill:rgb(0%,0%,0%);fill-opacity:1;"
       d="M 105.21875 75.625 L 105.21875 67.578125 L 108.265625 67.578125 C 108.796875 67.578125 109.207031 67.609375 109.496094 67.65625 C 109.886719 67.726562 110.210938 67.847656 110.472656 68.027344 C 110.746094 68.210938 110.960938 68.472656 111.117188 68.808594 C 111.285156 69.136719 111.371094 69.5 111.371094 69.902344 C 111.371094 70.59375 111.148438 71.171875 110.707031 71.640625 C 110.277344 72.109375 109.496094 72.34375 108.363281 72.34375 L 106.292969 72.34375 L 106.292969 75.625 Z M 106.292969 71.40625 L 108.382812 71.40625 C 109.058594 71.40625 109.539062 71.28125 109.828125 71.015625 C 110.125 70.757812 110.277344 70.398438 110.277344 69.941406 C 110.277344 69.605469 110.191406 69.316406 110.023438 69.082031 C 109.851562 68.835938 109.625 68.671875 109.339844 68.59375 C 109.167969 68.546875 108.835938 68.515625 108.34375 68.515625 L 106.292969 68.515625 Z M 106.292969 71.40625 "
       id="path72" />
    <path
       style=" stroke:none;fill-rule:nonzero;fill:rgb(0%,0%,0%);fill-opacity:1;"
       d="M 112.234375 72.714844 C 112.234375 71.636719 112.53125 70.835938 113.132812 70.3125 C 113.640625 69.882812 114.25 69.667969 114.96875 69.667969 C 115.773438 69.667969 116.433594 69.929688 116.941406 70.449219 C 117.449219 70.972656 117.703125 71.695312 117.703125 72.617188 C 117.703125 73.375 117.585938 73.964844 117.351562 74.394531 C 117.128906 74.824219 116.804688 75.164062 116.375 75.410156 C 115.945312 75.644531 115.476562 75.761719 114.96875 75.761719 C 114.148438 75.761719 113.484375 75.503906 112.976562 74.980469 C 112.480469 74.449219 112.234375 73.691406 112.234375 72.714844 Z M 113.25 72.714844 C 113.25 73.457031 113.410156 74.019531 113.738281 74.394531 C 114.0625 74.761719 114.472656 74.941406 114.96875 74.941406 C 115.460938 74.941406 115.871094 74.761719 116.199219 74.394531 C 116.523438 74.019531 116.6875 73.445312 116.6875 72.675781 C 116.6875 71.960938 116.523438 71.414062 116.199219 71.035156 C 115.871094 70.660156 115.460938 70.46875 114.96875 70.46875 C 114.472656 70.46875 114.0625 70.660156 113.738281 71.035156 C 113.410156 71.402344 113.25 71.960938 113.25 72.714844 Z M 113.25 72.714844 "
       id="path74" />
    <path
       style=" stroke:none;fill-rule:nonzero;fill:rgb(0%,0%,0%);fill-opacity:1;"
       d="M 118.492188 72.714844 C 118.492188 71.636719 118.789062 70.835938 119.390625 70.3125 C 119.898438 69.882812 120.507812 69.667969 121.226562 69.667969 C 122.03125 69.667969 122.691406 69.929688 123.199219 70.449219 C 123.707031 70.972656 123.960938 71.695312 123.960938 72.617188 C 123.960938 73.375 123.84375 73.964844 123.609375 74.394531 C 123.386719 74.824219 123.0625 75.164062 122.632812 75.410156 C 122.203125 75.644531 121.734375 75.761719 121.226562 75.761719 C 120.40625 75.761719 119.742188 75.503906 119.234375 74.980469 C 118.738281 74.449219 118.492188 73.691406 118.492188 72.714844 Z M 119.507812 72.714844 C 119.507812 73.457031 119.667969 74.019531 119.996094 74.394531 C 120.320312 74.761719 120.730469 74.941406 121.226562 74.941406 C 121.71875 74.941406 122.128906 74.761719 122.457031 74.394531 C 122.78125 74.019531 122.945312 73.445312 122.945312 72.675781 C 122.945312 71.960938 122.78125 71.414062 122.457031 71.035156 C 122.128906 70.660156 121.71875 70.46875 121.226562 70.46875 C 120.730469 70.46875 120.320312 70.660156 119.996094 71.035156 C 119.667969 71.402344 119.507812 71.960938 119.507812 72.714844 Z M 119.507812 72.714844 "
       id="path76" />
    <path
       style=" stroke:none;fill-rule:nonzero;fill:rgb(0%,0%,0%);fill-opacity:1;"
       d="M 125.101562 75.625 L 125.101562 67.578125 L 126.078125 67.578125 L 126.078125 75.625 Z M 125.101562 75.625 "
       id="path78" />
    <path
       style=" stroke:none;fill-rule:nonzero;fill:rgb(0%,0%,0%);fill-opacity:1;"
       d="M 127.621094 68.710938 L 127.621094 67.578125 L 128.617188 67.578125 L 128.617188 68.710938 Z M 127.621094 75.625 L 127.621094 69.785156 L 128.617188 69.785156 L 128.617188 75.625 Z M 127.621094 75.625 "
       id="path80" />
    <path
       style=" stroke:none;fill-rule:nonzero;fill:rgb(0%,0%,0%);fill-opacity:1;"
       d="M 130.121094 75.625 L 130.121094 69.785156 L 131.019531 69.785156 L 131.019531 70.625 C 131.433594 69.992188 132.054688 69.667969 132.875 69.667969 C 133.226562 69.667969 133.542969 69.734375 133.832031 69.863281 C 134.128906 69.980469 134.347656 70.148438 134.496094 70.351562 C 134.636719 70.546875 134.738281 70.789062 134.808594 71.074219 C 134.847656 71.257812 134.867188 71.578125 134.867188 72.03125 L 134.867188 75.625 L 133.871094 75.625 L 133.871094 72.070312 C 133.871094 71.671875 133.832031 71.367188 133.753906 71.171875 C 133.675781 70.976562 133.539062 70.820312 133.34375 70.703125 C 133.148438 70.578125 132.917969 70.507812 132.660156 70.507812 C 132.238281 70.507812 131.878906 70.644531 131.566406 70.917969 C 131.261719 71.179688 131.117188 71.6875 131.117188 72.441406 L 131.117188 75.625 Z M 130.121094 75.625 "
       id="path82" />
    <path
       style=" stroke:none;fill-rule:nonzero;fill:rgb(0%,0%,0%);fill-opacity:1;"
       d="M 136.203125 76.113281 L 137.160156 76.25 C 137.199219 76.546875 137.304688 76.761719 137.492188 76.894531 C 137.734375 77.074219 138.078125 77.167969 138.507812 77.167969 C 138.960938 77.167969 139.3125 77.074219 139.5625 76.894531 C 139.804688 76.710938 139.976562 76.453125 140.070312 76.132812 C 140.117188 75.921875 140.136719 75.503906 140.128906 74.863281 C 139.699219 75.371094 139.160156 75.625 138.527344 75.625 C 137.714844 75.625 137.089844 75.34375 136.652344 74.765625 C 136.222656 74.179688 136.007812 73.484375 136.007812 72.675781 C 136.007812 72.117188 136.105469 71.601562 136.300781 71.132812 C 136.503906 70.664062 136.796875 70.308594 137.179688 70.058594 C 137.554688 69.800781 138.003906 69.667969 138.527344 69.667969 C 139.214844 69.667969 139.78125 69.941406 140.226562 70.488281 L 140.226562 69.785156 L 141.144531 69.785156 L 141.144531 74.824219 C 141.144531 75.734375 141.046875 76.375 140.851562 76.757812 C 140.664062 77.132812 140.371094 77.429688 139.972656 77.65625 C 139.582031 77.875 139.09375 77.988281 138.507812 77.988281 C 137.804688 77.988281 137.238281 77.832031 136.808594 77.519531 C 136.386719 77.207031 136.1875 76.738281 136.203125 76.113281 Z M 137.023438 72.597656 C 137.023438 73.367188 137.167969 73.925781 137.472656 74.277344 C 137.769531 74.628906 138.144531 74.804688 138.605469 74.804688 C 139.058594 74.804688 139.445312 74.628906 139.757812 74.277344 C 140.070312 73.925781 140.226562 73.378906 140.226562 72.636719 C 140.226562 71.921875 140.058594 71.382812 139.738281 71.015625 C 139.425781 70.65625 139.042969 70.46875 138.605469 70.46875 C 138.160156 70.46875 137.785156 70.65625 137.472656 71.015625 C 137.167969 71.367188 137.023438 71.894531 137.023438 72.597656 Z M 137.023438 72.597656 "
       id="path84" />
    <path
       style=" stroke:none;fill-rule:nonzero;fill:rgb(0%,0%,0%);fill-opacity:1;"
       d="M 183.660156 12.765625 C 183.660156 11.4375 184.015625 10.398438 184.734375 9.640625 C 185.449219 8.875 186.375 8.488281 187.507812 8.488281 C 188.25 8.488281 188.917969 8.671875 189.519531 9.035156 C 190.117188 9.386719 190.574219 9.882812 190.886719 10.519531 C 191.199219 11.160156 191.355469 11.875 191.355469 12.667969 C 191.355469 13.488281 191.191406 14.226562 190.867188 14.875 C 190.539062 15.515625 190.070312 16.003906 189.460938 16.339844 C 188.859375 16.667969 188.210938 16.828125 187.507812 16.828125 C 186.75 16.828125 186.074219 16.648438 185.476562 16.28125 C 184.875 15.917969 184.421875 15.417969 184.109375 14.777344 C 183.808594 14.140625 183.660156 13.46875 183.660156 12.765625 Z M 184.753906 12.785156 C 184.753906 13.761719 185.011719 14.53125 185.535156 15.089844 C 186.054688 15.636719 186.710938 15.910156 187.507812 15.910156 C 188.300781 15.910156 188.957031 15.632812 189.480469 15.070312 C 190 14.511719 190.261719 13.710938 190.261719 12.667969 C 190.261719 12.019531 190.148438 11.453125 189.929688 10.96875 C 189.707031 10.476562 189.382812 10.089844 188.953125 9.816406 C 188.523438 9.542969 188.046875 9.40625 187.527344 9.40625 C 186.769531 9.40625 186.121094 9.667969 185.574219 10.1875 C 185.027344 10.710938 184.753906 11.574219 184.753906 12.785156 Z M 184.753906 12.785156 "
       id="path86" />
    <path
       style=" stroke:none;fill-rule:nonzero;fill:rgb(0%,0%,0%);fill-opacity:1;"
       d="M 196.433594 16.691406 L 196.433594 15.832031 C 195.976562 16.496094 195.359375 16.828125 194.578125 16.828125 C 194.238281 16.828125 193.921875 16.757812 193.621094 16.632812 C 193.320312 16.492188 193.09375 16.320312 192.9375 16.125 C 192.792969 15.929688 192.695312 15.691406 192.644531 15.402344 C 192.605469 15.207031 192.585938 14.894531 192.585938 14.464844 L 192.585938 10.851562 L 193.5625 10.851562 L 193.5625 14.09375 C 193.5625 14.617188 193.589844 14.960938 193.640625 15.128906 C 193.691406 15.390625 193.816406 15.597656 194.011719 15.753906 C 194.21875 15.898438 194.472656 15.96875 194.773438 15.96875 C 195.074219 15.96875 195.351562 15.898438 195.613281 15.753906 C 195.875 15.597656 196.054688 15.390625 196.160156 15.128906 C 196.265625 14.871094 196.316406 14.484375 196.316406 13.976562 L 196.316406 10.851562 L 197.3125 10.851562 L 197.3125 16.691406 Z M 196.433594 16.691406 "
       id="path88" />
    <path
       style=" stroke:none;fill-rule:nonzero;fill:rgb(0%,0%,0%);fill-opacity:1;"
       d="M 201.027344 15.8125 L 201.164062 16.671875 C 200.875 16.734375 200.625 16.769531 200.421875 16.769531 C 200.054688 16.769531 199.777344 16.710938 199.582031 16.59375 C 199.386719 16.476562 199.238281 16.328125 199.152344 16.144531 C 199.074219 15.964844 199.035156 15.578125 199.035156 14.992188 L 199.035156 11.632812 L 198.3125 11.632812 L 198.3125 10.851562 L 199.035156 10.851562 L 199.035156 9.40625 L 200.03125 8.820312 L 200.03125 10.851562 L 201.027344 10.851562 L 201.027344 11.632812 L 200.03125 11.632812 L 200.03125 15.03125 C 200.03125 15.320312 200.039062 15.5 200.070312 15.578125 C 200.109375 15.65625 200.167969 15.722656 200.246094 15.773438 C 200.324219 15.828125 200.429688 15.851562 200.578125 15.851562 C 200.695312 15.851562 200.839844 15.839844 201.027344 15.8125 Z M 201.027344 15.8125 "
       id="path90" />
    <path
       style=" stroke:none;fill-rule:nonzero;fill:rgb(0%,0%,0%);fill-opacity:1;"
       d="M 201.984375 18.917969 L 201.984375 10.851562 L 202.882812 10.851562 L 202.882812 11.613281 C 203.089844 11.316406 203.324219 11.09375 203.585938 10.949219 C 203.859375 10.808594 204.191406 10.734375 204.582031 10.734375 C 205.074219 10.734375 205.511719 10.867188 205.890625 11.125 C 206.265625 11.375 206.554688 11.730469 206.75 12.199219 C 206.945312 12.667969 207.042969 13.175781 207.042969 13.722656 C 207.042969 14.324219 206.929688 14.863281 206.710938 15.34375 C 206.5 15.828125 206.195312 16.199219 205.792969 16.457031 C 205.386719 16.699219 204.957031 16.828125 204.503906 16.828125 C 204.175781 16.828125 203.882812 16.753906 203.625 16.613281 C 203.363281 16.472656 203.148438 16.296875 202.980469 16.085938 L 202.980469 18.917969 Z M 202.882812 13.800781 C 202.882812 14.558594 203.03125 15.117188 203.332031 15.480469 C 203.644531 15.832031 204.015625 16.007812 204.445312 16.007812 C 204.875 16.007812 205.246094 15.828125 205.558594 15.460938 C 205.882812 15.085938 206.046875 14.503906 206.046875 13.722656 C 206.046875 12.980469 205.890625 12.429688 205.578125 12.0625 C 205.277344 11.6875 204.914062 11.496094 204.484375 11.496094 C 204.066406 11.496094 203.695312 11.699219 203.371094 12.101562 C 203.042969 12.492188 202.882812 13.058594 202.882812 13.800781 Z M 202.882812 13.800781 "
       id="path92" />
    <path
       style=" stroke:none;fill-rule:nonzero;fill:rgb(0%,0%,0%);fill-opacity:1;"
       d="M 212.066406 16.691406 L 212.066406 15.832031 C 211.605469 16.496094 210.992188 16.828125 210.210938 16.828125 C 209.867188 16.828125 209.550781 16.757812 209.253906 16.632812 C 208.949219 16.492188 208.726562 16.320312 208.570312 16.125 C 208.421875 15.929688 208.324219 15.691406 208.277344 15.402344 C 208.238281 15.207031 208.21875 14.894531 208.21875 14.464844 L 208.21875 10.851562 L 209.195312 10.851562 L 209.195312 14.09375 C 209.195312 14.617188 209.21875 14.960938 209.273438 15.128906 C 209.320312 15.390625 209.449219 15.597656 209.644531 15.753906 C 209.847656 15.898438 210.101562 15.96875 210.40625 15.96875 C 210.703125 15.96875 210.980469 15.898438 211.246094 15.753906 C 211.503906 15.597656 211.683594 15.390625 211.792969 15.128906 C 211.894531 14.871094 211.949219 14.484375 211.949219 13.976562 L 211.949219 10.851562 L 212.945312 10.851562 L 212.945312 16.691406 Z M 212.066406 16.691406 "
       id="path94" />
    <path
       style=" stroke:none;fill-rule:nonzero;fill:rgb(0%,0%,0%);fill-opacity:1;"
       d="M 216.65625 15.8125 L 216.792969 16.671875 C 216.507812 16.734375 216.257812 16.769531 216.050781 16.769531 C 215.6875 16.769531 215.40625 16.710938 215.210938 16.59375 C 215.015625 16.476562 214.871094 16.328125 214.78125 16.144531 C 214.703125 15.964844 214.664062 15.578125 214.664062 14.992188 L 214.664062 11.632812 L 213.941406 11.632812 L 213.941406 10.851562 L 214.664062 10.851562 L 214.664062 9.40625 L 215.660156 8.820312 L 215.660156 10.851562 L 216.65625 10.851562 L 216.65625 11.632812 L 215.660156 11.632812 L 215.660156 15.03125 C 215.660156 15.320312 215.671875 15.5 215.699219 15.578125 C 215.738281 15.65625 215.796875 15.722656 215.875 15.773438 C 215.953125 15.828125 216.0625 15.851562 216.207031 15.851562 C 216.324219 15.851562 216.472656 15.839844 216.65625 15.8125 Z M 216.65625 15.8125 "
       id="path96" />
    <path
       style=" stroke:none;fill-rule:nonzero;fill:rgb(0%,0%,0%);fill-opacity:1;"
       d="M 23.542969 16.691406 L 23.542969 8.644531 L 24.597656 8.644531 L 24.597656 16.691406 Z M 23.542969 16.691406 "
       id="path98" />
    <path
       style=" stroke:none;fill-rule:nonzero;fill:rgb(0%,0%,0%);fill-opacity:1;"
       d="M 26.355469 16.691406 L 26.355469 10.851562 L 27.253906 10.851562 L 27.253906 11.691406 C 27.671875 11.054688 28.289062 10.734375 29.109375 10.734375 C 29.460938 10.734375 29.78125 10.800781 30.066406 10.929688 C 30.367188 11.046875 30.585938 11.210938 30.730469 11.417969 C 30.875 11.613281 30.976562 11.855469 31.042969 12.140625 C 31.082031 12.324219 31.101562 12.644531 31.101562 13.097656 L 31.101562 16.691406 L 30.105469 16.691406 L 30.105469 13.136719 C 30.105469 12.734375 30.066406 12.433594 29.988281 12.238281 C 29.910156 12.042969 29.773438 11.886719 29.578125 11.769531 C 29.382812 11.640625 29.15625 11.574219 28.894531 11.574219 C 28.476562 11.574219 28.113281 11.710938 27.800781 11.984375 C 27.5 12.246094 27.351562 12.753906 27.351562 13.507812 L 27.351562 16.691406 Z M 26.355469 16.691406 "
       id="path100" />
    <path
       style=" stroke:none;fill-rule:nonzero;fill:rgb(0%,0%,0%);fill-opacity:1;"
       d="M 32.609375 18.917969 L 32.609375 10.851562 L 33.507812 10.851562 L 33.507812 11.613281 C 33.714844 11.316406 33.949219 11.09375 34.210938 10.949219 C 34.484375 10.808594 34.816406 10.734375 35.207031 10.734375 C 35.699219 10.734375 36.136719 10.867188 36.515625 11.125 C 36.890625 11.375 37.179688 11.730469 37.375 12.199219 C 37.570312 12.667969 37.667969 13.175781 37.667969 13.722656 C 37.667969 14.324219 37.554688 14.863281 37.335938 15.34375 C 37.125 15.828125 36.820312 16.199219 36.417969 16.457031 C 36.011719 16.699219 35.582031 16.828125 35.128906 16.828125 C 34.800781 16.828125 34.507812 16.753906 34.25 16.613281 C 33.988281 16.472656 33.773438 16.296875 33.605469 16.085938 L 33.605469 18.917969 Z M 33.507812 13.800781 C 33.507812 14.558594 33.65625 15.117188 33.957031 15.480469 C 34.269531 15.832031 34.640625 16.007812 35.070312 16.007812 C 35.5 16.007812 35.871094 15.828125 36.183594 15.460938 C 36.507812 15.085938 36.671875 14.503906 36.671875 13.722656 C 36.671875 12.980469 36.515625 12.429688 36.203125 12.0625 C 35.902344 11.6875 35.539062 11.496094 35.109375 11.496094 C 34.691406 11.496094 34.320312 11.699219 33.996094 12.101562 C 33.667969 12.492188 33.507812 13.058594 33.507812 13.800781 Z M 33.507812 13.800781 "
       id="path102" />
    <path
       style=" stroke:none;fill-rule:nonzero;fill:rgb(0%,0%,0%);fill-opacity:1;"
       d="M 42.691406 16.691406 L 42.691406 15.832031 C 42.230469 16.496094 41.617188 16.828125 40.835938 16.828125 C 40.492188 16.828125 40.175781 16.757812 39.878906 16.632812 C 39.574219 16.492188 39.351562 16.320312 39.195312 16.125 C 39.046875 15.929688 38.949219 15.691406 38.902344 15.402344 C 38.863281 15.207031 38.84375 14.894531 38.84375 14.464844 L 38.84375 10.851562 L 39.820312 10.851562 L 39.820312 14.09375 C 39.820312 14.617188 39.84375 14.960938 39.898438 15.128906 C 39.945312 15.390625 40.074219 15.597656 40.269531 15.753906 C 40.472656 15.898438 40.726562 15.96875 41.03125 15.96875 C 41.328125 15.96875 41.605469 15.898438 41.871094 15.753906 C 42.128906 15.597656 42.308594 15.390625 42.417969 15.128906 C 42.519531 14.871094 42.574219 14.484375 42.574219 13.976562 L 42.574219 10.851562 L 43.570312 10.851562 L 43.570312 16.691406 Z M 42.691406 16.691406 "
       id="path104" />
    <path
       style=" stroke:none;fill-rule:nonzero;fill:rgb(0%,0%,0%);fill-opacity:1;"
       d="M 47.28125 15.8125 L 47.417969 16.671875 C 47.132812 16.734375 46.882812 16.769531 46.675781 16.769531 C 46.3125 16.769531 46.03125 16.710938 45.835938 16.59375 C 45.640625 16.476562 45.496094 16.328125 45.40625 16.144531 C 45.328125 15.964844 45.289062 15.578125 45.289062 14.992188 L 45.289062 11.632812 L 44.566406 11.632812 L 44.566406 10.851562 L 45.289062 10.851562 L 45.289062 9.40625 L 46.285156 8.820312 L 46.285156 10.851562 L 47.28125 10.851562 L 47.28125 11.632812 L 46.285156 11.632812 L 46.285156 15.03125 C 46.285156 15.320312 46.296875 15.5 46.324219 15.578125 C 46.363281 15.65625 46.421875 15.722656 46.5 15.773438 C 46.578125 15.828125 46.6875 15.851562 46.832031 15.851562 C 46.949219 15.851562 47.097656 15.839844 47.28125 15.8125 Z M 47.28125 15.8125 "
       id="path106" />
  </g>
</svg>
